<svg id="그룹_3275" data-name="그룹 3275" xmlns="http://www.w3.org/2000/svg" xmlns:xlink="http://www.w3.org/1999/xlink" width="81.771" height="50.431" viewBox="0 0 81.771 50.431">
  <defs>
    <clipPath id="clip-path">
      <rect id="사각형_4332" data-name="사각형 4332" width="81.771" height="50.431" fill="none"/>
    </clipPath>
    <clipPath id="clip-path-3">
      <rect id="사각형_4328" data-name="사각형 4328" width="4.903" height="9.52" fill="none"/>
    </clipPath>
    <clipPath id="clip-path-4">
      <rect id="사각형_4329" data-name="사각형 4329" width="2.995" height="12.212" fill="none"/>
    </clipPath>
    <clipPath id="clip-path-5">
      <rect id="사각형_4330" data-name="사각형 4330" width="5.23" height="8.958" fill="none"/>
    </clipPath>
  </defs>
  <g id="그룹_3274" data-name="그룹 3274" clip-path="url(#clip-path)">
    <g id="그룹_3273" data-name="그룹 3273">
      <g id="그룹_3272" data-name="그룹 3272" clip-path="url(#clip-path)">
        <path id="패스_6867" data-name="패스 6867" d="M153.627,48.986l-.295,3.5-.735,8.7H139.376s3.408-10.279,3.408-10.4,10.843-1.8,10.843-1.8" transform="translate(-104.336 -36.671)" fill="#fff"/>
        <path id="패스_6868" data-name="패스 6868" d="M53.661,52.01l3.184,8.072h4.727Z" transform="translate(-40.17 -38.935)" fill="#3a4668"/>
        <path id="패스_6869" data-name="패스 6869" d="M197.006,26.915a11.813,11.813,0,0,1-7.4,10.96l-.371-3.2-2.258-19.44a12.1,12.1,0,0,1,1.558.345.01.01,0,0,1,.006,0,11.818,11.818,0,0,1,8.464,11.334" transform="translate(-139.969 -11.403)" fill="#ebeded"/>
        <path id="패스_6870" data-name="패스 6870" d="M193.356,28.409a11.738,11.738,0,0,1-4.121,6.262l-2.258-19.44a12.106,12.106,0,0,1,1.558.345.01.01,0,0,1,.006,0,11.82,11.82,0,0,1,4.815,12.829" transform="translate(-139.969 -11.403)" fill="#fff"/>
        <path id="패스_6871" data-name="패스 6871" d="M73.433,55.8v.063a12.569,12.569,0,0,1-.779,4.371H64.912l-.028-.035-2.36-3.1L59.8,53.51l-6.139-8.074a12.494,12.494,0,0,1,5.515-2.1,11.883,11.883,0,0,1,1.622-.108,12.508,12.508,0,0,1,1.429.082A12.634,12.634,0,0,1,73.433,55.8" transform="translate(-40.17 -32.36)" fill="#fff"/>
        <path id="패스_6872" data-name="패스 6872" d="M89.854,55.8v.063a12.569,12.569,0,0,1-.779,4.371H83.395l-.729-1.581-.982-2.129L76.407,45.094,75.6,43.336a11.883,11.883,0,0,1,1.622-.108,12.508,12.508,0,0,1,1.429.082A12.634,12.634,0,0,1,89.854,55.8" transform="translate(-56.591 -32.36)" fill="#ebeded"/>
        <path id="패스_6873" data-name="패스 6873" d="M102.381,41.342a17.586,17.586,0,0,1-.529,4.292h-12.2l-1.552-3.364-.982-2.129L81.836,28.71l-1.98-4.289a17.62,17.62,0,0,1,21.131,10.041c.13.3.247.608.358.919a17.448,17.448,0,0,1,1.033,5.819c0,.048,0,.1,0,.143" transform="translate(-59.78 -17.76)" fill="#fff"/>
        <path id="패스_6874" data-name="패스 6874" d="M126.6,36.466a23.8,23.8,0,0,0-8.407,9.452l-4.6-20.745a17.622,17.622,0,0,1,12.648,10.374c.13.3.247.608.358.919" transform="translate(-85.038 -18.845)" fill="#ebeded"/>
        <path id="패스_6875" data-name="패스 6875" d="M253.076,53.607a14.63,14.63,0,0,0-4.973.141L247.19,59.2l3.75-1.208Z" transform="translate(-185.044 -40.017)" fill="#fff"/>
        <path id="패스_6876" data-name="패스 6876" d="M264.243,54.059l-.152,4.608-1.983-.225.281-3.456Z" transform="translate(-196.212 -40.468)" fill="#3a4668"/>
        <path id="패스_6877" data-name="패스 6877" d="M197.467,38.39,191.9,44.773l-4.074,4.672-.209.241-.393.45-1.476,1.691-1.3,1.489-2.569,2.946h-5.372c-.035-.428-.051-.859-.051-1.3A17.041,17.041,0,0,1,197.467,38.39" transform="translate(-132.094 -28.387)" fill="#fff"/>
        <rect id="사각형_4316" data-name="사각형 4316" width="7.962" height="6.726" transform="translate(14.392 21.148)" fill="#f97b3d"/>
        <rect id="사각형_4317" data-name="사각형 4317" width="1.953" height="5.542" transform="translate(12.438 22.332)" fill="#ea6334"/>
        <rect id="사각형_4318" data-name="사각형 4318" width="1.513" height="3.87" transform="translate(10.925 24.004)" fill="#f97b3d"/>
        <path id="패스_6878" data-name="패스 6878" d="M137.442,12.315a.009.009,0,0,0-.006,0A23.787,23.787,0,0,0,123.191,24.51l-.839-3.791L117.755,0a23.719,23.719,0,0,1,19.687,12.316" transform="translate(-88.15 0.001)" fill="#fff"/>
        <path id="패스_6879" data-name="패스 6879" d="M115.652,90.083v4.435h-3.025V89.026Z" transform="translate(-84.311 -66.644)" fill="#ea6334"/>
        <path id="패스_6880" data-name="패스 6880" d="M91.274,85.353l-2.36-1.235v6.726h2.36Z" transform="translate(-66.56 -62.971)" fill="#ea6334"/>
        <path id="패스_6881" data-name="패스 6881" d="M222.53,39.784l-2.58,9.973-10.013,1.537Z" transform="translate(-157.157 -29.782)" fill="#3a4668"/>
        <path id="패스_6882" data-name="패스 6882" d="M222.106,73.648H216.29l-2.9-12.5a16.622,16.622,0,0,1,8.5,2.084Z" transform="translate(-159.738 -45.773)" fill="#fff"/>
        <path id="패스_6883" data-name="패스 6883" d="M258.435,60.261l-3.567,12.724h-7.457l-.222-10.418s1.536-2.306,11.245-2.306" transform="translate(-185.044 -45.111)" fill="#fff"/>
        <path id="패스_6884" data-name="패스 6884" d="M259.1,60.261l-3.567,12.724h-7.456s1.479-4.5,11.023-12.724" transform="translate(-185.705 -45.111)" fill="#3a4668"/>
        <path id="패스_6885" data-name="패스 6885" d="M230.755,79.853h-5.816a12.68,12.68,0,0,1,5.594-10.418Z" transform="translate(-168.388 -51.978)" fill="#ebeded"/>
        <path id="패스_6886" data-name="패스 6886" d="M79.856,26.5,85.914,43.1h2.181Z" transform="translate(-59.779 -19.835)" fill="#3a4668"/>
        <rect id="사각형_4319" data-name="사각형 4319" width="3.602" height="5.493" transform="translate(24.714 22.382)" fill="#f97b3d"/>
        <path id="패스_6887" data-name="패스 6887" d="M117.755,0l8.473,23.437-3.275,0Z" transform="translate(-88.151 0)" fill="#3a4668"/>
        <path id="패스_6888" data-name="패스 6888" d="M190.011,60.321H179.593s0-.073.019-.212A25.892,25.892,0,0,1,183.7,49.05a.4.4,0,0,1,.032-.051s0,0,0-.006v0l0,0s6.028.019,6.278,11.334" transform="translate(-134.442 -36.671)" fill="#fff"/>
        <path id="패스_6889" data-name="패스 6889" d="M202.339,60.321h-1.783c-.507-10.922-4.495-11.334-4.495-11.334s6.028.019,6.278,11.334" transform="translate(-146.77 -36.671)" fill="#ebeded"/>
        <path id="패스_6890" data-name="패스 6890" d="M155.274,49.024a22.059,22.059,0,0,0-11.191,11.112l0,0h-2.474a23.8,23.8,0,0,1,13.668-11.115" transform="translate(-106.005 -36.699)" fill="#ebeded"/>
        <path id="패스_6891" data-name="패스 6891" d="M183.7,49.238a59.062,59.062,0,0,0-2.091,11.27h-2.011s0-.073.019-.212A25.9,25.9,0,0,1,183.7,49.238" transform="translate(-134.443 -36.859)" fill="#ebeded"/>
        <rect id="사각형_4320" data-name="사각형 4320" width="23.703" height="4.435" transform="translate(31.341 23.44)" fill="#f97b3d"/>
        <rect id="사각형_4321" data-name="사각형 4321" width="2.128" height="2.746" transform="translate(33.159 25.128)" fill="#3a4668"/>
        <rect id="사각형_4322" data-name="사각형 4322" width="2.128" height="2.746" transform="translate(36.986 25.128)" fill="#3a4668"/>
        <rect id="사각형_4323" data-name="사각형 4323" width="2.128" height="2.746" transform="translate(40.814 25.128)" fill="#3a4668"/>
        <rect id="사각형_4324" data-name="사각형 4324" width="2.128" height="2.746" transform="translate(44.641 25.128)" fill="#3a4668"/>
        <rect id="사각형_4325" data-name="사각형 4325" width="2.128" height="2.746" transform="translate(48.468 25.128)" fill="#3a4668"/>
        <rect id="사각형_4326" data-name="사각형 4326" width="2.128" height="2.746" transform="translate(52.295 25.128)" fill="#3a4668"/>
        <path id="패스_6892" data-name="패스 6892" d="M223.585,97.664h-4.639V93.228l4.639,1.855Z" transform="translate(-163.902 -69.79)" fill="#ea6334"/>
        <path id="패스_6893" data-name="패스 6893" d="M154.655,89.178c-.019-.026.687-1.363.687-1.363h5.011l-.186,1.363Z" transform="translate(-115.773 -65.738)" fill="#3a4668"/>
        <path id="패스_6894" data-name="패스 6894" d="M192.786,89.178V87.815h4.055l.11,1.361Z" transform="translate(-144.318 -65.738)" fill="#3a4668"/>
        <rect id="사각형_4327" data-name="사각형 4327" width="15.833" height="2.581" transform="translate(59.684 25.293)" fill="#f97b3d"/>
        <path id="패스_6895" data-name="패스 6895" d="M300.374,100.607v2.581h6.255Z" transform="translate(-224.858 -75.314)" fill="#ea6334"/>
        <path id="패스_6896" data-name="패스 6896" d="M159.741,143.09a10.2,10.2,0,0,1,3.649,2.767,9.531,9.531,0,0,1-8.168-3.513,10.2,10.2,0,0,1,4.519.745" transform="translate(-116.198 -106.542)" fill="#337d6e"/>
        <path id="패스_6897" data-name="패스 6897" d="M159.714,143.024a10.2,10.2,0,0,1,3.649,2.767,9.531,9.531,0,0,1-8.168-3.513,10.2,10.2,0,0,1,4.519.745" transform="translate(-116.178 -106.492)" fill="#337d6e"/>
        <path id="패스_6898" data-name="패스 6898" d="M158.62,156.843a10.2,10.2,0,0,1,4.537-.624,9.53,9.53,0,0,1-8.26,3.292,10.2,10.2,0,0,1,3.722-2.668" transform="translate(-115.955 -116.913)" fill="#337d6e"/>
        <path id="패스_6899" data-name="패스 6899" d="M158.554,156.815a10.2,10.2,0,0,1,4.537-.624,9.53,9.53,0,0,1-8.26,3.292,10.2,10.2,0,0,1,3.722-2.668" transform="translate(-115.906 -116.892)" fill="#337d6e"/>
        <path id="패스_6900" data-name="패스 6900" d="M177.1,127.252a10.2,10.2,0,0,1,.624,4.537,9.53,9.53,0,0,1-3.292-8.26,10.2,10.2,0,0,1,2.668,3.722" transform="translate(-130.55 -92.474)" fill="#337d6e"/>
        <path id="패스_6901" data-name="패스 6901" d="M177.133,127.186a10.2,10.2,0,0,1,.624,4.537,9.53,9.53,0,0,1-3.292-8.26,10.2,10.2,0,0,1,2.668,3.722" transform="translate(-130.571 -92.424)" fill="#337d6e"/>
        <path id="패스_6902" data-name="패스 6902" d="M252.464,82.743a10.2,10.2,0,0,1-3.922,2.366,9.531,9.531,0,0,1,6.287-6.287,10.2,10.2,0,0,1-2.365,3.922" transform="translate(-186.057 -59.005)" fill="#337d6e"/>
        <path id="패스_6903" data-name="패스 6903" d="M252.536,82.743a10.2,10.2,0,0,1-3.922,2.366,9.531,9.531,0,0,1,6.287-6.287,10.2,10.2,0,0,1-2.366,3.922" transform="translate(-186.11 -59.005)" fill="#337d6e"/>
        <path id="패스_6904" data-name="패스 6904" d="M246.387,72.96a10.2,10.2,0,0,1-1.1,4.446,9.53,9.53,0,0,1,0-8.891,10.2,10.2,0,0,1,1.1,4.446" transform="translate(-182.796 -51.289)" fill="#337d6e"/>
        <path id="패스_6905" data-name="패스 6905" d="M246.438,72.909a10.2,10.2,0,0,1-1.1,4.446,9.53,9.53,0,0,1,0-8.891,10.2,10.2,0,0,1,1.1,4.446" transform="translate(-182.834 -51.251)" fill="#337d6e"/>
        <path id="패스_6906" data-name="패스 6906" d="M253.009,101.6a10.2,10.2,0,0,1-4.446-1.1,9.53,9.53,0,0,1,8.891,0,10.2,10.2,0,0,1-4.446,1.1" transform="translate(-186.072 -74.412)" fill="#337d6e"/>
        <path id="패스_6907" data-name="패스 6907" d="M253.06,101.653a10.2,10.2,0,0,1-4.446-1.1,9.53,9.53,0,0,1,8.891,0,10.2,10.2,0,0,1-4.446,1.1" transform="translate(-186.11 -74.449)" fill="#337d6e"/>
        <path id="패스_6908" data-name="패스 6908" d="M215.772,84.845c.76,1.894,1.522,3.791,2.1,5.748a32.715,32.715,0,0,1,.8,3.317A16.425,16.425,0,0,1,219,97.978a18.046,18.046,0,0,1-.8,3.921,51.1,51.1,0,0,1-1.724,4.894c1.741-.509,3.61.29,5.41.065a34.085,34.085,0,0,0,2.33-18.968,18.857,18.857,0,0,0-1.744-5.666c-1.236-2.373-3.188-4.338-4.256-6.791.082.188-2.5.791-2.732.82-.691.084-1.456.024-1.935.63-.988,1.249.393,3.411.868,4.594l1.352,3.367" transform="translate(-159.603 -56.469)" fill="#775e49"/>
        <path id="패스_6909" data-name="패스 6909" d="M192.471,129.83a12.331,12.331,0,0,1-.471,2.582,5.6,5.6,0,0,1-4.8,4.314c-.174.033-.347.056-.521.078a9.339,9.339,0,0,1-1.121.062,6.63,6.63,0,0,1-4.728-1.793,7.658,7.658,0,0,1-1.664-6.163,21.381,21.381,0,0,1,2.247-7.032c.347-.717.695-1.893,1.417-2.319a7.184,7.184,0,0,1,3.238-.723,8.68,8.68,0,0,1,2.292.711,6.417,6.417,0,0,1,2.314.975,3.97,3.97,0,0,1,.986,1.838c.1.331.2.667.28,1a20.093,20.093,0,0,1,.487,2.824c.017.151.028.3.039.454a20.2,20.2,0,0,1,.006,3.188" transform="translate(-134.074 -88.957)" fill="#cbcbd3"/>
        <path id="패스_6910" data-name="패스 6910" d="M184.8,90.121a2.738,2.738,0,1,1-2.706-3.154,2.956,2.956,0,0,1,2.706,3.154" transform="translate(-134.288 -65.103)" fill="#cbcbd3"/>
        <path id="패스_6911" data-name="패스 6911" d="M186.132,95.958c-.731,0-1.349-.823-1.349-1.8s.618-1.8,1.349-1.8,1.35.823,1.35,1.8-.618,1.8-1.35,1.8" transform="translate(-138.327 -69.142)" fill="#b6b6bf"/>
        <path id="패스_6912" data-name="패스 6912" d="M216.135,90.121a2.738,2.738,0,1,0,2.706-3.154,2.956,2.956,0,0,0-2.706,3.154" transform="translate(-161.797 -65.103)" fill="#cbcbd3"/>
        <path id="패스_6913" data-name="패스 6913" d="M222.88,95.958c.731,0,1.35-.823,1.35-1.8s-.618-1.8-1.35-1.8-1.349.823-1.349,1.8.618,1.8,1.349,1.8" transform="translate(-165.836 -69.142)" fill="#b6b6bf"/>
        <path id="패스_6914" data-name="패스 6914" d="M194.049,100.382h-1.076a4.5,4.5,0,0,1-4.5-4.5v-1.6a4.5,4.5,0,0,1,4.5-4.5h1.076a4.5,4.5,0,0,1,4.5,4.5v1.6a4.5,4.5,0,0,1-4.5,4.5" transform="translate(-141.086 -67.202)" fill="#cbcbd3"/>
        <path id="패스_6915" data-name="패스 6915" d="M205.219,110.828h-.4a.9.9,0,0,1-.975-.9l.2-2.018a1.006,1.006,0,0,1,1.951,0l.2,2.018a.9.9,0,0,1-.975.9" transform="translate(-152.596 -80.213)" fill="#cbcbd3"/>
        <path id="패스_6916" data-name="패스 6916" d="M197.289,106.421a.9.9,0,1,1,.9-.9.9.9,0,0,1-.9.9" transform="translate(-147.013 -78.315)" fill="#cbcbd3"/>
        <path id="패스_6917" data-name="패스 6917" d="M199.086,106.865a.451.451,0,1,1-.451-.451.45.45,0,0,1,.451.451" transform="translate(-148.36 -79.661)" fill="#4c453f"/>
        <path id="패스_6918" data-name="패스 6918" d="M214.383,106.421a.9.9,0,1,0-.9-.9.9.9,0,0,0,.9.9" transform="translate(-159.809 -78.315)" fill="#cbcbd3"/>
        <path id="패스_6919" data-name="패스 6919" d="M215.279,106.865a.451.451,0,1,0,.451-.451.45.45,0,0,0-.451.451" transform="translate(-161.156 -79.661)" fill="#4c453f"/>
        <path id="패스_6920" data-name="패스 6920" d="M205.219,108.9h-.4a.9.9,0,0,1-.975-.9l.2-2.018a1.006,1.006,0,0,1,1.951,0l.2,2.018a.9.9,0,0,1-.975.9" transform="translate(-152.596 -78.768)" fill="#4c453f"/>
        <path id="패스_6921" data-name="패스 6921" d="M202.609,151.732a12.332,12.332,0,0,1-.471,2.582,16.264,16.264,0,0,1-3.468,1.418,8.8,8.8,0,0,1-2.045.4,10.7,10.7,0,0,1-2.908-.4c-.521-.118-1.121-.089-1.07-.728a4.805,4.805,0,0,1,.745-1.754,10.646,10.646,0,0,1,1.58-2.185,9.268,9.268,0,0,1,3.8-2.308,14.673,14.673,0,0,1,3.787-.661,20.283,20.283,0,0,1,.045,3.642" transform="translate(-144.212 -110.859)" fill="#b6b6bf"/>
        <path id="패스_6922" data-name="패스 6922" d="M195.454,152.636a9.634,9.634,0,0,1,2.459-.974,4.717,4.717,0,0,1,2.68.124,2.536,2.536,0,0,1,1.517,1.607,3.488,3.488,0,0,1-.111,2.032,8.145,8.145,0,0,1-2.366,3.549,16.905,16.905,0,0,1,1.645-.4c.574-.11,1.366-.105,1.513.307.121.341-.329.651-.728.866a12.308,12.308,0,0,1-3.649,1.474,12.5,12.5,0,0,1-4.065-.124c-1.067-.163-2.124-.352-3.182-.541-4.3-.768.1-5.045,1.728-6.292a18.483,18.483,0,0,1,2.56-1.628" transform="translate(-141.735 -113.433)" fill="#cbcbd3"/>
        <path id="패스_6923" data-name="패스 6923" d="M207.374,140.136c-1.233.308-2.487.493-3.726.751a8.922,8.922,0,0,0-1.434.4A6.409,6.409,0,0,0,200,142.83c-.157.162-.3.336-.448.51-.09.107-.286.482-.415.527-.269.084-.011-.308.034-.381a6.43,6.43,0,0,1,.4-.544,10.433,10.433,0,0,0,.958-1.266,6.05,6.05,0,0,0,.583-1.877,2.543,2.543,0,0,1,.269-.863,2.325,2.325,0,0,1,1.031-.784,13.173,13.173,0,0,1,4.437-1.294,20.1,20.1,0,0,1,.487,2.824c.017.151.028.3.039.454" transform="translate(-148.983 -102.451)" fill="#b6b6bf"/>
        <path id="패스_6924" data-name="패스 6924" d="M196.922,139.029a4.469,4.469,0,0,0,1.761.255,1.5,1.5,0,0,0,1.109-.352,1.469,1.469,0,0,0,.28-.557,1.527,1.527,0,0,0-.014-1.293,1.666,1.666,0,0,0-1.148-.558l-1.91-.362c-.431-.081-1.214-.327-1.633-.106-.349.185-.214.7-.134,1a2.938,2.938,0,0,0,1.689,1.969" transform="translate(-146.079 -101.783)" fill="#b6b6bf"/>
        <path id="패스_6925" data-name="패스 6925" d="M205.407,120.066a15.807,15.807,0,0,1-6.8.672c-1.016-.123-2.21-.287-2.915.455a1.966,1.966,0,0,0,.16,2.579,4.189,4.189,0,0,0,2.548,1.13,9.208,9.208,0,0,0,6.988-1.786,5.2,5.2,0,0,1,2.16-1.351c.291-.051.592-.035.882-.095a1.774,1.774,0,0,0,1.365-1.461,1.057,1.057,0,0,0-.042-.514,1.088,1.088,0,0,0-.925-.611,5.906,5.906,0,0,0-1.162.073c-.316.027-.741-.074-.748-.39-.007-.284.337-.621.106-.785a.342.342,0,0,0-.34.023,1.717,1.717,0,0,0-.9,1.136,1.566,1.566,0,0,1-.175.572Z" transform="translate(-146.182 -88.292)" fill="#cbcbd3"/>
        <path id="패스_6926" data-name="패스 6926" d="M202.659,182.538c-.174.034-.347.056-.521.078a9.344,9.344,0,0,1-1.121.062,5.851,5.851,0,0,1-.655-.829,3.047,3.047,0,0,1-.605-1.563c.034-.415.4-.252.644-.033.381.353.678.818,1.042,1.188a14.123,14.123,0,0,0,1.216,1.1" transform="translate(-149.534 -134.768)" fill="#b6b6bf"/>
        <path id="패스_6927" data-name="패스 6927" d="M3.569,8.858a2.947,2.947,0,0,1-.382,1.334.927.927,0,0,1-.241.23,1.578,1.578,0,0,1-.923.241A1.85,1.85,0,0,1,.7,9.892,3.481,3.481,0,0,1,.109,8.433,6.289,6.289,0,0,1,.176,5.784a.1.1,0,0,1,.006-.027A7.476,7.476,0,0,1,2.793,7.11a2.3,2.3,0,0,1,.579.6,1.921,1.921,0,0,1,.2,1.147" transform="translate(0.001 -4.31)" fill="#d1995d"/>
        <path id="패스_6928" data-name="패스 6928" d="M2.948,10.5a1.58,1.58,0,0,1-.923.241A1.851,1.851,0,0,1,.7,9.973,3.484,3.484,0,0,1,.109,8.514,6.293,6.293,0,0,1,.177,5.865c.132.165.246.33.333.444q.471.617.936,1.234a6.477,6.477,0,0,1,1.488,2.841c.006.038.011.078.014.119" transform="translate(0 -4.39)" fill="#9e6e43"/>
        <path id="패스_6929" data-name="패스 6929" d="M19.386,8.858a2.947,2.947,0,0,0,.382,1.334.927.927,0,0,0,.241.23,1.579,1.579,0,0,0,.923.241,1.849,1.849,0,0,0,1.328-.771,3.481,3.481,0,0,0,.587-1.458,6.289,6.289,0,0,0-.068-2.649.1.1,0,0,0-.006-.027A7.476,7.476,0,0,0,20.163,7.11a2.3,2.3,0,0,0-.579.6,1.921,1.921,0,0,0-.2,1.147" transform="translate(-14.503 -4.31)" fill="#d1995d"/>
        <path id="패스_6930" data-name="패스 6930" d="M21.9,10.5a1.58,1.58,0,0,0,.923.241,1.851,1.851,0,0,0,1.329-.771,3.484,3.484,0,0,0,.587-1.458,6.293,6.293,0,0,0-.068-2.649c-.132.165-.246.33-.333.444q-.471.617-.936,1.234a6.477,6.477,0,0,0-1.488,2.841c-.006.038-.011.078-.014.119" transform="translate(-16.393 -4.39)" fill="#9e6e43"/>
        <path id="패스_6931" data-name="패스 6931" d="M48.873,123.807c.649,2.1,1.806,4.056,2.092,6.235a8.087,8.087,0,0,1-.664,4.4,2.286,2.286,0,0,0,1.54-.254,2.227,2.227,0,0,0,.676-1.557,38.99,38.99,0,0,0,.092-9.994,9.642,9.642,0,0,0-.473-2.236c-.319-.853-2.46-4.018-3.549-2.86-.548.583-.342,2.182-.307,2.9a13.7,13.7,0,0,0,.593,3.373" transform="translate(-36.092 -87.8)" fill="#9e6e43"/>
        <path id="패스_6932" data-name="패스 6932" d="M7.166,18.021a12.058,12.058,0,0,0-1.613,1.721,3.273,3.273,0,0,0-.283,2.67,21.25,21.25,0,0,0,1.04,2.534,5.334,5.334,0,0,0,.443.943,1.409,1.409,0,0,0,1.854.546,3.5,3.5,0,0,0,1-1.392c.217-.4.466-.774.667-1.184a4.532,4.532,0,0,0,.181-3.719,5.268,5.268,0,0,0-.663-1.058,3.811,3.811,0,0,0-.818-.837,1.386,1.386,0,0,0-1.055-.261Z" transform="translate(-3.831 -13.445)" fill="#d1995d"/>
        <path id="패스_6933" data-name="패스 6933" d="M86.88,109.564c.307.988.346,2.037.553,3.051a9.528,9.528,0,0,0,5.958,6.914,16.137,16.137,0,0,0,5.061.771c2.658.08,5.317-.023,7.974-.126a.351.351,0,0,0,.214-.056c.153-.124.009-.368-.145-.492a6.212,6.212,0,0,0-2.955-1.047,51.946,51.946,0,0,0-5.522-.615,6.029,6.029,0,0,1-2.447-.455,5.065,5.065,0,0,1-1.734-1.727,10.624,10.624,0,0,1-1.614-3.181,15.353,15.353,0,0,1-.369-3.509c-.115-3.025-.508-6.168-2.161-8.7a1.359,1.359,0,0,0-.913-.726c-.6-.052-.989.613-1.212,1.176q-1,2.514-1.883,5.071c-.237.685-.565,1.178-.05,1.755a4.906,4.906,0,0,1,1.243,1.9" transform="translate(-63.902 -74.604)" fill="#d1995d"/>
        <path id="패스_6934" data-name="패스 6934" d="M4.7,63.54a9.712,9.712,0,0,0,1.821,5.72,7.5,7.5,0,0,1,.921,1.38,5.4,5.4,0,0,1,.324,1.246,54.664,54.664,0,0,1,.674,5.627A7.338,7.338,0,0,0,8.568,78.6a5.168,5.168,0,0,0,.487,1.253,11.105,11.105,0,0,0,.769,1.271,1.275,1.275,0,0,0,.492.477.441.441,0,0,0,.579-.191.718.718,0,0,0,.039-.313,9.159,9.159,0,0,0-.374-1.87A35.824,35.824,0,0,1,9.8,73.513c-.137-1.607-.3-3.21-.472-4.814q-.357-3.414-.713-6.827a3.5,3.5,0,0,0-.227-1.07,3.391,3.391,0,0,0-1.365-1.343c-.543-.337-.851-.211-1.229.3A6.467,6.467,0,0,0,4.7,63.54" transform="translate(-3.521 -44.369)" fill="#9e6e43"/>
        <path id="패스_6935" data-name="패스 6935" d="M28.494,61.651a6.9,6.9,0,0,1-6.989.379l-.133-.073a13.366,13.366,0,0,1-2.04-1.515c-.2-.17-.406-.344-.609-.517q-1.226-1.031-2.435-2.084c-.514-.447-1.023-.9-1.526-1.353-.3-.271-.6-.547-.9-.823-.611-.571-1.215-1.153-1.8-1.745-.511-.517-1.012-1.042-1.5-1.58A14.21,14.21,0,0,1,7.5,47.72c-.841-2.362-.576-4.911-.463-7.363.035-.793-.114-1.881.644-2.392.8-.539,2.075-.179,2.922,0a1.406,1.406,0,0,1,.757.336,1.258,1.258,0,0,1,.265.722,6.028,6.028,0,0,0,.593,2.776,3.5,3.5,0,0,0,1.445,1.077c2.59,1.223,5.515,1.486,8.24,2.357a19.025,19.025,0,0,1,3.734,1.656,11.432,11.432,0,0,1,3.139,2.53,12.373,12.373,0,0,1,1.688,2.871,10.758,10.758,0,0,1,.9,2.833,6.906,6.906,0,0,1-2.876,6.524" transform="translate(-5.173 -28.208)" fill="#d1995d"/>
        <g id="그룹_3265" data-name="그룹 3265" transform="translate(3.879 17.937)" opacity="0.5">
          <g id="그룹_3264" data-name="그룹 3264">
            <g id="그룹_3263" data-name="그룹 3263" clip-path="url(#clip-path-3)">
              <path id="패스_6936" data-name="패스 6936" d="M20.241,80.868c-.611-.571-1.215-1.153-1.8-1.745a8.108,8.108,0,0,0-.425-2.4,21.039,21.039,0,0,0-1.724-3.155,9,9,0,0,1-.863-2.219c1.193,2.847,4.332,4.752,4.838,7.8a4.9,4.9,0,0,1-.024,1.721" transform="translate(-15.427 -71.348)" fill="#9e6e43"/>
            </g>
          </g>
        </g>
        <g id="그룹_3268" data-name="그룹 3268" transform="translate(9.588 17.421)" opacity="0.5">
          <g id="그룹_3267" data-name="그룹 3267">
            <g id="그룹_3266" data-name="그룹 3266" clip-path="url(#clip-path-4)">
              <path id="패스_6937" data-name="패스 6937" d="M41.128,76.173A11.736,11.736,0,0,1,39.664,81.5c-.514-.447-1.023-.9-1.526-1.353.024-.084.046-.17.07-.254a24.81,24.81,0,0,0,.757-5.315c.081-1.74-.181-3.572.011-5.29.82.319,1.4,2.379,1.648,3.18a11.586,11.586,0,0,1,.5,3.7" transform="translate(-38.138 -69.292)" fill="#9e6e43"/>
            </g>
          </g>
        </g>
        <path id="패스_6938" data-name="패스 6938" d="M22.629,67.584a16.074,16.074,0,0,1-3.377,7.4,5.387,5.387,0,0,0-.771,1.131c-.541,1.231.027,2.638.557,3.872a.692.692,0,0,1,.052.631c-.214.338-.739.078-1.012-.216a9.171,9.171,0,0,1-1.569-2.341,3.7,3.7,0,0,1-.428-1.792c.1-1.54,1.626-2.527,2.5-3.8a4.942,4.942,0,0,0,.338-.573,5,5,0,0,0,.463-3.028c-.506-3.047-3.645-4.952-4.838-7.8l-.016-.038a2.906,2.906,0,0,1-.26-1.5,2.47,2.47,0,0,1,2.173-1.872c1.515-.211,2.508.539,3.8,1.042a2.12,2.12,0,0,1,.955.955,11.868,11.868,0,0,1,1.434,7.931" transform="translate(-10.665 -43.134)" fill="#d1995d"/>
        <g id="그룹_3271" data-name="그룹 3271" transform="translate(13.55 24.863)" opacity="0.5">
          <g id="그룹_3270" data-name="그룹 3270">
            <g id="그룹_3269" data-name="그룹 3269" clip-path="url(#clip-path-5)">
              <path id="패스_6939" data-name="패스 6939" d="M58.944,100.942a31.621,31.621,0,0,1-.974,3.166c-.43,1.25-.863,2.495-1.293,3.745l-.132-.073a13.366,13.366,0,0,1-2.04-1.515c-.2-.17-.406-.344-.609-.517,0-.008,0-.019,0-.027a9.7,9.7,0,0,1,2.159-5.26A3.634,3.634,0,0,1,58.809,98.9a.321.321,0,0,1,.176.043.334.334,0,0,1,.108.236,4.77,4.77,0,0,1-.149,1.767" transform="translate(-53.895 -98.895)" fill="#9e6e43"/>
            </g>
          </g>
        </g>
        <path id="패스_6940" data-name="패스 6940" d="M43.327,97.469a3.059,3.059,0,0,0-1.949-1.593,11.588,11.588,0,0,0-3.613-1.012A4.42,4.42,0,0,0,34.3,96.021a5.953,5.953,0,0,0-1.233,2.331,17.641,17.641,0,0,0-1.011,6.712c.21,3.1,1.529,6.083,1.425,9.188a2.549,2.549,0,0,1-.827,2.077,2.775,2.775,0,0,1-1.167.38q-2,.325-4.025.463a9.072,9.072,0,0,0-2.351.346,2.693,2.693,0,0,0-1.721,1.531c3.694-.477,7.438.33,11.157.15a.643.643,0,0,0,.523-.2.629.629,0,0,0,.082-.31c.147-1.8-.035-3.607.008-5.411a9.809,9.809,0,0,1,1.323-5.176,6.326,6.326,0,0,1,3.077-2.45c.513-.19,1.05-.311,1.56-.509a5.332,5.332,0,0,0,3.274-3.78,4.746,4.746,0,0,0-1.676-4.651" transform="translate(-17.509 -71.006)" fill="#d1995d"/>
        <path id="패스_6941" data-name="패스 6941" d="M13.57,43.081a.391.391,0,0,0-.307.087.332.332,0,0,0-.016.334,1.039,1.039,0,0,0,.351.459.51.51,0,0,0,.255.109.579.579,0,0,0,.321-.1,2,2,0,0,0,.516-.421c.083-.1.159-.239.082-.339a.266.266,0,0,0-.11-.075,2.984,2.984,0,0,0-1.093-.057" transform="translate(-9.889 -32.234)" fill="#5e5e5e"/>
        <path id="패스_6942" data-name="패스 6942" d="M8.811,30.956A1.276,1.276,0,0,1,7.819,31a1.276,1.276,0,0,1-.485-.867,1.276,1.276,0,0,1,.992-.043,1.276,1.276,0,0,1,.485.867" transform="translate(-5.49 -22.456)" fill="#3d3d3d"/>
        <path id="패스_6943" data-name="패스 6943" d="M19.552,30.956a1.276,1.276,0,0,0,.992.043,1.276,1.276,0,0,0,.485-.867,1.276,1.276,0,0,0-.992-.043,1.276,1.276,0,0,0-.485.867" transform="translate(-14.636 -22.456)" fill="#3d3d3d"/>
      </g>
    </g>
  </g>
</svg>
