<svg xmlns="http://www.w3.org/2000/svg" xmlns:xlink="http://www.w3.org/1999/xlink" width="32.197" height="19.927" viewBox="0 0 32.197 19.927">
  <defs>
    <clipPath id="clip-path">
      <rect id="사각형_2089" data-name="사각형 2089" width="32.197" height="19.927" transform="translate(0 0)" fill="none"/>
    </clipPath>
  </defs>
  <g id="그룹_1327" data-name="그룹 1327" transform="translate(0 0)">
    <g id="그룹_1326" data-name="그룹 1326" clip-path="url(#clip-path)">
      <path id="패스_3935" data-name="패스 3935" d="M3,17.948a1,1,0,0,1-1-1v-3.3a1,1,0,0,1,.983-1l3.248-.055A3.777,3.777,0,0,1,3.859,8.871a3.89,3.89,0,0,1,.285-1.289A1,1,0,0,1,3.161,6.6L3.128,4.324a1,1,0,0,1,1-1.014l2.7.072,0-.371A1,1,0,0,1,7.827,2l3,.049a1,1,0,0,1,.983,1.012l0,.389,2.952-.074a1,1,0,0,1,1,1V6.6a1,1,0,0,1-1,1h-.134a3.676,3.676,0,0,1,.238,1.321,4.212,4.212,0,0,1-3.145,3.835v.134l4.591.041a1,1,0,0,1,.991.976l.066,2.77a1,1,0,0,1-.981,1.024L3,17.948M8.918,8.584a1.423,1.423,0,0,0,.318.033,1.476,1.476,0,0,0,.419-.058,1.7,1.7,0,0,0-.336-.032,1.292,1.292,0,0,0-.4.057" fill="#eeb94d"/>
      <path id="패스_3936" data-name="패스 3936" d="M7.827,3l2.985.049L10.8,4.476l3.964-.1V6.6H12.6a2.782,2.782,0,0,1,1.26,2.322c0,1.576-1.393,2.687-3.151,3.085l.016,1.874,5.574.05.066,2.77L3,16.949v-3.3l4.86-.083-.016-1.509C6,11.708,4.775,10.58,4.858,8.921A3.052,3.052,0,0,1,6.185,6.583H4.161L4.128,4.31l3.716.1Zm1.41,6.618c.845,0,1.625-.415,1.625-1.045,0-.647-.68-1.045-1.542-1.045-.846,0-1.526.4-1.576,1.045s.647,1.045,1.493,1.045M7.827,1A2,2,0,0,0,5.933,2.358L4.182,2.311H4.128a2,2,0,0,0-2,2.029l.034,2.273a2,2,0,0,0,.774,1.551,5.224,5.224,0,0,0-.076.656A4.67,4.67,0,0,0,3.6,11.638l-.631.011a2,2,0,0,0-1.966,2v3.3a2,2,0,0,0,2,2h.038L16.406,18.7a2,2,0,0,0,1.962-2.048l-.066-2.77A2,2,0,0,0,16.32,11.93l-1.574-.014a4.574,4.574,0,0,0,1.118-3,5.011,5.011,0,0,0-.039-.629A2,2,0,0,0,16.76,6.6V4.376a2,2,0,0,0-2-2h-.05l-2,.05A2,2,0,0,0,10.845,1.05L7.86,1H7.827"/>
      <path id="패스_3937" data-name="패스 3937" d="M21.606,18.927a1,1,0,0,1-1-.942l-.146-2.518L16.7,15.293a1,1,0,0,1-.954-.985l-.033-2.421a1,1,0,0,1,1-1.014h.51l-.914-1.045a1,1,0,0,1,.171-1.472l2.776-1.983-1.117-.019a1,1,0,0,1-.983-1.014l.033-2.156a1,1,0,0,1,1-.986l10.152.017a1,1,0,0,1,1,1.007L29.323,5.5a1,1,0,0,1-1,.991l-.643-.006,2.372,1.436a1,1,0,0,1,.236,1.512l-1.26,1.444h1.087a1,1,0,0,1,1,.966l.083,2.455a1,1,0,0,1-.956,1.033l-4.443.191-.024,2.387a1,1,0,0,1-.99.989l-3.178.033m3.517-8.054L22.8,9.5l-2.069,1.37Z" fill="#eeb94d"/>
      <path id="패스_3938" data-name="패스 3938" d="M18.188,3.2l10.151.017-.017,2.272L24.79,5.455V5.9l4.743,2.869-2.04,2.339L22.766,8.324l-4.08,2.7L17.06,9.17l4.064-2.9.033-.862-3-.05Zm11.926,8.675.083,2.454-5.391.233L24.773,17.9l-3.168.033-.2-3.417L16.745,14.3l-.033-2.421h13.4M18.188,1.2a2,2,0,0,0-2,1.969l-.033,2.156a1.994,1.994,0,0,0,.69,1.542l-.947.677a2,2,0,0,0-.464,2.792c-.05.042-.1.087-.146.134a2,2,0,0,0-.576,1.432l.033,2.422a2,2,0,0,0,1.908,1.97l2.861.133.094,1.618a2,2,0,0,0,2,1.884h.021l3.168-.033a2,2,0,0,0,1.979-1.98l.014-1.438,3.5-.151A2,2,0,0,0,32.2,14.261l-.083-2.455A2,2,0,0,0,31.032,10.1l.008-.01a2,2,0,0,0-.472-3.026l-.636-.385a2,2,0,0,0,.39-1.173l.017-2.273a2,2,0,0,0-2-2.014L18.191,1.2Z"/>
      <path id="패스_3939" data-name="패스 3939" d="M2,16.948a1,1,0,0,1-1-1v-3.3a1,1,0,0,1,.983-1l3.248-.055A3.777,3.777,0,0,1,2.859,7.871a3.89,3.89,0,0,1,.285-1.289A1,1,0,0,1,2.161,5.6L2.128,3.324a1,1,0,0,1,1-1.014l2.7.072,0-.371A1,1,0,0,1,6.827,1l3,.049a1,1,0,0,1,.983,1.012l0,.389,2.952-.074a1,1,0,0,1,1,1V5.6a1,1,0,0,1-1,1h-.134a3.676,3.676,0,0,1,.238,1.321,4.212,4.212,0,0,1-3.145,3.835v.134l4.591.041a1,1,0,0,1,.991.976l.066,2.77a1,1,0,0,1-.981,1.024L2,16.948M7.918,7.584a1.423,1.423,0,0,0,.318.033,1.476,1.476,0,0,0,.419-.058,1.7,1.7,0,0,0-.336-.032,1.292,1.292,0,0,0-.4.057" fill="#eeb94d"/>
      <path id="패스_3940" data-name="패스 3940" d="M6.827,2l2.985.049L9.8,3.476l3.964-.1V5.6H11.6a2.782,2.782,0,0,1,1.26,2.322c0,1.576-1.393,2.687-3.151,3.085l.016,1.874,5.574.05.066,2.77L2,15.949v-3.3l4.86-.083-.016-1.509C5,10.708,3.775,9.58,3.858,7.921A3.052,3.052,0,0,1,5.185,5.583H3.161L3.128,3.31l3.716.1Zm1.41,6.618c.845,0,1.625-.415,1.625-1.045,0-.647-.68-1.045-1.542-1.045-.846,0-1.526.4-1.576,1.045s.647,1.045,1.493,1.045M6.827,0A2,2,0,0,0,4.933,1.358L3.182,1.311H3.128a2,2,0,0,0-2,2.029l.034,2.273a2,2,0,0,0,.774,1.551,5.224,5.224,0,0,0-.076.656A4.67,4.67,0,0,0,2.6,10.638l-.631.011a2,2,0,0,0-1.966,2v3.3a2,2,0,0,0,2,2h.038L15.406,17.7a2,2,0,0,0,1.962-2.048l-.066-2.77A2,2,0,0,0,15.32,10.93l-1.574-.014a4.574,4.574,0,0,0,1.118-3,5.011,5.011,0,0,0-.039-.629A2,2,0,0,0,15.76,5.6V3.376a2,2,0,0,0-2-2h-.05l-2,.05A2,2,0,0,0,9.845.05L6.86,0H6.827" fill="#e69c2e"/>
      <path id="패스_3941" data-name="패스 3941" d="M20.606,17.927a1,1,0,0,1-1-.942l-.146-2.518L15.7,14.293a1,1,0,0,1-.954-.985l-.033-2.421a1,1,0,0,1,1-1.014h.51l-.914-1.045a1,1,0,0,1,.171-1.472l2.776-1.983-1.117-.019a1,1,0,0,1-.983-1.014l.033-2.156a1,1,0,0,1,1-.986l10.152.017a1,1,0,0,1,1,1.007L28.323,4.5a1,1,0,0,1-1,.991l-.643-.006,2.372,1.436a1,1,0,0,1,.236,1.512l-1.26,1.444h1.087a1,1,0,0,1,1,.966l.083,2.455a1,1,0,0,1-.956,1.033l-4.443.191-.024,2.387a1,1,0,0,1-.99.989l-3.178.033m3.517-8.054L21.8,8.5l-2.069,1.37Z" fill="#eeb94d"/>
      <path id="패스_3942" data-name="패스 3942" d="M17.188,2.2l10.151.017-.017,2.272L23.79,4.455V4.9l4.743,2.869-2.04,2.339L21.766,7.324l-4.08,2.7L16.06,8.17l4.064-2.9.033-.862-3-.05Zm11.926,8.675.083,2.454-5.391.233L23.773,16.9l-3.168.033-.2-3.417L15.745,13.3l-.033-2.421h13.4M17.188.2a2,2,0,0,0-2,1.969l-.033,2.156a1.994,1.994,0,0,0,.69,1.542l-.947.677a2,2,0,0,0-.464,2.792c-.05.042-.1.087-.146.134a2,2,0,0,0-.576,1.432l.033,2.422a2,2,0,0,0,1.908,1.97l2.861.133.094,1.618a2,2,0,0,0,2,1.884h.021l3.168-.033a2,2,0,0,0,1.979-1.98l.014-1.438,3.5-.151A2,2,0,0,0,31.2,13.261l-.083-2.455A2,2,0,0,0,30.032,9.1l.008-.01a2,2,0,0,0-.472-3.026l-.636-.385a2,2,0,0,0,.39-1.173l.017-2.273a2,2,0,0,0-2-2.014L17.191.2Z" fill="#e69c2e"/>
      <path id="패스_3943" data-name="패스 3943" d="M2,16.324a.376.376,0,0,1-.375-.375v-3.3a.374.374,0,0,1,.368-.375L6.481,12.2l-.01-.837C4.536,10.892,3.4,9.588,3.483,7.9a3.267,3.267,0,0,1,.761-1.945H3.161a.375.375,0,0,1-.375-.37L2.753,3.316a.376.376,0,0,1,.375-.381l3.336.09-.013-1.02a.377.377,0,0,1,.375-.38l2.992.049a.376.376,0,0,1,.369.38l-.013,1.037L13.759,3a.374.374,0,0,1,.375.375V5.6a.375.375,0,0,1-.375.375H12.551a2.992,2.992,0,0,1,.687,1.947c0,1.545-1.225,2.847-3.148,3.378l.01,1.21,5.2.046a.376.376,0,0,1,.372.367l.066,2.77a.374.374,0,0,1-.368.383L2,16.324M8.319,6.9c-.553,0-1.165.219-1.2.7a.4.4,0,0,0,.114.315,1.42,1.42,0,0,0,1.005.326c.678,0,1.25-.307,1.25-.67,0-.44-.587-.67-1.167-.67" fill="#eeb94d"/>
      <path id="패스_3944" data-name="패스 3944" d="M6.826,2l2.986.05L9.8,3.476l3.964-.1V5.6H11.6a2.783,2.783,0,0,1,1.26,2.322c0,1.576-1.393,2.687-3.151,3.086l.017,1.874,5.573.049.066,2.771L2,15.949v-3.3l4.86-.083-.017-1.51C5,10.708,3.774,9.58,3.857,7.921A3.054,3.054,0,0,1,5.184,5.583H3.161L3.128,3.31l3.715.1Zm1.41,6.618c.846,0,1.625-.415,1.625-1.045,0-.647-.68-1.045-1.542-1.045-.846,0-1.526.4-1.576,1.045S7.39,8.618,8.236,8.618M6.826,1.25a.751.751,0,0,0-.75.759l.008.63L3.148,2.561h-.02a.751.751,0,0,0-.75.761l.033,2.273a.75.75,0,0,0,.75.739h.378a3.605,3.605,0,0,0-.431,1.55A3.7,3.7,0,0,0,6.1,11.649l0,.18-4.114.07a.75.75,0,0,0-.737.75v3.3A.749.749,0,0,0,2,16.7h.014l13.368-.249a.748.748,0,0,0,.736-.768l-.066-2.77a.751.751,0,0,0-.743-.732l-4.837-.043-.005-.56c1.931-.624,3.146-2.013,3.146-3.656a3.4,3.4,0,0,0-.373-1.572h.519a.749.749,0,0,0,.75-.75V3.377a.749.749,0,0,0-.75-.75h-.018l-3.187.08.008-.649A.75.75,0,0,0,9.824,1.3L6.839,1.25Zm1.41,6.618a.966.966,0,0,1-.745-.226c.013-.181.349-.364.828-.364s.792.175.792.3a1.122,1.122,0,0,1-.875.3" fill="#fff"/>
      <path id="패스_3945" data-name="패스 3945" d="M20.606,17.3a.376.376,0,0,1-.375-.353l-.179-3.08-4.324-.2a.375.375,0,0,1-.357-.369l-.033-2.421a.376.376,0,0,1,.375-.381h13.4a.375.375,0,0,1,.375.362l.083,2.455a.376.376,0,0,1-.359.387l-5.035.218-.03,2.978a.375.375,0,0,1-.371.371l-3.172.033m5.888-6.817a.373.373,0,0,1-.19-.052L21.779,7.766l-3.886,2.573a.373.373,0,0,1-.489-.065L15.779,8.417a.376.376,0,0,1-.091-.291.38.38,0,0,1,.155-.262l3.914-2.8.011-.3L17.149,4.73a.376.376,0,0,1-.368-.381l.033-2.156a.375.375,0,0,1,.375-.37L27.34,1.84a.374.374,0,0,1,.266.111.38.38,0,0,1,.109.267L27.7,4.49a.374.374,0,0,1-.375.372L24.4,4.835l4.324,2.616a.374.374,0,0,1,.089.567l-2.04,2.339a.377.377,0,0,1-.283.128" fill="#eeb94d"/>
      <path id="패스_3946" data-name="패스 3946" d="M17.189,2.2l10.15.017-.016,2.272L23.79,4.455V4.9l4.744,2.868-2.04,2.34L21.767,7.325l-4.081,2.7L16.061,8.17l4.064-2.9.033-.862-3-.051Zm11.925,8.675.083,2.455-5.39.233-.033,3.333-3.168.033-.2-3.417-4.66-.216-.033-2.421h13.4M17.189,1.448a.751.751,0,0,0-.75.74l-.034,2.156a.75.75,0,0,0,.738.76l1.875.031L15.625,7.559a.751.751,0,0,0-.129,1.1l1.278,1.46H15.713a.75.75,0,0,0-.75.761L15,13.306a.751.751,0,0,0,.715.738l3.986.184.16,2.742a.75.75,0,0,0,.748.707h.008l3.168-.033a.75.75,0,0,0,.743-.742l.026-2.622,4.68-.2a.75.75,0,0,0,.717-.775l-.083-2.453a.751.751,0,0,0-.75-.726H27.478L29.1,8.266a.751.751,0,0,0-.177-1.136L25.77,5.223l1.546.014h.007a.748.748,0,0,0,.75-.744l.016-2.272a.751.751,0,0,0-.748-.756L17.19,1.448Zm1.71,8.675L21.79,8.208l3.249,1.915Z" fill="#fff"/>
    </g>
  </g>
</svg>
