<svg xmlns="http://www.w3.org/2000/svg" xmlns:xlink="http://www.w3.org/1999/xlink" width="46.125" height="20.625" viewBox="0 0 46.125 20.625">
  <defs>
    <clipPath id="clip-path">
      <rect id="사각형_2082" data-name="사각형 2082" width="46.125" height="20.625" transform="translate(0 -0.001)" fill="none"/>
    </clipPath>
  </defs>
  <g id="그룹_1313" data-name="그룹 1313" transform="translate(0 0)">
    <g id="그룹_1312" data-name="그룹 1312" clip-path="url(#clip-path)">
      <path id="패스_3791" data-name="패스 3791" d="M9.153,19.625c-1.737,0-4.079-.29-5.374-1.672a3.126,3.126,0,0,1-.849-2.395,3.19,3.19,0,0,1,1.179-2.3L3,13.272a1,1,0,0,1-1-1V10.116a1,1,0,0,1,.986-1l.495-.007a.98.98,0,0,1-.02-.155L3.311,5.9,3.294,3.338a1,1,0,0,1,.991-1.006L14.56,2.249a1,1,0,0,1,1,.98l.033,1.693A1,1,0,0,1,14.6,5.941l-5.268.028,0,.125,5.306.069a1,1,0,0,1,.986.954l.083,1.792a1,1,0,0,1-.037.318l.639.005a1,1,0,0,1,.991.964L17.368,12a1,1,0,0,1-.982,1.037l-1.779.031a3.09,3.09,0,0,1,1.3,2.552c0,2.468-2.589,4-6.756,4" fill="#eeb94d"/>
      <path id="패스_3792" data-name="패스 3792" d="M14.561,3.249l.033,1.692-6.286.033.05,2.107,6.269.082.083,1.792-3.964-.017.016,1.244,5.54.05.067,1.808L3,12.272V10.116l4.893-.067L7.877,8.921,4.46,8.9,4.31,5.853,4.294,3.332ZM9.5,12.786c3.068,0,5.407.879,5.407,2.837,0,2.04-2.687,3-5.756,3-3.051,0-5.357-.961-5.224-3,.116-1.958,2.521-2.837,5.573-2.837M9.369,16.17c1.178,0,2.206-.349,2.206-1.062,0-.613-.995-.929-2.106-.929-1.178,0-2.007.3-2.057.929-.066.713.8,1.062,1.957,1.062M14.561,1.249h-.016L4.277,1.332A2,2,0,0,0,2.294,3.345L2.31,5.866c0,.029,0,.057,0,.085L2.423,8.2A2,2,0,0,0,1,10.116v2.156A2,2,0,0,0,2.259,14.13,4.245,4.245,0,0,0,1.932,15.5,4.092,4.092,0,0,0,3.05,18.636c1.54,1.644,4.169,1.988,6.1,1.988,4.712,0,7.756-1.963,7.756-5a4.234,4.234,0,0,0-.321-1.6,2,2,0,0,0,1.779-2.062L18.3,10.158a2,2,0,0,0-1.621-1.89l-.055-1.2a1.985,1.985,0,0,0-.352-1.044A2.007,2.007,0,0,0,16.594,4.9L16.56,3.21a2,2,0,0,0-2-1.961"/>
      <path id="패스_3793" data-name="패스 3793" d="M24.988,19.342a1,1,0,0,1-.992-.88l-.31-2.565-.728-.009-.071,2.483a1,1,0,0,1-1,.971H19.25a1,1,0,0,1-1-.93l-.186-2.66-1.348-.06a1,1,0,0,1-.956-.979l-.049-2.42a1,1,0,0,1,1-1.021H18.88A4.989,4.989,0,0,1,18,10.543a4.237,4.237,0,0,1-1.195-3.2c.164-2.835,2.974-4.966,6.538-4.966,3.625,0,6.358,2.156,6.358,5.014a4.561,4.561,0,0,1-2.377,3.877h2.787a1,1,0,0,1,1,.966l.083,2.454a1,1,0,0,1-.956,1.033L28.6,15.8l.091,2.272a1,1,0,0,1-.913,1.037l-2.7.232a.812.812,0,0,1-.086,0M23.281,6.272c-.67,0-1.106.278-1.126.536a1.219,1.219,0,0,0,1.026.384,1.61,1.61,0,0,0,1.276-.465,1.391,1.391,0,0,0-1.176-.455" fill="#eeb94d"/>
      <path id="패스_3794" data-name="패스 3794" d="M23.347,3.382C26.366,3.382,28.7,5.09,28.7,7.4c0,2.4-2.67,4-5.7,4-3.019,0-5.308-1.592-5.192-4,.133-2.306,2.505-4.014,5.54-4.014m-.166,4.81c1.162,0,2.273-.614,2.273-1.443,0-.863-1.062-1.476-2.173-1.476-1.161,0-2.057.6-2.123,1.459-.05.813.879,1.46,2.023,1.46m6.934,4.08.083,2.455-2.638.116.133,3.268-2.7.231-.414-3.433-2.588-.033-.1,3.466H19.25L19,14.793l-2.239-.1-.05-2.422h13.4M23.347,1.382c-4.1,0-7.343,2.536-7.536,5.9a5.226,5.226,0,0,0,.736,3,2,2,0,0,0-1.834,2.034l.05,2.422a2,2,0,0,0,1.911,1.957l.457.02.124,1.77a2,2,0,0,0,2,1.86h2.638a2,2,0,0,0,1.55-.736,2,2,0,0,0,1.549.736c.057,0,.115,0,.173-.007l2.7-.232a2,2,0,0,0,1.827-2.073l-.052-1.277.647-.028a2,2,0,0,0,1.91-2.066L32.113,12.2a2,2,0,0,0-2-1.933h-.293A5.113,5.113,0,0,0,30.7,7.4c0-3.429-3.163-6.014-7.357-6.014"/>
      <path id="패스_3795" data-name="패스 3795" d="M33.208,19.508a1,1,0,0,1-1-.954l-.166-3.666L32,12.3l-.6-.01a1,1,0,0,1-.981-.946l-.249-4.595a1,1,0,0,1,.272-.742,1.015,1.015,0,0,1,.278-.206.966.966,0,0,1-.021-.2V3.863a1,1,0,0,1,1-1l6.893.066a1,1,0,0,1,.99,1.015L39.564,5.31l.377-.022.083-2.325a1,1,0,0,1,1-.963c.019,0,3.144.184,3.144.184a1,1,0,0,1,.941.995L45.125,8.6l-.083,3.016a.99.99,0,0,1-.048.28,1.075,1.075,0,0,1,.015.18l-.017,2.786-.033,3.685a1,1,0,0,1-1,.992l-10.751-.034m7.009-7.274s.007-.234.007-.241a1.009,1.009,0,0,1-.083-.344L40.03,9.722h-.165l-.014,1.712a1.007,1.007,0,0,1-.3.708,1.072,1.072,0,0,1-.11.092Z" fill="#eeb94d"/>
      <path id="패스_3796" data-name="패스 3796" d="M41.023,3l3.085.183.017,5.423-.083,2.986h-2.9l-.166-2.869h-2.09L38.9,6.351l2.007-.117ZM31.7,3.863l6.883.066-.066,4.345H35.1l.033,1.278,3.732-.033-.017,1.907-7.43-.133L31.171,6.7H36V5.587L31.7,5.6V3.863m7.165,5.656h.005m2.35,2.521,2.787.033-.017,2.786-.033,3.683-10.748-.034-.166-3.665-.05-2.754,3.981.017.033,1.128h4.18l.033-1.194m-.116,4.212.017-1.111-4.08-.066.049,1.1,4.014.082M41.023,1a2,2,0,0,0-1.759,1.048,2.012,2.012,0,0,0-.66-.119l-6.883-.066H31.7a2,2,0,0,0-2,2V5.342a2,2,0,0,0-.528,1.465l.249,4.6a2,2,0,0,0,1.593,1.851l.029,1.626,0,.054.166,3.666a2,2,0,0,0,1.992,1.909l10.748.034h.006a2,2,0,0,0,2-1.982l.033-3.683.017-2.792c0-.04,0-.078,0-.117a1.984,1.984,0,0,0,.035-.321l.083-2.985c0-.021,0-.041,0-.062l-.017-5.423a2,2,0,0,0-1.882-1.991L41.141,1c-.039,0-.079,0-.118,0"/>
      <path id="패스_3797" data-name="패스 3797" d="M8.153,18.625c-1.737,0-4.079-.29-5.374-1.672a3.126,3.126,0,0,1-.849-2.395,3.19,3.19,0,0,1,1.179-2.3L2,12.272a1,1,0,0,1-1-1V9.116a1,1,0,0,1,.986-1l.5-.007a.98.98,0,0,1-.02-.155L2.311,4.9,2.294,2.338a1,1,0,0,1,.991-1.006L13.56,1.249a1,1,0,0,1,1,.98l.033,1.693A1,1,0,0,1,13.6,4.941l-5.268.028,0,.125,5.306.069a1,1,0,0,1,.986.954l.083,1.792a1,1,0,0,1-.037.318l.639.005A1,1,0,0,1,16.3,9.2L16.368,11a1,1,0,0,1-.982,1.037l-1.779.031a3.09,3.09,0,0,1,1.3,2.552c0,2.468-2.589,4-6.756,4" fill="#eeb94d"/>
      <path id="패스_3798" data-name="패스 3798" d="M13.561,2.249l.033,1.692-6.286.033.05,2.107,6.269.082.083,1.792L9.746,7.938l.016,1.244,5.54.05.067,1.808L2,11.272V9.116l4.893-.067L6.877,7.921,3.46,7.905,3.31,4.853,3.294,2.332ZM8.5,11.786c3.068,0,5.407.879,5.407,2.837,0,2.04-2.687,3-5.756,3-3.051,0-5.357-.961-5.224-3,.116-1.958,2.521-2.837,5.573-2.837M8.369,15.17c1.178,0,2.206-.349,2.206-1.062,0-.613-.995-.929-2.106-.929-1.178,0-2.007.3-2.057.929-.066.713.8,1.062,1.957,1.062M13.561.249h-.016L3.277.332A2,2,0,0,0,1.294,2.345L1.31,4.866c0,.029,0,.057,0,.085L1.423,7.2A2,2,0,0,0,0,9.116v2.156A2,2,0,0,0,1.259,13.13,4.245,4.245,0,0,0,.932,14.5,4.092,4.092,0,0,0,2.05,17.636c1.54,1.644,4.169,1.988,6.1,1.988,4.712,0,7.756-1.963,7.756-5a4.234,4.234,0,0,0-.321-1.6,2,2,0,0,0,1.779-2.062L17.3,9.158a2,2,0,0,0-1.621-1.89l-.055-1.2a1.985,1.985,0,0,0-.352-1.044A2.007,2.007,0,0,0,15.594,3.9L15.56,2.21a2,2,0,0,0-2-1.961" fill="#e69c2e"/>
      <path id="패스_3799" data-name="패스 3799" d="M23.988,18.342a1,1,0,0,1-.992-.88l-.31-2.565-.728-.009-.071,2.483a1,1,0,0,1-1,.971H18.25a1,1,0,0,1-1-.93l-.186-2.66-1.348-.06a1,1,0,0,1-.956-.979l-.049-2.42a1,1,0,0,1,1-1.021H17.88A4.989,4.989,0,0,1,17,9.543a4.237,4.237,0,0,1-1.2-3.2c.164-2.835,2.974-4.966,6.538-4.966,3.625,0,6.358,2.156,6.358,5.014a4.561,4.561,0,0,1-2.377,3.877h2.787a1,1,0,0,1,1,.966l.083,2.454a1,1,0,0,1-.956,1.033L27.6,14.8l.091,2.272a1,1,0,0,1-.913,1.037l-2.7.232a.812.812,0,0,1-.086,0M22.281,5.272c-.67,0-1.106.278-1.126.536a1.219,1.219,0,0,0,1.026.384,1.61,1.61,0,0,0,1.276-.465,1.391,1.391,0,0,0-1.176-.455" fill="#eeb94d"/>
      <path id="패스_3800" data-name="패스 3800" d="M22.347,2.382C25.366,2.382,27.7,4.09,27.7,6.4c0,2.4-2.67,4-5.7,4-3.019,0-5.308-1.592-5.192-4,.133-2.306,2.505-4.014,5.54-4.014m-.166,4.81c1.162,0,2.273-.614,2.273-1.443,0-.863-1.062-1.476-2.173-1.476-1.161,0-2.057.6-2.123,1.459-.05.813.879,1.46,2.023,1.46m6.934,4.08.083,2.455-2.638.116.133,3.268-2.7.231-.414-3.433-2.588-.033-.1,3.466H18.25L18,13.793l-2.239-.1-.05-2.422h13.4M22.347.382c-4.1,0-7.343,2.536-7.536,5.9a5.226,5.226,0,0,0,.736,3,2,2,0,0,0-1.834,2.034l.05,2.422a2,2,0,0,0,1.911,1.957l.457.02.124,1.77a2,2,0,0,0,2,1.86h2.638a2,2,0,0,0,1.55-.736,2,2,0,0,0,1.549.736c.057,0,.115,0,.173-.007l2.7-.232a2,2,0,0,0,1.827-2.073l-.052-1.277.647-.028a2,2,0,0,0,1.91-2.066L31.113,11.2a2,2,0,0,0-2-1.933h-.293A5.113,5.113,0,0,0,29.7,6.4c0-3.429-3.163-6.014-7.357-6.014" fill="#e69c2e"/>
      <path id="패스_3801" data-name="패스 3801" d="M32.208,18.508a1,1,0,0,1-1-.954l-.166-3.666L31,11.3l-.6-.01a1,1,0,0,1-.981-.946l-.249-4.595a1,1,0,0,1,.272-.742,1.015,1.015,0,0,1,.278-.206.966.966,0,0,1-.021-.2V2.863a1,1,0,0,1,1-1l6.893.066a1,1,0,0,1,.99,1.015L38.564,4.31l.377-.022.083-2.325a1,1,0,0,1,1-.963c.019,0,3.144.184,3.144.184a1,1,0,0,1,.941.995L44.125,7.6l-.083,3.016a.99.99,0,0,1-.048.28,1.075,1.075,0,0,1,.015.18l-.017,2.786-.033,3.685a1,1,0,0,1-1,.992l-10.751-.034m7.009-7.274s.007-.234.007-.241a1.009,1.009,0,0,1-.083-.344L39.03,8.722h-.165l-.014,1.712a1.007,1.007,0,0,1-.3.708,1.072,1.072,0,0,1-.11.092Z" fill="#eeb94d"/>
      <path id="패스_3802" data-name="패스 3802" d="M40.023,2l3.085.183.017,5.423-.083,2.986h-2.9l-.166-2.869h-2.09L37.9,5.351l2.007-.117ZM30.7,2.863l6.883.066-.066,4.345H34.1l.033,1.278,3.732-.033-.017,1.907-7.43-.133L30.171,5.7H35V4.587L30.7,4.6V2.863m7.165,5.656h.005m2.35,2.521,2.787.033-.017,2.786-.033,3.683-10.748-.034-.166-3.665L32,11.089l3.981.017.033,1.128h4.18l.033-1.194m-.116,4.212.017-1.111-4.08-.066.049,1.1,4.014.082M40.023,0a2,2,0,0,0-1.759,1.048A2.012,2.012,0,0,0,37.6.929L30.721.863H30.7a2,2,0,0,0-2,2V4.342a2,2,0,0,0-.528,1.465l.249,4.6a2,2,0,0,0,1.593,1.851l.029,1.626,0,.054.166,3.666a2,2,0,0,0,1.992,1.909l10.748.034h.006a2,2,0,0,0,2-1.982l.033-3.683.017-2.792c0-.04,0-.078,0-.117a1.984,1.984,0,0,0,.035-.321l.083-2.985c0-.021,0-.041,0-.062l-.017-5.423A2,2,0,0,0,43.226.186L40.141,0c-.039,0-.079,0-.118,0" fill="#e69c2e"/>
      <path id="패스_3803" data-name="패스 3803" d="M8.154,18c-2.281,0-4.027-.523-4.918-1.474A2.478,2.478,0,0,1,2.555,14.6c.093-1.568,1.486-2.64,3.828-3.027L2,11.647a.37.37,0,0,1-.262-.108.374.374,0,0,1-.113-.267V9.116A.374.374,0,0,1,2,8.741l4.518-.062-.005-.385L3.457,8.28a.374.374,0,0,1-.371-.357l-.15-3.052L2.918,2.334a.377.377,0,0,1,.373-.378l10.27-.083a.376.376,0,0,1,.375.368l.033,1.692a.386.386,0,0,1-.106.269.379.379,0,0,1-.268.114l-5.9.031L7.724,5.71l5.908.077a.378.378,0,0,1,.37.358l.083,1.792a.374.374,0,0,1-.375.392l-3.585-.015.007.5,5.174.047a.374.374,0,0,1,.371.361l.066,1.808a.373.373,0,0,1-.1.271.378.378,0,0,1-.267.117l-5.217.091c2.613.32,4.126,1.435,4.126,3.117,0,2.052-2.406,3.377-6.13,3.377m.315-4.445c-.994,0-1.655.229-1.683.583a.333.333,0,0,0,.087.274,2.212,2.212,0,0,0,1.495.383c1.045,0,1.832-.3,1.832-.686,0-.232-.6-.554-1.731-.554" fill="#eeb94d"/>
      <path id="패스_3804" data-name="패스 3804" d="M13.56,2.249l.034,1.692-6.287.033.05,2.107,6.27.082.083,1.792L9.745,7.938l.017,1.244,5.54.05.067,1.808L2,11.272V9.116l4.893-.067L6.876,7.921,3.459,7.905,3.31,4.853,3.293,2.332ZM8.5,11.786c3.068,0,5.407.879,5.407,2.837,0,2.04-2.687,3-5.756,3-3.052,0-5.357-.962-5.224-3,.116-1.958,2.521-2.837,5.573-2.837M8.369,15.17c1.178,0,2.206-.349,2.206-1.062,0-.613-.995-.929-2.106-.929-1.178,0-2.008.3-2.058.929-.065.713.8,1.062,1.958,1.062M13.561,1.5h-.007L3.287,1.582a.751.751,0,0,0-.744.755L2.56,4.858l.15,3.083a.75.75,0,0,0,.149.413l-.869.012a.749.749,0,0,0-.74.75v2.156a.749.749,0,0,0,.75.75h.013l1.919-.033A3.141,3.141,0,0,0,2.18,14.578a2.875,2.875,0,0,0,.782,2.2c1.233,1.316,3.5,1.593,5.191,1.593,4.013,0,6.506-1.438,6.506-3.752a3.054,3.054,0,0,0-1.915-2.788l2.638-.045a.751.751,0,0,0,.736-.778L16.052,9.2a.751.751,0,0,0-.743-.722l-1.057-.01a.748.748,0,0,0,.207-.552l-.083-1.792a.75.75,0,0,0-.739-.715L8.09,5.34l-.015-.62L13.6,4.691a.75.75,0,0,0,.745-.765L14.31,2.234a.75.75,0,0,0-.749-.735M8.369,14.42c-.857,0-1.181-.209-1.221-.265a2.73,2.73,0,0,1,1.321-.226,3,3,0,0,1,1.293.226,2.919,2.919,0,0,1-1.393.265" fill="#fff"/>
      <path id="패스_3805" data-name="패스 3805" d="M23.989,17.717a.375.375,0,0,1-.372-.33l-.376-3.108-1.89-.024-.089,3.1a.374.374,0,0,1-.375.364H18.25a.374.374,0,0,1-.374-.348l-.225-3.217-1.9-.085a.375.375,0,0,1-.359-.366l-.049-2.421a.376.376,0,0,1,.375-.383h13.4a.375.375,0,0,1,.375.362l.083,2.454a.375.375,0,0,1-.358.388l-2.264.1.117,2.894a.375.375,0,0,1-.343.388l-2.735.234M22,10.768a6.25,6.25,0,0,1-4.544-1.656,3.624,3.624,0,0,1-1.022-2.735c.143-2.493,2.685-4.371,5.913-4.371,3.268,0,5.733,1.887,5.733,4.389S25.465,10.768,22,10.768m.282-6.121c-.964,0-1.7.468-1.749,1.113a.718.718,0,0,0,.222.541,2.007,2.007,0,0,0,1.427.516c.994,0,1.9-.509,1.9-1.068,0-.587-.84-1.1-1.8-1.1" fill="#eeb94d"/>
      <path id="패스_3806" data-name="패스 3806" d="M22.347,2.382C25.366,2.382,27.7,4.09,27.7,6.4c0,2.4-2.67,4-5.706,4-3.018,0-5.307-1.592-5.191-4,.133-2.306,2.5-4.014,5.54-4.014m-.166,4.81c1.161,0,2.272-.614,2.272-1.443,0-.863-1.061-1.476-2.172-1.476-1.162,0-2.058.6-2.123,1.459-.05.813.878,1.46,2.023,1.46m6.933,4.08.083,2.455-2.637.116.132,3.267-2.7.232-.415-3.433-2.587-.033-.1,3.466H18.25L18,13.793l-2.239-.1-.05-2.421h13.4m-6.767-9.64c-3.43,0-6.134,2.029-6.289,4.72a4,4,0,0,0,1.125,3.019,5.23,5.23,0,0,0,1.676,1.151H15.712a.75.75,0,0,0-.75.765l.05,2.422a.751.751,0,0,0,.717.734l1.571.07.2,2.882a.749.749,0,0,0,.748.7h2.637a.75.75,0,0,0,.75-.728l.078-2.728,1.193.015.336,2.781a.75.75,0,0,0,.744.66l.065,0,2.7-.232a.751.751,0,0,0,.686-.778l-.1-2.521,1.89-.083a.75.75,0,0,0,.717-.775l-.083-2.454a.751.751,0,0,0-.75-.725H25.288A4.605,4.605,0,0,0,28.454,6.4c0-2.716-2.626-4.764-6.107-4.764m-.166,4.81a1.65,1.65,0,0,1-1.154-.4.338.338,0,0,1-.121-.266c.033-.426.624-.755,1.375-.755.788,0,1.422.4,1.422.726,0,.243-.627.693-1.522.693" fill="#fff"/>
      <path id="패스_3807" data-name="패스 3807" d="M32.21,17.883a.374.374,0,0,1-.373-.357l-.166-3.667L31.62,11.1A.376.376,0,0,1,32,10.714l1.318.006-2.9-.051a.375.375,0,0,1-.367-.355l-.249-4.6a.374.374,0,0,1,.374-.395h4.452v-.36L30.7,4.979a.371.371,0,0,1-.263-.109.376.376,0,0,1-.112-.266V2.863a.377.377,0,0,1,.375-.375l6.888.066a.376.376,0,0,1,.265.114.364.364,0,0,1,.1.267l-.03,2.038,1.616-.093.1-2.894a.379.379,0,0,1,.122-.264.374.374,0,0,1,.253-.1l3.107.183a.376.376,0,0,1,.353.373L43.5,7.605l-.083,3a.375.375,0,0,1-.1.25.362.362,0,0,1,.071.223l-.016,2.786-.034,3.684a.374.374,0,0,1-.375.372L32.21,17.883m7.527-3.013.006-.36-3.307-.054.015.346Zm.088-3.011.022-.83a.4.4,0,0,1,.041-.159.384.384,0,0,1-.124-.257L39.619,8.1H37.883a.373.373,0,0,1-.265-.111.379.379,0,0,1-.11-.266l0-.071H34.486l.014.524,3.367-.03a.376.376,0,0,1,.265.11.372.372,0,0,1,.11.269l-.016,1.907a.376.376,0,0,1-.375.371l-1.707-.03a.377.377,0,0,1,.208.325l.022.764Z" fill="#eeb94d"/>
      <path id="패스_3808" data-name="패스 3808" d="M40.023,2l3.085.183.017,5.424-.083,2.985h-2.9l-.166-2.869H37.884L37.9,5.351l2.007-.116ZM30.7,2.863l6.883.067-.066,4.345H34.1l.033,1.277,3.732-.033-.017,1.907-7.43-.132L30.171,5.7H35V4.588L30.7,4.6V2.863m7.165,5.656h.005m2.35,2.521,2.787.033-.017,2.787-.033,3.682-10.748-.033-.166-3.666L32,11.09l3.981.016.033,1.128h4.18l.033-1.194m-.116,4.213.017-1.112-4.08-.065.049,1.094,4.014.083m-.083-14a.75.75,0,0,0-.749.723l-.092,2.552-.872.051.025-1.635a.749.749,0,0,0-.743-.761l-6.883-.067H30.7a.749.749,0,0,0-.75.75V4.6a.741.741,0,0,0,.09.356.751.751,0,0,0-.62.78l.249,4.594a.75.75,0,0,0,.735.71l.84.015c0,.014,0,.029,0,.044l.05,2.754.167,3.686a.751.751,0,0,0,.747.716l10.748.033h0a.75.75,0,0,0,.75-.743l.033-3.682.017-2.79a.753.753,0,0,0-.025-.2.726.726,0,0,0,.057-.268l.083-2.985-.016-5.447a.751.751,0,0,0-.706-.747l-3.085-.182-.044,0m-1.4,7.223h.647l.126,2.162a.737.737,0,0,0,.087.311.583.583,0,0,0-.005.073l-.013.465H36.738l-.01-.328,1.109.02h.013a.749.749,0,0,0,.75-.743l.016-1.846c0-.022,0-.045,0-.068s0-.031,0-.046" fill="#fff"/>
    </g>
  </g>
</svg>
