<svg id="그룹_711" data-name="그룹 711" xmlns="http://www.w3.org/2000/svg" xmlns:xlink="http://www.w3.org/1999/xlink" width="72.366" height="53.309" viewBox="0 0 72.366 53.309">
  <defs>
    <clipPath id="clip-path">
      <rect id="사각형_1547" data-name="사각형 1547" width="72.366" height="53.309" fill="none"/>
    </clipPath>
  </defs>
  <g id="그룹_710" data-name="그룹 710" transform="translate(0 0)" clip-path="url(#clip-path)">
    <path id="패스_1699" data-name="패스 1699" d="M13.614,56.218a3.507,3.507,0,0,0-.354-2.308.955.955,0,0,0-.886-.512c-.4.021-.545.381-.648.7a5.071,5.071,0,0,0-.175,2.051l2.063.066m3.4,3.241c.023-.006.034-.054.083-.143-.253-.021-.48-.038-.769-.064-1.167-2.954-2.346-5.935-3.576-9.051-.18.349-.314.572-.413.806C11.921,52,11.516,53,11.1,53.992c-.19.452-.4.9-.577,1.357-.391,1.025-.778,2.05-1.13,3.089-.187.543-.419.972-1.087.927-.026,0-.056.044-.107.088.079.058.152.116.229.161.5.309.475.415.4.988-.031.243-.067.486-.082.729q-.185,3.174-.363,6.349c-.049.9-.071,1.8-.119,2.7-.012.27-.05.851-.084,1.314a3.679,3.679,0,0,0,.879-.121,2.9,2.9,0,0,0,.054-.385q.087-2.548.167-5.1c.006-.2-.01-.413.013-.614.1-.845.184-1.694.325-2.532a9.4,9.4,0,0,1,.636-2.578,5.3,5.3,0,0,1,2.726-2.878c.107.12.223.238.323.371a13.16,13.16,0,0,1,1.727,2.926,8.03,8.03,0,0,1,.813,4.055c-.185,1.61-.2,3.242-.26,4.866-.023.618.006,1.24.013,1.919.228-.006.42-.012.654-.021-.01-.589-.036-1.116-.032-1.643.007-.927.014-1.857.053-2.785.079-1.845-.08-3.694.054-5.539a9.435,9.435,0,0,0,.033-1.134.891.891,0,0,1,.661-1.042M4.724,69.572c-1.092-.016-2.183-.067-3.33-.1a7.215,7.215,0,0,0,.1,2l6.5.149c.019-.682.036-1.51.053-2.049-1.158,0-2.238.022-3.317.007" transform="translate(-0.661 -24.195)" fill="#e2d09f"/>
    <path id="패스_1700" data-name="패스 1700" d="M41.414,50.737l1.293-.157c.026.3.063.542.064.782,0,1.324,0,2.648,0,3.972q0,1.362-.011,2.724c-.01,1.816-.016,3.632-.032,5.448q-.026,3.094-.066,6.188a2.368,2.368,0,0,1-.032.247,3.747,3.747,0,0,1-1.615,0,39.477,39.477,0,0,1,.111-5.812l.628-.162c-.037-.282-.071-.554-.108-.831l-.449-.184c.051-2.508.1-5.005.153-7.537l.562-.208c.021-.746.021-.746-.491-.913,0-1.156,0-2.319,0-3.555" transform="translate(-19.732 -24.378)" fill="#e2d09f"/>
    <path id="패스_1701" data-name="패스 1701" d="M2.747,61.669c-.457-.005-.563.192-.547.506s.006.633.007.964l.7.115A25.307,25.307,0,0,1,2.9,68.5l-1.456-.047c.013-.429.035-.874.041-1.319.019-1.36.026-2.72.048-4.08.02-1.247.108-2.5.066-3.741-.067-1.989.083-3.97.122-5.954.025-1.287.022-2.575.042-3.862a7.312,7.312,0,0,1,.092-.767l1.46-.217c.189,1.7-.051,3.365-.02,5.053l-.557.134c-.01.322-.02.637-.031.978l.429.193c-.153,2.244-.658,4.461-.387,6.8" transform="translate(-0.695 -23.38)" fill="#e2d09f"/>
    <path id="패스_1702" data-name="패스 1702" d="M10.616,46.439c-.066-1.326.145-2.658-.006-3.978a26.075,26.075,0,0,0-5.045-.126c-.042,2.8-.084,5.533-.126,8.245a24.571,24.571,0,0,0,5.219-.133,27.04,27.04,0,0,0-.042-4.008m-.766-1.471q-.027,2.206-.066,4.424c0,.169-.024.332-.042.585-1.272-.114-2.525.156-3.755,0,.072-2.278.145-4.5.217-6.762A18.063,18.063,0,0,0,9.76,43.13a4.116,4.116,0,0,1,.1.584c.012.416-.006.838-.012,1.254" transform="translate(-2.621 -20.371)" fill="#e2d09f"/>
    <path id="패스_1703" data-name="패스 1703" d="M6.76,61.616a42.794,42.794,0,0,0-.072,5.822c1.042-.06,2.019-.114,3.05-.168.181-1.917.09-3.833.2-5.792-1.1.235-2.14-.042-3.182.139m1.9,4.279c-.223-.006-.428-.012-.687-.024a10.071,10.071,0,0,1,.241-2.911c.223.012.4.018.585.018a11.327,11.327,0,0,1-.138,2.917" transform="translate(-3.183 -29.63)" fill="#e2d09f"/>
    <path id="패스_1704" data-name="패스 1704" d="M9.942,67.274c-.223-.006-.428-.012-.687-.024A10.071,10.071,0,0,1,9.5,64.339c.223.012.4.018.585.018a11.327,11.327,0,0,1-.138,2.917" transform="translate(-4.461 -31.009)" fill="#604c3e"/>
    <path id="패스_1705" data-name="패스 1705" d="M9.863,63.553l-.815-.026A22.153,22.153,0,0,1,9.1,60.345l-3.556.04a53.411,53.411,0,0,0-.166,6.444l3.481-.188c.165-.829.011-1.7.175-2.62a9.3,9.3,0,0,1,.814.466.437.437,0,0,1,.14.337c-.055.787-.132,1.573-.2,2.394-1.812.091-3.577-.124-5.411-.177a61.05,61.05,0,0,1,.454-7.075c1.677-.314,3.362-.161,5.078-.386a34.834,34.834,0,0,1-.045,3.973" transform="translate(-2.109 -28.715)" fill="#e2d09f"/>
    <path id="패스_1706" data-name="패스 1706" d="M30.894,64.59l.868-.473a19.734,19.734,0,0,0-.159,3.029,20.067,20.067,0,0,0,3.5-.182c.17-2.209.152-4.416.218-6.683a17.31,17.31,0,0,0-3.506.093c0,1.145,0,2.235,0,3.387-.247-.032-.446-.059-.644-.082a.364.364,0,0,1-.353-.426c.035-1.077.069-2.155.106-3.3a51.376,51.376,0,0,1,5.216.042c-.058,2.514.009,5.034-.216,7.593L30.7,67.544a11.654,11.654,0,0,1,.2-2.954" transform="translate(-14.776 -28.869)" fill="#e2d09f"/>
    <path id="패스_1707" data-name="패스 1707" d="M33.129,61.162c.012.5.024.916.03,1.332.006.657.018,1.319.012,1.983a3.008,3.008,0,0,1-.078.874,7.016,7.016,0,0,0-.163,1.995,15.336,15.336,0,0,0,3.025-.121c.151-2.043.163-4.08.2-6.19-1.037.042-2.013.084-3.025.127m1.724,4.93-.765.018a6.108,6.108,0,0,1-.066-.693c.012-.7.03-1.392.066-2.091a3.327,3.327,0,0,1,.163-.591c.253.012.452.018.705.024-.036,1.1-.066,2.182-.1,3.333" transform="translate(-15.871 -29.417)" fill="#e2d09f"/>
    <path id="패스_1708" data-name="패스 1708" d="M35.97,64.34c-.036,1.1-.066,2.181-.1,3.333l-.765.018A6.108,6.108,0,0,1,35.035,67c.012-.7.03-1.392.066-2.091a3.319,3.319,0,0,1,.163-.591c.253.012.452.018.705.024" transform="translate(-16.886 -30.998)" fill="#604c3e"/>
    <path id="패스_1709" data-name="패스 1709" d="M31.377,42.991c-.018,1.368-.018,2.652-.048,3.936s-.078,2.544-.121,3.869c1.748-.024,3.459-.048,5.219-.078.048-2.531.091-5.008.139-7.558-1.724-.054-3.448-.108-5.189-.169M35.722,50.3c-.615.006-1.236.024-1.856.018s-1.242-.036-1.862-.06a34.842,34.842,0,0,1,.169-6.328c1.247,0,2.471.006,3.688.006a36.532,36.532,0,0,1-.139,6.364" transform="translate(-15.041 -20.72)" fill="#e2d09f"/>
    <path id="패스_1710" data-name="패스 1710" d="M35.636,76.463a17.992,17.992,0,0,0-2.483-.078A55.627,55.627,0,0,0,33.02,82.3a18.457,18.457,0,0,0,2.761.054c.03-.765.054-1.483.072-2.2q.037-1.591.066-3.176c.006-.229.054-.482-.283-.519M34.31,81.471c-.054,0-.108-.012-.259-.024a9.887,9.887,0,0,1,.145-2.772,1.662,1.662,0,0,1,.283-.422,1.133,1.133,0,0,1,.337.873c.048.579.061,1.164.061,1.748,0,.567-.012.567-.567.6" transform="translate(-15.901 -36.811)" fill="#e2d09f"/>
    <path id="패스_1711" data-name="패스 1711" d="M35.832,82.62c0,.567-.012.567-.567.6-.054,0-.108-.012-.259-.024a9.906,9.906,0,0,1,.145-2.772A1.663,1.663,0,0,1,35.434,80a1.134,1.134,0,0,1,.338.874c.048.579.06,1.164.06,1.748" transform="translate(-16.856 -38.556)" fill="#604c3e"/>
    <path id="패스_1712" data-name="패스 1712" d="M9.856,76.8l-2.609.054a24.329,24.329,0,0,0-.3,5.334,24.627,24.627,0,0,0,2.736-.078c.03-.928.084-1.8.078-2.658a21.44,21.44,0,0,0,.1-2.652M8.723,81.223c-.241-.024-.416-.048-.6-.066.03-.8.036-1.549.084-2.3.024-.38.211-.44.741-.283a21.465,21.465,0,0,1-.223,2.652" transform="translate(-3.332 -37.014)" fill="#e2d09f"/>
    <path id="패스_1713" data-name="패스 1713" d="M9.846,82.8c-.241-.024-.416-.048-.6-.066.03-.8.036-1.549.084-2.3.024-.38.211-.44.741-.283A21.465,21.465,0,0,1,9.846,82.8" transform="translate(-4.455 -38.588)" fill="#604c3e"/>
    <path id="패스_1714" data-name="패스 1714" d="M30.549,89.954c-.023-.47-.047-.971-.071-1.465a47.427,47.427,0,0,1,7.072.074c-.015.472-.031.95-.047,1.471a8.638,8.638,0,0,1-1.99.036q-1.641-.03-3.283-.063c-.543-.012-1.087-.034-1.681-.053" transform="translate(-14.689 -42.599)" fill="#e2d09f"/>
    <path id="패스_1715" data-name="패스 1715" d="M20.4,83.656a.743.743,0,0,0-.746.44,6.418,6.418,0,0,0-.979,2.926c-.013.111-.009.223-.014.393l-.683.048c-.1-.548-.181-1.067-.3-1.574a2.759,2.759,0,0,0-.337-.838A1.727,1.727,0,0,1,17.06,83.8c.688.2.717.969,1.185,1.377a7.413,7.413,0,0,1,.46-.933,6.011,6.011,0,0,1,.823-1c.377-.357.513-.337.934-.011a3.157,3.157,0,0,1,1.05,1.518c.053.156.1.314.18.556.343-.453.616-.888,1.248-.993-.036.2-.006.434-.106.518a3.837,3.837,0,0,0-1.026,2.1c-.036.127-.063.257-.106.435l-.516.01a10.846,10.846,0,0,0-.783-3.725" transform="translate(-8.212 -39.994)" fill="#ffa35b"/>
    <path id="패스_1716" data-name="패스 1716" d="M17.17,82.6c.007-.223.017-.524.027-.857a30.859,30.859,0,0,1,5.862-.136c-.017.541-.034,1.059-.051,1.588l-1.15.743a6.452,6.452,0,0,0-.463-.8,6.188,6.188,0,0,0-.874-.954c-.364-.309-.589-.273-.965.02a4.061,4.061,0,0,0-1.032,1.34c-.068.126-.139.251-.216.39L17.17,82.6" transform="translate(-8.275 -39.296)" fill="#ffa35b"/>
    <path id="패스_1717" data-name="패스 1717" d="M17.2,72.694c.071-.75.107-1.506.223-2.249a9.2,9.2,0,0,1,.837-2.933,6.072,6.072,0,0,1,1.655-2.045c.49-.376.714-.365,1.083.147a14,14,0,0,1,1.86,3.492,9.206,9.206,0,0,1,.388,3.448l-.636-.021a10.211,10.211,0,0,0-.116-3.153,8.425,8.425,0,0,0-.565-1.532c-.423-.728-.952-1.4-1.442-2.1a3.107,3.107,0,0,0-1.845,1.7,7.61,7.61,0,0,0-.707,2.44c-.1.653-.156,1.312-.234,1.969a5.148,5.148,0,0,1-.107.727c-.023.087-.35.138-.4.1" transform="translate(-8.289 -31.426)" fill="#ffa35b"/>
    <path id="패스_1718" data-name="패스 1718" d="M31.46,82.343l-1.016-.033c.024-1.933.048-3.882.073-5.876.221,0,.383-.008.545-.007s.332.01.5.015c.023.085-.033,3.487-.041,3.9-.013.641-.039,1.281-.062,2" transform="translate(-14.673 -36.835)" fill="#e2d09f"/>
    <path id="패스_1719" data-name="패스 1719" d="M38.99,82.488c.02-1.936.039-3.854.059-5.813l.822.026c-.011,1.915-.022,3.835-.033,5.814l-.848-.027" transform="translate(-18.792 -36.954)" fill="#e2d09f"/>
    <path id="패스_1720" data-name="패스 1720" d="M9.271,74.651c.011.173.023.265.021.357,0,.11-.02.221-.036.393-1.943-.055-3.874.108-5.829-.082.008-.246.015-.466.022-.7a1.968,1.968,0,0,1,1.2-.106,23.681,23.681,0,0,0,3.955.124,6.249,6.249,0,0,1,.67.018" transform="translate(-1.651 -35.891)" fill="#e2d09f"/>
    <path id="패스_1721" data-name="패스 1721" d="M22.525,69.344c0,.006-.006.012-.006.018a6.162,6.162,0,0,0-1.489-2.417c-.97.277-1.7,1.585-1.964,2.658a16.608,16.608,0,0,0-.53,4.038c1.392-.066,2.73-.126,4.068-.2a.979.979,0,0,0,.3-.114,8.54,8.54,0,0,0-.374-3.984m.024,2.224c-.066.156-.114.32-.181.476a1.532,1.532,0,0,1-1.314,1.025c-.205.018-.416.018-.621.03a1.2,1.2,0,0,1-1.23-.748,4.061,4.061,0,0,1,.006-2.435A2.188,2.188,0,0,1,20.35,68.9a1.543,1.543,0,0,1,2.061.82c.006.012.012.018.018.03a3.135,3.135,0,0,1,.121,1.814" transform="translate(-8.926 -32.265)" fill="#ffa35b"/>
    <path id="패스_1722" data-name="패스 1722" d="M22.893,71.457c-.006-.012-.012-.018-.018-.03a1.543,1.543,0,0,0-2.061-.82,2.19,2.19,0,0,0-1.139,1.013,4.061,4.061,0,0,0-.006,2.435,1.2,1.2,0,0,0,1.23.748c.2-.012.415-.012.621-.031a1.531,1.531,0,0,0,1.314-1.024c.066-.157.114-.32.181-.476a3.135,3.135,0,0,0-.121-1.814m-.084.319c-.108.542-.126.555-.813.615.211-.32.368-.633.813-.615M20.03,73.157c-.271-.042-.374-.175-.332-.422a.3.3,0,0,1,.422-.247,5.9,5.9,0,0,1,.771.325,1,1,0,0,1-.862.344m.4,1.049c-.2-.494-.133-.621.47-.886-.06.41-.126.717-.47.886M20.1,71.837c-.091-.157-.03-.259.253-.591a1.228,1.228,0,0,1,.591,1.127.882.882,0,0,1-.844-.536m1.115-.952c.265.392.271.434.018,1.109a1.418,1.418,0,0,1-.018-1.109m.181,3.333c-.175.06-.283-.09-.283-.253a1.121,1.121,0,0,1,.253-.892,6.524,6.524,0,0,1,.247.826.4.4,0,0,1-.217.319m.814-3.05c.036.47-.277.681-.482.97-.217-.536-.114-.759.482-.97m.133,2.893c-.47-.061-.561-.374-.567-.771.651.138.651.138.567.771m-.434-1.224a.8.8,0,0,1,.94-.03c-.325.524-.452.524-.94.03" transform="translate(-9.39 -33.968)" fill="#604c3e"/>
    <path id="패스_1723" data-name="패스 1723" d="M13.575,82.059l-.768.025a23.085,23.085,0,0,1,.245-5.39l.685.109c.075,1.773-.119,3.5-.162,5.256" transform="translate(-6.14 -36.964)" fill="#e2d09f"/>
    <path id="패스_1724" data-name="패스 1724" d="M5.59,82.266,4.806,82.2c.01-1.728.02-3.433.031-5.2l.923-.054c-.058,1.778-.112,3.509-.17,5.319" transform="translate(-2.316 -37.086)" fill="#e2d09f"/>
    <path id="패스_1725" data-name="패스 1725" d="M17.241,80.725c-.006-.184-.01-.314-.015-.452a.677.677,0,0,1,.16-.058c.414-.028.828-.059,1.243-.074.887-.033,1.775-.07,2.662-.078.619-.005,1.238.035,1.884.056-.013.143-.026.288-.041.456l-5.893.149" transform="translate(-8.302 -38.587)" fill="#ffa35b"/>
    <path id="패스_1726" data-name="패스 1726" d="M36.38,75.194c.093.238.077.386-.133.4-.612.039-1.226.088-1.839.081-1.094-.011-2.188-.058-3.281-.093a1.047,1.047,0,0,1-.39-.049c-.082-.037-.124-.163-.256-.354l5.9.016" transform="translate(-14.691 -36.233)" fill="#e2d09f"/>
    <path id="패스_1727" data-name="패스 1727" d="M30.1,58.821c.03-.065.051-.19.1-.2a3.913,3.913,0,0,1,.874-.161c1.719-.014,3.439-.006,5.159,0a.694.694,0,0,1,.183.061c-.008.07,0,.192-.026.2a3.175,3.175,0,0,1-.9.231c-1.771,0-3.541-.044-5.311-.073-.016,0-.031-.02-.081-.055" transform="translate(-14.508 -28.171)" fill="#e2d09f"/>
    <path id="패스_1728" data-name="패스 1728" d="M10.416,58.567c-.5-.041-3.574.194-4.2.208s-1.235.016-1.873.024c-.023.19-.038.31-.053.435,1.031-.128,5.045-.175,6.145-.366a2.2,2.2,0,0,1-.021-.3" transform="translate(-2.068 -28.225)" fill="#e2d09f"/>
    <path id="패스_1729" data-name="패스 1729" d="M23.319,49.1l-.461.2c-.008.239-.016.477-.024.74l.505.079q-.05,1.55-.1,3.094l-.075.034c-.142-.272-.306-.536-.422-.819-.525-1.276-1.046-2.553-1.55-3.838s-1.036-2.56-1.454-3.872a6.877,6.877,0,0,1-.1-1.741q-.019-.459-.041-.918l-.132-.007a1.639,1.639,0,0,0-.069.342c0,.643.029,1.287.024,1.931a1.664,1.664,0,0,1-.117.6c-.776,1.909-1.573,3.81-2.34,5.723-.352.876-.649,1.774-.978,2.66a1.442,1.442,0,0,1-.3.486c-.095-1.274-.167-2.535-.139-3.823l.579-.217c-.017-.154.022-.412-.063-.464-.374-.226-.232-.563-.235-.859-.018-1.344-.019-2.688-.031-4.032a1.861,1.861,0,0,0-.053-.334.6.6,0,0,1,.13-.522c.852-1.133,1.687-2.28,2.526-3.423a1.739,1.739,0,0,1,1.822-.518.832.832,0,0,1,.3.322c.818,1.3,1.6,2.617,2.457,3.885a2.836,2.836,0,0,1,.535,1.955c-.1,1.092-.131,2.191-.194,3.34" transform="translate(-7.49 -19.044)" fill="#604c3e"/>
    <path id="패스_1730" data-name="패스 1730" d="M36.527,33.163l-1.609-.052a9.232,9.232,0,0,1-.138-1.79,16.935,16.935,0,0,0-.075-1.746,1.361,1.361,0,0,0-.587-.938.66.66,0,0,0-1.06.191,2.482,2.482,0,0,0-.286.793,10.508,10.508,0,0,0-.171,2.54,9.124,9.124,0,0,1-.025.936l-2.23-.071a7.957,7.957,0,0,1,.715-.665,1.873,1.873,0,0,0,.683-1.383c.156-1.1.265-2.2.4-3.3.085-.691.174-1.382.279-2.07.1-.634.218-1.265.327-1.9.032-.185.061-.37.1-.625l1.858-.194c.039.426.069.78.1,1.134.207,2.2.411,4.4.625,6.6a12.546,12.546,0,0,0,.193,1.287,1.189,1.189,0,0,0,.245.428c.212.284.439.558.65.825" transform="translate(-14.626 -11.031)" fill="#604c3e"/>
    <path id="패스_1731" data-name="패스 1731" d="M10.492,32.905l-1.656-.138c-.011-.834-.033-1.622-.029-2.41a4.116,4.116,0,0,0-.2-1.564,2.336,2.336,0,0,0-.282-.553.633.633,0,0,0-1.062-.077,2.5,2.5,0,0,0-.5.868,9.133,9.133,0,0,0-.3,2.638c-.006.318-.02.637-.032,1.018l-2.118.074a5.879,5.879,0,0,1,1.789-1.91c.259-2.561.519-5.144.787-7.807.514,0,1,0,1.485.011.209.007.266.171.284.359.042.452.1.9.137,1.354.093,1.2.17,2.4.267,3.6.059.73.2,1.46.191,2.189A1.669,1.669,0,0,0,9.8,31.835a9.863,9.863,0,0,1,.7.893c.017.022,0,.069,0,.177" transform="translate(-2.081 -11.107)" fill="#604c3e"/>
    <path id="패스_1732" data-name="패스 1732" d="M10.56,7.461c.172,2.278.344,4.556.518,6.862l-1.4-.045a40.99,40.99,0,0,1,.769-6.811l.119-.006" transform="translate(-4.655 -3.596)" fill="#604c3e"/>
    <path id="패스_1733" data-name="패스 1733" d="M36.876,14.964l-1.693.1.8-6.306.14,0c.25,2.044.5,4.087.758,6.206" transform="translate(-16.957 -4.221)" fill="#604c3e"/>
    <path id="패스_1734" data-name="패스 1734" d="M36.857,35.253a1.417,1.417,0,0,0-.541-.967c-.253-.187-.442-.183-.639.059a.948.948,0,0,0-.217.391,15.716,15.716,0,0,0-.221,3.773l1.655.053a18.627,18.627,0,0,0-.038-3.309m-.975,2.8c-.054-.007-.109-.023-.272-.059a6.1,6.1,0,0,1-.03-.777c.047-.54.12-1.085.206-1.62.019-.109.143-.284.213-.281a.558.558,0,0,1,.357.2.787.787,0,0,1,.171.413,12.707,12.707,0,0,1,.079,1.569c-.027.547-.159.617-.724.559" transform="translate(-16.977 -16.461)" fill="#604c3e"/>
    <path id="패스_1735" data-name="패스 1735" d="M36.93,38.584c-.027.547-.159.616-.724.559-.054-.007-.109-.024-.272-.059a6.011,6.011,0,0,1-.03-.777c.047-.541.12-1.085.206-1.62.019-.109.143-.284.213-.282a.558.558,0,0,1,.357.2.784.784,0,0,1,.171.413,12.7,12.7,0,0,1,.079,1.569" transform="translate(-17.301 -17.546)" fill="#232323"/>
    <path id="패스_1736" data-name="패스 1736" d="M23.484,31.55,22.013,31.5a28.71,28.71,0,0,0-.155,3.447h-.01l.02.478,1.6.052s.019-2.92.017-3.929m-1.158,3.365c.025-.785.045-1.556.084-2.325.015-.288.071-.963.457-.742.185.106.173.652.182.832.049.817.021,1.368.06,2.186-.234.012-.528.033-.783.049" transform="translate(-10.53 -15.183)" fill="#604c3e"/>
    <path id="패스_1737" data-name="패스 1737" d="M23.555,35.146c-.234.012-.528.033-.783.049.025-.785.045-1.555.085-2.325.014-.288.07-.963.456-.741.186.105.173.652.182.831.048.817.021,1.369.059,2.186" transform="translate(-10.975 -15.464)" fill="#232323"/>
    <path id="패스_1738" data-name="패스 1738" d="M10.72,34.344a2.489,2.489,0,0,0-.226-.868c-.27-.581-.652-.608-1-.087a1.64,1.64,0,0,0-.26.5,13.645,13.645,0,0,0-.3,3.268,1.369,1.369,0,0,0,.095.317l1.818.058c-.038-1.12-.06-2.156-.121-3.187m-.473,2.5c-.239.007-.479.045-.748.065a6.858,6.858,0,0,1,.066-2.524,1.518,1.518,0,0,1,.252-.564c.229-.316.466-.278.613.094a1.591,1.591,0,0,1,.127.551c.028.657.037,1.319.051,1.981.007.254-.087.39-.361.4" transform="translate(-4.303 -15.914)" fill="#604c3e"/>
    <path id="패스_1739" data-name="패스 1739" d="M11.055,37c.007.254-.087.39-.361.4-.239.007-.479.045-.748.065a6.846,6.846,0,0,1,.066-2.524,1.509,1.509,0,0,1,.252-.564c.229-.316.467-.278.614.094a1.6,1.6,0,0,1,.126.551c.028.658.037,1.319.051,1.981" transform="translate(-4.75 -16.463)" fill="#232323"/>
    <path id="패스_1740" data-name="패스 1740" d="M21.809,27.369c.319-1.28.618-2.483.922-3.7a19.384,19.384,0,0,1,.669,3.754l-1.591-.051" transform="translate(-10.511 -11.407)" fill="#604c3e"/>
    <path id="패스_1741" data-name="패스 1741" d="M40.952,37.955c-.6-.972-.349-2.1-.591-3.182l.846-.027-.1,3.182-.154.027" transform="translate(-19.452 -16.746)" fill="#604c3e"/>
    <path id="패스_1742" data-name="패스 1742" d="M31.586,34.607l.66.145c-.109,1.657-.3,2.491-.7,2.792-.055-.978.05-1.9.035-2.937" transform="translate(-15.199 -16.679)" fill="#604c3e"/>
    <path id="패스_1743" data-name="패스 1743" d="M10.758,21.417c-.206.5-.206.5-.642.5-.359,0-.721-.032-1.076,0s-.51-.143-.636-.474a4.976,4.976,0,0,1,2.353-.022" transform="translate(-4.051 -10.259)" fill="#604c3e"/>
    <path id="패스_1744" data-name="패스 1744" d="M34.6,21.439l2.316-.16c-.05.189-.087.331-.138.526-.533.06-1.07.138-1.61.177-.4.028-.4.006-.568-.543" transform="translate(-16.678 -10.256)" fill="#604c3e"/>
    <path id="패스_1745" data-name="패스 1745" d="M6.967,34.834c-.13.663-.09,1.311-.712,1.743l.057-1.762c.111-.009.2-.024.284-.022s.181.019.371.042" transform="translate(-3.015 -16.768)" fill="#604c3e"/>
    <path id="패스_1746" data-name="패스 1746" d="M14.637,34.948c-.02.619-.04,1.247-.063,1.954a1.2,1.2,0,0,1-.146-.305c-.05-.465-.085-.932-.124-1.4-.018-.214.055-.328.333-.25" transform="translate(-6.893 -16.832)" fill="#604c3e"/>
    <path id="패스_1747" data-name="패스 1747" d="M36.843,3.348c-.005-.142-.1-.24-.336-.444-.008-.273-.012-.673-.021-.943a2.554,2.554,0,0,0,.284-.042.041.041,0,0,0,.009-.068c-.114-.058-.2-.033-.272-.07V1.4l-.162-.02-.027.391a1.007,1.007,0,0,0-.279.055c-.01,0,0,.027,0,.077.071.027.176.014.275.052,0,.13-.007.414-.014.535-.008.143-.035.421-.035.421s-.088.137-.168.235a.546.546,0,0,0,.19.765c-.011.132-.07.752-.09.929.142,0,.261-.009.4-.012-.032-.281-.038-.636-.052-.919,0,0,.315-.092.3-.565m-.4-.234c.094.133.179.205.2.291-.019-.086-.1-.158-.2-.291" transform="translate(-17.352 -0.667)" fill="#604c3e"/>
    <path id="패스_1748" data-name="패스 1748" d="M11.272,2.527c-.006-.142-.1-.241-.336-.444-.009-.273-.013-.673-.021-.943A2.5,2.5,0,0,0,11.2,1.1a.041.041,0,0,0,.009-.068c-.115-.058-.2-.033-.272-.071V.581L10.775.562l-.027.391a1.02,1.02,0,0,0-.28.056c-.01,0,0,.027,0,.077.071.028.176.014.274.053,0,.13-.007.414-.013.535-.009.143-.035.421-.035.421s-.089.137-.168.235a.545.545,0,0,0,.19.765c-.011.133-.07.752-.09.929.143,0,.261-.009.4-.012-.032-.281-.039-.636-.052-.92,0,0,.316-.091.3-.564M11,2.456c-.035-.046-.08-.1-.127-.163.047.066.092.118.127.163m-.359.142a.164.164,0,0,0,0,.076.164.164,0,0,1,0-.076m.172.216h0a.261.261,0,0,0,.247-.14.261.261,0,0,1-.247.14" transform="translate(-5.028 -0.271)" fill="#604c3e"/>
    <path id="패스_1749" data-name="패스 1749" d="M21.487,73.086a.882.882,0,0,1-.844-.536c-.09-.157-.03-.26.253-.591a1.23,1.23,0,0,1,.591,1.127" transform="translate(-9.93 -34.682)" fill="#ffa35b"/>
    <path id="패스_1750" data-name="패스 1750" d="M21.085,74.663a1,1,0,0,1-.862.343c-.271-.042-.374-.175-.331-.422a.3.3,0,0,1,.422-.247,5.826,5.826,0,0,1,.771.325" transform="translate(-9.583 -35.818)" fill="#ffa35b"/>
    <path id="패스_1751" data-name="패스 1751" d="M23.133,76.31a.4.4,0,0,1-.217.32c-.175.06-.283-.091-.283-.253a1.122,1.122,0,0,1,.253-.892,6.549,6.549,0,0,1,.247.826" transform="translate(-10.907 -36.38)" fill="#ffa35b"/>
    <path id="패스_1752" data-name="패스 1752" d="M24.205,71.808c.036.47-.277.681-.482.97-.217-.536-.114-.759.482-.97" transform="translate(-11.383 -34.609)" fill="#ffa35b"/>
    <path id="패스_1753" data-name="패스 1753" d="M21.7,75.962c-.06.41-.126.717-.47.886-.2-.494-.133-.621.47-.886" transform="translate(-10.182 -36.611)" fill="#ffa35b"/>
    <path id="패스_1754" data-name="패스 1754" d="M25.11,74.844c-.325.524-.452.524-.94.03a.8.8,0,0,1,.94-.03" transform="translate(-11.649 -36.005)" fill="#ffa35b"/>
    <path id="패스_1755" data-name="패스 1755" d="M22.749,72.37a1.419,1.419,0,0,1-.018-1.109c.265.392.271.434.018,1.109" transform="translate(-10.903 -34.345)" fill="#ffa35b"/>
    <path id="패스_1756" data-name="패스 1756" d="M25.146,72.982c-.108.542-.126.554-.814.615.211-.32.368-.633.814-.615" transform="translate(-11.727 -35.174)" fill="#ffa35b"/>
    <path id="패스_1757" data-name="패스 1757" d="M24.48,76.674c-.47-.06-.561-.373-.567-.771.651.138.651.138.567.771" transform="translate(-11.525 -36.582)" fill="#ffa35b"/>
    <path id="패스_1758" data-name="패스 1758" d="M10.214,44.55c-1.007.036-2,.073-3.062.109-.006.3-.012.561-.024.825-.066,1.242-.139,2.477-.205,3.725-.018.41-.03.832-.042,1.247-.006.247.108.4.367.4.958-.024,1.922-.06,2.959-.09.031-2,.061-3.96.084-5.912a1.6,1.6,0,0,0-.078-.3M8.473,50.191a.3.3,0,0,1-.368.32c-.168-.018-.332-.036-.53-.06A14.35,14.35,0,0,1,7.569,47a3.665,3.665,0,0,1,.241-.861c.036-.109.163-.181.247-.271a.914.914,0,0,1,.386.82c.018,1.091.03,2.182.042,3.279,0,.073-.006.151-.012.223M9.8,50.4c-.332.024-.6.048-.874.066-.042-.073-.09-.126-.09-.169q.081-1.908.186-3.8a.9.9,0,0,1,.114-.434.494.494,0,0,1,.332-.247c.1.006.211.168.29.277a.525.525,0,0,1,.066.277C9.823,47.7,9.811,49.034,9.8,50.4" transform="translate(-3.317 -21.471)" fill="#e2d09f"/>
    <path id="패스_1759" data-name="패스 1759" d="M11.651,47.536c-.006,1.332-.018,2.67-.024,4.032-.331.024-.6.048-.873.066-.042-.073-.091-.126-.091-.169.054-1.271.114-2.537.187-3.8a.892.892,0,0,1,.114-.434.494.494,0,0,1,.332-.247c.1.006.211.168.289.277a.525.525,0,0,1,.066.277" transform="translate(-5.139 -22.644)" fill="#604c3e"/>
    <path id="패스_1760" data-name="패스 1760" d="M9.028,51.2c0,.073-.006.151-.012.223a.3.3,0,0,1-.368.32c-.169-.018-.332-.036-.53-.06a14.35,14.35,0,0,1-.006-3.448,3.641,3.641,0,0,1,.241-.862c.036-.109.162-.181.247-.271a.914.914,0,0,1,.386.82c.018,1.091.03,2.182.042,3.279" transform="translate(-3.86 -22.699)" fill="#604c3e"/>
    <path id="패스_1761" data-name="패스 1761" d="M33.282,45.406c-.283,1.832-.156,3.695-.259,5.605,1.169.03,2.266.169,3.441.084.012-1.971.024-3.875.03-5.882a18.973,18.973,0,0,0-3.212.193m.452,5.37c-.217-1.929-.012-4,.464-4.5a1.1,1.1,0,0,1,.289.868c.042.8.06,1.585.084,2.38.012.392.012.783.018,1.236-.32.006-.591.012-.856.012m1.76-.03a.855.855,0,0,1-.163-.042c-.036-.012-.06-.049-.126-.1.036-1.23.078-2.489.12-3.743a.571.571,0,0,1,.078-.271c.054-.091.163-.223.217-.211.1.031.241.133.253.229a7.735,7.735,0,0,1,.139,1.175c.03.826.042,1.657.036,2.483-.006.519-.066.555-.554.482" transform="translate(-15.916 -21.791)" fill="#e2d09f"/>
    <path id="패스_1762" data-name="패스 1762" d="M35.171,51.756c-.32.006-.591.012-.856.012-.217-1.929-.012-4,.464-4.5a1.1,1.1,0,0,1,.289.868c.042.8.061,1.585.084,2.38.012.392.012.783.018,1.236" transform="translate(-16.497 -22.783)" fill="#604c3e"/>
    <path id="패스_1763" data-name="패스 1763" d="M38.078,51.345c-.006.519-.066.554-.554.482a.81.81,0,0,1-.163-.042c-.036-.012-.061-.048-.127-.1.036-1.229.079-2.489.121-3.742a.575.575,0,0,1,.078-.271c.054-.09.163-.223.217-.211.1.03.241.133.253.229a7.748,7.748,0,0,1,.138,1.175c.03.826.042,1.657.036,2.483" transform="translate(-17.945 -22.872)" fill="#604c3e"/>
    <path id="패스_1764" data-name="패스 1764" d="M.053,92.209l23.338.36-.046,1.445L0,93.852Z" transform="translate(0 -44.441)" fill="#e2d09f"/>
    <path id="패스_1765" data-name="패스 1765" d="M20.821,88.472s.32-2.649,1.112-3.4a7.014,7.014,0,0,1,.9,3.4Z" transform="translate(-10.035 -41.003)" fill="#604c3e"/>
    <path id="패스_1766" data-name="패스 1766" d="M17.578,89.337a5.245,5.245,0,0,0-.766-2.467l-.063,2.386Z" transform="translate(-8.072 -41.868)" fill="#604c3e"/>
    <path id="패스_1767" data-name="패스 1767" d="M26.759,89.381a4.928,4.928,0,0,1,.865-2.173v2.173Z" transform="translate(-12.897 -42.031)" fill="#604c3e"/>
    <path id="패스_1768" data-name="패스 1768" d="M42.169,92.3c.525.05,1.05.106,1.575.149s1.054.084,1.582.1,1.059,0,1.587.019a4.19,4.19,0,0,1,1.487.1,4.025,4.025,0,0,1,1.554-.082,15.6,15.6,0,0,1,1.587-.019,8.894,8.894,0,0,0,1.6-.032v-2.6c2.221-.144,4.4.04,6.645-.012a12.545,12.545,0,0,1,.04,1.834l1.72,1.42c.529-.044,1.127-.115,1.727-.135a11.7,11.7,0,0,1,1.17.077c.391.027.784.038,1.173.079a1.048,1.048,0,0,0,.931-.31,1.979,1.979,0,0,1,1.928-.823c.98-.047,1.96-.119,2.939-.184.275-.018.341-.128.28-.435a3.6,3.6,0,0,1,.04-1.681l9.329-.11c0,.406,0,.793,0,1.18a6.459,6.459,0,0,1-.012.77.984.984,0,0,0,.609,1.08,7.758,7.758,0,0,1,.708.405,1.313,1.313,0,0,0,.827.142c.694-.025,1.388-.034,2.081-.064.4-.017.8-.06,1.219-.05a6.283,6.283,0,0,1-1.72,1.121,8.511,8.511,0,0,1-3.553.783c-1.6,0-3.2.028-4.8.112a21.355,21.355,0,0,0-2.689.36c-1.175.215-2.351.407-3.541.512-1.685.149-3.367.324-5.054.433a27.713,27.713,0,0,1-5.116-.088,30.828,30.828,0,0,1-3.073-.556,22.988,22.988,0,0,0-3.276-.409c-.737-.058-1.48-.047-2.216-.111a12.891,12.891,0,0,1-1.605-.262c-1.224-.267-2.446-.542-3.66-.848a13.483,13.483,0,0,1-1.541-.529c-.577-.222-1.143-.476-1.716-.71a3.571,3.571,0,0,1-.811-.534l.046-.1" transform="translate(-20.302 -43.215)" fill="#8bafa8"/>
    <path id="패스_1769" data-name="패스 1769" d="M40.921,71.328V69.154a54.754,54.754,0,0,1,6.6-.243c.011.291.029.528.027.765-.008,1.268-.047,2.535-.023,3.8.02,1.1.117,2.2.164,3.3.027.634.028,1.269.032,1.9,0,.71-.011,1.419,0,2.129,0,.331.053.662.073.993.01.163,0,.327,0,.541a44.132,44.132,0,0,1-6.7-.3c-.059-3.168-.117-6.3-.177-9.49.4-.024.786-.051,1.172-.07.105-.006.211.013.317.013.438,0,.5-.06.508-.487,0-.135,0-.269,0-.459.168-.007.309-.015.451-.02.181-.006.362,0,.543-.015.912-.059,1.022-.17.841-1.113a4.508,4.508,0,0,0-2.3.074c-.035.228-.07.461-.117.761l-1.409.089m6.043,4.045a2.4,2.4,0,0,0,.162-.366c.076-.286-.1-.675-.327-.708-.567-.081-1.137-.157-1.707-.2-.37-.026-.476.089-.535.463-.03.185-.038.375-.054.542h-.653c-.134-.451-.138-.464-.553-.466s-.815,0-1.221.032c-.566.044-.68.21-.568.765.02.1.056.195.1.341.279,0,.549-.006.818,0s.53.029.782.044c.089.578.19.681.7.653.481-.026.961-.081,1.439-.149.375-.053.456-.166.479-.535.006-.1.018-.2.03-.337l1.106-.082m-.75,2.022c-.537-.021-1.081-.037-1.624-.065s-.7.169-.7.6c0,.022-.034.044-.075.093-.141,0-.307-.008-.471,0a.754.754,0,0,0-.8.707c-.07.373.054.534.439.566s.783.067,1.174.095a4.232,4.232,0,0,0,.543.015c.341-.02.415-.1.44-.438.014-.192.026-.383.039-.573.273-.024.513-.038.751-.07.082-.011.2-.048.229-.109.129-.253.272-.516.058-.818m-1.6-4v.011c.15-.008.3-.01.451-.024s.3-.045.447-.06a.557.557,0,0,0,.567-.565c.02-.185-.044-.3-.227-.32-.495-.047-.99-.092-1.486-.117a.406.406,0,0,0-.437.377c-.1.587.049.754.549.7a1.322,1.322,0,0,1,.136,0" transform="translate(-19.72 -33.206)" fill="#987961"/>
    <path id="패스_1770" data-name="패스 1770" d="M88.032,78.308c-.29-.283-.594-.55-.86-.852a.764.764,0,0,1-.148-.46c-.024-1.329-.033-2.658-.045-3.987a.933.933,0,0,1,.035-.159c2.953-.156,5.906-.139,8.843-.1.033.046.065.07.063.092-.048.51.023.6.507.6.391,0,.784,0,1.172-.039.475-.044.492-.078.544-.542.006-.057.012-.113.02-.192,2-.11,3.974.176,5.995.162a31.531,31.531,0,0,1,.1,3.21c-.255.017-.507.024-.756.051-.357.039-.488.149-.47.368a.506.506,0,0,0,.617.427c.177-.025.354-.054.571-.088a9.083,9.083,0,0,1,.04,1c-.016.248-.247.353-.5.472-.3-.289-.6-.605-.938-.879-.454-.372-.925-.727-1.406-1.064a10.262,10.262,0,0,0-2.946-1.457,8.577,8.577,0,0,0-1.7-.447,6.883,6.883,0,0,0-2.073.04,10.8,10.8,0,0,0-3.5,1.177A10.241,10.241,0,0,0,88.168,78.2a.776.776,0,0,1-.136.1m12.3-4.2c-.144,0-.249,0-.353,0a1.873,1.873,0,0,0-.359.028c-.215.052-.428.321-.394.492.043.209.23.221.39.236.387.038.776.073,1.165.08a.838.838,0,0,0,.507-.11c.094-.075.075-.292.118-.5.311,0,.641.01.969,0,.239-.009.272-.191.272-.385s.01-.438-.25-.453a12.29,12.29,0,0,0-1.575-.011c-.4.028-.472.161-.491.629m-11.3.649c0-.017,0-.034-.007-.051-.383.064-.772.1-1.147.2a.468.468,0,0,0-.347.556c.035.238.17.358.5.338.508-.032,1.014-.1,1.52-.163a.381.381,0,0,0,.245-.1.979.979,0,0,0,.235-.447c.017-.207-.174-.308-.365-.324-.208-.019-.42,0-.63,0m1.61-1.07c-.28.02-.566.039-.852.062-.207.017-.395.071-.443.309-.033.164.136.349.386.44a1.261,1.261,0,0,0,.131.036,4.553,4.553,0,0,0,1.754.043c.211-.032.275-.146.269-.341-.009-.3-.108-.436-.425-.483-.268-.04-.541-.045-.82-.065m12.215,2.324a4.609,4.609,0,0,1,.03-.526c.037-.2-.068-.262-.232-.313a1.729,1.729,0,0,0-1.023.036c-.224.065-.271.191-.239.463.025.212.129.336.346.339.36.005.72,0,1.117,0" transform="translate(-41.921 -35.013)" fill="#987961"/>
    <path id="패스_1771" data-name="패스 1771" d="M46.519,56.965c-.317-.008-.633,0-.95-.039-.348-.038-.475-.208-.464-.548.016-.444.155-.633.518-.652s.726,0,1.089,0h.718c-.027-.359-.05-.664-.077-1.031-.39,0-.749,0-1.112,0a3.7,3.7,0,0,0-.714-.027,6.457,6.457,0,0,1-1.247.062c-1.042-.023-2.085-.031-3.127-.035a2.215,2.215,0,0,0-.406.065c.027,2.425.054,4.827.081,7.235,2.247-.077,4.428-.154,6.629-.232v-4.8c-.34,0-.637,0-.938,0M43.426,60c-.015.278-.081.332-.367.343-.239.008-.479,0-.768,0a1.978,1.978,0,0,1-.089-.409c-.016-.54-.019-1.085-.012-1.629.008-.348.054-.382.406-.394.208,0,.421,0,.606,0a1.25,1.25,0,0,1,.251.911A10.931,10.931,0,0,1,43.426,60m.514-2.68c-.417.027-.838.008-1.259.008-.054-.123-.108-.216-.139-.313-.1-.336-.031-.479.312-.544a3.091,3.091,0,0,1,.537-.035c.151-.008.3,0,.452,0,.127,0,.259-.012.444-.02a3.242,3.242,0,0,1,.042.513c-.023.29-.1.375-.39.39m1.938,3.058c-.382-.019-.71-.035-1.085-.05-.027-.51-.054-.973-.077-1.436-.008-.209-.012-.421-.02-.629,0-.162.058-.274.232-.259.312.027.621.07.95.1Z" transform="translate(-19.639 -26.341)" fill="#987961"/>
    <path id="패스_1772" data-name="패스 1772" d="M49.553,61.215v2.27c-.382-.019-.71-.035-1.085-.05-.027-.509-.054-.973-.077-1.436-.008-.209-.012-.421-.02-.629,0-.162.058-.274.232-.259.312.027.621.069.95.1" transform="translate(-23.313 -29.452)" fill="#604c3e"/>
    <path id="패스_1773" data-name="패스 1773" d="M44.767,63.02c-.016.278-.081.332-.367.343-.239.008-.479,0-.768,0a1.978,1.978,0,0,1-.089-.409c-.015-.54-.019-1.085-.011-1.629.008-.348.054-.382.406-.394.208,0,.421,0,.606,0a1.249,1.249,0,0,1,.251.911,10.915,10.915,0,0,1-.027,1.177" transform="translate(-20.979 -29.366)" fill="#604c3e"/>
    <path id="패스_1774" data-name="패스 1774" d="M132.776,61.119a2.68,2.68,0,0,1-.045-.314c-.028-1.116-.061-2.232-.075-3.349-.016-1.238-.01-2.475-.021-3.713,0-.51-.051-1.021-.036-1.531a1.533,1.533,0,0,1,.188-.727c.52-.849,1.075-1.676,1.619-2.509a.359.359,0,0,1,.09-.074c.319,1.07.632,2.133.955,3.193.153.5.331,1,.49,1.5a2.025,2.025,0,0,1,.049,1.158,5.06,5.06,0,0,0,.05,2.415,5.917,5.917,0,0,1,.159,2.461,2.51,2.51,0,0,1-.6,1.3.511.511,0,0,1-.292.173c-.784.036-1.568.053-2.352.071a.672.672,0,0,1-.182-.051" transform="translate(-63.906 -23.569)" fill="#e2d09f"/>
    <path id="패스_1775" data-name="패스 1775" d="M65.333,75.3c-.248.018-.5.025-.756.058-.287.036-.436.29-.4.648.023.234.15.348.441.334.543-.027,1.085-.076,1.627-.121.039,0,.076-.041.137-.076-.012-.126-.024-.257-.037-.4.223-.18.479-.13.782-.12a2.408,2.408,0,0,1,.081.42c.009.557.007,1.115,0,1.673a.906.906,0,0,1-.281.727c-.163-.125-.326-.247-.486-.375a9.075,9.075,0,0,0-5.517-2.008,7.911,7.911,0,0,0-2.431.164,4.786,4.786,0,0,0-2.42,1.51,8.769,8.769,0,0,0-1.912,3.476,3.732,3.732,0,0,1-.09-.512c-.044-1.114-.031-2.233-.127-3.342a17.209,17.209,0,0,1,.127-2.967c4.355.058,8.695-.179,13.058-.317v.563a2.733,2.733,0,0,1-.344.061c-.241.013-.484.006-.725.019-.58.03-.58.033-.728.586m-1.378-.752h-.63c-.451,0-.9.006-1.353,0s-.492.019-.585.478c-.083.41-.028.49.385.472.51-.022,1.02-.064,1.53-.1.193-.015.384-.046.6-.071.018-.24.034-.461.057-.779" transform="translate(-25.985 -35.699)" fill="#987961"/>
    <path id="패스_1776" data-name="패스 1776" d="M95.012,86.411l-3.884.291c-.045-.059-.078-.082-.079-.106-.047-.888-.089-1.777-.136-2.666-.02-.392-.058-.783-.065-1.174a.626.626,0,0,1,.109-.374A8.941,8.941,0,0,1,93.2,80.3c.549-.345,1.1-.679,1.657-1.017a3.269,3.269,0,0,1,1.548-.45,10.459,10.459,0,0,1,2.751.066.947.947,0,0,1,.122.052,3.219,3.219,0,0,1-.479.177A3.63,3.63,0,0,0,96.88,80.42a7.454,7.454,0,0,0-1.92,4.3,3.84,3.84,0,0,0,.052,1.687" transform="translate(-43.785 -37.966)" fill="#604c3e"/>
    <path id="패스_1777" data-name="패스 1777" d="M59.9,54.8v1.1c-.425.021-.842.042-1.259.06a.238.238,0,0,1-.129-.024c-.628-.4-1.313-.182-1.976-.171-.095,0-.227.143-.27.25a1.061,1.061,0,0,0-.037.447c.02.311.1.384.413.427.179.024.36.037.544.056,0,.058,0,.1,0,.141.005.552.093.637.629.6.317-.021.633-.045.949-.061.408-.02.435-.039.486-.429.01-.073.011-.147.019-.252.123,0,.238-.006.353,0a.343.343,0,0,1,.347.346c.022.225.047.451.059.677.076,1.554.143,3.107.224,4.66.033.632.094,1.262.138,1.894a1,1,0,0,1-.029.2h-.771c-.054-.629-.139-1.255-.151-1.883a10.6,10.6,0,0,0-.353-1.814,5.1,5.1,0,0,0-.238-.871,7.184,7.184,0,0,0-1.505-2.307,2.907,2.907,0,0,0-1.325,1.484,10.986,10.986,0,0,0-.776,2.688,13.511,13.511,0,0,0-.2,2.3c0,.162-.019.324-.031.528l-.993-.053V58.851a4.981,4.981,0,0,1,.792-.011c.515.067.712-.169.645-.835a2.006,2.006,0,0,0-.044-.2c-.459-.154-.952.21-1.4-.064q-.059-1.464-.117-2.9A45.133,45.133,0,0,1,59.9,54.8" transform="translate(-25.972 -26.371)" fill="#987961"/>
    <path id="패스_1778" data-name="패스 1778" d="M128.123,73.03,133,72.937a5.946,5.946,0,0,0-.385.789c-.273.872-.563,1.742-.766,2.632-.325,1.425-.586,2.865-.873,4.3-.1.516-.19,1.037-.308,1.55a3.5,3.5,0,0,1-.822,1.457c0-.325.006-.557,0-.788q-.046-1.472-.1-2.942a.381.381,0,0,0-.06-.211,4.009,4.009,0,0,0-.557-.649,2.25,2.25,0,0,1-.884-1.756c-.039-1.417-.083-2.833-.127-4.288" transform="translate(-61.75 -35.153)" fill="#987961"/>
    <path id="패스_1779" data-name="패스 1779" d="M59.819,87.493h-3.3c-.017-.372-.056-.729-.046-1.084.019-.707.025-1.418.11-2.119A5.6,5.6,0,0,1,57.954,81.2a5.75,5.75,0,0,1,1.991-1.211,4.278,4.278,0,0,1,2.139-.458,2.217,2.217,0,0,1,.778.186c-.135.077-.268.158-.406.23a4.413,4.413,0,0,0-2.116,2.372,9.052,9.052,0,0,0-.517,3.135c-.017.663,0,1.326,0,2.04" transform="translate(-27.215 -38.327)" fill="#604c3e"/>
    <path id="패스_1780" data-name="패스 1780" d="M72.053,47.388l1.54,4.8-.095.056q-.611-.72-1.221-1.44c-.418-.5-.826-1-1.253-1.487s-.864-.956-1.342-1.483c-.306.34-.61.628-.855.959-.852,1.152-1.683,2.32-2.524,3.481-.12.165-.254.319-.435.544a3.389,3.389,0,0,1-.065-.392q-.037-1.906-.068-3.813c0-.106.007-.212,0-.317-.022-.258.113-.356.323-.508a3.179,3.179,0,0,1,1.856-.4c1.188-.065,2.38-.063,3.57-.079a4.056,4.056,0,0,1,.571.076" transform="translate(-31.68 -22.803)" fill="#fc4d37"/>
    <path id="패스_1781" data-name="패스 1781" d="M83.807,91.918l-4.09-.073c-.036-1.356-.072-2.69-.109-4.08a17.042,17.042,0,0,1,4.02-.1,38.9,38.9,0,0,1,.179,4.256" transform="translate(-38.368 -42.217)" fill="#987961"/>
    <path id="패스_1782" data-name="패스 1782" d="M124.638,92.1l-4.036.177c-.016-.278-.032-.5-.041-.717-.024-.632-.058-1.264-.064-1.9-.005-.508.023-1.016.036-1.523.6,0,1.16-.013,1.714,0,.618.019,1.234.087,1.851.087.255,0,.363.069.387.31.048.478.129.955.146,1.434.025.691.007,1.383.007,2.125" transform="translate(-58.074 -42.476)" fill="#987961"/>
    <path id="패스_1783" data-name="패스 1783" d="M104.639,80.258l-.737.613a4.824,4.824,0,0,0-.482-.581,18.229,18.229,0,0,0-1.667-1.384,10.3,10.3,0,0,0-1.863-1.021,5.519,5.519,0,0,0-1.624-.373,22.182,22.182,0,0,0-2.477-.05,3.966,3.966,0,0,0-1.845.57A13.547,13.547,0,0,0,90.8,80.318a10.935,10.935,0,0,0-.687.86l-.688-.806a1.965,1.965,0,0,1,.535-.764,11.028,11.028,0,0,1,3.1-2.259,9.484,9.484,0,0,1,3.711-.909,8.4,8.4,0,0,1,3.308.652,13.917,13.917,0,0,1,4.317,2.863,2.714,2.714,0,0,1,.242.3" transform="translate(-43.101 -36.841)" fill="#987961"/>
    <path id="패스_1784" data-name="패스 1784" d="M67.017,80.682l-.391.357a6.835,6.835,0,0,0-2.235-1.394c-.547-.253-1.1-.5-1.657-.72a5.131,5.131,0,0,0-1.547-.285,5.977,5.977,0,0,0-3.146.836,5.792,5.792,0,0,0-1.907,1.574,4.175,4.175,0,0,0-.776,1.907,11.168,11.168,0,0,0-.125,2.971,6.614,6.614,0,0,1-.05.92H54.4a14.662,14.662,0,0,1-.06-2.17,7.829,7.829,0,0,1,.765-2.77c.089-.171.113-.379.213-.541a5.915,5.915,0,0,1,3.5-2.942,8.454,8.454,0,0,1,2.475-.162,9.908,9.908,0,0,1,3.891,1.092,5.568,5.568,0,0,1,1.826,1.327" transform="translate(-26.178 -37.71)" fill="#987961"/>
    <path id="패스_1785" data-name="패스 1785" d="M86.723,43.958a3.966,3.966,0,0,1-.477,0c-.052-.016-1.229,1.831-2.031,2.77v-7.36a25.619,25.619,0,0,1,2.592.1c0,.77.011,1.519,0,2.267s-.052,1.473-.081,2.223m-.364-2.766a1.673,1.673,0,0,0-.155-.516.694.694,0,0,0-.736-.483.854.854,0,0,0-.8.572,3.36,3.36,0,0,0,.157,2.513.616.616,0,0,0,.639.412.835.835,0,0,0,.754-.492,3.629,3.629,0,0,0,.138-2.007" transform="translate(-40.588 -18.968)" fill="#987961"/>
    <path id="패스_1786" data-name="패스 1786" d="M45.209,51.6a3.512,3.512,0,0,1-.1-.541c-.013-.529,0-1.058-.007-1.587,0-.133-.013-.265-.024-.444l-.677-.041c.026.9.05,1.747.075,2.607h-.423a20.331,20.331,0,0,1-.179-2.454.843.843,0,0,0-.145-.085c-.522-.188-.641-.075-.591.482a8.242,8.242,0,0,1-.067,2.1c-.111-.066-.232-.1-.248-.155a2.49,2.49,0,0,1-.087-.579c-.015-.483-.013-.967-.015-1.45,0-.531-.062-.583-.67-.529-.1.855.02,1.728-.056,2.613-.2.058-.33.054-.332-.2,0-.212-.009-.423-.009-.635,0-.421,0-.842,0-1.263,0-.54-.006-.54-.633-.542a3.91,3.91,0,0,0-.088.539c-.02.62-.022,1.239-.034,1.858a2.468,2.468,0,0,1-.028.251c-.25.051-.223-.11-.226-.244-.016-.695-.03-1.389-.047-2.084-.005-.206-.018-.413-.027-.634h6.555a11.155,11.155,0,0,1,.022,3.082,7.361,7.361,0,0,1-.118-1.316,5.213,5.213,0,0,0-.14-1.237c-.47-.069-.511-.044-.516.367-.006.559,0,1.118,0,1.678,0,.14-.02.281-.034.468a.418.418,0,0,1-.241-.412q-.055-.767-.1-1.534a1.916,1.916,0,0,0-.031-.45c-.029-.092-.156-.22-.231-.214a.462.462,0,0,0-.306.2.708.708,0,0,0-.048.352c0,.544,0,1.088,0,1.631,0,.13-.016.259-.024.387l-.146.019" transform="translate(-19.555 -23.414)" fill="#987961"/>
    <path id="패스_1787" data-name="패스 1787" d="M81.822,71.213H83.1c0,.3,0,.548,0,.8q.041,2.625.085,5.25c0,.132,0,.265,0,.456-.37,0-.7.007-1.024,0-.235-.007-.344-.132-.34-.38.008-.584,0-1.168,0-1.751,0-.481-.023-.962-.025-1.443,0-.224.031-.448.033-.671,0-.736,0-1.471,0-2.258" transform="translate(-39.419 -34.322)" fill="#987961"/>
    <path id="패스_1788" data-name="패스 1788" d="M91.484,39.364c-.046,1.51-.093,2.984-.139,4.478a37.3,37.3,0,0,0,3.935-.135V39.163l-3.8.2m2.657,3.591a1.561,1.561,0,0,1-2.4-.973,2.039,2.039,0,0,1,.39-1.668,1.584,1.584,0,0,1,1.645-.5,1.418,1.418,0,0,1,1.2,1.656,1.6,1.6,0,0,1-.834,1.483" transform="translate(-44.025 -18.875)" fill="#987961"/>
    <path id="패스_1789" data-name="패스 1789" d="M54.748,51.514c-.015-.191-.041-.383-.041-.574,0-.542.017-1.084.019-1.626,0-.238-.024-.254-.4-.394a14.771,14.771,0,0,0-.251,2.6c-.176.051-.256,0-.26-.18-.008-.377-.031-.754-.035-1.132-.006-.539,0-1.078,0-1.676,1.009.01,1.99.021,2.971-.038s1.961-.013,2.986-.013c.018.162.034.3.052.476-.366.02-.367.269-.366.519,0,.544.007,1.089.006,1.633,0,.127-.02.255-.031.383l-.094.019a.759.759,0,0,1-.1-.239c-.024-.615-.028-1.231-.058-1.846-.018-.362-.08-.41-.516-.492a23.879,23.879,0,0,0,.008,2.51c-.109.076-.175.018-.185-.118q-.054-.721-.1-1.443a5.685,5.685,0,0,0-.027-.588.322.322,0,0,0-.394-.28c-.219.02-.333.118-.321.346.03.587.053,1.175.089,1.762.012.191.052.379-.31.318-.031-.786-.061-1.576-.093-2.4H56.73a11.963,11.963,0,0,0,.021,2.4l-.361.018c0-.584,0-1.14,0-1.7a3.446,3.446,0,0,0-.025-.538c-.024-.144-.068-.316-.272-.3a.3.3,0,0,0-.278.308c-.021.254-.027.51-.036.765-.019.492-.035.984-.052,1.478-.266.042-.287-.106-.285-.265.008-.543.021-1.087.03-1.631a1.875,1.875,0,0,0-.013-.449.281.281,0,0,0-.2-.18.305.305,0,0,0-.229.163,1.241,1.241,0,0,0-.039.4c-.01.574-.012,1.148-.026,1.722a1.473,1.473,0,0,1-.07.3l-.146-.028" transform="translate(-25.918 -23.358)" fill="#987961"/>
    <path id="패스_1790" data-name="패스 1790" d="M121.86,78.262l-1.228-.606c0-.136,0-.3,0-.463.01-1.537-.012-3.073-.135-4.607a5.229,5.229,0,0,1,.075-.851l1.161-.054c.028.3.072.561.076.826.021,1.372.03,2.744.048,4.116.005.392.034.782.041,1.174a4.535,4.535,0,0,1-.039.465" transform="translate(-58.073 -34.548)" fill="#987961"/>
    <path id="패스_1791" data-name="패스 1791" d="M124.484,78.222l-1.025.064c-.04-2.209-.08-4.391-.121-6.6.206-.025.367-.052.529-.062s.33,0,.554,0c.079,1.11-.077,2.205-.024,3.3s.059,2.169.087,3.3" transform="translate(-59.445 -34.52)" fill="#987961"/>
    <path id="패스_1792" data-name="패스 1792" d="M126.975,77.357l-1.043.778a39.878,39.878,0,0,1-.11-6.622l.98-.051c-.019.687-.054,1.327-.049,1.965s.043,1.3.08,1.943.091,1.289.141,1.988" transform="translate(-60.605 -34.442)" fill="#987961"/>
    <path id="패스_1793" data-name="패스 1793" d="M84.59,71.106l.842-.044a2.083,2.083,0,0,1,.184,1.026c.023.891.023,1.783.039,2.675.009.528.021,1.057.052,1.585a.65.65,0,0,1-.269.628c-.219.16-.424.339-.689.554-.238-2.153-.062-4.265-.159-6.424" transform="translate(-40.769 -34.249)" fill="#987961"/>
    <path id="패스_1794" data-name="패스 1794" d="M89.153,86.009c.052.413.114.765.136,1.118.054.844.083,1.689.133,2.534a.774.774,0,0,1-.28.716c-.293.237-.561.505-.848.749a.912.912,0,0,1-.272.1c-.045-.906-.094-1.776-.13-2.646-.018-.434.005-.87-.019-1.3a.637.637,0,0,1,.3-.606,5.362,5.362,0,0,1,.976-.659" transform="translate(-42.352 -41.453)" fill="#987961"/>
    <path id="패스_1795" data-name="패스 1795" d="M46.191,39.713c-2.483.107-4.892-.023-7.327-.069V38.157h.486c.034.328.068.652.106,1.007l.918-.051c.03-.3.057-.579.089-.9h.354c.018.328.035.633.05.928,1.012.065.848-.057.877-.7,0-.071.007-.142.011-.22.222-.052.252.071.254.218,0,.236,0,.472,0,.728h.946c.015-.307.028-.6.042-.894.338-.013.268.2.267.365s0,.326,0,.517l1.109.056c0-.261,0-.484,0-.707s.11-.256.32-.175c.018.3.036.612.056.955H45.8V38.261l.389-.02Z" transform="translate(-18.731 -18.39)" fill="#987961"/>
    <path id="패스_1796" data-name="패스 1796" d="M118.921,91.259a3.693,3.693,0,0,1-1.2-.656.492.492,0,0,1-.14-.351c0-.737.03-1.474.022-2.212,0-.4-.062-.8-.093-1.2-.011-.149-.015-.3-.024-.51.107.07.172.11.234.155.231.167.455.346.693.5a.841.841,0,0,1,.444.768c0,1.1.038,2.2.061,3.3,0,.059,0,.118,0,.212" transform="translate(-56.626 -41.606)" fill="#987961"/>
    <path id="패스_1797" data-name="패스 1797" d="M80.549,71.193c.132,2.027.072,4.035.04,6.125-.466-.368-.815-.66-.818-1.268-.006-1.368-.083-2.735-.132-4.1,0-.015,0-.03,0-.045-.036-.778.053-.855.912-.709" transform="translate(-38.379 -34.284)" fill="#987961"/>
    <path id="패스_1798" data-name="패스 1798" d="M77.96,91.266c-.379-.309-.768-.607-1.13-.935a.609.609,0,0,1-.142-.4c-.028-.766-.025-1.532-.061-2.3a2.854,2.854,0,0,1,.087-.971L78,87.354c-.067,1.287.1,2.572.061,3.86l-.1.051" transform="translate(-36.928 -41.77)" fill="#987961"/>
    <path id="패스_1799" data-name="패스 1799" d="M53.383,39.771c0-.231,0-.392,0-.552.005-.195.028-.389.023-.583-.009-.336,0-.354.412-.334.073.356-.1.746.114,1.122l.765-.044V38.288l.107-.047c.059.057.159.11.166.173a2.576,2.576,0,0,1-.03.405c-.007.144,0,.288,0,.458l.661.059c.02-.2.024-.364.054-.521s.083-.309.148-.538a.654.654,0,0,1,.085.514c0,.147,0,.293,0,.465.237.022.444.048.651.058.271.013.321-.032.337-.3.01-.166,0-.333,0-.5s.088-.207.279-.149v.951h1.029V38.5l.326-.1c.034.328.066.636.1.975h1V38.4l.525.079v1.294Z" transform="translate(-25.728 -18.431)" fill="#987961"/>
    <path id="패스_1800" data-name="패스 1800" d="M129.725,86.5a4.638,4.638,0,0,1,.074.471c.026,1.024.045,2.048.073,3.071a.5.5,0,0,1-.215.463c-.278.2-.541.426-.87.687a4.857,4.857,0,0,1-.051-.493,19.22,19.22,0,0,0-.175-2.969.6.6,0,0,1,.313-.673c.264-.161.518-.338.852-.557" transform="translate(-61.956 -41.687)" fill="#987961"/>
    <path id="패스_1801" data-name="패스 1801" d="M79.84,85.831c.317-.5.6-.939.881-1.381a.5.5,0,0,1,.491-.245,9.328,9.328,0,0,0,.946-.026.555.555,0,0,1,.53.27c.281.426.571.845.909,1.342-.457,0-.851-.006-1.243,0-.421.008-.84.035-1.26.041a5.647,5.647,0,0,1-1.255,0" transform="translate(-38.48 -40.571)" fill="#987961"/>
    <path id="패스_1802" data-name="패스 1802" d="M124.583,86.457l-3.317-.183c-.011-.184.127-.271.215-.377.231-.279.462-.559.715-.816a.681.681,0,0,1,.389-.186,5.52,5.52,0,0,1,.858,0,.416.416,0,0,1,.27.127,6.8,6.8,0,0,1,.869,1.432" transform="translate(-58.446 -40.909)" fill="#987961"/>
    <path id="패스_1803" data-name="패스 1803" d="M79.269,83.088,78.023,84.93l-1.291-.7a11.86,11.86,0,0,1,1.642-2.016l.9.871" transform="translate(-36.982 -39.626)" fill="#987961"/>
    <path id="패스_1804" data-name="패스 1804" d="M86.254,82.264l1.517,1.589a5.265,5.265,0,0,1-1.265,1.018c-.225-.3-.444-.585-.648-.877s-.38-.577-.592-.9l.987-.83" transform="translate(-41.095 -39.648)" fill="#987961"/>
    <path id="패스_1805" data-name="패스 1805" d="M61.355,68.285h-.449c-.022-.239-.044-.46-.062-.681-.046-.571-.065-1.145-.138-1.713a6.465,6.465,0,0,0-1.187-3.123c-.125-.167-.276-.315-.431-.491l.255-.3a.878.878,0,0,1,.512.437,7.456,7.456,0,0,1,.989,2.126,9.588,9.588,0,0,1,.51,3.749" transform="translate(-28.478 -29.869)" fill="#987961"/>
    <path id="패스_1806" data-name="패스 1806" d="M117.592,84.524l1.391-.995,1.323.644-.232.268-.829.942c-.254.288-.328.3-.632.079a2.786,2.786,0,0,1-1.021-.938" transform="translate(-56.675 -40.258)" fill="#987961"/>
    <path id="패스_1807" data-name="패스 1807" d="M83.131,47.52c0-.427,0-.854,0-1.282-.01-1.312-.031-2.623-.032-3.934,0-.89.028-1.78.04-2.67,0-.2.038-.34.328-.234,0,.249,0,.516,0,.784.006,1.343.018,2.686.018,4.028,0,.739-.013,1.478-.031,2.217a5.526,5.526,0,0,1-.074.762,1.566,1.566,0,0,1-.146.348l-.1-.019" transform="translate(-40.051 -18.972)" fill="#987961"/>
    <path id="패스_1808" data-name="패스 1808" d="M128.473,84.736l-1.234.9-.984-1.531.951-.764,1.268,1.4" transform="translate(-60.85 -40.166)" fill="#987961"/>
    <path id="패스_1809" data-name="패스 1809" d="M60.051,61.455a.688.688,0,0,1,.089-.106,1.02,1.02,0,0,1,.15-.08c.128.138.265.274.39.421a6.26,6.26,0,0,1,1.231,2.636,12.927,12.927,0,0,1,.369,3.313,1.212,1.212,0,0,1-.009.179c0,.024-.035.044-.068.082-.168-.07-.1-.226-.1-.338a11.183,11.183,0,0,0-.374-2.763,9.575,9.575,0,0,0-.973-2.42,9.347,9.347,0,0,0-.7-.925" transform="translate(-28.942 -29.53)" fill="#987961"/>
    <path id="패스_1810" data-name="패스 1810" d="M99.738,43.7h-.384c.037-1.5-.1-3.05.046-4.524.052-.023.093-.057.131-.055a2.6,2.6,0,0,1,.289.05c-.027,1.477-.054,3.021-.081,4.529" transform="translate(-47.874 -18.856)" fill="#987961"/>
    <path id="패스_1811" data-name="패스 1811" d="M96.072,48.262c-.194.362-.352.666-.518.966-.366.66-.731,1.32-1.109,1.974-.091.157-.166.373-.458.314-.024-.185-.05-.373-.075-.558-.369-.251-.7.081-1.06.035a8.711,8.711,0,0,0-1.065-.009c-.02-.295-.035-.531-.051-.768-.033-.47-.216-.593-.652-.442a1.072,1.072,0,0,1-.339.092c-.815-.007-1.63-.026-2.444-.046a.4.4,0,0,1-.253-.062c-.179-.19-.38-.137-.638-.1l-.136.755-1.646.043-.144.925h-.817a.594.594,0,0,1,.038-.162c.545-.815,1.1-1.624,1.635-2.443a.616.616,0,0,1,.572-.275c1.112-.031,2.224-.087,3.337-.124.645-.021,1.29-.018,1.936-.039.872-.028,1.745-.076,2.618-.1.4-.011.8.014,1.268.024" transform="translate(-40.807 -23.248)" fill="#fc4d37"/>
    <path id="패스_1812" data-name="패스 1812" d="M128.943,47.947c-.226.374-.4.668-.582.958-.416.664-.838,1.324-1.251,1.99a.444.444,0,0,1-.388.262h-1.3c-.033-.206-.065-.41-.1-.665a2.779,2.779,0,0,1-2.363-2.485,3.822,3.822,0,0,1,.5-.076c1.191-.018,2.383-.035,3.574-.036.6,0,1.2.031,1.914.052" transform="translate(-59.261 -23.084)" fill="#fc4d37"/>
    <path id="패스_1813" data-name="패스 1813" d="M110.917,48.221a4.8,4.8,0,0,1-.99,1.822,2.641,2.641,0,0,1-.94.594c-.246.1-.375.209-.378.475a1.871,1.871,0,0,1-.064.349H106.7c.288-.567.539-1.058.786-1.549.217-.429.447-.853.641-1.293a.571.571,0,0,1,.635-.423c.628.037,1.261,0,1.893,0a2.659,2.659,0,0,1,.266.028" transform="translate(-51.423 -23.227)" fill="#fc4d37"/>
    <path id="패스_1814" data-name="패스 1814" d="M105.083,50.647l2.152-4.029a1.385,1.385,0,0,1-.041,1.16c-.463.876-.955,1.737-1.415,2.614-.145.277-.325.368-.7.254" transform="translate(-50.646 -22.468)" fill="#fc4d37"/>
    <path id="패스_1815" data-name="패스 1815" d="M131.269,51.207c.237-.391.445-.738.658-1.083.356-.577.727-1.145,1.069-1.73a.572.572,0,0,1,.776-.29c-.116.2-.214.4-.335.586-.5.769-1.022,1.528-1.509,2.306a.484.484,0,0,1-.658.211" transform="translate(-63.267 -23.159)" fill="#fc4d37"/>
    <path id="패스_1816" data-name="패스 1816" d="M103.717,50.531c.27-.5.506-.948.757-1.39.512-.9,1.037-1.8,1.544-2.7a.328.328,0,0,1,.437-.186c-.07.149-.131.294-.2.43q-.831,1.526-1.67,3.048c-.124.223-.264.438-.409.648-.1.139-.105.133-.455.153" transform="translate(-49.988 -22.281)" fill="#fc4d37"/>
    <path id="패스_1817" data-name="패스 1817" d="M51.692,57.195v.725a8.576,8.576,0,0,1-1.814.03c-.184-.018-.272-.1-.285-.279-.02-.263.057-.415.247-.467a.165.165,0,0,1,.045-.009h1.807" transform="translate(-23.901 -27.566)" fill="#987961"/>
    <path id="패스_1818" data-name="패스 1818" d="M45.019,72.788c-.165,0-.33,0-.5,0-.208,0-.337-.066-.365-.3s.082-.327.293-.355a4.466,4.466,0,0,1,1.515-.042c.175.037.27.11.283.287A.282.282,0,0,1,46,72.7c-.324.056-.652.087-.978.128,0-.014,0-.028,0-.042" transform="translate(-21.281 -34.721)" fill="#604c3e"/>
    <path id="패스_1819" data-name="패스 1819" d="M60.565,57.07v.69c-.508-.011-.979.222-1.482.078-.3-.085-.393-.215-.339-.52.027-.153.1-.249.265-.249h1.556" transform="translate(-28.306 -27.505)" fill="#604c3e"/>
    <path id="패스_1820" data-name="패스 1820" d="M90.506,39.484c.138.089.256.123.268.18a1.815,1.815,0,0,1,.02.451c-.043,1.3-.089,2.594-.134,3.907l-.305.019c.05-1.5.1-2.98.151-4.556" transform="translate(-43.548 -19.03)" fill="#987961"/>
    <path id="패스_1821" data-name="패스 1821" d="M40.9,74.7v-.649a3.287,3.287,0,0,1,1.525-.11c.285.036.354.138.35.373,0,.192-.077.306-.292.313-.508.017-1.016.046-1.583.073" transform="translate(-19.714 -35.618)" fill="#b78b6e"/>
    <path id="패스_1822" data-name="패스 1822" d="M65.931,44.8l-.58.21c.107-1.121-.126-2.2.085-3.3l.495.077Z" transform="translate(-31.493 -20.104)" fill="#987961"/>
    <path id="패스_1823" data-name="패스 1823" d="M57.409,41.616c.1-.013.192-.031.281-.035a1.537,1.537,0,0,1,.212.024c.095,1.117,0,2.225,0,3.365h-.494Z" transform="translate(-27.669 -20.04)" fill="#987961"/>
    <path id="패스_1824" data-name="패스 1824" d="M60.7,44.94h-.489V41.581h.416A20.625,20.625,0,0,1,60.7,44.94" transform="translate(-29.02 -20.04)" fill="#987961"/>
    <path id="패스_1825" data-name="패스 1825" d="M63.5,44.98h-.557v-3.3H63.4c.034,1.09.067,2.165.1,3.3" transform="translate(-30.338 -20.087)" fill="#987961"/>
    <path id="패스_1826" data-name="패스 1826" d="M54.69,41.668H55.1c.062,1.1.042,2.2.04,3.335l-.472.037a19.008,19.008,0,0,1,.026-3.372" transform="translate(-26.306 -20.082)" fill="#987961"/>
    <path id="패스_1827" data-name="패스 1827" d="M59.21,44.924l-.378.026a15.839,15.839,0,0,1-.042-3.394l.4-.046a14.519,14.519,0,0,1,.021,3.414" transform="translate(-28.302 -20.006)" fill="#604c3e"/>
    <path id="패스_1828" data-name="패스 1828" d="M56.082,41.632h.359a31.33,31.33,0,0,1,.109,3.282c-.044.06-.052.082-.062.083-.116.011-.233.019-.4.031-.052-1.131-.066-2.234-.005-3.4" transform="translate(-27.01 -20.065)" fill="#604c3e"/>
    <path id="패스_1829" data-name="패스 1829" d="M62.04,44.986h-.449V41.709c.04-.024.065-.05.09-.05.1,0,.2.008.36.015Z" transform="translate(-29.685 -20.078)" fill="#604c3e"/>
    <path id="패스_1830" data-name="패스 1830" d="M64.28,44.957c-.035-1.078-.07-2.158-.105-3.269h.462c0,.238,0,.46,0,.681q0,1.154,0,2.308c0,.293,0,.293-.355.28" transform="translate(-30.93 -20.092)" fill="#604c3e"/>
    <path id="패스_1831" data-name="패스 1831" d="M53.471,41.652h.407a.808.808,0,0,1,.042.179c0,.935.007,1.87,0,2.8,0,.146.078.392-.178.377-.2-.012-.128-.239-.136-.375-.051-.9-.092-1.8-.135-2.706,0-.074,0-.148,0-.279" transform="translate(-25.77 -20.075)" fill="#604c3e"/>
    <path id="패스_1832" data-name="패스 1832" d="M52.68,44.959h-.707V41.541h.567l.139,3.418" transform="translate(-25.049 -20.021)" fill="#987961"/>
    <path id="패스_1833" data-name="패스 1833" d="M46.6,45.035V41.678h.528c.026,1.114.052,2.219.078,3.337a2.814,2.814,0,0,1-.3.045,2.71,2.71,0,0,1-.3-.025" transform="translate(-22.461 -20.087)" fill="#987961"/>
    <path id="패스_1834" data-name="패스 1834" d="M41.82,44.962h-.341a.415.415,0,0,1-.059-.123c-.02-.286-.043-.572-.045-.859-.006-.781,0-1.562,0-2.37h.49a16.641,16.641,0,0,1-.044,3.352" transform="translate(-19.94 -20.054)" fill="#987961"/>
    <path id="패스_1835" data-name="패스 1835" d="M49.737,45.053h-.563c-.047-1.1.038-2.2.016-3.319h.464c.027,1.1.054,2.177.083,3.319" transform="translate(-23.693 -20.114)" fill="#987961"/>
    <path id="패스_1836" data-name="패스 1836" d="M39.37,44.4a.4.4,0,0,1-.339-.417c-.035-.617-.071-1.234-.1-1.851-.01-.224,0-.45,0-.734l.454.021c0,.937,0,1.828,0,2.719,0,.075-.007.15-.013.262" transform="translate(-18.761 -19.954)" fill="#987961"/>
    <path id="패스_1837" data-name="패스 1837" d="M44.377,41.548v3.392h-.32a1.32,1.32,0,0,1-.041-.222c0-.963,0-1.926,0-2.888,0-.236.1-.327.363-.282" transform="translate(-21.213 -20.019)" fill="#987961"/>
    <path id="패스_1838" data-name="패스 1838" d="M45.672,44.931h-.483a25.128,25.128,0,0,1-.013-3.406l.5-.022Z" transform="translate(-21.749 -20.003)" fill="#604c3e"/>
    <path id="패스_1839" data-name="패스 1839" d="M50.48,41.666c.155-.022.242-.04.331-.044a1.164,1.164,0,0,1,.2.032v3.319l-.4.034c-.046-1.118-.091-2.208-.137-3.341" transform="translate(-24.329 -20.06)" fill="#604c3e"/>
    <path id="패스_1840" data-name="패스 1840" d="M42.846,41.573h.4v3.376l-.4.028Z" transform="translate(-20.65 -20.037)" fill="#604c3e"/>
    <path id="패스_1841" data-name="패스 1841" d="M40.163,41.521h.412c.05,1.114.022,2.213.03,3.318-.411-.064-.436-.082-.439-.446-.006-.782,0-1.563,0-2.345v-.527" transform="translate(-19.357 -20.012)" fill="#604c3e"/>
    <path id="패스_1842" data-name="패스 1842" d="M48.131,41.685c.207-.038.36-.015.36.222,0,1.023,0,2.045,0,3.045-.239.14-.321.049-.335-.139-.016-.208-.024-.418-.024-.626,0-.824,0-1.647,0-2.5" transform="translate(-23.197 -20.084)" fill="#604c3e"/>
    <path id="패스_1843" data-name="패스 1843" d="M89.892,39.467a43.414,43.414,0,0,1-.182,4.561c-.034-.053-.1-.106-.1-.159q.015-2.126.048-4.252c0-.03.088-.059.233-.15" transform="translate(-43.189 -19.022)" fill="#987961"/>
    <path id="패스_1844" data-name="패스 1844" d="M104.718,73.277v-.494h1.653c.055.081.2.213.085.376a.481.481,0,0,1-.346.15c-.458.005-.918-.019-1.392-.032" transform="translate(-50.47 -35.079)" fill="#604c3e"/>
    <path id="패스_1845" data-name="패스 1845" d="M62.293,58.886v.466c-.469.031-.915.073-1.361.083-.237.006-.335-.2-.217-.4a.45.45,0,0,1,.45-.24c.357.026.715.059,1.128.094" transform="translate(-29.238 -28.335)" fill="#604c3e"/>
    <path id="패스_1846" data-name="패스 1846" d="M55.339,60.877v.629a2.671,2.671,0,0,1-1.257.012v-.506l1.257-.136" transform="translate(-26.065 -29.34)" fill="#987961"/>
    <path id="패스_1847" data-name="패스 1847" d="M64.229,57.482c-.011.177-.02.324-.032.523l-1.4-.081c-.008-.154-.016-.294-.023-.442a2.472,2.472,0,0,1,1.456,0" transform="translate(-30.254 -27.651)" fill="#987961"/>
    <path id="패스_1848" data-name="패스 1848" d="M74.214,77.432c-.054-.239-.018-.393.224-.427a2.917,2.917,0,0,1,1.333.068c.154.049.182.127.144.3a5.492,5.492,0,0,1-1.7.055" transform="translate(-35.758 -37.092)" fill="#604c3e"/>
    <path id="패스_1849" data-name="패스 1849" d="M129.975,56.119h-2.2a3.924,3.924,0,0,1-.109-1.39,9.2,9.2,0,0,1,2.309-.061Z" transform="translate(-61.523 -26.327)" fill="#e2d09f"/>
    <path id="패스_1850" data-name="패스 1850" d="M120.1,64.077c-.541,0-1.035,0-1.533,0l-6.425.058c-1.467.011-2.93.019-4.4.035a5.6,5.6,0,0,0-.671.089c.065,1.382.127,2.7.189,4.019,2.228.054,4.4.108,6.564.162.019-.228.035-.428.05-.61,1.409-.046,2.756-.093,4.127-.139.019.3.038.548.054.792h2.166c-.035-1.494-.031-2.934-.123-4.405m-12.355,3.042a4.008,4.008,0,0,1,.162-2.131,1.359,1.359,0,0,1,.074-.166c.239-.409.587-.424.85-.031a1.053,1.053,0,0,1,.17.413c.077.61.131,1.22.2,1.915Zm3.966.069c-.544-.031-1.02-.062-1.517-.093.046-.559.081-1.1.142-1.633a1.7,1.7,0,0,1,.185-.552.469.469,0,0,1,.861-.054,1.006,1.006,0,0,1,.131.235,5.406,5.406,0,0,1,.2,2.1m2.675.077c-.559-.05-1.119-.1-1.71-.15a6.126,6.126,0,0,1,.081-1.819.7.7,0,0,1,.676-.672.8.8,0,0,1,.8.541,2.214,2.214,0,0,1,.143.7c.023.475.007.95.007,1.4m2.494-.05h-1.444a10.26,10.26,0,0,1,.22-2.177.939.939,0,0,1,.142-.278.469.469,0,0,1,.869.1,4.886,4.886,0,0,1,.2.923c.035.475.008.954.008,1.436m2.224.228c-.224,0-.452.023-.676.027-.143,0-.286-.011-.452-.023.031-.591.058-1.131.093-1.668a2.189,2.189,0,0,1,.37-1.054.361.361,0,0,1,.633-.042,1.311,1.311,0,0,1,.275.606c.065.61.092,1.228.112,1.842.011.29-.05.313-.355.313" transform="translate(-51.605 -30.882)" fill="#e2d09f"/>
    <path id="패스_1851" data-name="패스 1851" d="M129.246,67.852c-.224,0-.452.023-.676.027-.143,0-.286-.011-.452-.023.031-.591.058-1.131.093-1.668a2.188,2.188,0,0,1,.37-1.054.361.361,0,0,1,.633-.042,1.311,1.311,0,0,1,.275.606c.065.61.092,1.228.112,1.842.011.29-.05.313-.355.313" transform="translate(-61.749 -31.291)" fill="#604c3e"/>
    <path id="패스_1852" data-name="패스 1852" d="M124.659,67.618h-1.444a10.289,10.289,0,0,1,.22-2.177.947.947,0,0,1,.143-.278.469.469,0,0,1,.869.1,4.9,4.9,0,0,1,.2.923c.035.475.008.954.008,1.437" transform="translate(-59.385 -31.284)" fill="#604c3e"/>
    <path id="패스_1853" data-name="패스 1853" d="M109.755,67.519H108.3a4,4,0,0,1,.162-2.131,1.285,1.285,0,0,1,.073-.166c.24-.409.587-.424.85-.031a1.037,1.037,0,0,1,.17.413c.077.61.131,1.22.2,1.915" transform="translate(-52.157 -31.282)" fill="#604c3e"/>
    <path id="패스_1854" data-name="패스 1854" d="M114.61,67.677c-.544-.031-1.019-.062-1.517-.093.046-.56.081-1.1.143-1.633a1.688,1.688,0,0,1,.185-.552.469.469,0,0,1,.862-.054,1.039,1.039,0,0,1,.131.236,5.4,5.4,0,0,1,.2,2.1" transform="translate(-54.507 -31.37)" fill="#604c3e"/>
    <path id="패스_1855" data-name="패스 1855" d="M119.562,67.775c-.56-.05-1.119-.1-1.711-.151a6.126,6.126,0,0,1,.081-1.818.7.7,0,0,1,.676-.672.8.8,0,0,1,.8.541,2.21,2.21,0,0,1,.143.7c.023.475.008.95.008,1.4" transform="translate(-56.782 -31.391)" fill="#604c3e"/>
    <path id="패스_1856" data-name="패스 1856" d="M112.284,83.385a1.962,1.962,0,0,0-.367-1.277c-.378-.386-.76-.772-1.166-1.131a9.484,9.484,0,0,0-2.472-1.494,1.612,1.612,0,0,0-1.216-.05,25.981,25.981,0,0,0,.065,5.081c1.711-.023,3.429.019,5.159-.081a10.436,10.436,0,0,0,0-1.046m-3.181-.934h-1c-.039-.081-.12-.174-.12-.266.007-.583.035-1.17.058-1.753a.277.277,0,0,1,.324-.293c.232.007.467.007.738.011Zm1.961.069h-.93v-1.5c.834.278,1.066.656.93,1.5" transform="translate(-51.555 -38.237)" fill="#e2d09f"/>
    <path id="패스_1857" data-name="패스 1857" d="M114.008,84.089h-.93v-1.5c.834.278,1.066.656.93,1.5" transform="translate(-54.499 -39.806)" fill="#604c3e"/>
    <path id="패스_1858" data-name="패스 1858" d="M110.046,80.9v2.3h-1c-.039-.081-.12-.174-.12-.266.008-.583.035-1.17.058-1.753a.278.278,0,0,1,.324-.293c.232.008.467.008.738.011" transform="translate(-52.499 -38.983)" fill="#604c3e"/>
    <path id="패스_1859" data-name="패스 1859" d="M120.082,59.829c0-.147-.019-.3-.031-.433-.587-.15-12.394-.031-13.085.016.027.464.054.927.085,1.417.737.047,12.583.166,13.03.012,0-.324,0-.668,0-1.012m-11.042.66h-1.49a.627.627,0,0,1-.035-.143c-.027-.722.069-.818.8-.807.784.011.784.016.726.95m2.614.089c-.475-.035-.919-.066-1.448-.1.042-.34.081-.633.123-.977.379.023.707.038,1.031.069a.28.28,0,0,1,.29.282c.008.239,0,.475,0,.726m1.3-.181a.9.9,0,0,1-.016-.772H114.3l.123.741a7.193,7.193,0,0,1-1.463.031m4.3.065h-1.587v-.8c.552-.162,1.042.147,1.587.027Zm.753.074c.016-.282.031-.54.05-.815h1.452c.039.263.077.518.12.815Z" transform="translate(-51.554 -28.592)" fill="#e2d09f"/>
    <path id="패스_1860" data-name="패스 1860" d="M109.546,60.69h-1.49a.628.628,0,0,1-.035-.143c-.027-.722.069-.818.8-.807.784.011.784.015.726.95" transform="translate(-52.06 -28.792)" fill="#604c3e"/>
    <path id="패스_1861" data-name="패스 1861" d="M114.668,60.744c-.475-.035-.919-.066-1.448-.1.042-.34.081-.633.124-.977.378.023.707.038,1.031.069a.281.281,0,0,1,.29.282c.007.239,0,.475,0,.726" transform="translate(-54.568 -28.757)" fill="#604c3e"/>
    <path id="패스_1862" data-name="패스 1862" d="M119.909,60.646a7.193,7.193,0,0,1-1.463.031.9.9,0,0,1-.015-.772h1.355c.042.255.081.486.123.741" transform="translate(-57.041 -28.872)" fill="#604c3e"/>
    <path id="패스_1863" data-name="패스 1863" d="M125.368,59.954v.776h-1.587v-.8c.552-.162,1.042.147,1.587.027" transform="translate(-59.658 -28.859)" fill="#604c3e"/>
    <path id="패스_1864" data-name="패스 1864" d="M129.919,60.906H128.3c.015-.282.031-.54.05-.815H129.8c.038.263.077.518.12.815" transform="translate(-61.835 -28.962)" fill="#604c3e"/>
    <path id="패스_1865" data-name="패스 1865" d="M106.984,58.239v-.69c.469-.007.918-.03,1.367-.016,1.026.031,2.05.092,3.077.121,1.523.041,3.046.082,4.569.093,1.282.009,2.564-.025,3.846-.038a1.4,1.4,0,0,1,.171.023c.012.138.025.279.039.437a2.366,2.366,0,0,1-1,.109c-.785,0-1.571-.03-2.357-.026-2.6.013-5.2.037-7.795.053-.484,0-.968-.008-1.451-.019-.148,0-.294-.028-.468-.047" transform="translate(-51.562 -27.727)" fill="#e2d09f"/>
    <path id="패스_1866" data-name="패스 1866" d="M107.136,63.263v-.53c.194-.015.37-.042.546-.04,1.194.012,2.387.033,3.58.045q1.516.016,3.032.018c1.524,0,3.048,0,4.572-.009.346,0,.691-.008,1.037-.011.158,0,.262.057.26.236s-.141.217-.28.22c-.468.009-.937.01-1.405.013-1.617.009-3.234.014-4.85.028-2.116.019-4.231.045-6.346.066a.678.678,0,0,1-.144-.035" transform="translate(-51.636 -30.215)" fill="#e2d09f"/>
    <path id="패스_1867" data-name="패스 1867" d="M116.763,46.254h2.53c0,.527-.009,1.008,0,1.488.013.588.043,1.177.067,1.766.008.209-.056.324-.328.226-.01-.439-.01-.891-.036-1.34a2.351,2.351,0,0,0-.125-.66.464.464,0,0,0-.291-.234c-.169-.044-.24.124-.265.249a8.2,8.2,0,0,0-.132.939c-.023.285-.009.574-.018.861-.006.19-.094.281-.339.2,0-.281.009-.578,0-.874-.011-.315-.039-.631-.066-.946-.015-.175-.065-.344-.281-.344s-.267.189-.286.348c-.053.433-.087.867-.119,1.3-.012.164,0,.329,0,.512l-.3.065c-.052-1.2-.058-2.374,0-3.555" transform="translate(-56.257 -22.293)" fill="#e2d09f"/>
    <rect id="사각형_1543" data-name="사각형 1543" width="2.577" height="2.01" transform="translate(60.516 27.753)" fill="#e2d09f"/>
    <path id="패스_1868" data-name="패스 1868" d="M115.126,44.418a1.97,1.97,0,0,1,2-1.349,2.209,2.209,0,0,1,2.243,1.435l-4.245-.085" transform="translate(-55.486 -20.757)" fill="#e2d09f"/>
    <path id="패스_1869" data-name="패스 1869" d="M111.989,53.506h1.617a5.022,5.022,0,0,1,.01,1.917H111.99c-.063-.623.031-1.233,0-1.917" transform="translate(-53.965 -25.788)" fill="#e2d09f"/>
    <path id="패스_1870" data-name="패스 1870" d="M123.473,53.489H124.8c.057.694-.018,1.362-.018,2.066h-1.31Z" transform="translate(-59.509 -25.78)" fill="#e2d09f"/>
    <path id="패스_1871" data-name="패스 1871" d="M115.958,51.992l-.361-.023c0-.749,0-1.485,0-2.221a21.29,21.29,0,0,0-.053-2.259,9.359,9.359,0,0,1,.081-1.267l.334-.044Z" transform="translate(-55.682 -22.256)" fill="#e2d09f"/>
    <path id="패스_1872" data-name="패스 1872" d="M122.218,46.286a1.323,1.323,0,0,1,.056.2,36.544,36.544,0,0,1,.286,4.865,2.769,2.769,0,0,1-.013.5c-.019.094-.112.232-.189.244-.15.023-.175-.116-.178-.249q-.033-1.377-.075-2.754c-.017-.527-.058-1.053-.06-1.58,0-.4.041-.806.064-1.209l.109-.012" transform="translate(-58.821 -22.308)" fill="#e2d09f"/>
    <path id="패스_1873" data-name="패스 1873" d="M106.973,54.987a9.353,9.353,0,0,1,1.749.037v1.017h-1.749Z" transform="translate(-51.557 -26.491)" fill="#e2d09f"/>
    <path id="패스_1874" data-name="패스 1874" d="M113.852,51.136h-1.415a7.151,7.151,0,0,0,1.415-2.01Z" transform="translate(-54.19 -23.677)" fill="#e2d09f"/>
    <path id="패스_1875" data-name="패스 1875" d="M126.918,55.506l-.516-.052c.026-.73.051-1.423.076-2.128.264-.019.378.058.383.267,0,.15,0,.3.006.45.016.463.033.925.052,1.462" transform="translate(-60.921 -25.7)" fill="#e2d09f"/>
    <path id="패스_1876" data-name="패스 1876" d="M111.163,55.318h-.4c-.024-.372.039-1.275.026-1.376-.037-.3.04-.418.385-.551Z" transform="translate(-53.382 -25.732)" fill="#e2d09f"/>
    <path id="패스_1877" data-name="패스 1877" d="M123.3,50.543a3.1,3.1,0,0,0,1.393,1.263l-.036.093-1.284-.1c-.024-.419-.047-.8-.073-1.254" transform="translate(-59.426 -24.36)" fill="#e2d09f"/>
    <path id="패스_1878" data-name="패스 1878" d="M78.061,76.136c-.414.023-.787.044-1.159.062a.191.191,0,0,1-.13-.029c-.079-.078-.19-.161-.206-.255-.026-.157.123-.182.247-.191.39-.027.78-.051,1.222-.08.009.16.016.3.027.492" transform="translate(-36.9 -36.458)" fill="#987961"/>
    <path id="패스_1879" data-name="패스 1879" d="M45.924,49.852c.334-.036.366.133.37.33.009.406.016.811.031,1.217.009.25.033.5.049.746-.385.056-.443.039-.447-.195-.011-.689,0-1.378,0-2.1" transform="translate(-22.132 -24.024)" fill="#604c3e"/>
    <path id="패스_1880" data-name="패스 1880" d="M41.918,52.043c-.157.081-.294.065-.314-.082a6.584,6.584,0,0,1,.055-2.274l.1-.037c.053.066.151.132.152.2.011.736.007,1.472.007,2.194" transform="translate(-20.017 -23.929)" fill="#604c3e"/>
    <path id="패스_1881" data-name="패스 1881" d="M48.546,52.211a8.111,8.111,0,0,1-.092-2.387c.139-.023.235.013.246.175.013.21.036.42.039.629.007.463.005.925.009,1.388,0,.084,0,.084-.2.2" transform="translate(-23.328 -24.01)" fill="#604c3e"/>
    <path id="패스_1882" data-name="패스 1882" d="M50.514,52.229a.915.915,0,0,1-.246-.138.349.349,0,0,1-.056-.214c0-.6-.007-1.208,0-1.812,0-.07.071-.14.121-.231a8.268,8.268,0,0,1,.179,2.4" transform="translate(-24.198 -24.018)" fill="#604c3e"/>
    <path id="패스_1883" data-name="패스 1883" d="M43.794,49.741c.238-.071.3.02.3.189.005.438.012.877.017,1.315,0,.283,0,.566,0,.834-.241.075-.292-.036-.3-.194-.009-.317-.02-.633-.023-.949,0-.4,0-.807,0-1.195" transform="translate(-21.107 -23.962)" fill="#604c3e"/>
    <path id="패스_1884" data-name="패스 1884" d="M52.308,49.811a10.718,10.718,0,0,1,.127,2.273c0,.041-.1.078-.163.123a4.406,4.406,0,0,1,.036-2.4" transform="translate(-25.123 -24.007)" fill="#604c3e"/>
    <path id="패스_1885" data-name="패스 1885" d="M95.656,66.85a.9.9,0,0,0-.147-.042c-1.07,0-2.139-.011-3.209-.011-.841,0-1.687,0-2.533,0a18.993,18.993,0,0,1-2.436-.031c-1.039-.143-2.077-.066-3.112-.17a2.366,2.366,0,0,0-.521.066v2.015h1.556c.05.336.093.641.139.981,3.413-.038,6.791-.073,10.17-.112a1.336,1.336,0,0,0,.228-.062c-.047-.9-.093-1.776-.135-2.633m-9.278.938c-.019.4-.035.807-.05,1.228-.784.147-.838.1-.819-.6a3.277,3.277,0,0,1,.089-1.243.309.309,0,0,1,.089-.05c.68-.062.726-.019.691.664m2.271.433c-.012.3,0,.6,0,.919H87.622A4.426,4.426,0,0,1,87.56,68a1.55,1.55,0,0,1,.008-.181c.042-.711.274-.884.961-.7a.294.294,0,0,1,.174.209c0,.3-.042.6-.054.9m2.436.93H90.062c0-.552-.02-1.108-.016-1.664,0-.182.147-.259.309-.27.224-.011.448,0,.73,0Zm2.112.031h-.965c-.016-.2-.038-.328-.038-.459,0-.317,0-.634,0-.946,0-.363.112-.479.475-.522.162-.019.328-.023.525-.038Zm1.88.081c-.815.17-.857.154-.927-.606-.038-.4-.008-.807-.008-1.2a1.222,1.222,0,0,1,.935-.031Z" transform="translate(-40.34 -32.095)" fill="#ffa35b"/>
    <path id="패스_1886" data-name="패스 1886" d="M104.783,68.13v1.838c-.815.17-.857.154-.927-.606-.038-.4-.008-.807-.008-1.2a1.217,1.217,0,0,1,.935-.031" transform="translate(-50.045 -32.8)" fill="#604c3e"/>
    <path id="패스_1887" data-name="패스 1887" d="M101.1,67.8v1.965h-.965c-.016-.2-.039-.328-.039-.459,0-.317,0-.634,0-.946,0-.363.112-.479.475-.521.162-.02.328-.023.525-.039" transform="translate(-48.24 -32.676)" fill="#604c3e"/>
    <path id="패스_1888" data-name="패스 1888" d="M88.049,68.264c-.019.4-.035.807-.05,1.228-.784.147-.838.1-.818-.6a3.287,3.287,0,0,1,.089-1.243.317.317,0,0,1,.089-.05c.68-.062.726-.019.691.664" transform="translate(-42.01 -32.571)" fill="#604c3e"/>
    <path id="패스_1889" data-name="패스 1889" d="M96.989,67.793v1.934H95.966c0-.552-.019-1.108-.016-1.664,0-.182.147-.259.309-.27.224-.011.448,0,.73,0" transform="translate(-46.244 -32.671)" fill="#604c3e"/>
    <path id="패스_1890" data-name="패스 1890" d="M92.233,68.645c-.011.3,0,.6,0,.919H91.207a4.4,4.4,0,0,1-.062-1.139,1.547,1.547,0,0,1,.008-.181c.042-.71.274-.884.961-.7a.294.294,0,0,1,.174.209c0,.3-.042.6-.054.9" transform="translate(-43.925 -32.52)" fill="#604c3e"/>
    <path id="패스_1891" data-name="패스 1891" d="M83.36,61.031h1c2.326,0,4.653-.021,6.979,0,1.281.01,2.561.078,3.841.122a1.933,1.933,0,0,1,.208.032c.032.892.064,1.775.1,2.67l-.4.044c-.022-.38-.046-.736-.063-1.092-.01-.211,0-.423-.015-.634-.022-.315-.109-.391-.434-.371-.194.011-.387.045-.587.068-.205.664.037,1.339-.118,1.987H93.2c0-.409,0-.8,0-1.185.008-1.086-.058-.841-.933-.9a2.472,2.472,0,0,0-.443.056c-.1.666,0,1.331-.065,2.036l-.962.078V61.7a1.84,1.84,0,0,0-1.22-.049c-.138.712-.017,1.454-.1,2.2H88.347c-.022-.761-.044-1.523-.066-2.295a2.622,2.622,0,0,0-1.33.094v2.132c-.281,0-.516,0-.751,0s-.448-.02-.675-.031c-.139-.741.061-1.469-.09-2.182H84.22v2.1h-.729c-.1-.863-.081-1.726-.131-2.641" transform="translate(-40.176 -29.409)" fill="#ffa35b"/>
    <path id="패스_1892" data-name="패스 1892" d="M89.033,58v.8l-.9.053v-.908l-1.515-.1c-.052.366-.095.674-.141,1H85.366c-.165-.325.082-.726-.256-1.027H83.9v.942h-.609a3.916,3.916,0,0,1-.012-1.868c1.006,0,2.019-.04,3.026.012.9.048,1.805.126,2.713.092.48-.019.962.031,1.443.036.147,0,.294-.056.441-.058.979-.008,1.958-.015,2.937-.008.449,0,.9.035,1.388.056.029.652.054,1.246.079,1.824-.256.087-.344.008-.344-.193s0-.418,0-.63a3.508,3.508,0,0,0-1.237-.181c-.173-.018-.227.129-.247.269-.032.221-.05.443-.076.683h-.582c-.027-.287-.052-.552-.079-.842a3.083,3.083,0,0,0-1.29-.031c-.026.277-.051.54-.079.834h-.675v-.771A3.282,3.282,0,0,0,89.033,58" transform="translate(-40.084 -27.417)" fill="#ffa35b"/>
    <path id="패스_1893" data-name="패스 1893" d="M103.073,79.849a2.394,2.394,0,0,0-1.39.683,7.105,7.105,0,0,0-2.174,3.379c-.085.266-.131.544-.2.861h3.8c-.007-1.691.012-3.3-.027-4.923m-.8,3.981h-.9a1.808,1.808,0,0,1-.089-.969c.031-.417.1-.834.139-1.251.02-.224.1-.321.336-.317a3.2,3.2,0,0,0,.533-.077,9.886,9.886,0,0,1-.019,2.614" transform="translate(-47.861 -38.484)" fill="#ffa35b"/>
    <path id="패스_1894" data-name="패스 1894" d="M104.1,85.1h-.9a1.807,1.807,0,0,1-.089-.969c.031-.417.1-.834.139-1.251.02-.224.1-.321.336-.317a3.206,3.206,0,0,0,.533-.077A9.885,9.885,0,0,1,104.1,85.1" transform="translate(-49.686 -39.756)" fill="#604c3e"/>
    <path id="패스_1895" data-name="패스 1895" d="M91.232,51.882H94.09c.063.818.124,1.6.188,2.422a26.926,26.926,0,0,1-2.988.058,10.636,10.636,0,0,1-.057-2.48" transform="translate(-43.945 -25.005)" fill="#ffa35b"/>
    <path id="패스_1896" data-name="패스 1896" d="M98.423,55.354c-.032-.378-.064-.762-.1-1.193h1.527v1.193Z" transform="translate(-47.388 -26.104)" fill="#ffa35b"/>
    <path id="패스_1897" data-name="패스 1897" d="M88.864,54.828,88,54.777A4.634,4.634,0,0,1,88.021,53h.843Z" transform="translate(-42.376 -25.545)" fill="#ffa35b"/>
    <path id="패스_1898" data-name="패스 1898" d="M104.66,55.11c-.013.261-.025.5-.039.77l-1.883-.1c-.018-.228-.035-.445-.054-.694a5.318,5.318,0,0,1,1.976.021" transform="translate(-49.49 -26.51)" fill="#ffa35b"/>
    <path id="패스_1899" data-name="패스 1899" d="M84.781,54.83l-.093.785a9.217,9.217,0,0,1-1.694.021l.564-.806Z" transform="translate(-40 -26.426)" fill="#ffa35b"/>
    <path id="패스_1900" data-name="패스 1900" d="M90.534,54.125l-.345.015c0-.713,0-1.4,0-2.089a1.016,1.016,0,0,1,.02-.309.829.829,0,0,1,.167-.218.727.727,0,0,1,.145.193.91.91,0,0,1,.012.269c0,.693,0,1.385,0,2.138" transform="translate(-43.467 -24.833)" fill="#ffa35b"/>
    <path id="패스_1901" data-name="패스 1901" d="M97.647,54.179l-.285.056c-.065-.857-.128-1.685-.189-2.5.215-.143.343-.124.379.079a4.442,4.442,0,0,1,.052.627c.018.569.029,1.139.043,1.733" transform="translate(-46.834 -24.892)" fill="#ffa35b"/>
    <path id="패스_1902" data-name="패스 1902" d="M86.771,53.014l.417-.041v1.692l-.417.067Z" transform="translate(-41.82 -25.531)" fill="#ffa35b"/>
    <path id="패스_1903" data-name="패스 1903" d="M101.964,53.655c.028.545.051.989.075,1.44-.144.094-.29.106-.3-.088-.022-.391,0-.784.01-1.175,0-.036.081-.069.215-.177" transform="translate(-49.029 -25.86)" fill="#ffa35b"/>
    <path id="패스_1904" data-name="패스 1904" d="M51.241,39.2l-.676.036v-.824h.676Z" transform="translate(-24.37 -18.514)" fill="#604c3e"/>
    <path id="패스_1905" data-name="패스 1905" d="M48.445,38.358v.681h-.7v-.621l.7-.06" transform="translate(-23.011 -18.487)" fill="#604c3e"/>
    <path id="패스_1906" data-name="패스 1906" d="M40.219,38.98l-.036-.747H40.8c.03.219.058.427.091.671l-.674.076" transform="translate(-19.367 -18.427)" fill="#604c3e"/>
    <path id="패스_1907" data-name="패스 1907" d="M45.895,39.013l-.609.039c-.02-.233-.037-.446-.056-.688h.621c.014.2.027.4.045.649" transform="translate(-21.799 -18.49)" fill="#604c3e"/>
    <path id="패스_1908" data-name="패스 1908" d="M43.52,38.281v.684L43.085,39c-.213-.638-.1-.816.435-.721" transform="translate(-20.716 -18.438)" fill="#604c3e"/>
    <path id="패스_1909" data-name="패스 1909" d="M118.239,79.765a1.485,1.485,0,0,1,1.043-.1v.3c-.346,0-.711.209-1.043-.2" transform="translate(-56.987 -38.371)" fill="#604c3e"/>
    <path id="패스_1910" data-name="패스 1910" d="M89.842,25.734c.226-.877.455-1.718.656-2.566a6.875,6.875,0,0,0,.189-1.2c.087-1.6.232-3.192.2-4.8-.039-1.811-.044-3.623-.063-5.434a.446.446,0,0,1,.076-.3c.087.683.176,1.366.26,2.049.122,1,.236,2,.362,3.006.082.657.179,1.313.269,1.969a23.549,23.549,0,0,0,.779,2.923,7.7,7.7,0,0,0,1.3,2.416,4.985,4.985,0,0,0,1.453,1.587c.033.019.051.065.08.1a45.556,45.556,0,0,1-5.556.246" transform="translate(-43.3 -5.511)" fill="#604c3e"/>
    <path id="패스_1911" data-name="패스 1911" d="M87.329,11.435c0,.573-.1,2.321-.087,2.894.016,1.087.046,2.174.058,3.261.006.512,0,1.026-.027,1.538-.06,1.084-.123,2.169-.213,3.251a15.187,15.187,0,0,1-.939,3.387l-3.314-.147a1.044,1.044,0,0,1,.116-.186,12.034,12.034,0,0,0,2.067-3.113,20.26,20.26,0,0,0,1.4-3.908,15.964,15.964,0,0,0,.377-2.269c.153-1.179.367-3.536.5-4.716l.055.009" transform="translate(-39.91 -5.507)" fill="#604c3e"/>
    <path id="패스_1912" data-name="패스 1912" d="M94.4,21.13a12.88,12.88,0,0,1-.029,4.326,14.9,14.9,0,0,1-.982-4.239L94.4,21.13" transform="translate(-45.01 -10.184)" fill="#604c3e"/>
    <path id="패스_1913" data-name="패스 1913" d="M87.846,20.789l1.023-.177a12.936,12.936,0,0,1-.924,4.084.541.541,0,0,1-.276-.513,19.627,19.627,0,0,1,.117-3.254.7.7,0,0,1,.06-.139" transform="translate(-42.248 -9.934)" fill="#604c3e"/>
    <path id="패스_1914" data-name="패스 1914" d="M88.976,17.964l-1.044.169.457-2.552a1.767,1.767,0,0,1,.134.278c.132.557.258,1.116.383,1.675.029.127.042.258.07.429" transform="translate(-42.38 -7.51)" fill="#604c3e"/>
    <path id="패스_1915" data-name="패스 1915" d="M94.584,18.258h-.792a18.375,18.375,0,0,1,.463-2.685c.107.877.215,1.753.329,2.685" transform="translate(-45.204 -7.506)" fill="#604c3e"/>
    <path id="패스_1916" data-name="패스 1916" d="M91.607.009c-.294-.042-.393.065-.395.394,0,.541,0,1.082,0,1.636a.71.71,0,0,0-.192,1.129.933.933,0,0,1,.17.591c-.022.645-.039,1.287-.105,1.93h.32c-.033-.681-.026-1.363-.022-2.046a.637.637,0,0,1,.218-.551.57.57,0,0,0,0-.939c-.063-.064-.136-.118-.208-.179v-.85c.2-.081.409-.162.613-.249.319-.137.638-.274.951-.423.062-.029.095-.117.154-.2C92.581.168,92.1.079,91.607.009m-.18.851c.01-.22.018-.379.028-.6l1.02.116L92.5.488,91.427.86" transform="translate(-43.772 0)" fill="#604c3e"/>
    <path id="패스_1917" data-name="패스 1917" d="M61.875,52.161c-.213.052-.267-.043-.278-.181-.048-.6-.1-1.2-.133-1.794,0-.074.1-.153.155-.229.084.069.226.127.242.21a3.048,3.048,0,0,1,.013.584v1.411" transform="translate(-29.623 -24.077)" fill="#604c3e"/>
    <path id="패스_1918" data-name="패스 1918" d="M59.855,52.143a6.11,6.11,0,0,1-.181-2.026c0-.081.081-.16.175-.229a11.647,11.647,0,0,1,.187,2.237l-.18.019" transform="translate(-28.756 -24.044)" fill="#604c3e"/>
    <path id="패스_1919" data-name="패스 1919" d="M58.005,52.146a2.869,2.869,0,0,1-.082-.506c.006-.537.032-1.074.057-1.612a.368.368,0,0,1,.112-.219,3.035,3.035,0,0,1,.09,1.174c.008.381-.008.763-.013,1.144l-.164.019" transform="translate(-27.917 -24.007)" fill="#604c3e"/>
    <path id="패스_1920" data-name="패스 1920" d="M54.91,50a9.621,9.621,0,0,1,.069,2.366c-.115-.13-.2-.186-.222-.26a1.4,1.4,0,0,1-.019-.4q.043-.739.1-1.476A1.092,1.092,0,0,1,54.91,50" transform="translate(-26.379 -24.098)" fill="#604c3e"/>
    <path id="패스_1921" data-name="패스 1921" d="M63.432,49.772c.047.074.11.13.113.188.03.694.051,1.389.046,2.085a3.968,3.968,0,0,1-.159-2.272" transform="translate(-30.523 -23.988)" fill="#604c3e"/>
    <path id="패스_1922" data-name="패스 1922" d="M65.143,52.169a10.937,10.937,0,0,1-.085-2.355,4.989,4.989,0,0,1,.085,2.355" transform="translate(-31.343 -24.008)" fill="#604c3e"/>
    <path id="패스_1923" data-name="패스 1923" d="M56.381,52.061a20.474,20.474,0,0,1,.128-2.157v2.157h-.128" transform="translate(-27.172 -24.052)" fill="#604c3e"/>
    <path id="패스_1924" data-name="패스 1924" d="M64.47,39.311l-.63.034V38.6h.576c.017.22.034.436.055.716" transform="translate(-30.768 -18.601)" fill="#604c3e"/>
    <path id="패스_1925" data-name="패스 1925" d="M55.122,38.377c0,.191.009.368,0,.545-.021.311-.064.333-.475.253v-.8Z" transform="translate(-26.337 -18.496)" fill="#604c3e"/>
    <path id="패스_1926" data-name="패스 1926" d="M61.653,39.2h-.6c.023-.266.044-.5.066-.759l.538.033Z" transform="translate(-29.423 -18.528)" fill="#604c3e"/>
    <path id="패스_1927" data-name="패스 1927" d="M58.6,39.089c-.048-.679.034-.763.592-.613l-.062.613Z" transform="translate(-28.236 -18.514)" fill="#604c3e"/>
    <path id="패스_1928" data-name="패스 1928" d="M57.18,38.267c-.156.329.025.657-.306.842a.746.746,0,0,1-.047-.765c.015-.044.17-.04.353-.077" transform="translate(-27.348 -18.443)" fill="#604c3e"/>
    <path id="패스_1929" data-name="패스 1929" d="M56.037,24.958c-.252-.916-.54-1.822-.773-2.743-.413-1.638-.791-3.285-1.2-4.925-.12-.486-.278-.963-.419-1.438-.077.007-.154.013-.231.014-.112,0-2.852.119-2.933.13l-.106.015c.153,1.549.278,3.05.459,4.543s.42,2.97.633,4.455h.11q.309-1.5.616-3a1.8,1.8,0,0,0,.031-.313.555.555,0,0,0-.181-.482.477.477,0,0,1-.06-.682,1.038,1.038,0,0,0,.272-.777c.013-.2.04-.394.06-.591h.1a2.319,2.319,0,0,1,.046.324c0,.181-.022.362-.027.543a.45.45,0,0,0,.19.465c.207.139.2.36.05.6a2.462,2.462,0,0,1-.272.307c.1,1.98.894,3.837,1.156,5.848l3.111.1c-.225-.853-.421-1.626-.633-2.394" transform="translate(-24.281 -7.64)" fill="#604c3e"/>
    <path id="패스_1930" data-name="패스 1930" d="M47.417,17.108c.048.409.1.776.134,1.142.125,1.259.226,2.521.376,3.778.1.837.274,1.665.4,2.5.09.594.159,1.191.235,1.787a.369.369,0,0,1-.008.135c-.114.467-.231.933-.355,1.433H44.567a92.61,92.61,0,0,1,2.85-10.774" transform="translate(-21.48 -8.245)" fill="#604c3e"/>
    <path id="패스_1931" data-name="패스 1931" d="M54.105,33.44H52.02c.326-1.583.687-3.094,1.058-4.706.353,1.617.682,3.126,1.027,4.706" transform="translate(-25.072 -13.849)" fill="#604c3e"/>
    <path id="패스_1932" data-name="패스 1932" d="M61.316,26.633a2.933,2.933,0,0,1,.137.295c.343,1.121.679,2.245,1.029,3.364a1.3,1.3,0,0,1-.008.795c-.137.46-.261.923-.412,1.461a8.994,8.994,0,0,1-.372-.9c-.285-1-.551-2-.816-3a.821.821,0,0,1-.027-.4c.133-.505.291-1,.47-1.61" transform="translate(-29.318 -12.836)" fill="#604c3e"/>
    <path id="패스_1933" data-name="패스 1933" d="M64.925,29.537c.284,1.466.155,2.945.324,4.438h-1.5c.247-1.539.843-2.953,1.174-4.438" transform="translate(-30.726 -14.236)" fill="#604c3e"/>
    <path id="패스_1934" data-name="패스 1934" d="M40.639,34.005l-1.658-.162c.139-1.371.275-2.7.41-4.037l.059,0,1.189,4.2" transform="translate(-18.787 -14.364)" fill="#604c3e"/>
    <path id="패스_1935" data-name="패스 1935" d="M50.191,8.732c.011-.173.026-.359.034-.545a.887.887,0,0,0-.144-.534c0,.109,0,.172,0,.234a2.506,2.506,0,0,1-.219,1.083.683.683,0,0,0-.012.569,1.87,1.87,0,0,1,.229,1.112c-.013.36-.007.721-.025,1.081v.006l.167-.023V9.864c.594-.358.439-.765-.028-1.132" transform="translate(-23.998 -3.688)" fill="#604c3e"/>
    <path id="패스_1936" data-name="패스 1936" d="M56.556,8.855a.708.708,0,0,1-.225-.6q-.006-.2-.013-.4l-.106,0c-.006.138-.015.277-.016.415a.738.738,0,0,1-.181.589.455.455,0,0,0-.015.6.911.911,0,0,1,.138.721,2.069,2.069,0,0,0,.024.36,4.945,4.945,0,0,1,0,1.117c.063-.005.125-.013.188-.025,0-.077-.006-.154-.006-.232,0-.442-.035-.884-.053-1.326,0-.1,0-.21,0-.318a2.507,2.507,0,0,0,.239-.157c.279-.233.326-.478.024-.749" transform="translate(-26.94 -3.787)" fill="#604c3e"/>
    <path id="패스_1937" data-name="패스 1937" d="M61.363,21.744a5.144,5.144,0,0,0-.018-.536,2.325,2.325,0,0,0-.063-.3.2.2,0,0,0-.089.15c-.025.469.092.954-.295,1.365a.4.4,0,0,0,.177.6c.166.089.14.218.143.341a2.536,2.536,0,0,1-.039.5c.084-.007.167-.011.251-.012a.932.932,0,0,1,.192-.972c.229-.228.2-.453-.066-.713a.527.527,0,0,1-.192-.424" transform="translate(-29.313 -10.077)" fill="#604c3e"/>
    <path id="패스_1938" data-name="패스 1938" d="M65.868,24.191a1.478,1.478,0,0,0-.308-.226,1.915,1.915,0,0,0-.149-1.284c0,.316,0,.609,0,.9a.551.551,0,0,1-.191.472.527.527,0,0,0,.04.857.5.5,0,0,1,.246.526,5.567,5.567,0,0,1-.039.576l.268.009c-.006-.068-.013-.136-.018-.2-.025-.335-.117-.675.184-.973a.446.446,0,0,0-.032-.655" transform="translate(-31.336 -10.931)" fill="#604c3e"/>
    <path id="패스_1939" data-name="패스 1939" d="M54.01,25.017a.626.626,0,0,1,.124.233c.012.128-.066.218-.221.21-.137-.007-.238-.048-.231-.2s.084-.25.328-.24" transform="translate(-25.872 -12.057)" fill="#604c3e"/>
    <path id="패스_1940" data-name="패스 1940" d="M39.776,24.552a.974.974,0,0,1-.158-.893.8.8,0,0,0-.086-.634,1.356,1.356,0,0,0-.08.371,2,2,0,0,1-.274,1.067.757.757,0,0,0-.031.685,1.544,1.544,0,0,1,.147.909c.1,0,.194-.018.291-.032-.012-.04-.023-.081-.035-.121a.829.829,0,0,1,.188-.9.321.321,0,0,0,.04-.454" transform="translate(-18.835 -11.097)" fill="#604c3e"/>
    <path id="패스_1941" data-name="패스 1941" d="M49.435,80.308a7.879,7.879,0,0,1-.807-.053c-.32-.053-.408-.187-.363-.454a.371.371,0,0,1,.465-.357c.447.044.894.1,1.337.174a.536.536,0,0,1,.324.2c.161.237.05.44-.235.456-.239.014-.48,0-.72,0,0,.011,0,.021,0,.032" transform="translate(-23.257 -38.287)" fill="#604c3e"/>
    <path id="패스_1942" data-name="패스 1942" d="M47.928,82.1a6.018,6.018,0,0,1-1.832.19.325.325,0,0,1-.356-.33.342.342,0,0,1,.3-.424,2.038,2.038,0,0,1,.577-.068c.432.024.861.08,1.315.125Z" transform="translate(-22.044 -39.264)" fill="#604c3e"/>
    <path id="패스_1943" data-name="패스 1943" d="M44.391,80.514l-.435.573c-.2,0-.377,0-.551,0-.239,0-.479.013-.718.007-.164,0-.3-.067-.3-.264,0-.167.064-.3.244-.324a4.8,4.8,0,0,1,1.756.007" transform="translate(-20.431 -38.763)" fill="#987961"/>
    <path id="패스_1944" data-name="패스 1944" d="M46.551,87.033a1.359,1.359,0,0,1,.111.2c.172.477.016.69-.492.649-.551-.045-1.1-.11-1.643-.165-.1-.46.008-.662.412-.725a3.593,3.593,0,0,1,.664-.016c.3.01.6.036.948.058" transform="translate(-21.443 -41.915)" fill="#604c3e"/>
    <path id="패스_1945" data-name="패스 1945" d="M49.039,85.695c.022.45.018.482-.272.5-.437.02-.875,0-1.314,0a.354.354,0,0,1-.208-.074c-.064-.053-.141-.139-.138-.208s.086-.149.154-.2a.4.4,0,0,1,.218-.047c.512.008,1.025.021,1.561.034" transform="translate(-22.704 -41.285)" fill="#b78b6e"/>
    <path id="패스_1946" data-name="패스 1946" d="M47.2,76.579V76a4.562,4.562,0,0,1,1.676.112c.066.275-.084.381-.3.4-.432.034-.865.044-1.375.067" transform="translate(-22.749 -36.618)" fill="#987961"/>
    <path id="패스_1947" data-name="패스 1947" d="M115.1,75.037a11.522,11.522,0,0,1-1.8.01c-.132-.249-.08-.423.154-.434a13.536,13.536,0,0,1,1.435.013c.171.01.176.066.213.41" transform="translate(-54.571 -35.954)" fill="#604c3e"/>
    <path id="패스_1948" data-name="패스 1948" d="M110.961,76.048c.165-.1.28-.227.4-.228a12.366,12.366,0,0,1,1.245.073c.053.005.094.127.137.19a.511.511,0,0,1-.535.206,2.367,2.367,0,0,1-1.243-.241" transform="translate(-53.479 -36.542)" fill="#b78b6e"/>
    <path id="패스_1949" data-name="패스 1949" d="M90.665,77.3a1.582,1.582,0,0,1-.427.223c-.478.058-.958.1-1.439.117-.1,0-.2-.1-.3-.152.069-.1.118-.243.214-.3a1.022,1.022,0,0,1,.433-.112c.284-.024.569-.026.854-.031a.79.79,0,0,1,.66.257" transform="translate(-42.655 -37.133)" fill="#604c3e"/>
    <path id="패스_1950" data-name="패스 1950" d="M91.976,75.264a.974.974,0,0,1,.281-.121c.508-.011,1.016-.016,1.524-.006.2,0,.337.111.3.343a2.554,2.554,0,0,1-2.105-.217" transform="translate(-44.329 -36.211)" fill="#b78b6e"/>
    <path id="패스_1951" data-name="패스 1951" d="M115.259,77.907h1.035v.37c-.262.02-.5.049-.739.054-.274.006-.275,0-.3-.424" transform="translate(-55.551 -37.548)" fill="#604c3e"/>
    <path id="패스_1952" data-name="패스 1952" d="M45.925,58.454v.388c-.049.031-.073.059-.1.06-.326.008-.653.012-.979.016-.142,0-.274-.011-.289-.2-.018-.214.137-.256.288-.261.354-.013.708,0,1.078,0" transform="translate(-21.475 -28.171)" fill="#987961"/>
    <path id="패스_1953" data-name="패스 1953" d="M70.9,75.63c-.045.06-.085.169-.135.174-.622.055-1.246.094-1.92.141.048-.186.076-.3.106-.415H70.84l.055.1" transform="translate(-33.178 -36.403)" fill="#987961"/>
    <path id="패스_1954" data-name="패스 1954" d="M86.708,42.942,86.084,43c-.025-.417-.049-.812-.076-1.26a2.286,2.286,0,0,0-.117,1.507l.756-.088a1.423,1.423,0,0,1-.218,1,.5.5,0,0,1-.93-.03,2.925,2.925,0,0,1-.16-2.323c.082-.272.315-.343.57-.361a.473.473,0,0,1,.519.279,3.006,3.006,0,0,1,.28,1.213" transform="translate(-41.051 -19.976)" fill="#e2d09f"/>
    <path id="패스_1955" data-name="패스 1955" d="M74.18,59.346l-8.177.1a.5.5,0,0,0-.027.142q.18,3.428.367,6.861a4.227,4.227,0,0,0,.1.525c2.166-.066,4.317-.135,6.513-.2V65.211h1.394c-.124-1.98.046-3.923-.166-5.865m-7.308,2.7c-.035-.463-.062-.927-.077-1.39-.008-.343.035-.379.386-.4.178-.008.355,0,.614,0v1.791c0,.332-.027.37-.34.386-.147.008-.3,0-.479,0a1.942,1.942,0,0,1-.1-.386m1.166,1.93c0,.2-.012.413-.008.618.008.251-.035.305-.3.332-.177.019-.355.031-.583.05a3.856,3.856,0,0,1-.05-.444c0-.39.019-.78.023-1.17,0-.359.042-.405.413-.421.12,0,.239,0,.386,0a1.821,1.821,0,0,1,.12,1.035m.652-3.591a1.307,1.307,0,0,1,.981-.042v1.977h-.977a16.964,16.964,0,0,1,0-1.934m1.073,4.405h-.8c0-.525-.011-1.031,0-1.536.012-.371.027-.371.379-.436.1-.016.2-.027.359-.05a8.627,8.627,0,0,1,.062,2.023m.618-4.363a.238.238,0,0,1,.235-.274c.251-.008.5,0,.765,0v1.884l-.869.081c-.046-.591-.093-1.143-.131-1.691M71.5,64.694c-.738.042-.734.042-.745-.684,0-.27-.042-.54-.054-.807-.016-.44.008-.464.421-.525.1-.016.209-.031.359-.05a9.319,9.319,0,0,1,.132,2,.622.622,0,0,1-.112.07m.71-4.282a.294.294,0,0,1,.282-.34c.178-.023.355-.038.587-.065.127.644.089,1.282.2,1.969-.32.023-.606.042-.981.073-.035-.591-.062-1.112-.089-1.637m.274,4.089a2.43,2.43,0,0,1-.069-.305c-.027-.375-.054-.749-.069-1.124-.012-.3.046-.367.359-.394.143-.011.293,0,.486,0,.042.61.077,1.185.12,1.822Z" transform="translate(-31.798 -28.603)" fill="#b78b6e"/>
    <path id="패스_1956" data-name="패스 1956" d="M69.078,67.318c0,.2-.011.413-.008.617.008.251-.035.305-.3.332-.178.02-.355.031-.583.05a3.834,3.834,0,0,1-.05-.444c0-.39.02-.78.023-1.17,0-.359.042-.406.413-.421.12,0,.239,0,.386,0a1.816,1.816,0,0,1,.12,1.035" transform="translate(-32.839 -31.945)" fill="#604c3e"/>
    <path id="패스_1957" data-name="패스 1957" d="M72.536,67.973h-.8c0-.525-.012-1.031,0-1.536.012-.371.027-.371.379-.436.1-.016.2-.027.359-.05a8.628,8.628,0,0,1,.062,2.023" transform="translate(-34.57 -31.785)" fill="#604c3e"/>
    <path id="패스_1958" data-name="패스 1958" d="M76,67.677c-.062.039-.089.066-.112.069-.738.042-.734.042-.745-.683,0-.27-.042-.54-.054-.807-.016-.44.008-.463.421-.525.1-.016.209-.031.36-.05a9.316,9.316,0,0,1,.131,2" transform="translate(-36.187 -31.656)" fill="#604c3e"/>
    <path id="패스_1959" data-name="패스 1959" d="M79.23,67.6H78.4a2.431,2.431,0,0,1-.069-.305c-.027-.375-.054-.749-.069-1.124-.012-.3.046-.367.359-.394.143-.011.293,0,.486,0,.042.61.077,1.185.12,1.822" transform="translate(-37.72 -31.698)" fill="#604c3e"/>
    <path id="패스_1960" data-name="패스 1960" d="M79.073,62.589c-.321.023-.606.042-.981.074-.035-.591-.062-1.112-.089-1.637a.294.294,0,0,1,.282-.34c.177-.023.355-.039.586-.066.127.645.089,1.282.2,1.969" transform="translate(-37.595 -29.217)" fill="#604c3e"/>
    <path id="패스_1961" data-name="패스 1961" d="M75.479,60.9v1.884l-.869.081c-.046-.591-.093-1.143-.131-1.691a.238.238,0,0,1,.235-.274c.251-.008.5,0,.765,0" transform="translate(-35.896 -29.35)" fill="#604c3e"/>
    <path id="패스_1962" data-name="패스 1962" d="M72.172,61.194v1.977h-.977a17.082,17.082,0,0,1,0-1.934,1.307,1.307,0,0,1,.981-.042" transform="translate(-34.299 -29.455)" fill="#604c3e"/>
    <path id="패스_1963" data-name="패스 1963" d="M68.555,61.1v1.791c0,.332-.027.371-.34.386-.147.008-.3,0-.479,0a1.9,1.9,0,0,1-.1-.386c-.035-.463-.062-.927-.077-1.39-.008-.343.035-.378.386-.4.178-.007.355,0,.614,0" transform="translate(-32.559 -29.446)" fill="#604c3e"/>
    <path id="패스_1964" data-name="패스 1964" d="M64.9,82.043a7.457,7.457,0,0,1,.562-.745,3.338,3.338,0,0,1,1.877-1.18,1.183,1.183,0,0,1,.488.012,11.138,11.138,0,0,1,3.422,1.719,3.341,3.341,0,0,1,.345.364,4.987,4.987,0,0,1-.524.046c-.755-.024-1.51-.061-2.265-.084-.317-.01-.635.007-.952.006q-1.448-.008-2.9-.021l-.059-.117" transform="translate(-31.28 -38.605)" fill="#b78b6e"/>
    <path id="패스_1965" data-name="패스 1965" d="M69.789,48.859A59.574,59.574,0,0,1,74.057,54a73.907,73.907,0,0,1-8.125.091,1.206,1.206,0,0,1,.1-.3c.735-1.012,1.477-2.019,2.216-3.028.283-.387.55-.787.848-1.163.2-.257.449-.483.693-.74m-3.126,4.759c2.143,0,4.174,0,6.205,0,.048,0,.1-.057.188-.117-1.03-1.4-2.158-2.677-3.335-4.012l-3.057,4.133" transform="translate(-31.777 -23.548)" fill="#b78b6e"/>
    <path id="패스_1966" data-name="패스 1966" d="M68.806,87.993h-.772c-.019-.364-.036-.7-.054-1.074a.548.548,0,0,0-.178-.044c-.437.027-.874.059-1.31.1-.364.034-.413.089-.427.443-.006.164,0,.328,0,.522a2.692,2.692,0,0,1-.282.025c-.089,0-.178-.021-.308-.038,0-.23,0-.453,0-.676,0-.183-.061-.292-.259-.282-.377.019-.754.032-1.13.063a.327.327,0,0,0-.305.337c-.012.15.03.54,0,.685h-.25A5.422,5.422,0,0,1,63.8,86.12l6.28.077c.015.2.031.427.048.665-.308,0-.574,0-.839,0-.422.007-.428.016-.457.423-.008.121-.02.241-.024.361,0,.1,0,.206,0,.345" transform="translate(-30.613 -41.507)" fill="#b78b6e"/>
    <path id="패스_1967" data-name="패스 1967" d="M70.917,84.561a.847.847,0,0,1-.892.609c-1.541-.036-3.082-.041-4.623-.062-.375,0-.75-.022-1.128-.034.092-.522.242-.642.767-.626.422.012.844.045,1.266.049,1.147.01,2.295.005,3.442.015.374,0,.746.031,1.169.05" transform="translate(-30.978 -40.7)" fill="#b78b6e"/>
    <path id="패스_1968" data-name="패스 1968" d="M70.876,50.6c.384.447.716.817,1.032,1.2.64.782,1.271,1.57,1.973,2.439h-5.59c.075-.129.13-.245.2-.347.451-.624.911-1.242,1.358-1.869.174-.245.31-.516.484-.761.154-.218.336-.416.54-.665" transform="translate(-32.914 -24.386)" fill="#b78b6e"/>
    <path id="패스_1969" data-name="패스 1969" d="M94.984,41.257a1.463,1.463,0,0,0-1.818-.3,1.583,1.583,0,0,0-.749,1.568,1.337,1.337,0,0,0,1.907,1.143,1.58,1.58,0,0,0,.965-1.486,1.171,1.171,0,0,0-.305-.927m-1.3,1.382c0-.406,0-.818,0-1.236,0-.042.062-.085.185-.112v1.135h1.054c-.217.282-.483.321-1.243.212" transform="translate(-44.536 -19.652)" fill="#e2d09f"/>
    <path id="패스_1970" data-name="패스 1970" d="M96.106,42.907c-.216.282-.483.321-1.243.212,0-.406,0-.819,0-1.236,0-.042.062-.085.185-.112v1.135Z" transform="translate(-45.72 -20.133)" fill="#604c3e"/>
    <path id="패스_1971" data-name="패스 1971" d="M56.73,68.782a18.758,18.758,0,0,1,1.094-5.694s1.464.724,1.657,5.694Z" transform="translate(-27.342 -30.406)" fill="#604c3e"/>
    <path id="패스_1972" data-name="패스 1972" d="M85.471,64.426V62.592h.724v1.87Z" transform="translate(-41.194 -30.167)" fill="#604c3e"/>
    <rect id="사각형_1544" data-name="사각형 1544" width="0.687" height="2.03" transform="translate(47.1 32.326)" fill="#604c3e"/>
    <path id="패스_1973" data-name="패스 1973" d="M95.812,62.592v2.073h.7V62.643Z" transform="translate(-46.178 -30.167)" fill="#604c3e"/>
    <path id="패스_1974" data-name="패스 1974" d="M100.237,64.727V62.933l.78.033.056,1.761Z" transform="translate(-48.31 -30.331)" fill="#604c3e"/>
    <path id="패스_1975" data-name="패스 1975" d="M104.289,63.073v1.786h.611l-.056-1.786Z" transform="translate(-50.264 -30.399)" fill="#604c3e"/>
    <rect id="사각형_1545" data-name="사각형 1545" width="0.841" height="0.715" transform="translate(44.084 30.611)" fill="#604c3e"/>
    <path id="패스_1976" data-name="패스 1976" d="M90.362,59.215v.728h.929v-.66Z" transform="translate(-43.551 -28.539)" fill="#604c3e"/>
    <rect id="사각형_1546" data-name="사각형 1546" width="0.978" height="0.583" transform="translate(49.248 30.743)" fill="#604c3e"/>
    <path id="패스_1977" data-name="패스 1977" d="M99.6,59.215l-.066.652h.9l-.04-.652Z" transform="translate(-47.974 -28.539)" fill="#604c3e"/>
    <path id="패스_1978" data-name="패스 1978" d="M103.651,59.215l-.06.718h.973v-.718Z" transform="translate(-49.927 -28.539)" fill="#604c3e"/>
    <path id="패스_1979" data-name="패스 1979" d="M119.97,51.22s-.032-1.935.169-1.919.233,1.919.233,1.919Z" transform="translate(-57.82 -23.761)" fill="#604c3e"/>
    <path id="패스_1980" data-name="패스 1980" d="M117.8,51.22s-.032-1.935.169-1.919.233,1.919.233,1.919Z" transform="translate(-56.772 -23.761)" fill="#604c3e"/>
  </g>
</svg>
