<svg width="53" height="54" viewBox="0 0 53 54" fill="none" xmlns="http://www.w3.org/2000/svg">
<g clip-path="url(#clip0_217_2)">
<path d="M43 0.5H10C4.47715 0.5 0 4.97715 0 10.5V43.5C0 49.0228 4.47715 53.5 10 53.5H43C48.5228 53.5 53 49.0228 53 43.5V10.5C53 4.97715 48.5228 0.5 43 0.5Z" fill="white"/>
<path d="M43 1H10C4.75329 1 0.5 5.25329 0.5 10.5V43.5C0.5 48.7467 4.75329 53 10 53H43C48.2467 53 52.5 48.7467 52.5 43.5V10.5C52.5 5.25329 48.2467 1 43 1Z" stroke="#707070"/>
<mask id="mask0_217_2" style="mask-type:luminance" maskUnits="userSpaceOnUse" x="6" y="6" width="43" height="43">
<path d="M6 6.5H49V48.5H6V6.5Z" fill="white"/>
</mask>
<g mask="url(#mask0_217_2)">
<path d="M39.788 33.7628H29.888V32.3748H39.788C41.9806 32.3772 44.1506 31.9318 46.165 31.0658L47.18 30.6308C47.2487 30.6012 47.3075 30.5527 47.3495 30.4908C47.3915 30.429 47.4149 30.3564 47.417 30.2817C47.4191 30.2069 47.3998 30.1331 47.3613 30.069C47.3229 30.0049 47.2669 29.9531 47.2 29.9198C44.9516 28.7988 42.4742 28.2139 39.962 28.2108H13.403C12.9826 28.2101 12.5629 28.2435 12.148 28.3108L9.24798 28.7948V29.2368C12.1614 31.2825 15.6361 32.3772 19.196 32.3708H22.436V33.7588H19.196C15.2879 33.7678 11.4758 32.5479 8.29898 30.2718L7.85498 29.9548V27.6218L11.92 26.9448C12.4101 26.8632 12.9061 26.8221 13.403 26.8218H39.963C42.6908 26.8249 45.3807 27.4598 47.822 28.6768C48.1255 28.8287 48.3793 29.0642 48.5535 29.3556C48.7277 29.6469 48.815 29.982 48.8051 30.3213C48.7952 30.6606 48.6886 30.99 48.4978 31.2707C48.3069 31.5514 48.0399 31.7718 47.728 31.9058L46.711 32.3408C44.5242 33.2812 42.1684 33.7648 39.788 33.7618" fill="#333333"/>
<path d="M21.262 40.0099H17.208L17.008 39.8099C16.8179 39.6237 16.6103 39.4563 16.388 39.3099L15.677 38.8409L24.024 30.4949L25.005 31.4759L17.861 38.6199H20.823L32.442 30.4199L33.242 31.5539L21.262 40.0099Z" fill="#333333"/>
<path d="M29 41.5H43V42.5H29V41.5Z" fill="#333333"/>
<path d="M18.266 48.3392H9.93702C8.89169 48.3423 7.88359 47.9514 7.11365 47.2443C6.34372 46.5373 5.86849 45.5661 5.7827 44.5243C5.69692 43.4825 6.00687 42.4466 6.65078 41.6232C7.29469 40.7997 8.22527 40.2491 9.25702 40.0812C9.80723 39.0936 10.6461 38.2977 11.6612 37.8001C12.6763 37.3025 13.8193 37.127 14.9369 37.297C16.0546 37.467 17.0936 37.9745 17.9149 38.7514C18.7361 39.5283 19.3004 40.5377 19.532 41.6442C20.2876 41.9368 20.9168 42.4848 21.3104 43.193C21.704 43.9011 21.8371 44.7248 21.6867 45.521C21.5363 46.3171 21.1117 47.0354 20.4869 47.5511C19.862 48.0669 19.0762 48.3475 18.266 48.3442" fill="#F9BA48"/>
<path d="M43.947 19.882H32.147C31.4753 19.8821 30.811 19.7431 30.1958 19.4735C29.5806 19.204 29.028 18.8098 28.5729 18.3159C28.1177 17.8221 27.7699 17.2392 27.5513 16.6041C27.3328 15.969 27.2482 15.2955 27.3031 14.6262C27.3579 13.9568 27.551 13.306 27.87 12.715C28.189 12.124 28.6271 11.6055 29.1566 11.1923C29.6861 10.7791 30.2955 10.4802 30.9463 10.3144C31.5972 10.1486 32.2753 10.1195 32.938 10.229C33.4188 8.97325 34.2723 7.8947 35.3839 7.13818C36.4955 6.38167 37.812 5.98342 39.1566 5.99691C40.5012 6.01041 41.8094 6.43502 42.9056 7.2137C44.0018 7.99238 44.8335 9.08785 45.289 10.353C46.4151 10.6757 47.3867 11.3946 48.0248 12.377C48.6629 13.3595 48.9244 14.5395 48.7613 15.6996C48.5981 16.8596 48.0212 17.9217 47.1369 18.6901C46.2526 19.4584 45.1205 19.8814 43.949 19.881" fill="#F9BA48"/>
<path d="M27 41.5H28V42.5H27V41.5Z" fill="#333333"/>
<path d="M12 10.5H23V12.5H12V10.5Z" fill="#333333"/>
<path d="M9 10.5H11V12.5H9V10.5Z" fill="#333333"/>
<path d="M9 14.5H20V15.5H9V14.5Z" fill="#333333"/>
<path d="M6 14.5H8V15.5H6V14.5Z" fill="#333333"/>
</g>
<path d="M6.09302 21.27L9.30302 28.493L10.572 27.929L8.23202 22.658H9.67402L15.723 28.035L16.645 26.998L10.201 21.27H6.09302Z" fill="#333333"/>
<path d="M33.1771 28.211H23.5321L16.5911 21.27H23.3451L33.1771 28.211ZM24.1051 26.823H28.8051L22.9051 22.659H19.9421L24.1051 26.823Z" fill="#333333"/>
<mask id="mask1_217_2" style="mask-type:luminance" maskUnits="userSpaceOnUse" x="12" y="13" width="31" height="31">
<path d="M12.288 13.2808H42.713V43.7028H12.288V13.2808Z" fill="white"/>
</mask>
<g mask="url(#mask1_217_2)">
<path d="M32.468 28.4927L41.688 19.2807C42.3465 18.6215 42.7162 17.7277 42.7158 16.7959C42.7153 15.8642 42.3447 14.9707 41.6855 14.3122C41.0263 13.6537 40.1325 13.284 39.2008 13.2844C38.269 13.2849 37.3756 13.6555 36.717 14.3147L27.502 23.5267L18.288 14.3117C17.9617 13.9854 17.5744 13.7265 17.1481 13.5498C16.7218 13.3732 16.2648 13.2823 15.8034 13.2822C14.8714 13.2821 13.9776 13.6523 13.3185 14.3112C12.6595 14.9701 12.2891 15.8639 12.289 16.7958C12.289 17.7278 12.6591 18.6216 13.318 19.2807L22.532 28.4957L13.318 37.7047C12.659 38.3638 12.2887 39.2576 12.2887 40.1897C12.2887 41.1217 12.659 42.0156 13.318 42.6747C13.9771 43.3338 14.871 43.704 15.803 43.704C16.7351 43.704 17.629 43.3338 18.288 42.6747L27.499 33.4617L36.714 42.6747C37.3741 43.3289 38.2664 43.695 39.1957 43.6929C40.1251 43.6908 41.0157 43.3207 41.6728 42.6635C42.3299 42.0063 42.6999 41.1155 42.7018 40.1862C42.7037 39.2569 42.3374 38.3646 41.683 37.7047L32.468 28.4927Z" fill="#F94871"/>
</g>
</g>
<defs>
<clipPath id="clip0_217_2">
<rect width="53" height="53" fill="white" transform="translate(0 0.5)"/>
</clipPath>
</defs>
</svg>
