<svg width="53" height="54" viewBox="0 0 53 54" fill="none" xmlns="http://www.w3.org/2000/svg">
<g clip-path="url(#clip0_217_32)">
<path d="M43 0.5H10C4.47715 0.5 0 4.97715 0 10.5V43.5C0 49.0228 4.47715 53.5 10 53.5H43C48.5228 53.5 53 49.0228 53 43.5V10.5C53 4.97715 48.5228 0.5 43 0.5Z" fill="white"/>
<path d="M43 1H10C4.75329 1 0.5 5.25329 0.5 10.5V43.5C0.5 48.7467 4.75329 53 10 53H43C48.2467 53 52.5 48.7467 52.5 43.5V10.5C52.5 5.25329 48.2467 1 43 1Z" stroke="#707070"/>
<mask id="mask0_217_32" style="mask-type:luminance" maskUnits="userSpaceOnUse" x="8" y="6" width="43" height="42">
<path d="M8 6H51V48H8V6Z" fill="white"/>
</mask>
<g mask="url(#mask0_217_32)">
<path d="M41.788 33.2628H31.888V31.8748H41.788C43.9806 31.8772 46.1506 31.4318 48.165 30.5658L49.18 30.1308C49.2487 30.1012 49.3075 30.0527 49.3495 29.9908C49.3915 29.929 49.4149 29.8564 49.417 29.7817C49.4191 29.7069 49.3998 29.6331 49.3613 29.569C49.3229 29.5049 49.2669 29.4531 49.2 29.4198C46.9516 28.2988 44.4742 27.7139 41.962 27.7108H15.403C14.9826 27.7101 14.5629 27.7435 14.148 27.8108L11.248 28.2948V28.7368C14.1614 30.7825 17.6361 31.8772 21.196 31.8708H24.436V33.2588H21.196C17.2879 33.2678 13.4758 32.0479 10.299 29.7718L9.85498 29.4548V27.1218L13.92 26.4448C14.4101 26.3632 14.9061 26.3221 15.403 26.3218H41.963C44.6908 26.3249 47.3807 26.9598 49.822 28.1768C50.1255 28.3287 50.3793 28.5642 50.5535 28.8556C50.7277 29.1469 50.815 29.482 50.8051 29.8213C50.7952 30.1606 50.6886 30.49 50.4978 30.7707C50.3069 31.0514 50.0399 31.2718 49.728 31.4058L48.711 31.8408C46.5242 32.7812 44.1684 33.2648 41.788 33.2618" fill="#333333"/>
<path d="M23.262 39.5099H19.208L19.008 39.3099C18.8179 39.1237 18.6103 38.9563 18.388 38.8099L17.677 38.3409L26.024 29.9949L27.005 30.9759L19.861 38.1199H22.823L34.442 29.9199L35.242 31.0539L23.262 39.5099Z" fill="#333333"/>
<path d="M31 41H45V42H31V41Z" fill="#333333"/>
<path d="M20.266 47.8392H11.937C10.8917 47.8423 9.88359 47.4514 9.11365 46.7443C8.34372 46.0373 7.86849 45.0661 7.7827 44.0243C7.69692 42.9825 8.00687 41.9466 8.65078 41.1232C9.29469 40.2997 10.2253 39.7491 11.257 39.5812C11.8072 38.5936 12.6461 37.7977 13.6612 37.3001C14.6763 36.8025 15.8193 36.627 16.9369 36.797C18.0546 36.967 19.0936 37.4745 19.9149 38.2514C20.7361 39.0283 21.3004 40.0377 21.532 41.1442C22.2876 41.4368 22.9168 41.9848 23.3104 42.693C23.704 43.4011 23.8371 44.2248 23.6867 45.021C23.5363 45.8171 23.1117 46.5354 22.4869 47.0511C21.862 47.5669 21.0762 47.8475 20.266 47.8442" fill="#F9BA48"/>
<path d="M45.947 19.382H34.147C33.4753 19.3821 32.811 19.2431 32.1958 18.9735C31.5806 18.704 31.028 18.3098 30.5729 17.8159C30.1177 17.3221 29.7699 16.7392 29.5513 16.1041C29.3328 15.469 29.2482 14.7955 29.3031 14.1262C29.3579 13.4568 29.551 12.806 29.87 12.215C30.189 11.624 30.6271 11.1055 31.1566 10.6923C31.6861 10.2791 32.2955 9.98018 32.9463 9.81438C33.5972 9.64857 34.2753 9.6195 34.938 9.72899C35.4188 8.47325 36.2723 7.3947 37.3839 6.63818C38.4955 5.88167 39.812 5.48342 41.1566 5.49691C42.5012 5.51041 43.8094 5.93502 44.9056 6.7137C46.0018 7.49238 46.8335 8.58785 47.289 9.85299C48.4151 10.1757 49.3867 10.8946 50.0248 11.877C50.6629 12.8595 50.9244 14.0395 50.7613 15.1996C50.5981 16.3596 50.0212 17.4217 49.1369 18.1901C48.2526 18.9584 47.1205 19.3814 45.949 19.381" fill="#F9BA48"/>
<path d="M29 41H30V42H29V41Z" fill="#333333"/>
<path d="M14 10H25V12H14V10Z" fill="#333333"/>
<path d="M11 10H13V12H11V10Z" fill="#333333"/>
<path d="M11 14H22V15H11V14Z" fill="#333333"/>
<path d="M8 14H10V15H8V14Z" fill="#333333"/>
</g>
<path d="M6.09302 21.27L9.30302 28.493L10.572 27.929L8.23202 22.658H9.67402L15.723 28.035L16.645 26.998L10.201 21.27H6.09302Z" fill="#333333"/>
<path d="M33.1771 28.211H23.5321L16.5911 21.27H23.3451L33.1771 28.211ZM24.1051 26.823H28.8051L22.9051 22.659H19.9421L24.1051 26.823Z" fill="#333333"/>
</g>
<defs>
<clipPath id="clip0_217_32">
<rect width="53" height="53" fill="white" transform="translate(0 0.5)"/>
</clipPath>
</defs>
</svg>
