<svg xmlns="http://www.w3.org/2000/svg" xmlns:xlink="http://www.w3.org/1999/xlink" width="76.153" height="20.757" viewBox="0 0 76.153 20.757">
  <defs>
    <clipPath id="clip-path">
      <rect id="사각형_2084" data-name="사각형 2084" width="76.153" height="20.757" transform="translate(0 0)" fill="none"/>
    </clipPath>
  </defs>
  <g id="그룹_1317" data-name="그룹 1317" transform="translate(0 0)">
    <g id="그룹_1316" data-name="그룹 1316" clip-path="url(#clip-path)">
      <path id="패스_3833" data-name="패스 3833" d="M3,18.363a1,1,0,0,1-1-1v-3.3a1,1,0,0,1,.982-1l.307-.005a.987.987,0,0,1-.132-.11,1,1,0,0,1-.3-.726l.05-3.068a1,1,0,0,1,1-.984h.78L4.7,7.184H4.326a1,1,0,0,1-1-1.021l.05-2.339a1,1,0,0,1,1-.978l9.8.016a1,1,0,0,1,1,1.007l-.017,2.422a1,1,0,0,1-1,.993l-.173,0-.009.889h.9a1,1,0,0,1,1,.984l.05,3.068a1,1,0,0,1-1,1.016l-3.652-.116,5.07.207a1,1,0,0,1,.958.975l.067,2.77a1,1,0,0,1-.98,1.024L3,18.363M9.419,8.17l-.011-.96L9.047,7.2l.006.969Z" fill="#eeb94d"/>
      <path id="패스_3834" data-name="패스 3834" d="M4.376,3.846l9.8.017-.017,2.421L13,6.267l-.033,2.9h1.907l.05,3.069-4.677-.15-6.386.15.05-3.069H5.687L5.7,6.184H4.326ZM8.058,9.17H10.43L10.4,6.234l-2.04-.05H8.042L8.058,9.17M7.81,13.98l8.492.348.066,2.77L3,17.364v-3.3l4.81-.083M4.376,1.846a2,2,0,0,0-2,1.958L2.327,6.142A2,2,0,0,0,2.817,7.5a2,2,0,0,0-.9,1.642l-.05,3.068a2.035,2.035,0,0,0,.008.207A2,2,0,0,0,1,14.063v3.3a2,2,0,0,0,2,2h.039L16.408,19.1a2,2,0,0,0,1.96-2.047l-.067-2.77a2,2,0,0,0-1.385-1.856,2,2,0,0,0,.009-.219l-.05-3.068a2,2,0,0,0-1.057-1.732A2,2,0,0,0,16.162,6.3l.017-2.422a2,2,0,0,0-2-2.013l-9.8-.017Z"/>
      <path id="패스_3835" data-name="패스 3835" d="M23.944,19.758c-2.4,0-4.325-.651-5.426-1.834a3.243,3.243,0,0,1-.912-2.489,3.151,3.151,0,0,1,1.313-2.42l-1.625-.025a1,1,0,0,1-.983-.948l-.249-4.827a1,1,0,0,1,.274-.74.985.985,0,0,1,.406-.259,1.013,1.013,0,0,1-.151-.529V3.863a1,1,0,0,1,1-1l6.9.083a1.006,1.006,0,0,1,.7.3.978.978,0,0,1,.1.123l-.01-.323a1,1,0,0,1,1-1.031c.021,0,3.165.2,3.165.2a1,1,0,0,1,.934.93l.154,2.259,1.825.044a1,1,0,0,1,.973,1.078l-.183,2.322a1,1,0,0,1-.963.921l-1.54.051-.048,2.4a1,1,0,0,1-.948.978,3.1,3.1,0,0,1,1.147,2.4c-.066,2.494-2.821,4.152-6.855,4.152m.152-4.366a2.87,2.87,0,0,0,.694.077,2.76,2.76,0,0,0,.62-.063,3,3,0,0,0-.7-.077,2.529,2.529,0,0,0-.611.063m1.2-6.128a.99.99,0,0,1,.181.143l-.054-1.762-.016,1.174a.993.993,0,0,1-.111.445" fill="#eeb94d"/>
      <path id="패스_3836" data-name="패스 3836" d="M26.283,3.017l3.1.2L29.6,6.384l2.736.067-.182,2.321-2.488.083L29.6,12.206H26.565Zm-8.691.846,6.883.083-.066,4.86H20.992l.033,1.343,3.749-.033-.033,1.99L17.31,11.99l-.249-4.827h4.827V5.671l-4.3.016V3.863m7.182,6.253h0M24.21,12.67c3.334,0,5.589,1.145,5.589,2.936-.05,1.858-2.438,3.152-5.855,3.152-3.333,0-5.473-1.394-5.341-3.251.083-1.792,2.289-2.837,5.607-2.837m.58,3.8c1.095,0,1.924-.382,1.924-1.1,0-.7-.962-1.045-2.007-1.045-1.111,0-1.758.365-1.824,1.062-.083.73.863,1.078,1.907,1.078M26.283,1.017a2,2,0,0,0-1.39.562,1.973,1.973,0,0,0-.3.371l-.093,0-6.883-.083h-.024a2,2,0,0,0-2,2V5.687c0,.039,0,.078,0,.116a2,2,0,0,0-.531,1.464l.249,4.826a2,2,0,0,0,1.637,1.865,4.015,4.015,0,0,0-.344,1.456,4.248,4.248,0,0,0,1.18,3.192c1.292,1.388,3.479,2.152,6.158,2.152,4.616,0,7.773-2.049,7.855-5.1v-.054a4.02,4.02,0,0,0-.633-2.155,1.994,1.994,0,0,0,.434-1.2l.029-1.455.592-.02a2,2,0,0,0,1.928-1.842l.182-2.322a2,2,0,0,0-1.945-2.156l-.914-.022L31.38,3.08a2,2,0,0,0-1.867-1.86l-3.1-.2c-.042,0-.085,0-.128,0"/>
      <path id="패스_3837" data-name="패스 3837" d="M32.215,18.347a1,1,0,0,1-1-1V14.063a1,1,0,0,1,.982-1l1.31-.023a1,1,0,0,1-.181-.175L31.7,10.842a1,1,0,0,1,.192-1.436l3.659-2.658.043-3.016a1,1,0,0,1,1-.986l3.6.017a1,1,0,0,1,1,.995l.014,2.609,4.266,2.6a1,1,0,0,1,.26,1.481l-2.04,2.537a1.009,1.009,0,0,1-.319.262l2.183.086a1,1,0,0,1,.96.976l.066,2.77A1,1,0,0,1,45.6,18.1l-13.387.248M42.382,13.2l-4.2-2.414-3.441,2.228,2.048-.037Z" fill="#eeb94d"/>
      <path id="패스_3838" data-name="패스 3838" d="M36.594,3.747l3.6.016.017,3.168,4.744,2.887-2.04,2.537L38.153,9.618l-4.047,2.621L32.48,10.216l4.064-2.953Zm.216,10.234,8.708.348.066,2.77-13.369.248V14.064l4.6-.083M36.594,1.747a2,2,0,0,0-2,1.971l-.035,2.515L31.305,8.6a2,2,0,0,0-.384,2.87l.583.726a2,2,0,0,0-1.289,1.87v3.283a2,2,0,0,0,2,2h.037L45.621,19.1a2,2,0,0,0,1.962-2.048l-.066-2.77a2,2,0,0,0-1.92-1.95l-.094,0,1.009-1.256a2,2,0,0,0-.519-2.962L42.2,5.8l-.011-2.051a2,2,0,0,0-1.99-1.99l-3.6-.016Zm1.513,10.284.108-.07.139.08Z"/>
      <path id="패스_3839" data-name="패스 3839" d="M56.892,19.525a1,1,0,0,1-1-.945l-.217-3.952-2.5.135-.026,3.62a1,1,0,0,1-1,.992h-3a1,1,0,0,1-1-.978l-.078-3.522-2.062-.011a1,1,0,0,1-.994-.972l-.067-2.422a1,1,0,0,1,1-1.028l1.029,0c-.079-.071-.156-.146-.229-.224a4.264,4.264,0,0,1-1.117-3.26c.058-2.649,2.154-4.524,5.1-4.524,2.771,0,4.763,1.639,5.019,4.048l.035-3.49a1,1,0,0,1,1-.99c.02,0,3.046.184,3.046.184a1,1,0,0,1,.939,1l.017,7.265-.067,8.088a1,1,0,0,1-1,.992ZM55.73,7.53a4.457,4.457,0,0,1-1.607,2.9l1.578,0ZM50.622,6.455a.375.375,0,0,0-.4.282c0,.1.213.173.363.173a.489.489,0,0,0,.443-.245c0-.095-.183-.21-.41-.21" fill="#eeb94d"/>
      <path id="패스_3840" data-name="패스 3840" d="M56.775,3l2.985.183.017,7.264-.066,8.078h-2.82l-.232-4.23Zm-6.054.432c2.289,0,4.047,1.31,4.047,3.582-.05,2.305-2.024,3.649-4.346,3.649-2.206,0-3.931-1.344-3.8-3.649.05-2.272,1.808-3.582,4.1-3.582M50.588,7.91a1.392,1.392,0,0,0,1.443-1.244,1.312,1.312,0,0,0-1.41-1.211,1.362,1.362,0,0,0-1.393,1.211,1.292,1.292,0,0,0,1.36,1.244m5.241,3.516.067,2.189-3.716.2-.033,4.561h-3l-.1-4.494-3.036-.017-.066-2.422,9.885-.016M56.775,1a2,2,0,0,0-1.984,1.747,6.419,6.419,0,0,0-4.07-1.315c-3.505,0-6.006,2.261-6.1,5.5a5.557,5.557,0,0,0,.508,2.679A2,2,0,0,0,43.945,11.5l.066,2.422A2,2,0,0,0,46,15.864l1.09.006.057,2.55a2,2,0,0,0,2,1.955h3a2,2,0,0,0,2-1.985l.02-2.679.565-.031.162,2.955a2,2,0,0,0,2,1.89h2.82a2,2,0,0,0,2-1.984l.066-8.077L61.76,3.178a2,2,0,0,0-1.877-1.992L56.9,1c-.041,0-.081,0-.122,0"/>
      <path id="패스_3841" data-name="패스 3841" d="M60.784,18.347a1,1,0,0,1-1-1V14.063a1,1,0,0,1,.982-1l1.31-.023a1,1,0,0,1-.181-.175l-1.626-2.023a1,1,0,0,1,.192-1.436L64.12,6.748l.043-3.016a1,1,0,0,1,1-.986l3.6.017a1,1,0,0,1,1,.995l.014,2.609,4.266,2.6a1,1,0,0,1,.26,1.481l-2.04,2.537a1.009,1.009,0,0,1-.319.262l2.183.086a1,1,0,0,1,.96.976l.066,2.77a1,1,0,0,1-.981,1.024l-13.387.248M70.951,13.2l-4.2-2.414-3.441,2.228,2.048-.037Z" fill="#eeb94d"/>
      <path id="패스_3842" data-name="패스 3842" d="M65.163,3.747l3.6.016.017,3.168,4.744,2.887-2.04,2.537L66.722,9.618l-4.047,2.621-1.626-2.023,4.064-2.953Zm.216,10.234,8.708.348.066,2.77-13.369.248V14.064l4.595-.083M65.163,1.747a2,2,0,0,0-2,1.971l-.035,2.515L59.874,8.6a2,2,0,0,0-.384,2.87l.583.726a2,2,0,0,0-1.289,1.87v3.283a2,2,0,0,0,2,2h.037L74.19,19.1a2,2,0,0,0,1.962-2.048l-.066-2.77a2,2,0,0,0-1.92-1.95l-.094,0,1.009-1.256a2,2,0,0,0-.519-2.962L70.773,5.8l-.011-2.051a2,2,0,0,0-1.99-1.99l-3.6-.016Zm1.513,10.284.108-.07.139.08Z"/>
      <path id="패스_3843" data-name="패스 3843" d="M2,17.363a1,1,0,0,1-1-1v-3.3a1,1,0,0,1,.982-1l.307-.005a.987.987,0,0,1-.132-.11,1,1,0,0,1-.3-.726l.05-3.068a1,1,0,0,1,1-.984h.78L3.7,6.184H3.326a1,1,0,0,1-1-1.021l.05-2.339a1,1,0,0,1,1-.978l9.8.016a1,1,0,0,1,1,1.007l-.017,2.422a1,1,0,0,1-1,.993l-.173,0-.009.889h.9a1,1,0,0,1,1,.984l.05,3.068a1,1,0,0,1-1,1.016l-3.652-.116,5.07.207a1,1,0,0,1,.958.975l.067,2.77a1,1,0,0,1-.98,1.024L2,17.363M8.419,7.17l-.011-.96L8.047,6.2l.006.969Z" fill="#eeb94d"/>
      <path id="패스_3844" data-name="패스 3844" d="M3.376,2.846l9.8.017-.017,2.421L12,5.267l-.033,2.9h1.907l.05,3.069-4.677-.15-6.386.15.05-3.069H4.687L4.7,5.184H3.326ZM7.058,8.17H9.43L9.4,5.234l-2.04-.05H7.042L7.058,8.17M6.81,12.98l8.492.348.066,2.77L2,16.364v-3.3l4.81-.083M3.376.846a2,2,0,0,0-2,1.958L1.327,5.142A2,2,0,0,0,1.817,6.5,2,2,0,0,0,.912,8.138l-.05,3.068a2.035,2.035,0,0,0,.008.207A2,2,0,0,0,0,13.063v3.3a2,2,0,0,0,2,2h.039L15.408,18.1a2,2,0,0,0,1.96-2.047l-.067-2.77a2,2,0,0,0-1.385-1.856,2.005,2.005,0,0,0,.009-.219l-.05-3.068a2,2,0,0,0-1.057-1.732A2,2,0,0,0,15.162,5.3l.017-2.422a2,2,0,0,0-2-2.013L3.379.846Z" fill="#e69c2e"/>
      <path id="패스_3845" data-name="패스 3845" d="M22.944,18.758c-2.4,0-4.325-.651-5.426-1.834a3.243,3.243,0,0,1-.912-2.489,3.151,3.151,0,0,1,1.313-2.42l-1.625-.025a1,1,0,0,1-.983-.948l-.249-4.827a1,1,0,0,1,.274-.74.985.985,0,0,1,.406-.259,1.013,1.013,0,0,1-.151-.529V2.863a1,1,0,0,1,1-1l6.9.083a1.006,1.006,0,0,1,.7.3.978.978,0,0,1,.1.123l-.01-.323a1,1,0,0,1,1-1.031c.021,0,3.165.2,3.165.2a1,1,0,0,1,.934.93l.154,2.259,1.825.044a1,1,0,0,1,.973,1.078l-.183,2.322a1,1,0,0,1-.963.921l-1.54.051-.048,2.4a1,1,0,0,1-.948.978,3.1,3.1,0,0,1,1.147,2.4c-.066,2.494-2.821,4.152-6.855,4.152m.152-4.366a2.87,2.87,0,0,0,.694.077,2.76,2.76,0,0,0,.62-.063,3,3,0,0,0-.7-.077,2.529,2.529,0,0,0-.611.063m1.2-6.128a.99.99,0,0,1,.181.143l-.054-1.762-.016,1.174a.993.993,0,0,1-.111.445" fill="#eeb94d"/>
      <path id="패스_3846" data-name="패스 3846" d="M25.283,2.017l3.1.2L28.6,5.384l2.736.067-.182,2.321-2.488.083L28.6,11.206H25.565Zm-8.691.846,6.883.083-.066,4.86H19.992l.033,1.343,3.749-.033-.033,1.99L16.31,10.99l-.249-4.827h4.827V4.671l-4.3.016V2.863m7.182,6.253h0M23.21,11.67c3.334,0,5.589,1.145,5.589,2.936-.05,1.858-2.438,3.152-5.855,3.152-3.333,0-5.473-1.394-5.341-3.251.083-1.792,2.289-2.837,5.607-2.837m.58,3.8c1.095,0,1.924-.382,1.924-1.1,0-.7-.962-1.045-2.007-1.045-1.111,0-1.758.365-1.824,1.062-.083.73.863,1.078,1.907,1.078M25.283.017a2,2,0,0,0-1.39.562,1.973,1.973,0,0,0-.3.371l-.093,0L16.616.863h-.024a2,2,0,0,0-2,2V4.687c0,.039,0,.078,0,.116a2,2,0,0,0-.531,1.464l.249,4.826a2,2,0,0,0,1.637,1.865,4.015,4.015,0,0,0-.344,1.456,4.248,4.248,0,0,0,1.18,3.192c1.292,1.388,3.479,2.152,6.158,2.152,4.616,0,7.773-2.049,7.855-5.1v-.054a4.02,4.02,0,0,0-.633-2.155,1.994,1.994,0,0,0,.434-1.2l.029-1.455.592-.02a2,2,0,0,0,1.928-1.842l.182-2.322a2,2,0,0,0-1.945-2.156l-.914-.022L30.38,2.08A2,2,0,0,0,28.513.22l-3.1-.2c-.042,0-.085,0-.128,0" fill="#e69c2e"/>
      <path id="패스_3847" data-name="패스 3847" d="M31.215,17.347a1,1,0,0,1-1-1V13.063a1,1,0,0,1,.982-1l1.31-.023a1,1,0,0,1-.181-.175L30.7,9.842a1,1,0,0,1,.192-1.436l3.659-2.658.043-3.016a1,1,0,0,1,1-.986l3.6.017a1,1,0,0,1,1,.995l.014,2.609,4.266,2.6a1,1,0,0,1,.26,1.481l-2.04,2.537a1.009,1.009,0,0,1-.319.262l2.183.086a1,1,0,0,1,.96.976l.066,2.77A1,1,0,0,1,44.6,17.1l-13.387.248M41.382,12.2l-4.2-2.414-3.441,2.228,2.048-.037Z" fill="#eeb94d"/>
      <path id="패스_3848" data-name="패스 3848" d="M35.594,2.747l3.6.016.017,3.168,4.744,2.887-2.04,2.537L37.153,8.618l-4.047,2.621L31.48,9.216l4.064-2.953Zm.216,10.234,8.708.348.066,2.77-13.369.248V13.064l4.6-.083M35.594.747a2,2,0,0,0-2,1.971l-.035,2.515L30.305,7.6a2,2,0,0,0-.384,2.87l.583.726a2,2,0,0,0-1.289,1.87v3.283a2,2,0,0,0,2,2h.037L44.621,18.1a2,2,0,0,0,1.962-2.048l-.066-2.77a2,2,0,0,0-1.92-1.95l-.094,0,1.009-1.256a2,2,0,0,0-.519-2.962L41.2,4.8l-.011-2.051A2,2,0,0,0,39.2.763L35.6.747Zm1.513,10.284.108-.07.139.08Z" fill="#e69c2e"/>
      <path id="패스_3849" data-name="패스 3849" d="M55.892,18.525a1,1,0,0,1-1-.945l-.217-3.952-2.5.135-.026,3.62a1,1,0,0,1-1,.992h-3a1,1,0,0,1-1-.978l-.078-3.522-2.062-.011a1,1,0,0,1-.994-.972l-.067-2.422a1,1,0,0,1,1-1.028l1.029,0c-.079-.071-.156-.146-.229-.224a4.264,4.264,0,0,1-1.117-3.26c.058-2.649,2.154-4.524,5.1-4.524,2.771,0,4.763,1.639,5.019,4.048l.035-3.49a1,1,0,0,1,1-.99c.02,0,3.046.184,3.046.184a1,1,0,0,1,.939,1l.017,7.265-.067,8.088a1,1,0,0,1-1,.992ZM54.73,6.53a4.457,4.457,0,0,1-1.607,2.9l1.578,0ZM49.622,5.455a.375.375,0,0,0-.4.282c0,.1.213.173.363.173a.489.489,0,0,0,.443-.245c0-.095-.183-.21-.41-.21" fill="#eeb94d"/>
      <path id="패스_3850" data-name="패스 3850" d="M55.775,2l2.985.183.017,7.264-.066,8.078h-2.82l-.232-4.23Zm-6.054.432c2.289,0,4.047,1.31,4.047,3.582-.05,2.305-2.024,3.649-4.346,3.649-2.206,0-3.931-1.344-3.8-3.649.05-2.272,1.808-3.582,4.1-3.582M49.588,6.91a1.392,1.392,0,0,0,1.443-1.244,1.312,1.312,0,0,0-1.41-1.211,1.362,1.362,0,0,0-1.393,1.211,1.292,1.292,0,0,0,1.36,1.244m5.241,3.516.067,2.189-3.716.2-.033,4.561h-3l-.1-4.494-3.036-.017-.066-2.422,9.885-.016M55.775,0a2,2,0,0,0-1.984,1.747A6.419,6.419,0,0,0,49.721.432c-3.505,0-6.006,2.261-6.1,5.5a5.557,5.557,0,0,0,.508,2.679A2,2,0,0,0,42.945,10.5l.066,2.422A2,2,0,0,0,45,14.864l1.09.006.057,2.55a2,2,0,0,0,2,1.955h3a2,2,0,0,0,2-1.985l.02-2.679.565-.031.162,2.955a2,2,0,0,0,2,1.89h2.82a2,2,0,0,0,2-1.984l.066-8.077L60.76,2.178A2,2,0,0,0,58.883.186L55.9,0c-.041,0-.081,0-.122,0" fill="#e69c2e"/>
      <path id="패스_3851" data-name="패스 3851" d="M59.784,17.347a1,1,0,0,1-1-1V13.063a1,1,0,0,1,.982-1l1.31-.023a1,1,0,0,1-.181-.175L59.269,9.842a1,1,0,0,1,.192-1.436L63.12,5.748l.043-3.016a1,1,0,0,1,1-.986l3.6.017a1,1,0,0,1,1,.995l.014,2.609,4.266,2.6a1,1,0,0,1,.26,1.481l-2.04,2.537a1.009,1.009,0,0,1-.319.262l2.183.086a1,1,0,0,1,.96.976l.066,2.77a1,1,0,0,1-.981,1.024l-13.387.248M69.951,12.2l-4.2-2.414-3.441,2.228,2.048-.037Z" fill="#eeb94d"/>
      <path id="패스_3852" data-name="패스 3852" d="M64.163,2.747l3.6.016.017,3.168,4.744,2.887-2.04,2.537L65.722,8.618l-4.047,2.621L60.049,9.216l4.064-2.953Zm.216,10.234,8.708.348.066,2.77-13.369.248V13.064l4.595-.083M64.163.747a2,2,0,0,0-2,1.971l-.035,2.515L58.874,7.6a2,2,0,0,0-.384,2.87l.583.726a2,2,0,0,0-1.289,1.87v3.283a2,2,0,0,0,2,2h.037L73.19,18.1a2,2,0,0,0,1.962-2.048l-.066-2.77a2,2,0,0,0-1.92-1.95l-.094,0,1.009-1.256a2,2,0,0,0-.519-2.962L69.773,4.8l-.011-2.051a2,2,0,0,0-1.99-1.99l-3.6-.016Zm1.513,10.284.108-.07.139.08Z" fill="#e69c2e"/>
      <path id="패스_3853" data-name="패스 3853" d="M2,16.738a.374.374,0,0,1-.375-.375v-3.3a.374.374,0,0,1,.368-.375L6.8,12.6l8.514.349a.375.375,0,0,1,.36.365l.066,2.77a.374.374,0,0,1-.367.384L2,16.738m.862-5.125A.373.373,0,0,1,2.6,11.5a.377.377,0,0,1-.111-.271l.05-3.069A.375.375,0,0,1,2.912,7.8h1.4l.012-2.236h-1a.376.376,0,0,1-.375-.383L3,2.838a.375.375,0,0,1,.375-.367l9.8.016a.372.372,0,0,1,.266.111.38.38,0,0,1,.109.267l-.017,2.421a.375.375,0,0,1-.112.266.379.379,0,0,1-.263.107l-.79-.011L12.347,7.8h1.528a.375.375,0,0,1,.375.369l.05,3.069a.376.376,0,0,1-.375.38l-4.689-.149-6.374.149M9.051,7.8,9.026,5.6,7.419,5.561,7.431,7.8Z" fill="#eeb94d"/>
      <path id="패스_3854" data-name="패스 3854" d="M3.376,2.846l9.8.016-.016,2.422L12,5.267l-.033,2.9h1.907l.05,3.068-4.677-.149-6.386.149.05-3.068H4.687L4.7,5.184H3.327ZM7.059,8.17H9.431L9.4,5.234l-2.04-.05H7.042L7.059,8.17M6.81,12.98l8.492.348.067,2.77L2,16.363v-3.3l4.81-.083M3.376,2.1a.749.749,0,0,0-.749.734l-.05,2.338a.75.75,0,0,0,.75.766h.622L3.941,7.42H2.912a.75.75,0,0,0-.75.738l-.05,3.068a.75.75,0,0,0,.75.762H2.88l6.386-.149,4.635.149h.024a.75.75,0,0,0,.75-.762l-.05-3.068a.749.749,0,0,0-.75-.738H12.727l.016-1.392.409.006h.011a.751.751,0,0,0,.75-.745l.016-2.422a.749.749,0,0,0-.749-.755L3.378,2.1ZM7.8,7.42,7.8,5.945l.86.021L8.672,7.42ZM6.81,12.23H6.8l-4.81.083a.75.75,0,0,0-.737.75v3.3a.749.749,0,0,0,.75.75h.015l13.368-.265a.75.75,0,0,0,.735-.768l-.066-2.77a.75.75,0,0,0-.719-.731l-8.492-.348H6.81" fill="#fff"/>
      <path id="패스_3855" data-name="패스 3855" d="M22.944,18.133A6.828,6.828,0,0,1,17.975,16.5a2.633,2.633,0,0,1-.746-2.018c.072-1.564,1.545-2.659,3.964-3.038L16.3,11.365a.375.375,0,0,1-.369-.355l-.249-4.827a.377.377,0,0,1,.1-.278.37.37,0,0,1,.272-.117h4.451V5.047l-3.921.015a.376.376,0,0,1-.375-.375V2.863a.377.377,0,0,1,.375-.375l6.888.083a.378.378,0,0,1,.264.113.382.382,0,0,1,.107.267L23.783,7.81a.376.376,0,0,1-.375.371H20.376l.015.59,3.382-.03a.374.374,0,0,1,.375.381l-.033,1.991a.38.38,0,0,1-.066.207,11.782,11.782,0,0,1,1.237.137.372.372,0,0,1-.1-.239l-.281-9.189a.374.374,0,0,1,.375-.387l3.125.2a.374.374,0,0,1,.35.349l.193,2.826,2.4.059a.376.376,0,0,1,.365.4L31.528,7.8a.375.375,0,0,1-.361.345l-2.133.071-.059,2.995a.376.376,0,0,1-.375.368H25.9c2.05.487,3.276,1.57,3.276,3.025-.057,2.114-2.56,3.527-6.23,3.527m.763-4.429c-.631,0-1.4.125-1.451.722a.317.317,0,0,0,.083.269,2.142,2.142,0,0,0,1.451.4c.771,0,1.549-.223,1.549-.72,0-.376-.717-.67-1.632-.67" fill="#eeb94d"/>
      <path id="패스_3856" data-name="패스 3856" d="M25.283,2.016l3.1.2L28.6,5.384l2.737.066-.183,2.322-2.488.083L28.6,11.2H25.564Zm-8.692.847,6.884.083L23.408,7.8H19.992l.033,1.344,3.748-.034-.033,1.991-7.43-.117-.249-4.826h4.826V4.67l-4.3.017V2.863m7.182,6.252h0m-.569,2.555c3.334,0,5.59,1.144,5.59,2.936-.05,1.857-2.438,3.151-5.855,3.151-3.334,0-5.473-1.393-5.341-3.251.083-1.791,2.289-2.836,5.606-2.836m.581,3.8c1.095,0,1.924-.381,1.924-1.1,0-.7-.962-1.045-2.007-1.045-1.111,0-1.758.365-1.825,1.062-.083.73.863,1.078,1.908,1.078m1.493-14.2a.75.75,0,0,0-.75.773l.275,8.971c-.1-.012-.209-.023-.316-.033l.03-1.788a.6.6,0,0,0,0-.074.747.747,0,0,0-.63-.74.75.75,0,0,0,.262-.56l.067-4.859a.749.749,0,0,0-.741-.76L16.6,2.113h-.009a.749.749,0,0,0-.75.75V4.687a.752.752,0,0,0,.562.726h-.342a.75.75,0,0,0-.75.788l.25,4.827a.749.749,0,0,0,.737.711l2.474.039a3.157,3.157,0,0,0-1.918,2.693,2.993,2.993,0,0,0,.846,2.282,7.189,7.189,0,0,0,5.244,1.754c3.888,0,6.542-1.56,6.6-3.881a3.076,3.076,0,0,0-1.675-2.671H28.6a.75.75,0,0,0,.75-.735L29.4,8.581l1.777-.06a.749.749,0,0,0,.723-.69l.183-2.322a.75.75,0,0,0-.73-.809L29.3,4.65l-.169-2.485a.751.751,0,0,0-.7-.7l-3.1-.2-.048,0M23.79,14.718a1.785,1.785,0,0,1-1.174-.278c.047-.334.847-.362,1.091-.362a1.834,1.834,0,0,1,1.263.318c-.006.1-.409.322-1.18.322" fill="#fff"/>
      <path id="패스_3857" data-name="패스 3857" d="M31.216,16.722a.374.374,0,0,1-.375-.375V13.063a.375.375,0,0,1,.368-.375L35.8,12.6l8.73.349a.376.376,0,0,1,.36.366l.066,2.77a.376.376,0,0,1-.368.384l-13.375.248m10.7-4.992a.372.372,0,0,1-.187-.05L37.165,9.058l-3.855,2.5a.375.375,0,0,1-.5-.08L31.188,9.45a.375.375,0,0,1,.073-.538L35.173,6.07l.047-3.329a.375.375,0,0,1,.375-.369l3.6.016a.376.376,0,0,1,.373.373l.015,2.959L44.149,8.5a.376.376,0,0,1,.1.555L42.206,11.59a.375.375,0,0,1-.292.14" fill="#eeb94d"/>
      <path id="패스_3858" data-name="패스 3858" d="M35.6,2.746l3.6.017.016,3.168,4.744,2.886-2.04,2.538-4.76-2.737-4.048,2.62L31.481,9.215l4.064-2.953ZM35.81,12.98l8.708.348.066,2.77-13.368.249V13.063l4.594-.083M35.6,2a.75.75,0,0,0-.75.74L34.8,5.876,31.04,8.608A.752.752,0,0,0,30.9,9.685l1.625,2.023a.752.752,0,0,0,.993.16L37.177,9.5l4.363,2.509a.749.749,0,0,0,.959-.181l2.04-2.537a.751.751,0,0,0-.195-1.111L39.958,5.508l-.014-2.749a.749.749,0,0,0-.747-.746L35.6,2ZM35.81,12.23H35.8l-4.6.083a.75.75,0,0,0-.736.75v3.284a.749.749,0,0,0,.75.75h.014L44.6,16.848a.75.75,0,0,0,.736-.768l-.066-2.77a.752.752,0,0,0-.72-.731L35.84,12.23h-.03" fill="#fff"/>
      <path id="패스_3859" data-name="패스 3859" d="M55.892,17.9a.375.375,0,0,1-.375-.355l-.232-4.229L55.4,2a.372.372,0,0,1,.119-.27.376.376,0,0,1,.256-.1l3.008.183a.375.375,0,0,1,.352.374l.017,7.264-.067,8.082a.375.375,0,0,1-.375.372Zm-7.746-.15a.375.375,0,0,1-.375-.366l-.091-4.13-2.671-.015a.375.375,0,0,1-.373-.365l-.066-2.421a.376.376,0,0,1,.374-.386l9.886-.016a.375.375,0,0,1,.375.363l.066,2.19a.375.375,0,0,1-.355.386l-3.362.18-.031,4.208a.375.375,0,0,1-.375.372Zm1.277-7.712A4.357,4.357,0,0,1,46.2,8.788a3.655,3.655,0,0,1-.947-2.8c.052-2.35,1.849-3.936,4.472-3.936,2.645,0,4.421,1.59,4.421,3.957-.051,2.373-1.992,4.024-4.72,4.024m.2-5.208a.986.986,0,0,0-1.019.862.926.926,0,0,0,.986.843,1.023,1.023,0,0,0,1.068-.87.947.947,0,0,0-1.035-.835" fill="#eeb94d"/>
      <path id="패스_3860" data-name="패스 3860" d="M55.775,2l2.985.183.017,7.265-.066,8.077h-2.82L55.659,13.3Zm-6.054.432c2.289,0,4.047,1.31,4.047,3.583-.05,2.3-2.024,3.648-4.346,3.648-2.206,0-3.931-1.343-3.8-3.648.05-2.273,1.808-3.583,4.1-3.583M49.588,6.91a1.391,1.391,0,0,0,1.443-1.244,1.312,1.312,0,0,0-1.41-1.211,1.362,1.362,0,0,0-1.393,1.211,1.292,1.292,0,0,0,1.36,1.244m5.241,3.516.067,2.19-3.716.2-.033,4.561h-3l-.1-4.495-3.036-.016-.066-2.422,9.885-.017m.946-9.176a.752.752,0,0,0-.75.743l-.079,7.692a.749.749,0,0,0-.117-.009h0l-2.468,0a4.216,4.216,0,0,0,2.158-3.649c0-2.567-1.973-4.349-4.8-4.349-2.842,0-4.79,1.735-4.847,4.316A3.922,3.922,0,0,0,46.713,9.69l-1.77,0a.75.75,0,0,0-.749.77l.067,2.422a.75.75,0,0,0,.745.73l2.306.012.083,3.765a.75.75,0,0,0,.75.734h3a.751.751,0,0,0,.75-.745l.028-3.855,2.988-.16.229,4.2a.75.75,0,0,0,.749.709h2.82a.751.751,0,0,0,.75-.744l.066-8.077L59.51,2.181a.75.75,0,0,0-.7-.747l-2.985-.182-.046,0m-6.8,4.443a.627.627,0,0,1,.642-.488c.318,0,.66.176.66.461,0,.245-.35.494-.693.494a.56.56,0,0,1-.609-.467" fill="#fff"/>
      <path id="패스_3861" data-name="패스 3861" d="M59.784,16.722a.374.374,0,0,1-.375-.375V13.063a.375.375,0,0,1,.368-.375l4.594-.083,8.73.349a.376.376,0,0,1,.36.366l.066,2.77a.376.376,0,0,1-.368.384l-13.375.248m10.7-4.992a.372.372,0,0,1-.187-.05L65.733,9.058l-3.855,2.5a.375.375,0,0,1-.5-.08L59.756,9.45a.375.375,0,0,1,.073-.538L63.741,6.07l.047-3.329a.375.375,0,0,1,.375-.369l3.6.016a.376.376,0,0,1,.373.373l.015,2.959L72.717,8.5a.376.376,0,0,1,.1.555L70.774,11.59a.375.375,0,0,1-.292.14" fill="#eeb94d"/>
      <path id="패스_3862" data-name="패스 3862" d="M64.163,2.746l3.6.017.016,3.168,4.744,2.886-2.04,2.538-4.76-2.737-4.048,2.62L60.049,9.215l4.064-2.953Zm.215,10.234,8.708.348.066,2.77-13.368.249V13.063l4.594-.083M64.163,2a.75.75,0,0,0-.75.74l-.045,3.14-3.76,2.732a.752.752,0,0,0-.144,1.077l1.626,2.023a.751.751,0,0,0,.992.16L65.745,9.5l4.363,2.509a.749.749,0,0,0,.959-.181l2.04-2.537a.751.751,0,0,0-.195-1.111L68.526,5.508l-.014-2.749a.749.749,0,0,0-.747-.746L64.166,2Zm.215,10.234h-.013l-4.595.083a.75.75,0,0,0-.736.75v3.284a.749.749,0,0,0,.75.75H59.8l13.368-.248a.75.75,0,0,0,.736-.768l-.066-2.77a.751.751,0,0,0-.72-.731l-8.708-.349h-.03" fill="#fff"/>
    </g>
  </g>
</svg>
