<svg id="구성_요소_31_2" data-name="구성 요소 31 – 2" xmlns="http://www.w3.org/2000/svg" xmlns:xlink="http://www.w3.org/1999/xlink" width="33.443" height="43.822" viewBox="0 0 33.443 43.822">
  <defs>
    <clipPath id="clip-path">
      <rect id="사각형_1139" data-name="사각형 1139" width="33.443" height="43.823" transform="translate(0 -3)" fill="none"/>
    </clipPath>
  </defs>
  <g id="그룹_282" data-name="그룹 282" transform="translate(0 3)" clip-path="url(#clip-path)">
    <path id="패스_544" data-name="패스 544" d="M19.279,64.781s7.1,2.246,17.332-.154l1.181-16.992-4.482-6.452-11.8-.4L17.736,47.24v8.4Z" transform="translate(-10.834 -24.913)" fill="#eeb94d" fill-rule="evenodd"/>
    <path id="패스_545" data-name="패스 545" d="M17.027.5a19.645,19.645,0,0,0-3.666.4,9.962,9.962,0,0,0-2.86,1.21,4.131,4.131,0,0,0-2.938-.6,2.744,2.744,0,0,0-1.517,3.8A2.642,2.642,0,0,0,7.505,6.49C6.156,13.908-1.613,31.657,1.053,36.6a8.272,8.272,0,0,0,10.479,3.72c3-1.24,2.92-5.8,1.16-6.92-1.088-.693-2.718-.932-4.034-1.492l-.633-.144a85.859,85.859,0,0,0,2.436-8.337,1.809,1.809,0,0,1-1-.8,1.882,1.882,0,0,1,1.04-2.606,2.834,2.834,0,0,1,2.014.408,6.845,6.845,0,0,1,1.961-.83,13.467,13.467,0,0,1,2.513-.276A13.473,13.473,0,0,1,19.5,19.6a6.845,6.845,0,0,1,1.961.83,2.833,2.833,0,0,1,2.014-.408,1.882,1.882,0,0,1,1.04,2.606,1.809,1.809,0,0,1-1,.8,86.278,86.278,0,0,0,2.443,8.361l-.562.12c-1.467.624-2.78.694-4.034,1.492-1.76,1.12-1.84,5.68,1.16,6.92A8.272,8.272,0,0,0,33,36.6c2.665-4.943-5.1-22.692-6.453-30.11a2.642,2.642,0,0,0,1.459-1.171,2.744,2.744,0,0,0-1.517-3.8,4.131,4.131,0,0,0-2.938.6A9.962,9.962,0,0,0,20.693.9,19.645,19.645,0,0,0,17.027.5" transform="translate(-0.305 -0.305)" fill="#fff" fill-rule="evenodd"/>
    <path id="패스_546" data-name="패스 546" d="M17.027.5a19.645,19.645,0,0,0-3.666.4,9.962,9.962,0,0,0-2.86,1.21,4.131,4.131,0,0,0-2.938-.6,2.744,2.744,0,0,0-1.517,3.8A2.642,2.642,0,0,0,7.505,6.49C6.156,13.908-1.613,31.657,1.053,36.6a8.272,8.272,0,0,0,10.479,3.72c3-1.24,2.92-5.8,1.16-6.92-1.088-.693-2.718-.932-4.034-1.492l-.633-.144a85.859,85.859,0,0,0,2.436-8.337,1.809,1.809,0,0,1-1-.8,1.882,1.882,0,0,1,1.04-2.606,2.834,2.834,0,0,1,2.014.408,6.845,6.845,0,0,1,1.961-.83,13.467,13.467,0,0,1,2.513-.276A13.473,13.473,0,0,1,19.5,19.6a6.845,6.845,0,0,1,1.961.83,2.833,2.833,0,0,1,2.014-.408,1.882,1.882,0,0,1,1.04,2.606,1.809,1.809,0,0,1-1,.8,86.278,86.278,0,0,0,2.443,8.361l-.562.12c-1.467.624-2.78.694-4.034,1.492-1.76,1.12-1.84,5.68,1.16,6.92A8.272,8.272,0,0,0,33,36.6c2.665-4.943-5.1-22.692-6.453-30.11a2.642,2.642,0,0,0,1.459-1.171,2.744,2.744,0,0,0-1.517-3.8,4.131,4.131,0,0,0-2.938.6A9.962,9.962,0,0,0,20.693.9,19.645,19.645,0,0,0,17.027.5Z" transform="translate(-0.305 -0.305)" fill="none" stroke="#444" stroke-miterlimit="10" stroke-width="1"/>
    <path id="패스_547" data-name="패스 547" d="M51.538,59.713c.395,0,.714.481.714,1.075s-.32,1.075-.714,1.075-.714-.481-.714-1.075.32-1.075.714-1.075" transform="translate(-31.047 -36.477)" fill="#fff" fill-rule="evenodd"/>
    <path id="패스_548" data-name="패스 548" d="M31.961,59.713c.395,0,.714.481.714,1.075s-.32,1.075-.714,1.075-.714-.481-.714-1.075.32-1.075.714-1.075" transform="translate(-19.088 -36.477)" fill="#fff" fill-rule="evenodd"/>
    <path id="패스_549" data-name="패스 549" d="M40.473,59.779a2.32,2.32,0,0,1,1.206.277c.454.313.4.79.006.779s-.637-.035-.761.313a.453.453,0,0,1-.9,0c-.124-.348-.366-.325-.761-.313s-.448-.466.006-.779a2.32,2.32,0,0,1,1.206-.277" transform="translate(-23.79 -36.517)" fill="#fff" fill-rule="evenodd"/>
    <path id="패스_550" data-name="패스 550" d="M39.473,15.85a3.382,3.382,0,0,1,1.76.4c.663.456.585,1.153.009,1.135s-.929-.051-1.11.456a.972.972,0,0,1-.658.611.972.972,0,0,1-.658-.611c-.181-.508-.533-.474-1.11-.456s-.654-.679.009-1.135a3.382,3.382,0,0,1,1.76-.4" transform="translate(-22.751 -9.681)" fill="#eeb94d" fill-rule="evenodd"/>
    <path id="패스_551" data-name="패스 551" d="M54.915,14.3c-.414,0-.75.53-.75,1.185s.336,1.185.75,1.185.75-.531.75-1.185-.336-1.185-.75-1.185" transform="translate(-33.088 -8.737)" fill="#eeb94d" fill-rule="evenodd"/>
    <path id="패스_552" data-name="패스 552" d="M28.675,14.3c.414,0,.75.53.75,1.185s-.336,1.185-.75,1.185-.75-.531-.75-1.185.336-1.185.75-1.185" transform="translate(-17.059 -8.737)" fill="#eeb94d" fill-rule="evenodd"/>
  </g>
</svg>
