<svg id="구성_요소_32_2" data-name="구성 요소 32 – 2" xmlns="http://www.w3.org/2000/svg" xmlns:xlink="http://www.w3.org/1999/xlink" width="31.798" height="29.432" viewBox="0 0 31.798 29.432">
  <defs>
    <clipPath id="clip-path">
      <rect id="사각형_846" data-name="사각형 846" width="31.797" height="29.432" fill="#fbb03c"/>
    </clipPath>
  </defs>
  <g id="그룹_125" data-name="그룹 125" clip-path="url(#clip-path)">
    <path id="패스_222" data-name="패스 222" d="M14.14,24.663a.2.2,0,0,0-.278-.036l-1.883,1.454a.2.2,0,0,0-.036.278l.034.044C10.663,26.288,8.3,24.642,6.9,22.864c-1.368-1.8-2.361-4.508-2.139-5.808l.034.044a.2.2,0,0,0,.278.036l1.883-1.454a.2.2,0,0,0,.036-.278l-3.675-4.76a.2.2,0,0,0-.278-.036L1.154,12.063a.2.2,0,0,0-.035.275v0a4.02,4.02,0,0,0-.984,3.951A18.952,18.952,0,0,0,4.153,24.98a18.991,18.991,0,0,0,7.394,6.092,4.018,4.018,0,0,0,4.071.048h0a.2.2,0,0,0,.275.035L17.779,29.7a.2.2,0,0,0,.036-.278Z" transform="translate(3 -4.217)" fill="#fbb03c" stroke="#707070" stroke-width="1"/>
    <path id="패스_223" data-name="패스 223" d="M45.36,30.1a4.175,4.175,0,0,0,.564-2.078,4.825,4.825,0,0,0-2.7-4.121,8.466,8.466,0,0,1-7.011,3.313,9.772,9.772,0,0,1-2.723-.387,4.058,4.058,0,0,0-.187,1.195c0,2.777,2.825,5.029,6.31,5.029a7.225,7.225,0,0,0,4.307-1.355c.306.378,1.179,1.057,3.471.929A4.293,4.293,0,0,1,45.36,30.1m-7.38.731a.612.612,0,1,1,.611-.611.611.611,0,0,1-.611.611m1.831,0a.612.612,0,1,1,.611-.611.611.611,0,0,1-.611.611m1.83,0a.612.612,0,1,1,.611-.611.611.611,0,0,1-.611.611" transform="translate(-16.594 -12.06)" fill="#fbb03c"/>
    <path id="패스_224" data-name="패스 224" d="M15.878,12.2c2.9.162,4.009-.7,4.4-1.176A8.555,8.555,0,0,0,23,12.35a9.776,9.776,0,0,0,2.723.387A8.468,8.468,0,0,0,32.74,9.425a5.36,5.36,0,0,0,.98-3.056C33.719,2.852,30.142,0,25.728,0s-7.991,2.852-7.991,6.369A5.285,5.285,0,0,0,18.451,9a5.437,5.437,0,0,1-2.573,3.2M26.766,9.679h-2.1V7.721h2.1ZM25.707,2.271c1.619,0,2.709.847,2.709,2.159,0,1.439-1.81,1.863-1.81,2.423v.222H24.8V6.546c0-.773,1.376-1.217,1.376-2.074a.694.694,0,0,0-.7-.741c-.572,0-.688.444-.688.889a2.655,2.655,0,0,0,.01.286H22.85c-.011-.138-.032-.264-.032-.4,0-1.376,1.228-2.233,2.889-2.233" transform="translate(-6.342 2)" fill="#1cb6ec"/>
  </g>
</svg>
