<svg id="구성_요소_30_2" data-name="구성 요소 30 – 2" xmlns="http://www.w3.org/2000/svg" xmlns:xlink="http://www.w3.org/1999/xlink" width="22.01" height="23.473" viewBox="0 0 22.01 23.473">
  <defs>
    <clipPath id="clip-path">
      <rect id="사각형_1134" data-name="사각형 1134" width="22.01" height="23.473" fill="none"/>
    </clipPath>
  </defs>
  <g id="그룹_270" data-name="그룹 270" clip-path="url(#clip-path)">
    <path id="패스_506" data-name="패스 506" d="M21.533,23.688h0a9.872,9.872,0,0,0-9.872-9.872H10.613A9.872,9.872,0,0,0,.741,23.688,1.638,1.638,0,0,0,2.38,25.325H19.895a1.638,1.638,0,0,0,1.638-1.638" transform="translate(-0.132 -2.462)" fill="#1bb5ec"/>
    <path id="패스_507" data-name="패스 507" d="M19.83,25.561H2.314A1.941,1.941,0,0,1,.375,23.622,10.171,10.171,0,0,1,10.547,13.45H11.6A10.171,10.171,0,0,1,21.768,23.622a1.941,1.941,0,0,1-1.939,1.939M10.547,14.052A9.582,9.582,0,0,0,.977,23.622a1.339,1.339,0,0,0,1.337,1.337H19.83a1.339,1.339,0,0,0,1.337-1.337A9.582,9.582,0,0,0,11.6,14.052Z" transform="translate(-0.067 -2.397)" fill="#444"/>
    <path id="패스_508" data-name="패스 508" d="M19.83,25.561H2.314A1.941,1.941,0,0,1,.375,23.622,10.171,10.171,0,0,1,10.547,13.45H11.6A10.171,10.171,0,0,1,21.768,23.622,1.941,1.941,0,0,1,19.83,25.561ZM10.547,14.052A9.582,9.582,0,0,0,.977,23.622a1.339,1.339,0,0,0,1.337,1.337H19.83a1.339,1.339,0,0,0,1.337-1.337A9.582,9.582,0,0,0,11.6,14.052Z" transform="translate(-0.067 -2.397)" fill="none" stroke="#444" stroke-miterlimit="10" stroke-width="0.75"/>
    <path id="패스_509" data-name="패스 509" d="M5.9,6.815A6.154,6.154,0,1,0,12.057.66,6.155,6.155,0,0,0,5.9,6.815" transform="translate(-1.052 -0.118)" fill="#ffc107"/>
    <path id="패스_510" data-name="패스 510" d="M11.983,13.232a6.491,6.491,0,1,1,6.491-6.491,6.5,6.5,0,0,1-6.491,6.491m0-12.308A5.818,5.818,0,1,0,17.8,6.741,5.825,5.825,0,0,0,11.983.924" transform="translate(-0.979 -0.045)" fill="#444"/>
    <path id="패스_511" data-name="패스 511" d="M11.983,13.232a6.491,6.491,0,1,1,6.491-6.491A6.5,6.5,0,0,1,11.983,13.232Zm0-12.308A5.818,5.818,0,1,0,17.8,6.741,5.825,5.825,0,0,0,11.983.924Z" transform="translate(-0.979 -0.045)" fill="none" stroke="#444" stroke-miterlimit="10" stroke-width="0.5"/>
  </g>
</svg>
