<svg id="구성_요소_13_15" data-name="구성 요소 13 – 15" xmlns="http://www.w3.org/2000/svg" xmlns:xlink="http://www.w3.org/1999/xlink" width="71" height="81" viewBox="0 0 71 81">
  <defs>
    <clipPath id="clip-path">
      <rect id="사각형_846" data-name="사각형 846" width="35.885" height="32.831" fill="#fbb03c"/>
    </clipPath>
  </defs>
  <g id="사각형_4" data-name="사각형 4" fill="#fff" stroke="#fbb03c" stroke-width="1">
    <rect width="71" height="81" rx="15" stroke="none"/>
    <rect x="0.5" y="0.5" width="70" height="80" rx="14.5" fill="none"/>
  </g>
  <text id="문의하기" transform="translate(36 71)" fill="#fbb03c" font-size="10" font-family="GmarketSansMedium, Gmarket Sans" letter-spacing="-0.05em"><tspan x="-18.49" y="0">문의하기</tspan></text>
  <g id="그룹_126" data-name="그룹 126" transform="translate(15.328 14.997)">
    <g id="그룹_125" data-name="그룹 125" transform="translate(0 0)" clip-path="url(#clip-path)">
      <path id="패스_222" data-name="패스 222" d="M18.254,28.764a.256.256,0,0,0-.359-.046l-2.431,1.877a.256.256,0,0,0-.046.359l.044.056c-1.7-.148-4.752-2.273-6.553-4.569-1.766-2.324-3.048-5.82-2.762-7.5L6.189,19a.257.257,0,0,0,.359.046l2.431-1.877a.256.256,0,0,0,.046-.359L4.281,10.666a.256.256,0,0,0-.359-.046L1.489,12.5a.251.251,0,0,0-.046.354l0,0a5.189,5.189,0,0,0-1.271,5.1A24.466,24.466,0,0,0,5.361,29.173a24.517,24.517,0,0,0,9.545,7.864,5.188,5.188,0,0,0,5.255.062l0,0a.253.253,0,0,0,.356.046l2.433-1.878A.257.257,0,0,0,23,34.91Z" transform="translate(0 -4.951)" fill="#fbb03c"/>
      <path id="패스_223" data-name="패스 223" d="M48.868,31.9a5.389,5.389,0,0,0,.728-2.683,6.229,6.229,0,0,0-3.485-5.32,10.93,10.93,0,0,1-9.051,4.277,12.615,12.615,0,0,1-3.515-.5,5.238,5.238,0,0,0-.241,1.542c0,3.586,3.647,6.492,8.146,6.492a9.327,9.327,0,0,0,5.56-1.749c.395.488,1.523,1.364,4.481,1.2a5.543,5.543,0,0,1-2.623-3.26m-9.527.943a.789.789,0,1,1,.789-.789.789.789,0,0,1-.789.789m2.363,0a.789.789,0,1,1,.789-.789.789.789,0,0,1-.789.789m2.363,0a.789.789,0,1,1,.789-.789.789.789,0,0,1-.789.789" transform="translate(-15.606 -11.198)" fill="#fbb03c"/>
      <path id="패스_224" data-name="패스 224" d="M15.878,15.747c3.747.209,5.176-.9,5.675-1.519a11.045,11.045,0,0,0,3.525,1.715,12.621,12.621,0,0,0,3.515.5,10.932,10.932,0,0,0,9.052-4.276A6.919,6.919,0,0,0,38.91,8.222C38.91,3.681,34.292,0,28.594,0S18.277,3.681,18.277,8.222a6.823,6.823,0,0,0,.923,3.4,7.019,7.019,0,0,1-3.322,4.128m14.056-3.252h-2.7V9.967h2.7ZM28.567,2.932c2.09,0,3.5,1.093,3.5,2.787,0,1.858-2.336,2.4-2.336,3.128v.287H27.392V8.451c0-1,1.776-1.571,1.776-2.678a.9.9,0,0,0-.9-.956c-.738,0-.888.573-.888,1.147a3.427,3.427,0,0,0,.013.369H24.879c-.014-.178-.041-.341-.041-.519,0-1.776,1.585-2.882,3.73-2.882" transform="translate(-7.44 0)" fill="#fbb03c"/>
    </g>
  </g>
</svg>
