<svg id="구성_요소_29_2" data-name="구성 요소 29 – 2" xmlns="http://www.w3.org/2000/svg" xmlns:xlink="http://www.w3.org/1999/xlink" width="26.131" height="28.276" viewBox="0 0 26.131 28.276">
  <defs>
    <clipPath id="clip-path">
      <rect id="사각형_1138" data-name="사각형 1138" width="26.131" height="28.277" transform="translate(0 -1)" fill="none"/>
    </clipPath>
  </defs>
  <g id="그룹_278" data-name="그룹 278" transform="translate(0 1)" clip-path="url(#clip-path)">
    <path id="패스_532" data-name="패스 532" d="M21.45,23.666A10.705,10.705,0,1,1,15.721,9.652,10.7,10.7,0,0,1,21.45,23.666" transform="translate(-0.344 -3.481)" fill="#1bb5ec"/>
    <path id="패스_533" data-name="패스 533" d="M6.89,29.533A11.229,11.229,0,1,1,15.58,8.825,11.229,11.229,0,1,1,6.89,29.533M15.175,9.79a10.182,10.182,0,1,0,5.449,13.329A10.194,10.194,0,0,0,15.175,9.79" transform="translate(0 -3.137)" fill="#444"/>
    <path id="패스_534" data-name="패스 534" d="M10.137,29.881a5.838,5.838,0,0,1,1.625-.939c.865-.3.045-1.873-.894-2.653s-2.8-2.191-2.8-2.191a25.746,25.746,0,0,1-.723-2.776c-.124-.88.73-.759,1.831-1.029s1.2-.9,1.735-1.261a6.175,6.175,0,0,1,2.419-.206s.166-2.159-.1-2.107-1.508.848-1.9.024-.392-1.81.671-2.187S11,12.41,11.524,12.137s.756-1.411.156-1.745a2.541,2.541,0,0,1-.919-.989,12.962,12.962,0,0,1-3.036,3.032c-1.907,1.339-2.462,3.78-2.5,5.965a4.179,4.179,0,0,0,.9,3.074,5.526,5.526,0,0,1,.382,2.335c-.182.564-.744,1.135.47,2.879s.827,2.344.827,2.344a21.359,21.359,0,0,0,2.334.85" transform="translate(-2.062 -3.714)" fill="#ffc107"/>
    <path id="패스_535" data-name="패스 535" d="M7.258,29.173a.524.524,0,0,1-.268-.712c.013-.068.072-.585-.785-1.817a4.2,4.2,0,0,1-.844-1.938,2.334,2.334,0,0,1,.225-1.2c.033-.077.061-.145.08-.2a4.742,4.742,0,0,0-.342-1.9,4.967,4.967,0,0,1-.968-3.358c.055-2.963,1-5.17,2.726-6.383a12.575,12.575,0,0,0,2.9-2.894.523.523,0,0,1,.905.062,2.025,2.025,0,0,0,.7.761,1.29,1.29,0,0,1,.625,1.2,1.827,1.827,0,0,1-.532,1.277c.064.117.156.265.226.377.332.532.709,1.135.517,1.683a.931.931,0,0,1-.606.575.783.783,0,0,0-.508.42,1.355,1.355,0,0,0,.134,1.048c.024.05.041.057.05.061.187.078.706-.148.9-.234a1.9,1.9,0,0,1,.381-.139.57.57,0,0,1,.329.034c.4.169.464.624.445,1.581-.01.523-.048,1.025-.05,1.046a.523.523,0,0,1-.564.482s-.46-.036-.968-.029a2.521,2.521,0,0,0-1.117.148,1.833,1.833,0,0,0-.342.339,2.706,2.706,0,0,1-1.559,1c-.271.067-.524.11-.747.149a2.69,2.69,0,0,0-.7.173.413.413,0,0,0,0,.126,22.891,22.891,0,0,0,.654,2.535c.448.34,1.886,1.438,2.689,2.1a3.537,3.537,0,0,1,1.429,2.744,1.031,1.031,0,0,1-.7.807,5.293,5.293,0,0,0-1.456.843.522.522,0,0,1-.433.116,20.414,20.414,0,0,1-2.442-.882M6.144,20.755a.468.468,0,0,1,.13.2,5.506,5.506,0,0,1,.388,2.674c-.033.1-.072.2-.11.287-.18.429-.365.873.512,2.132a4.416,4.416,0,0,1,.978,2.318c.549.223,1.236.487,1.632.605a6.1,6.1,0,0,1,1.576-.863l.008,0a1.235,1.235,0,0,0-.209-.694,3.736,3.736,0,0,0-.858-1.058c-.92-.762-2.768-2.162-2.787-2.177a.518.518,0,0,1-.183-.26,25.685,25.685,0,0,1-.742-2.861,1.081,1.081,0,0,1,.5-1.171,3.021,3.021,0,0,1,1.052-.3c.216-.038.44-.076.675-.134a1.674,1.674,0,0,0,1.016-.662,2.706,2.706,0,0,1,.552-.525,4.552,4.552,0,0,1,2.22-.324c.014-.3.021-.6.017-.841a1.926,1.926,0,0,1-1.416.11,1.139,1.139,0,0,1-.589-.573,2.345,2.345,0,0,1-.157-1.9,1.787,1.787,0,0,1,1.073-.988,4.349,4.349,0,0,0-.4-.736c-.3-.478-.536-.856-.428-1.248a.675.675,0,0,1,.345-.424.724.724,0,0,0,.23-.552c0-.1-.021-.234-.088-.27a2.651,2.651,0,0,1-.678-.554,13.668,13.668,0,0,1-2.722,2.568C5.86,13.8,5.437,16.245,5.4,18.069a3.771,3.771,0,0,0,.741,2.685" transform="translate(-1.72 -3.372)" fill="#444"/>
    <path id="패스_536" data-name="패스 536" d="M26.4,27.718s.9-2.507.445-2.477-.984,1.288-2.351.492-.713-2-.638-2.707a2.571,2.571,0,0,1,1.5-1.81c.714-.292.871-2.074.871-2.074s-.667-1.758-.142-2.129a2.64,2.64,0,0,0,.652-2.61A5.4,5.4,0,0,0,22.3,11.014c-2.625-.263-1.221-1.993-1.221-1.993a10.719,10.719,0,0,1,5.315,18.7Z" transform="translate(-8.176 -3.562)" fill="#ffc107"/>
    <path id="패스_537" data-name="패스 537" d="M25.854,27.858a.524.524,0,0,1-.273-.707c.158-.447.3-.9.391-1.269a1.8,1.8,0,0,1-1.754.135h0a2.88,2.88,0,0,1-.332-.17,2.069,2.069,0,0,1-1.09-1.471,3.429,3.429,0,0,1,.117-1.349,3.942,3.942,0,0,0,.079-.4,3.077,3.077,0,0,1,1.821-2.24c.056-.024.237-.209.392-.785a5.737,5.737,0,0,0,.143-.743,7.313,7.313,0,0,1-.247-.882c-.067-.324-.272-1.308.337-1.738a2.149,2.149,0,0,0,.453-2.029,4.905,4.905,0,0,0-2.644-2.681,4.662,4.662,0,0,0-1.34-.344,3.822,3.822,0,0,1-1.09-.255h0a1.461,1.461,0,0,1-.937-.983,2.042,2.042,0,0,1,.451-1.6.522.522,0,0,1,.488-.186A11.368,11.368,0,0,1,23.4,8.9a11.239,11.239,0,0,1,3.035,18.832.521.521,0,0,1-.573.128l-.01,0m.224-10.787a3.626,3.626,0,0,0,.293,1.543.525.525,0,0,1,.032.231,6.677,6.677,0,0,1-.183,1.017,2.018,2.018,0,0,1-1.011,1.5,2.063,2.063,0,0,0-1.177,1.381,4.439,4.439,0,0,1-.1.524c-.178.762-.249,1.251.482,1.676a1.826,1.826,0,0,0,.212.106c.476.2.726.023,1.093-.282a1.326,1.326,0,0,1,.747-.387.613.613,0,0,1,.282.047c.318.133.448.459.389.97,0,.031-.008.063-.013.1A10.2,10.2,0,0,0,23,9.868a10.453,10.453,0,0,0-2.005-.613.717.717,0,0,0-.1.442c.027.1.138.192.326.271h0a2.791,2.791,0,0,0,.789.179,5.718,5.718,0,0,1,1.642.418,6.091,6.091,0,0,1,2.208,1.61,5.086,5.086,0,0,1,1.031,1.731,3.3,3.3,0,0,1-.009,1.844,2.528,2.528,0,0,1-.806,1.321" transform="translate(-7.835 -3.22)" fill="#444"/>
    <path id="패스_538" data-name="패스 538" d="M20.074,15.721s1.5-.405,2.134.378a2.946,2.946,0,0,1,.29,2.635c-.24.417-1.358.614-1.358.614a25.387,25.387,0,0,1-1.066-3.626" transform="translate(-7.927 -6.166)" fill="#ffc107"/>
    <path id="패스_539" data-name="패스 539" d="M20.6,19.487a.522.522,0,0,1-.29-.306c0-.008-.278-.778-.546-1.61a7.229,7.229,0,0,1-.549-2.212.524.524,0,0,1,.387-.485,3.472,3.472,0,0,1,2.007.061,1.681,1.681,0,0,1,.669.494,3.409,3.409,0,0,1,.336,3.225,1.794,1.794,0,0,1-1.06.7,5.119,5.119,0,0,1-.661.168.517.517,0,0,1-.293-.033m-.266-3.678c.142.578.469,1.608.805,2.577a1.586,1.586,0,0,0,.571-.261,2.5,2.5,0,0,0-.247-2.039.638.638,0,0,0-.26-.186,1.941,1.941,0,0,0-.869-.09" transform="translate(-7.585 -5.824)" fill="#444"/>
    <path id="패스_540" data-name="패스 540" d="M31.763,1.052a4.868,4.868,0,0,0-6.628,1.82,15.266,15.266,0,0,0-1.607,10.695.953.953,0,0,0,1.158.689,15.266,15.266,0,0,0,8.636-6.51,4.867,4.867,0,0,0-1.559-6.694" transform="translate(-9.155 -0.16)" fill="#ffc107"/>
    <path id="패스_541" data-name="패스 541" d="M31.763,1.052a4.868,4.868,0,0,0-6.628,1.82,15.266,15.266,0,0,0-1.607,10.695.953.953,0,0,0,1.158.689,15.266,15.266,0,0,0,8.636-6.51A4.867,4.867,0,0,0,31.763,1.052Z" transform="translate(-9.155 -0.16)" fill="none" stroke="#444" stroke-miterlimit="10" stroke-width="0.809"/>
    <path id="패스_542" data-name="패스 542" d="M34.071,7.392a1.906,1.906,0,1,1-.663-2.612,1.906,1.906,0,0,1,.663,2.612" transform="translate(-12.055 -1.782)" fill="#fff"/>
    <path id="패스_543" data-name="패스 543" d="M8.83,31.736a.361.361,0,0,1-.018-.062L8.463,29.78l-.005-.008L7.386,28.187a.31.31,0,0,1-.03-.294.282.282,0,0,1,.212-.169l.242-.044a.675.675,0,0,1,.465.094l1.282.774a21.456,21.456,0,0,1,1.887-1.026c.589-.289,1.332-.633,2.12-.98l-4.277-4.86a.33.33,0,0,1,.266-.547l.595.034a1.8,1.8,0,0,1,.975.355l5.223,3.882a13.918,13.918,0,0,1,2.571-.732,2.518,2.518,0,0,1,.779-.019.584.584,0,0,1,.491.334c.194.473-.468.956-.686,1.115a13.965,13.965,0,0,1-2.348,1.279l-1.008,6.429a1.805,1.805,0,0,1-.447.936l-.4.441h0a.33.33,0,0,1-.574-.2l-.352-6.465c-.8.3-1.591.586-2.2.788a21.165,21.165,0,0,1-2.066.591l-.372,1.448a.679.679,0,0,1-.266.392l-.2.14A.283.283,0,0,1,9,31.9a.306.306,0,0,1-.166-.168" transform="translate(-2.895 -8.346)" fill="#fff"/>
  </g>
</svg>
