<svg xmlns="http://www.w3.org/2000/svg" xmlns:xlink="http://www.w3.org/1999/xlink" width="65.177" height="20.542" viewBox="0 0 65.177 20.542">
  <defs>
    <clipPath id="clip-path">
      <rect id="사각형_2087" data-name="사각형 2087" width="65.177" height="20.542" transform="translate(0 0)" fill="none"/>
    </clipPath>
  </defs>
  <g id="그룹_1323" data-name="그룹 1323" transform="translate(0 0)">
    <g id="그룹_1322" data-name="그룹 1322" clip-path="url(#clip-path)">
      <path id="패스_3893" data-name="패스 3893" d="M13.334,19.525a1,1,0,0,1-1-.98l-.156-7.778c-.272,3.255-2.168,5.463-4.8,5.463-.083,0-.167,0-.252-.007C4.069,16.127,2,13.553,2,9.817c0-3.611,2.283-6.44,5.2-6.44,2.594.051,4.543,2.248,4.94,5.377l-.019-.924.117-4.854a1,1,0,0,1,1-.976c.02,0,3.144.185,3.144.185a1,1,0,0,1,.941,1l.017,7.265-.067,8.088a1,1,0,0,1-1,.992ZM7.282,8.064A1.387,1.387,0,0,0,6.837,9.2c0,.495.079,1.089.459,1.107H7.3c.123,0,.139-.016.183-.09A1.849,1.849,0,0,0,7.657,9.3c0-.793-.279-1.231-.375-1.239" fill="#eeb94d"/>
      <path id="패스_3894" data-name="패스 3894" d="M13.234,3l3.085.182.016,7.265-.066,8.077H13.334L13.118,7.811ZM7.2,4.377c2.538.05,4.014,2.687,4.014,5.573,0,2.923-1.4,5.28-3.83,5.28-.066,0-.133,0-.2,0C4.526,15.142,3,12.82,3,9.817c0-2.869,1.692-5.44,4.2-5.44m.13,6.936c.953,0,1.33-.879,1.33-2.01,0-1.111-.447-2.239-1.377-2.239-.829,0-1.443,1.045-1.443,2.14,0,1.161.4,2.057,1.41,2.107l.08,0M13.234,1a2,2,0,0,0-2,1.951L11.2,4.2a5.457,5.457,0,0,0-3.968-1.82H7.2C3.722,2.377,1,5.646,1,9.817c0,4.248,2.515,7.294,6.117,7.407.062,0,.163.006.263.006a5.233,5.233,0,0,0,3.893-1.676l.061,3.012a2,2,0,0,0,2,1.959h2.935a2,2,0,0,0,2-1.983l.066-8.078-.016-7.285a2,2,0,0,0-1.882-1.992L13.352,1c-.039,0-.079,0-.118,0M6.607,9.752h0"/>
      <path id="패스_3895" data-name="패스 3895" d="M19.553,19.408a1,1,0,0,1-.987-.97l-.133-4.428a1,1,0,0,1,.283-.728,1.032,1.032,0,0,1,.231-.176V11.538l-.917-.008a1,1,0,0,1-.987-.917l-.233-2.8-.02-4.241a1,1,0,0,1,1-1l7.367-.017a1,1,0,0,1,.858.486,1,1,0,0,1,1-1.017c.019,0,3.16.185,3.16.185a1,1,0,0,1,.94.945l.084,1.6,1.893.045a1,1,0,0,1,.974,1.076l-.183,2.356a1,1,0,0,1-.964.922l-1.545.052-.043,1.694a.992.992,0,0,1-.039.257.953.953,0,0,1,.039.258l.1,4.18a.991.991,0,0,1-.127.512,1,1,0,0,1,.111.474l-.033,1.99a1,1,0,0,1-1,.983l-10.827-.133M26.037,8.045a1,1,0,0,1,.162.176l-.054-1.483-.058,1.044a.988.988,0,0,1-.05.263m-.02-2.328a.985.985,0,0,1,.1.207l-.017-.5a1.027,1.027,0,0,1-.082.293" fill="#eeb94d"/>
      <path id="패스_3896" data-name="패스 3896" d="M27.012,3.017l3.1.183.132,2.521,2.82.066-.182,2.355L30.4,8.225l-.066,2.638H27.294Zm-1.858.531L25.1,5.306,21.29,5.289l.017.962h3.864l-.083,1.476-3.765-.016V8.74l4.064.066V10.6l-7.348-.066-.232-2.8L17.79,3.564l7.364-.016m.017,2.7h.005m-5.23,5.026,10.384.149.1,4.18-7-.033.033,1.078,6.95-.1-.034,1.99-10.814-.133-.133-4.428,7.8.033v-.863l-7.282-.033V11.277m10.467,5.275h0M27.012,1.017a2,2,0,0,0-1.4.57L25.6,1.6a1.973,1.973,0,0,0-.448-.051h0l-7.365.016A2,2,0,0,0,15.79,3.572l.017,4.164c0,.052,0,.1.006.157l.233,2.8a2,2,0,0,0,1.9,1.832v.114a2,2,0,0,0-.513,1.4l.133,4.428a2,2,0,0,0,1.974,1.94l10.815.133h.025a2,2,0,0,0,2-1.967l.032-1.889c0-.044,0-.089,0-.134a2.037,2.037,0,0,0-.049-.445,2.05,2.05,0,0,0,.063-.548l-.1-4.18a2.013,2.013,0,0,0-.019-.235,2.18,2.18,0,0,0,.019-.231l.019-.751.6-.021A2,2,0,0,0,34.878,8.3l.182-2.355a2,2,0,0,0-1.947-2.154l-.967-.023-.035-.671A2,2,0,0,0,30.231,1.2l-3.1-.183-.118,0"/>
      <path id="패스_3897" data-name="패스 3897" d="M43.544,19.525a1,1,0,0,1-1-.976L42.312,8.73l.116-5.75a1,1,0,0,1,1-.98c.019,0,3.144.185,3.144.185a1,1,0,0,1,.941,1l.017,7.264-.067,8.089a1,1,0,0,1-1,.991Zm-9.785-2.587a1,1,0,0,1-.984-.965l-.248-7.016a1,1,0,0,1,1-1.035h3.982l0-.816-3.455.013a1,1,0,0,1-1-1V4.112a1,1,0,0,1,1-1l7.06.083a1,1,0,0,1,.989,1.01l-.066,6.519a1,1,0,0,1-1,.989H38.467l.013,1.209,2.742-.024a1,1,0,0,1,1,1.008l-.017,2.156a1,1,0,0,1-1,.992l-7.446-.116" fill="#eeb94d"/>
      <path id="패스_3898" data-name="패스 3898" d="M43.428,3l3.085.183.017,7.264-.067,8.078H43.544l-.232-9.819ZM34.057,4.111l7.049.083-.066,6.519H37.457l.033,3.218,3.732-.034-.017,2.157-7.43-.116-.249-7.017H38.5L38.518,6.1l-4.461.016V4.111M41.222,13.9h.005M43.428,1a2,2,0,0,0-1.854,1.25,1.923,1.923,0,0,0-.445-.055l-7.048-.083h-.024a2,2,0,0,0-2,2V6.118a2,2,0,0,0,.357,1.141,2.068,2.068,0,0,0-.327.273,2,2,0,0,0-.56,1.46l.249,7.016a2,2,0,0,0,1.967,1.929l7.431.116h.031a1.968,1.968,0,0,0,.327-.027l.013.545a2,2,0,0,0,2,1.953h2.919a2,2,0,0,0,2-1.984l.067-8.077-.017-7.286a2,2,0,0,0-1.882-1.992L43.546,1c-.039,0-.079,0-.118,0"/>
      <path id="패스_3899" data-name="패스 3899" d="M57.471,19.508a1,1,0,0,1-1-.983l-.1-5.638a4.629,4.629,0,0,1-4.343,3.343c-.083,0-.167,0-.252-.007-3.049-.1-5.111-2.671-5.111-6.406,0-3.611,2.268-6.44,5.163-6.44a4.939,4.939,0,0,1,4.437,3.361l-.063-3.7a1,1,0,0,1,1-1.017c.02,0,3.16.184,3.16.184a1,1,0,0,1,.94.936L61.547,7l1.656.043a1,1,0,0,1,.972,1.072l-.183,2.505a1,1,0,0,1-.963.926l-1.448.05-.058,6.921a1,1,0,0,1-1,.991ZM51.934,8.064a1.383,1.383,0,0,0-.445,1.14c0,.4.059,1.088.459,1.108h.01c.122,0,.138-.016.182-.089a1.864,1.864,0,0,0,.168-.92,1.66,1.66,0,0,0-.37-1.239Z" fill="#eeb94d"/>
      <path id="패스_3900" data-name="패스 3900" d="M57.206,3.017l3.1.183.3,4.776,2.57.067-.182,2.5-2.4.083-.066,7.879H57.471Zm-5.374,1.36c2.554.05,4.03,2.687,4.03,5.573,0,2.923-1.4,5.28-3.83,5.28-.066,0-.132,0-.2,0-2.637-.083-4.163-2.405-4.163-5.408,0-2.869,1.692-5.44,4.163-5.44m.146,6.935c.953,0,1.33-.878,1.33-2.009,0-1.111-.464-2.239-1.376-2.239-.83,0-1.443,1.045-1.443,2.14,0,1.161.414,2.057,1.41,2.106.026,0,.053,0,.079,0m5.228-10.3a2,2,0,0,0-2,2.034l.01.55a5.411,5.411,0,0,0-3.345-1.223h-.039c-3.456,0-6.163,3.268-6.163,7.44,0,4.248,2.508,7.294,6.1,7.407.062,0,.163.006.263.006a5.216,5.216,0,0,0,3.4-1.209l.044,2.522a2,2,0,0,0,2,1.966h3.053a2,2,0,0,0,2-1.983l.051-5.963.49-.017a2,2,0,0,0,1.925-1.853l.183-2.505a2,2,0,0,0-1.943-2.144l-.741-.02L62.3,3.075A2,2,0,0,0,60.425,1.2l-3.1-.183-.118,0"/>
      <path id="패스_3901" data-name="패스 3901" d="M12.334,18.525a1,1,0,0,1-1-.98l-.156-7.778c-.272,3.255-2.168,5.463-4.8,5.463-.083,0-.167,0-.252-.007C3.069,15.127,1,12.553,1,8.817c0-3.611,2.283-6.44,5.2-6.44,2.594.051,4.543,2.248,4.94,5.377l-.019-.924.117-4.854a1,1,0,0,1,1-.976c.02,0,3.144.185,3.144.185a1,1,0,0,1,.941,1l.017,7.265-.067,8.088a1,1,0,0,1-1,.992ZM6.282,7.064A1.387,1.387,0,0,0,5.837,8.2c0,.495.079,1.089.459,1.107H6.3c.123,0,.139-.016.183-.09A1.849,1.849,0,0,0,6.657,8.3c0-.793-.279-1.231-.375-1.239" fill="#eeb94d"/>
      <path id="패스_3902" data-name="패스 3902" d="M12.234,2l3.085.182.016,7.265-.066,8.077H12.334L12.118,6.811ZM6.2,3.377c2.538.05,4.014,2.687,4.014,5.573,0,2.923-1.4,5.28-3.83,5.28-.066,0-.133,0-.2,0C3.526,14.142,2,11.82,2,8.817c0-2.869,1.692-5.44,4.2-5.44m.13,6.936c.953,0,1.33-.879,1.33-2.01,0-1.111-.447-2.239-1.377-2.239-.829,0-1.443,1.045-1.443,2.14,0,1.161.4,2.057,1.41,2.107l.08,0M12.234,0a2,2,0,0,0-2,1.951L10.2,3.2a5.457,5.457,0,0,0-3.968-1.82H6.2C2.722,1.377,0,4.646,0,8.817c0,4.248,2.515,7.294,6.117,7.407.062,0,.163.006.263.006a5.233,5.233,0,0,0,3.893-1.676l.061,3.012a2,2,0,0,0,2,1.959h2.935a2,2,0,0,0,2-1.983l.066-8.078-.016-7.285A2,2,0,0,0,15.437.187L12.352,0c-.039,0-.079,0-.118,0M5.607,8.752h0" fill="#e69c2e"/>
      <path id="패스_3903" data-name="패스 3903" d="M18.553,18.408a1,1,0,0,1-.987-.97l-.133-4.428a1,1,0,0,1,.283-.728,1.032,1.032,0,0,1,.231-.176V10.538l-.917-.008a1,1,0,0,1-.987-.917l-.233-2.8-.02-4.241a1,1,0,0,1,1-1l7.367-.017a1,1,0,0,1,.858.486,1,1,0,0,1,1-1.017c.019,0,3.16.185,3.16.185a1,1,0,0,1,.94.945l.084,1.6,1.893.045a1,1,0,0,1,.974,1.076l-.183,2.356a1,1,0,0,1-.964.922l-1.545.052-.043,1.694a.992.992,0,0,1-.039.257.953.953,0,0,1,.039.258l.1,4.18a.991.991,0,0,1-.127.512,1,1,0,0,1,.111.474l-.033,1.99a1,1,0,0,1-1,.983l-10.827-.133M25.037,7.045a1,1,0,0,1,.162.176l-.054-1.483-.058,1.044a.988.988,0,0,1-.05.263m-.02-2.328a.985.985,0,0,1,.1.207l-.017-.5a1.027,1.027,0,0,1-.082.293" fill="#eeb94d"/>
      <path id="패스_3904" data-name="패스 3904" d="M26.012,2.017l3.1.183.132,2.521,2.82.066-.182,2.355L29.4,7.225,29.33,9.863H26.294Zm-1.858.531L24.1,4.306,20.29,4.289l.017.962h3.864l-.083,1.476-3.765-.016V7.74l4.064.066V9.6l-7.348-.066-.232-2.8L16.79,2.564l7.364-.016m.017,2.7h.005m-5.23,5.026,10.384.149.1,4.18-7-.033.033,1.078,6.95-.1-.034,1.99-10.814-.133-.133-4.428,7.8.033v-.863l-7.282-.033V10.277m10.467,5.275h0M26.012.017a2,2,0,0,0-1.4.57L24.6.6a1.973,1.973,0,0,0-.448-.051h0L16.785.564A2,2,0,0,0,14.79,2.572l.017,4.164c0,.052,0,.1.006.157l.233,2.8a2,2,0,0,0,1.9,1.832v.114a2,2,0,0,0-.513,1.4l.133,4.428a2,2,0,0,0,1.974,1.94l10.815.133h.025a2,2,0,0,0,2-1.967l.032-1.889c0-.044,0-.089,0-.134a2.036,2.036,0,0,0-.049-.445,2.05,2.05,0,0,0,.063-.548l-.1-4.18a2.013,2.013,0,0,0-.019-.235,2.18,2.18,0,0,0,.019-.231l.019-.751.6-.021A2,2,0,0,0,33.878,7.3l.182-2.355a2,2,0,0,0-1.947-2.154l-.967-.023-.035-.671A2,2,0,0,0,29.231.2L26.13.02l-.118,0" fill="#e69c2e"/>
      <path id="패스_3905" data-name="패스 3905" d="M42.544,18.525a1,1,0,0,1-1-.976L41.312,7.73l.116-5.75a1,1,0,0,1,1-.98c.019,0,3.144.185,3.144.185a1,1,0,0,1,.941,1l.017,7.264-.067,8.089a1,1,0,0,1-1,.991Zm-9.785-2.587a1,1,0,0,1-.984-.965l-.248-7.016a1,1,0,0,1,1-1.035h3.982l0-.816-3.455.013a1,1,0,0,1-1-1V3.112a1,1,0,0,1,1-1l7.06.083a1,1,0,0,1,.989,1.01L41.04,9.724a1,1,0,0,1-1,.989H37.467l.013,1.209,2.742-.024a1,1,0,0,1,1,1.008l-.017,2.156a1,1,0,0,1-1,.992l-7.446-.116" fill="#eeb94d"/>
      <path id="패스_3906" data-name="패스 3906" d="M42.428,2l3.085.183.017,7.264-.067,8.078H42.544l-.232-9.819ZM33.057,3.111l7.049.083L40.04,9.713H36.457l.033,3.218,3.732-.034-.017,2.157-7.43-.116-.249-7.017H37.5L37.518,5.1l-4.461.016V3.111M40.222,12.9h.005M42.428,0a2,2,0,0,0-1.854,1.25,1.923,1.923,0,0,0-.445-.055l-7.048-.083h-.024a2,2,0,0,0-2,2V5.118a2,2,0,0,0,.357,1.141,2.069,2.069,0,0,0-.327.273,2,2,0,0,0-.56,1.46l.249,7.016a2,2,0,0,0,1.967,1.929l7.431.116h.031a1.968,1.968,0,0,0,.327-.027l.013.545a2,2,0,0,0,2,1.953h2.919a2,2,0,0,0,2-1.984l.067-8.077-.017-7.286A2,2,0,0,0,45.631.186L42.546,0c-.039,0-.079,0-.118,0" fill="#e69c2e"/>
      <path id="패스_3907" data-name="패스 3907" d="M56.471,18.508a1,1,0,0,1-1-.983l-.1-5.638a4.629,4.629,0,0,1-4.343,3.343c-.083,0-.167,0-.252-.007-3.049-.1-5.111-2.671-5.111-6.406,0-3.611,2.268-6.44,5.163-6.44a4.939,4.939,0,0,1,4.437,3.361l-.063-3.7a1,1,0,0,1,1-1.017c.02,0,3.16.184,3.16.184a1,1,0,0,1,.94.936L60.547,6l1.656.043a1,1,0,0,1,.972,1.072L62.992,9.62a1,1,0,0,1-.963.926l-1.448.05-.058,6.921a1,1,0,0,1-1,.991ZM50.934,7.064a1.383,1.383,0,0,0-.445,1.14c0,.4.059,1.088.459,1.108h.01c.122,0,.138-.016.182-.089a1.864,1.864,0,0,0,.168-.92,1.66,1.66,0,0,0-.37-1.239Z" fill="#eeb94d"/>
      <path id="패스_3908" data-name="패스 3908" d="M56.206,2.017l3.1.183.3,4.776,2.57.067-.182,2.5-2.4.083-.066,7.879H56.471Zm-5.374,1.36c2.554.05,4.03,2.687,4.03,5.573,0,2.923-1.4,5.28-3.83,5.28-.066,0-.132,0-.2,0-2.637-.083-4.163-2.405-4.163-5.408,0-2.869,1.692-5.44,4.163-5.44m.146,6.935c.953,0,1.33-.878,1.33-2.009,0-1.111-.464-2.239-1.376-2.239-.83,0-1.443,1.045-1.443,2.14,0,1.161.414,2.057,1.41,2.106.026,0,.053,0,.079,0M56.206.017a2,2,0,0,0-2,2.034l.01.55a5.411,5.411,0,0,0-3.345-1.223h-.039c-3.456,0-6.163,3.268-6.163,7.44,0,4.248,2.508,7.294,6.1,7.407.062,0,.163.006.263.006a5.216,5.216,0,0,0,3.4-1.209l.044,2.522a2,2,0,0,0,2,1.966h3.053a2,2,0,0,0,2-1.983l.051-5.963.49-.017a2,2,0,0,0,1.925-1.853l.183-2.5a2,2,0,0,0-1.943-2.144l-.741-.02L61.3,2.075A2,2,0,0,0,59.425.2L56.324.02l-.118,0" fill="#e69c2e"/>
      <path id="패스_3909" data-name="패스 3909" d="M12.333,17.9a.376.376,0,0,1-.375-.368L11.742,6.817l.117-4.826a.375.375,0,0,1,.375-.366l3.107.183a.376.376,0,0,1,.353.374l.016,7.264-.066,8.082a.375.375,0,0,1-.375.372ZM6.16,14.6c-2.71-.085-4.535-2.409-4.535-5.782C1.625,5.556,3.633,3,6.2,3c2.884.057,4.389,3.035,4.389,5.948,0,3.329-1.729,5.655-4.2,5.655-.073,0-.146,0-.22-.006m.119-8.16c-.569,0-1.068.825-1.068,1.765,0,.766.183,1.689,1.053,1.732h.007a.775.775,0,0,0,.754-.395A2.5,2.5,0,0,0,7.281,8.3c0-.927-.344-1.864-1-1.864" fill="#eeb94d"/>
      <path id="패스_3910" data-name="패스 3910" d="M12.233,2l3.086.183.017,7.264-.066,8.078H12.333L12.118,6.81ZM6.2,3.377c2.538.05,4.014,2.687,4.014,5.573,0,2.923-1.4,5.279-3.83,5.279-.067,0-.133,0-.2-.005C3.526,14.141,2,11.819,2,8.817c0-2.869,1.692-5.44,4.2-5.44m.13,6.935c.953,0,1.33-.879,1.33-2.009,0-1.111-.448-2.239-1.376-2.239-.829,0-1.443,1.045-1.443,2.14,0,1.16.4,2.056,1.41,2.106l.079,0M12.233,1.25a.75.75,0,0,0-.749.732l-.116,4.81.215,10.748a.75.75,0,0,0,.75.735H15.27a.752.752,0,0,0,.75-.744l.066-8.078-.017-7.272a.751.751,0,0,0-.7-.747l-3.086-.183h-.045M6.2,2.627c-2.774,0-4.947,2.719-4.947,6.19,0,3.591,1.972,6.065,4.907,6.157.065,0,.145.005.224.005,2.7,0,4.581-2.479,4.581-6.029,0-3.61-2-6.269-4.75-6.323H6.2m.13,6.935H6.282c-.462-.023-.7-.479-.7-1.357,0-.793.42-1.39.693-1.39.34,0,.626.682.626,1.489,0,.574-.1,1.259-.58,1.259" fill="#fff"/>
      <path id="패스_3911" data-name="패스 3911" d="M18.56,17.784a.376.376,0,0,1-.371-.364l-.132-4.428a.375.375,0,0,1,.106-.273.378.378,0,0,1,.269-.113l7.42.032v-.113l-6.908-.032a.375.375,0,0,1-.373-.375V10.277a.373.373,0,0,1,.112-.267.38.38,0,0,1,.143-.088l-1.791-.016a.375.375,0,0,1-.37-.345l-.232-2.8-.019-4.192a.38.38,0,0,1,.109-.266.375.375,0,0,1,.266-.111l7.365-.016a.376.376,0,0,1,.375.385l-.05,1.759a.374.374,0,0,1-.375.364l-3.433-.015,0,.21h3.5a.38.38,0,0,1,.273.117.376.376,0,0,1,.1.279l-.083,1.476a.374.374,0,0,1-.374.354L20.7,7.087V7.37l3.694.06a.376.376,0,0,1,.369.375V9.6a.374.374,0,0,1-.375.375l-1.538-.014,3.1.045a.442.442,0,0,1-.027-.127l-.281-7.845a.376.376,0,0,1,.375-.389l3.123.183a.376.376,0,0,1,.353.355L29.6,4.354l2.474.058a.373.373,0,0,1,.268.123.377.377,0,0,1,.1.281l-.183,2.355a.373.373,0,0,1-.361.346l-2.134.071L29.7,9.872a.374.374,0,0,1-.127.272.376.376,0,0,1,.127.273l.1,4.18a.377.377,0,0,1-.109.272.372.372,0,0,1-.266.112l-6.614-.031.01.321,6.586-.094a.374.374,0,0,1,.375.381l-.033,1.99a.376.376,0,0,1-.375.369L18.56,17.784" fill="#eeb94d"/>
      <path id="패스_3912" data-name="패스 3912" d="M26.012,2.016l3.1.183.133,2.521,2.82.066-.183,2.356L29.4,7.225l-.067,2.637H26.294Zm-1.858.531L24.1,4.3,20.29,4.289l.016.962h3.865l-.083,1.476L20.323,6.71V7.739l4.063.066V9.6L17.039,9.53l-.233-2.8L16.79,2.564l7.364-.017m.017,2.7h.005m-5.23,5.025,10.383.149.1,4.181-7-.034.034,1.079,6.949-.1-.033,1.99-10.814-.133-.133-4.428,7.8.033v-.862l-7.282-.034V10.276m10.466,5.275h0M26.012,1.266a.752.752,0,0,0-.75.777l.272,7.578-.4-.006V7.8a.75.75,0,0,0-.417-.673.751.751,0,0,0,.118-.364l.079-1.414a.7.7,0,0,0,.007-.1.749.749,0,0,0-.2-.516.738.738,0,0,0,.135-.409l.05-1.758a.751.751,0,0,0-.75-.771h0l-7.364.017a.749.749,0,0,0-.748.753l.016,4.163c0,.019,0,.039,0,.059l.232,2.8a.751.751,0,0,0,.741.688l1.164.01v1.827a.8.8,0,0,0,.014.147.739.739,0,0,0-.315.193.749.749,0,0,0-.213.546l.133,4.428a.75.75,0,0,0,.74.727l10.815.133h.009a.75.75,0,0,0,.75-.737l.032-1.929a.612.612,0,0,0,0-.074.752.752,0,0,0-.16-.465.752.752,0,0,0,.174-.5l-.1-4.18a.74.74,0,0,0-.054-.264.744.744,0,0,0,.054-.263l.049-1.93,1.781-.06a.748.748,0,0,0,.722-.691l.183-2.356a.748.748,0,0,0-.73-.807l-2.125-.051-.1-1.827a.75.75,0,0,0-.7-.709l-3.1-.183h-.044M24.154,3.3h0Z" fill="#fff"/>
      <path id="패스_3913" data-name="패스 3913" d="M42.544,17.9a.375.375,0,0,1-.375-.366l-.232-9.819.116-5.722a.377.377,0,0,1,.375-.368l3.107.184a.374.374,0,0,1,.353.373L45.9,9.447l-.067,8.081a.375.375,0,0,1-.375.372Zm-9.775-2.587a.375.375,0,0,1-.369-.362l-.249-7.016a.379.379,0,0,1,.1-.273.375.375,0,0,1,.27-.115h4.6l.012-2.068-4.084.015a.376.376,0,0,1-.375-.375V3.112a.374.374,0,0,1,.375-.375l7.053.083a.375.375,0,0,1,.371.379l-.066,6.518a.374.374,0,0,1-.375.371h-3.2l.025,2.465,3.361-.03a.376.376,0,0,1,.375.378l-.016,2.156a.376.376,0,0,1-.375.372l-7.437-.116" fill="#eeb94d"/>
      <path id="패스_3914" data-name="패스 3914" d="M42.428,2l3.085.182.017,7.265-.067,8.078H42.544l-.232-9.819ZM33.057,3.111l7.049.083L40.04,9.713H36.457l.033,3.217,3.732-.033-.017,2.156-7.43-.116-.249-7.016H37.5L37.518,5.1l-4.461.016V3.111M40.222,12.9h.005m2.2-11.647a.75.75,0,0,0-.75.734L41.562,7.69l.232,9.852a.751.751,0,0,0,.75.733h2.919a.75.75,0,0,0,.75-.744l.067-8.078-.017-7.272a.749.749,0,0,0-.706-.747l-3.085-.183h-.044M33.057,2.361a.751.751,0,0,0-.75.75V5.118a.751.751,0,0,0,.75.75h0l3.7-.014-.008,1.317h-4.23a.75.75,0,0,0-.749.777l.248,7.016a.75.75,0,0,0,.738.723l7.431.116h.011a.748.748,0,0,0,.75-.744l.017-2.1c0-.022,0-.044,0-.067a.749.749,0,0,0-.748-.75h-.013l-2.982.027-.017-1.711H40.04a.751.751,0,0,0,.75-.743L40.856,3.2a.751.751,0,0,0-.741-.758l-7.049-.083Z" fill="#fff"/>
      <path id="패스_3915" data-name="패스 3915" d="M56.472,17.883a.374.374,0,0,1-.375-.368L55.831,2.023a.371.371,0,0,1,.116-.277.375.375,0,0,1,.259-.1l3.124.183a.375.375,0,0,1,.352.351L59.96,6.61l2.227.058a.369.369,0,0,1,.268.123.376.376,0,0,1,.1.279l-.183,2.5a.375.375,0,0,1-.361.348l-2.046.07L59.9,17.511a.375.375,0,0,1-.375.372ZM50.813,14.6c-2.7-.085-4.519-2.409-4.519-5.782C46.294,5.556,48.287,3,50.832,3c2.9.056,4.406,3.035,4.406,5.948,0,3.329-1.729,5.655-4.2,5.655-.073,0-.146,0-.22-.006m.119-8.16c-.569,0-1.068.825-1.068,1.765,0,.766.183,1.688,1.053,1.732h.007a.776.776,0,0,0,.754-.395A2.507,2.507,0,0,0,51.933,8.3c0-.9-.351-1.864-1-1.864" fill="#eeb94d"/>
      <path id="패스_3916" data-name="패스 3916" d="M56.206,2.017l3.1.182.3,4.777,2.57.066-.182,2.505-2.4.083-.066,7.878H56.471Zm-5.374,1.36c2.554.05,4.03,2.687,4.03,5.573,0,2.923-1.4,5.279-3.829,5.279-.067,0-.133,0-.2-.005-2.637-.083-4.163-2.4-4.163-5.407,0-2.869,1.692-5.44,4.163-5.44m.146,6.935c.953,0,1.33-.879,1.33-2.009,0-1.111-.464-2.239-1.376-2.239-.83,0-1.443,1.045-1.443,2.14,0,1.16.414,2.056,1.41,2.106l.079,0m5.228-9.045a.749.749,0,0,0-.75.763l.1,5.9c-.339-3.08-2.216-5.254-4.71-5.3h-.015c-2.755,0-4.913,2.719-4.913,6.19,0,3.59,1.965,6.065,4.89,6.157.065,0,.144.005.224.005,2.513,0,4.321-2.155,4.554-5.323l.134,7.865a.75.75,0,0,0,.75.737h3.053a.751.751,0,0,0,.75-.743l.06-7.16,1.687-.059a.749.749,0,0,0,.722-.695l.182-2.5a.749.749,0,0,0-.728-.8l-1.885-.049-.256-4.092a.75.75,0,0,0-.7-.7l-3.1-.182h-.044m-5.228,8.3h-.043c-.575-.029-.7-.754-.7-1.357,0-.793.42-1.39.693-1.39.334,0,.626.7.626,1.489,0,.574-.1,1.259-.58,1.259" fill="#fff"/>
    </g>
  </g>
</svg>
