<svg xmlns="http://www.w3.org/2000/svg" xmlns:xlink="http://www.w3.org/1999/xlink" width="32.894" height="20.542" viewBox="0 0 32.894 20.542">
  <defs>
    <clipPath id="clip-path">
      <rect id="사각형_2086" data-name="사각형 2086" width="32.894" height="20.542" transform="translate(0 0)" fill="none"/>
    </clipPath>
  </defs>
  <g id="그룹_1321" data-name="그룹 1321" transform="translate(0 0)">
    <g id="그룹_1320" data-name="그룹 1320" clip-path="url(#clip-path)">
      <path id="패스_3881" data-name="패스 3881" d="M5.244,19.409a1,1,0,0,1-.988-.974L4.14,14.007a1,1,0,0,1,.285-.726.991.991,0,0,1,.212-.165V11.265A4.384,4.384,0,0,1,2,7.064a4.926,4.926,0,0,1,5.163-4.9,4.793,4.793,0,0,1,4.958,3.951l-.02-.578.083-2.572a1,1,0,0,1,1-.967c.019,0,3.144.185,3.144.185a1,1,0,0,1,.941.994l.017,4.943-.067,2.765a1.022,1.022,0,0,1-.058.314,1.023,1.023,0,0,1,.024.2l.1,4.18a1,1,0,0,1-.127.512,1,1,0,0,1,.111.474l-.033,1.99a1,1,0,0,1-1,.984L5.244,19.409m7.022-9.039-.089-2.617a4.5,4.5,0,0,1-1.159,2.6ZM7.224,6.256c-.1,0-.371.037-.371.277,0,.267.092.355.379.36h.03c.19,0,.282-.028.331-.075a.29.29,0,0,0,.063-.2c0-.177-.134-.356-.432-.36" fill="#eeb94d"/>
      <path id="패스_3882" data-name="패스 3882" d="M13.184,3l3.085.183.017,4.942-.067,2.737H13.284L13.1,5.505Zm-6.02.166A3.813,3.813,0,0,1,11.21,7.147a3.562,3.562,0,0,1-3.874,3.685l-.189,0C4.493,10.7,3,9.27,3,7.064a3.941,3.941,0,0,1,4.164-3.9M7.321,7.9a1.246,1.246,0,0,0,1.335-1.28,1.376,1.376,0,0,0-1.443-1.36,1.319,1.319,0,1,0,0,2.637l.108,0M5.637,11.277l10.549.149.1,4.18-7-.033.032,1.078,6.95-.1-.033,1.991-10.98-.133L5.14,13.98l7.945.034v-.863l-7.448-.033V11.277m10.632,5.274h.005M13.184,1a2,2,0,0,0-1.96,1.6A6.29,6.29,0,0,0,7.2,1.167H7.164A5.971,5.971,0,0,0,1,7.064a5.369,5.369,0,0,0,2.637,4.805v.791a2,2,0,0,0-.5,1.373l.117,4.428a2,2,0,0,0,1.975,1.947l10.98.133h.024a2,2,0,0,0,2-1.967l.031-1.889c0-.045,0-.09,0-.135a2.044,2.044,0,0,0-.05-.445,1.967,1.967,0,0,0,.063-.548l-.1-4.18a1.146,1.146,0,0,0-.006-.117,2.006,2.006,0,0,0,.04-.35l.066-2.737c0-.018,0-.037,0-.055l-.017-4.943a2,2,0,0,0-1.882-1.99L13.3,1c-.039,0-.079,0-.118,0"/>
      <path id="패스_3883" data-name="패스 3883" d="M18.751,19.525a1,1,0,0,1-1-.973l-.05-1.824V14.463l-.178,0a1,1,0,0,1-1-1V11.144a1,1,0,0,1,.983-1l.536-.009a1.019,1.019,0,0,1-.076-.355l-.182-6.253a1,1,0,0,1,1-1.029l4.6.016a1,1,0,0,1,1,.988l.005.395,1.044,0,.02-.435a1,1,0,0,1,1-.953H29.1a1,1,0,0,1,1,1.008l-.05,6.253a1,1,0,0,1-.107.444l.891.008a1,1,0,0,1,.991.966l.066,1.974a1,1,0,0,1-.979,1.034l-7.1.14V15.35l5.717-.014a1,1,0,0,1,1,1.015L30.5,18.557a1,1,0,0,1-1,.985l-10.749-.017" fill="#eeb94d"/>
      <path id="패스_3884" data-name="패스 3884" d="M18.785,3.5l4.595.017L23.4,4.892l2.986.016.066-1.393H29.1l-.05,6.253H25.42l.016,1.41,5.391.049.066,1.974-13.368.266V11.144l5.058-.083-.016-1.293-3.6-.017Zm7.53,4.1V6.467L23.43,6.451l.049,1.111,2.836.033M29.1,3.515h.005m-6.291,10.6v2.239l6.717-.016L29.5,18.542l-10.748-.017L18.7,16.7V14.146l4.114-.033m6.717,2.223h0M18.785,1.5a2,2,0,0,0-2,2.058l.166,5.672a2,2,0,0,0-1.427,1.916v2.323A2,2,0,0,0,16.7,15.29v1.466l.05,1.824a2,2,0,0,0,2,1.945l10.748.017h0a2,2,0,0,0,2-1.97l.031-2.105c0-.043,0-.087,0-.131a2,2,0,0,0-.365-1.154,2,2,0,0,0,1.722-2.048l-.066-1.974a2,2,0,0,0-1.77-1.92L31.1,3.631c0-.038,0-.077,0-.116a2,2,0,0,0-2-2H26.448a2,2,0,0,0-1.534.716,2,2,0,0,0-1.527-.716L18.792,1.5Z"/>
      <path id="패스_3885" data-name="패스 3885" d="M4.244,18.409a1,1,0,0,1-.988-.974L3.14,13.007a1,1,0,0,1,.285-.726.991.991,0,0,1,.212-.165V10.265A4.384,4.384,0,0,1,1,6.064a4.926,4.926,0,0,1,5.163-4.9,4.793,4.793,0,0,1,4.958,3.951l-.02-.578.083-2.572a1,1,0,0,1,1-.967c.019,0,3.144.185,3.144.185a1,1,0,0,1,.941.994l.017,4.943-.067,2.765a1.022,1.022,0,0,1-.058.314,1.023,1.023,0,0,1,.024.2l.1,4.18a1,1,0,0,1-.127.512,1,1,0,0,1,.111.474l-.033,1.99a1,1,0,0,1-1,.984L4.244,18.409M11.266,9.37l-.089-2.617a4.5,4.5,0,0,1-1.159,2.6ZM6.224,5.256c-.1,0-.371.037-.371.277,0,.267.092.355.379.36h.03c.19,0,.282-.028.331-.075a.29.29,0,0,0,.063-.2c0-.177-.134-.356-.432-.36" fill="#eeb94d"/>
      <path id="패스_3886" data-name="패스 3886" d="M12.184,2l3.085.183.017,4.942-.067,2.737H12.284L12.1,4.505Zm-6.02.166A3.813,3.813,0,0,1,10.21,6.147,3.562,3.562,0,0,1,6.336,9.832l-.189,0C3.493,9.7,2,8.27,2,6.064a3.941,3.941,0,0,1,4.164-3.9M6.321,6.9a1.246,1.246,0,0,0,1.335-1.28,1.376,1.376,0,0,0-1.443-1.36,1.319,1.319,0,1,0,0,2.637l.108,0M4.637,10.277l10.549.149.1,4.18-7-.033.032,1.078,6.95-.1-.033,1.991-10.98-.133L4.14,12.98l7.945.034v-.863l-7.448-.033V10.277m10.632,5.274h.005M12.184,0a2,2,0,0,0-1.96,1.6A6.29,6.29,0,0,0,6.2.167H6.164A5.971,5.971,0,0,0,0,6.064a5.369,5.369,0,0,0,2.637,4.805v.791a2,2,0,0,0-.5,1.373l.117,4.428a2,2,0,0,0,1.975,1.947l10.98.133h.024a2,2,0,0,0,2-1.967l.031-1.889c0-.045,0-.09,0-.135a2.044,2.044,0,0,0-.05-.445,1.967,1.967,0,0,0,.063-.548l-.1-4.18a1.146,1.146,0,0,0-.006-.117,2.006,2.006,0,0,0,.04-.35l.066-2.737c0-.018,0-.037,0-.055l-.017-4.943A2,2,0,0,0,15.387.186L12.3,0c-.039,0-.079,0-.118,0" fill="#e69c2e"/>
      <path id="패스_3887" data-name="패스 3887" d="M17.751,18.525a1,1,0,0,1-1-.973l-.05-1.824V13.463l-.178,0a1,1,0,0,1-1-1V10.144a1,1,0,0,1,.983-1l.536-.009a1.019,1.019,0,0,1-.076-.355l-.182-6.253a1,1,0,0,1,1-1.029l4.6.016a1,1,0,0,1,1,.988l.005.395,1.044,0,.02-.435a1,1,0,0,1,1-.953H28.1a1,1,0,0,1,1,1.008l-.05,6.253a1,1,0,0,1-.107.444l.891.008a1,1,0,0,1,.991.966l.066,1.974a1,1,0,0,1-.979,1.034l-7.1.14V14.35l5.717-.014a1,1,0,0,1,1,1.015L29.5,17.557a1,1,0,0,1-1,.985l-10.749-.017" fill="#eeb94d"/>
      <path id="패스_3888" data-name="패스 3888" d="M17.785,2.5l4.595.017L22.4,3.892l2.986.016.066-1.393H28.1l-.05,6.253H24.42l.016,1.41,5.391.049.066,1.974-13.368.266V10.144l5.058-.083-.016-1.293-3.6-.017Zm7.53,4.1V5.467L22.43,5.451l.049,1.111,2.836.033M28.1,2.515h.005m-6.291,10.6v2.239l6.717-.016L28.5,17.542l-10.748-.017L17.7,15.7V13.146l4.114-.033m6.717,2.223h0M17.785.5a2,2,0,0,0-2,2.058l.166,5.672a2,2,0,0,0-1.427,1.916v2.323A2,2,0,0,0,15.7,14.29v1.466l.05,1.824a2,2,0,0,0,2,1.945l10.748.017h0a2,2,0,0,0,2-1.97l.031-2.105c0-.043,0-.087,0-.131a2,2,0,0,0-.365-1.154,2,2,0,0,0,1.722-2.048l-.066-1.974a2,2,0,0,0-1.77-1.92L30.1,2.631c0-.038,0-.077,0-.116a2,2,0,0,0-2-2H25.448a2,2,0,0,0-1.534.716A2,2,0,0,0,22.387.515L17.792.5Z" fill="#e69c2e"/>
      <path id="패스_3889" data-name="패스 3889" d="M4.252,17.784a.376.376,0,0,1-.371-.365L3.765,12.99a.374.374,0,0,1,.375-.384l7.57.031v-.112l-7.074-.032a.376.376,0,0,1-.374-.375V10.277a.371.371,0,0,1,.112-.267A.387.387,0,0,1,4.5,9.929,3.815,3.815,0,0,1,1.625,6.064,4.315,4.315,0,0,1,6.164,1.791a4.21,4.21,0,0,1,4.422,4.356,3.814,3.814,0,0,1-2.611,3.8l3.962.056a.4.4,0,0,1-.028-.13l-.183-5.357.083-2.53a.378.378,0,0,1,.123-.265.374.374,0,0,1,.252-.1l3.107.183a.375.375,0,0,1,.353.373l.017,4.943-.067,2.748a.373.373,0,0,1-.145.287.372.372,0,0,1,.112.258l.1,4.18a.376.376,0,0,1-.375.384L8.674,14.95l.009.321,6.586-.1a.376.376,0,0,1,.375.382l-.033,1.99a.375.375,0,0,1-.375.369L4.252,17.784M6.217,4.631a.945.945,0,1,0,0,1.887l.1.378V6.521a.992.992,0,0,0,.708-.254.882.882,0,0,0,.252-.651,1.006,1.006,0,0,0-1.064-.985" fill="#eeb94d"/>
      <path id="패스_3890" data-name="패스 3890" d="M12.184,2l3.085.182.017,4.943-.067,2.737H12.284L12.1,4.505Zm-6.02.166a3.813,3.813,0,0,1,4.047,3.981A3.563,3.563,0,0,1,6.336,9.832l-.189,0C3.493,9.7,2,8.27,2,6.064a3.94,3.94,0,0,1,4.164-3.9M6.321,6.9a1.248,1.248,0,0,0,1.336-1.28,1.377,1.377,0,0,0-1.444-1.36,1.319,1.319,0,1,0,0,2.637l.108,0M4.637,10.277l10.549.149.1,4.18-7-.033.033,1.078,6.949-.1-.033,1.99-10.98-.133L4.14,12.98l7.945.033v-.862l-7.448-.034v-1.84m10.632,5.274h.005m-3.09-14.3a.75.75,0,0,0-.749.725l-.083,2.5a.417.417,0,0,0,0,.05l.173,5.094-2.107-.03a4.276,4.276,0,0,0,1.543-3.447A4.564,4.564,0,0,0,6.179,1.416H6.164A4.682,4.682,0,0,0,1.25,6.064a4.168,4.168,0,0,0,2.657,4.045.715.715,0,0,0-.02.168v1.84a.761.761,0,0,0,.016.152A.751.751,0,0,0,3.39,13l.116,4.428a.75.75,0,0,0,.741.73l10.98.133h.009a.75.75,0,0,0,.75-.737l.032-1.929a.6.6,0,0,0,0-.074.752.752,0,0,0-.16-.465.75.75,0,0,0,.174-.5l-.1-4.18a.745.745,0,0,0-.039-.223.743.743,0,0,0,.072-.305l.067-2.736L16.019,2.18a.749.749,0,0,0-.7-.746l-3.085-.183h-.045m-5.863,4.9-.065,0c-.448-.009-.653-.209-.653-.611,0-.379.338-.521.626-.528a.629.629,0,0,1,.678.611.512.512,0,0,1-.586.53" fill="#fff"/>
      <path id="패스_3891" data-name="패스 3891" d="M17.752,17.9a.376.376,0,0,1-.375-.365l-.05-1.824V13.146a.375.375,0,0,1,.187-.325l-.99.02a.376.376,0,0,1-.375-.375V10.144a.375.375,0,0,1,.369-.375L21.2,9.692,21.2,9.141l-3.231-.015a.375.375,0,0,1-.373-.365L17.41,2.508a.371.371,0,0,1,.106-.272.375.375,0,0,1,.269-.114l4.6.017a.374.374,0,0,1,.373.37l.013,1.009,2.257.012L25.073,2.5a.376.376,0,0,1,.375-.357H28.1a.376.376,0,0,1,.375.378l-.05,6.253a.375.375,0,0,1-.375.372H24.8l.008.663,5.023.047a.375.375,0,0,1,.372.362l.066,1.974a.376.376,0,0,1-.368.387l-8.213.163h.128a.374.374,0,0,1,.375.375v1.864l6.343-.016a.374.374,0,0,1,.266.111.379.379,0,0,1,.109.27l-.033,2.206a.375.375,0,0,1-.375.369ZM24.94,6.215V5.84l-2.119-.013.017.364Z" fill="#eeb94d"/>
      <path id="패스_3892" data-name="패스 3892" d="M17.785,2.5l4.595.017L22.4,3.892l2.986.016.066-1.393H28.1l-.05,6.253H24.42l.016,1.41,5.391.049.066,1.974-13.368.266V10.144l5.058-.083-.016-1.293-3.6-.017Zm7.53,4.1V5.467L22.43,5.451l.049,1.111,2.836.033M28.1,2.515h.005m-6.291,10.6v2.239l6.717-.016L28.5,17.542l-10.748-.017L17.7,15.7V13.146l4.114-.033m6.717,2.223h0M17.785,1.748a.751.751,0,0,0-.75.772l.183,6.253a.748.748,0,0,0,.337.6l-1.043.017a.75.75,0,0,0-.737.75v2.323a.751.751,0,0,0,.75.75h.015l.412-.009V15.7L17,17.546a.749.749,0,0,0,.748.729l10.748.017h0a.75.75,0,0,0,.75-.739l.032-2.144c0-.024,0-.049,0-.073a.748.748,0,0,0-.747-.75h-.007l-5.965.015V13.1l7.342-.146a.75.75,0,0,0,.735-.775L30.577,10.2a.751.751,0,0,0-.743-.725l-1.5-.013a.75.75,0,0,0,.469-.69l.049-6.192c0-.022,0-.045,0-.067a.747.747,0,0,0-.747-.75H25.448a.75.75,0,0,0-.749.714l-.032.675-1.53-.008-.007-.64a.75.75,0,0,0-.748-.741l-4.594-.017Z" fill="#fff"/>
    </g>
  </g>
</svg>
