<svg xmlns="http://www.w3.org/2000/svg" xmlns:xlink="http://www.w3.org/1999/xlink" width="62.441" height="20.542" viewBox="0 0 62.441 20.542">
  <defs>
    <clipPath id="clip-path">
      <rect id="사각형_2083" data-name="사각형 2083" width="62.441" height="20.542" transform="translate(0 0)" fill="none"/>
    </clipPath>
  </defs>
  <g id="그룹_1315" data-name="그룹 1315" transform="translate(0 0)">
    <g id="그룹_1314" data-name="그룹 1314" clip-path="url(#clip-path)">
      <path id="패스_3809" data-name="패스 3809" d="M11.275,19.342a1,1,0,0,1-.993-.886l-.314-2.741-.721-.009-.073,2.663a1,1,0,0,1-1,.973H5.537a1,1,0,0,1-1-.933l-.189-2.823-1.346-.059a1,1,0,0,1-.956-.979L2,12.126a1,1,0,0,1,1-1.02h.695a1.007,1.007,0,0,1-.1-.407L3.426,6.105l.033-2.389a1,1,0,0,1,1-.986l3.67-.017a1,1,0,0,1,1,.99l.039,3.87h5.662a1,1,0,0,1,1,.977l.05,2.173a.994.994,0,0,1-.066.383H16.4a1,1,0,0,1,1,.966l.083,2.455a1,1,0,0,1-.962,1.033l-1.637.062.094,2.433a1,1,0,0,1-.908,1.034l-2.7.249c-.03,0-.062,0-.092,0" fill="#eeb94d"/>
      <path id="패스_3810" data-name="패스 3810" d="M8.125,3.713l.05,4.86h6.651l.05,2.173L4.592,10.663l-.166-4.6L4.459,3.73ZM16.4,12.106l.083,2.455-2.638.1.133,3.433-2.7.249-.414-3.616-2.588-.033-.1,3.649H5.537l-.248-3.715-2.239-.1L3,12.106H16.4M8.125,1.713H8.116L4.45,1.73A2,2,0,0,0,2.459,3.7L2.426,6.04c0,.034,0,.067,0,.1l.145,4.011A2,2,0,0,0,1,12.147l.05,2.421a2,2,0,0,0,1.911,1.958l.452.02.129,1.929a2,2,0,0,0,2,1.867H8.175a2,2,0,0,0,1.55-.737,2,2,0,0,0,1.549.737c.061,0,.123,0,.185-.008l2.7-.249a2,2,0,0,0,1.815-2.069l-.055-1.433.637-.024a2,2,0,0,0,1.924-2.066L18.4,12.038a2,2,0,0,0-1.538-1.879l-.037-1.632a2,2,0,0,0-2-1.954H10.154l-.029-2.881a2,2,0,0,0-2-1.979"/>
      <path id="패스_3811" data-name="패스 3811" d="M19.371,19.409a1,1,0,0,1-.987-.971l-.133-4.428a1,1,0,0,1,.514-.9V11.632a1,1,0,0,1-1.108-.22L16.082,9.8a1,1,0,0,1,.1-1.489L18.134,6.8l-.589-.009a1,1,0,0,1-.986-1V3.63a1,1,0,0,1,1-1H24.84a1,1,0,0,1,1,1.008L25.824,5.86a1,1,0,0,1-.764.965l1.217.778L26.2,5.612l.1-2.651A1,1,0,0,1,27.3,2c.02,0,3.16.184,3.16.184a1,1,0,0,1,.941.995l.017,4.943-.067,2.765a.992.992,0,0,1-.058.313,1.024,1.024,0,0,1,.026.2l.1,4.18a.989.989,0,0,1-.128.512.994.994,0,0,1,.111.474l-.033,1.99a1,1,0,0,1-1,.983l-10.993-.132M26.39,10.37l-.006-.153-.134.151Zm-4.6-.065-.553-.361-.5.346Z" fill="#eeb94d"/>
      <path id="패스_3812" data-name="패스 3812" d="M27.294,3l3.1.183.016,4.942-.066,2.737H27.41l-.215-5.291Zm-2.454.63-.017,2.223-2.007-.017-.017.73,3.5,2.239-1.825,2.057-3.25-2.123-2.853,1.974L16.8,9.1l3.068-2.389.017-.895-2.322-.033V3.63H24.84m-5.076,7.647,10.549.149.1,4.18-7-.033.033,1.078,6.95-.1-.034,1.991-10.979-.133L19.25,13.98l7.961.034v-.863l-7.447-.033V11.277M30.4,16.551h0M27.294,1a2,2,0,0,0-1.344.519,2.038,2.038,0,0,0-.268.3,2.009,2.009,0,0,0-.842-.186H17.558a2,2,0,0,0-2,2V5.787a1.991,1.991,0,0,0,.518,1.342l-.509.4a2,2,0,0,0-.2,2.977l1.576,1.609a1.994,1.994,0,0,0,.822.507v.023a2,2,0,0,0-.513,1.4l.132,4.428a2,2,0,0,0,1.975,1.939l10.98.133h.025a2,2,0,0,0,2-1.967l.032-1.889c0-.045,0-.09,0-.135a2.043,2.043,0,0,0-.049-.445,2.042,2.042,0,0,0,.063-.547l-.1-4.181c0-.039,0-.079-.007-.118a2.005,2.005,0,0,0,.039-.349l.067-2.737V8.119L32.4,3.176a2,2,0,0,0-1.883-1.99L27.412,1l-.118,0"/>
      <path id="패스_3813" data-name="패스 3813" d="M34.384,19.475a1,1,0,0,1-.995-.952l-.132-2.787s0-2.1,0-2.121l-1.329-.028a1,1,0,0,1-.978-.959L30.736,7.47a1,1,0,0,1,.277-.734,1.015,1.015,0,0,1,.3-.213,1,1,0,0,1-.127-.487V4.028a1,1,0,0,1,1-1l5.869.083c.034,0,.067,0,.1.007l0-.071a1,1,0,0,1,1-1.03c.023,0,2.641.185,2.641.185a1,1,0,0,1,.589.245.95.95,0,0,1,.158-.184A1,1,0,0,1,43.212,2c.024,0,2.642.185,2.642.185a1,1,0,0,1,.929.992l.033,6.071-.066,5.243a1,1,0,0,1-.441.816,1,1,0,0,1,.524.858l.05,2.338a1,1,0,0,1-1,1.022l-11.5-.05" fill="#eeb94d"/>
      <path id="패스_3814" data-name="패스 3814" d="M43.212,3l2.571.183.033,6.07-.066,5.225H43.312L43.2,9.519H41.9l-.066,5.357H39.513L39.149,3.017l2.57.182.166,3.749,1.261.016ZM32.182,4.028l5.855.083L37.988,9.22h-2.92l.033,1.36,3.185-.033-.033,2.173-6.3-.133-.215-5.158h4.1l.017-1.41-3.666.017V4.028m6.1,6.519h.005m-.022,3.1V16.17l7.564.017.05,2.338-11.495-.05-.132-2.787V13.682l4.013-.034M43.212,1a1.993,1.993,0,0,0-.991.263,2.019,2.019,0,0,0-.36-.059L39.29,1.022c-.047,0-.094,0-.141,0A2,2,0,0,0,37.37,2.1l-5.159-.073h-.029a2,2,0,0,0-2,2V6.036c0,.042,0,.084,0,.127a2,2,0,0,0-.45,1.349l.216,5.158a2,2,0,0,0,1.956,1.916l.348.008v1.094c0,.032,0,.064,0,.1l.133,2.786a2,2,0,0,0,1.989,1.905l11.494.05h.009a2,2,0,0,0,2-2.043l-.05-2.338a1.985,1.985,0,0,0-.235-.9,2.011,2.011,0,0,0,.153-.742l.066-5.224-.033-6.107a2,2,0,0,0-1.858-1.984L43.354,1c-.048,0-.1,0-.142,0"/>
      <path id="패스_3815" data-name="패스 3815" d="M47.072,18.364a1,1,0,0,1-1-1v-3.3a1,1,0,0,1,.983-1l4.893-.083,8.448.183a1,1,0,0,1,.978.977l.067,2.936a1,1,0,0,1-.98,1.023l-13.389.265m1.455-5.49a1,1,0,0,1-.995-.964l-.149-4.164-.017-3.779a1,1,0,0,1,.99-1.005l10.277-.1a1,1,0,0,1,1,.981l.033,1.808a1,1,0,0,1-.994,1.018l-5.28.028.026,2.1,5.3.07a1,1,0,0,1,.985.959l.083,2.057a1,1,0,0,1-1,1.041l-10.255-.05" fill="#eeb94d"/>
      <path id="패스_3816" data-name="패스 3816" d="M58.633,3.863l.033,1.808L52.38,5.7l.05,4.08,6.269.083.083,2.057-10.25-.05-.15-4.163-.016-3.748ZM51.965,13.981l8.409.182.067,2.936-13.369.265v-3.3l4.893-.083M58.633,1.863h-.02l-10.267.1a2,2,0,0,0-1.98,2.009l.016,3.747c0,.021,0,.042,0,.063l.15,4.164c0,.063.007.125.015.187a2,2,0,0,0-1.476,1.931v3.3a2,2,0,0,0,2,2h.04L60.48,19.1a2,2,0,0,0,1.96-2.044l-.066-2.936A2,2,0,0,0,60.763,12.2a2.031,2.031,0,0,0,.017-.358L60.7,9.786a2,2,0,0,0-1.972-1.919L54.406,7.81l0-.117,4.272-.022a2,2,0,0,0,1.989-2.037l-.033-1.808a2,2,0,0,0-2-1.963"/>
      <path id="패스_3817" data-name="패스 3817" d="M10.275,18.342a1,1,0,0,1-.993-.886l-.314-2.741-.721-.009-.073,2.663a1,1,0,0,1-1,.973H4.537a1,1,0,0,1-1-.933l-.189-2.823-1.346-.059a1,1,0,0,1-.956-.979L1,11.126a1,1,0,0,1,1-1.02h.695a1.007,1.007,0,0,1-.1-.407L2.426,5.105l.033-2.389a1,1,0,0,1,1-.986l3.67-.017a1,1,0,0,1,1,.99l.039,3.87h5.662a1,1,0,0,1,1,.977l.05,2.173a.994.994,0,0,1-.066.383H15.4a1,1,0,0,1,1,.966l.083,2.455a1,1,0,0,1-.962,1.033l-1.637.062.094,2.433a1,1,0,0,1-.908,1.034l-2.7.249c-.03,0-.062,0-.092,0" fill="#eeb94d"/>
      <path id="패스_3818" data-name="패스 3818" d="M7.125,2.713l.05,4.86h6.651l.05,2.173L3.592,9.663l-.166-4.6L3.459,2.73ZM15.4,11.106l.083,2.455-2.638.1.133,3.433-2.7.249-.414-3.616-2.588-.033-.1,3.649H4.537l-.248-3.715-2.239-.1L2,11.106H15.4M7.125.713H7.116L3.45.73A2,2,0,0,0,1.459,2.7L1.426,5.04c0,.034,0,.067,0,.1l.145,4.011A2,2,0,0,0,0,11.147l.05,2.421a2,2,0,0,0,1.911,1.958l.452.02.129,1.929a2,2,0,0,0,2,1.867H7.175a2,2,0,0,0,1.55-.737,2,2,0,0,0,1.549.737c.061,0,.123,0,.185-.008l2.7-.249a2,2,0,0,0,1.815-2.069l-.055-1.433.637-.024a2,2,0,0,0,1.924-2.066L17.4,11.038a2,2,0,0,0-1.538-1.879l-.037-1.632a2,2,0,0,0-2-1.954H9.154L9.125,2.692a2,2,0,0,0-2-1.979" fill="#e69c2e"/>
      <path id="패스_3819" data-name="패스 3819" d="M18.371,18.409a1,1,0,0,1-.987-.971l-.133-4.428a1,1,0,0,1,.514-.9V10.632a1,1,0,0,1-1.108-.22L15.082,8.8a1,1,0,0,1,.1-1.489L17.134,5.8l-.589-.009a1,1,0,0,1-.986-1V2.63a1,1,0,0,1,1-1H23.84a1,1,0,0,1,1,1.008L24.824,4.86a1,1,0,0,1-.764.965l1.217.778L25.2,4.612l.1-2.651A1,1,0,0,1,26.3,1c.02,0,3.16.184,3.16.184a1,1,0,0,1,.941.995l.017,4.943-.067,2.765a.992.992,0,0,1-.058.313,1.024,1.024,0,0,1,.026.2l.1,4.18a.989.989,0,0,1-.128.512.994.994,0,0,1,.111.474l-.033,1.99a1,1,0,0,1-1,.983l-10.993-.132M25.39,9.37l-.006-.153-.134.151Zm-4.6-.065-.553-.361-.5.346Z" fill="#eeb94d"/>
      <path id="패스_3820" data-name="패스 3820" d="M26.294,2l3.1.183.016,4.942-.066,2.737H26.41l-.215-5.291Zm-2.454.63-.017,2.223-2.007-.017-.017.73L25.3,7.8,23.474,9.862l-3.25-2.123L17.371,9.713,15.8,8.1l3.068-2.389.017-.895-2.322-.033V2.63H23.84m-5.076,7.647,10.549.149.1,4.18-7-.033.033,1.078,6.95-.1-.034,1.991-10.979-.133L18.25,12.98l7.961.034v-.863l-7.447-.033V10.277M29.4,15.551h0M26.294,0A2,2,0,0,0,24.95.519a2.038,2.038,0,0,0-.268.3A2.009,2.009,0,0,0,23.84.63H16.558a2,2,0,0,0-2,2V4.787a1.991,1.991,0,0,0,.518,1.342l-.509.4a2,2,0,0,0-.2,2.977l1.576,1.609a1.994,1.994,0,0,0,.822.507v.023a2,2,0,0,0-.513,1.4l.132,4.428a2,2,0,0,0,1.975,1.939l10.98.133h.025a2,2,0,0,0,2-1.967l.032-1.889c0-.045,0-.09,0-.135a2.043,2.043,0,0,0-.049-.445,2.042,2.042,0,0,0,.063-.547l-.1-4.181c0-.039,0-.079-.007-.118a2,2,0,0,0,.039-.349l.067-2.737V7.119L31.4,2.176A2,2,0,0,0,29.513.186L26.412,0l-.118,0" fill="#e69c2e"/>
      <path id="패스_3821" data-name="패스 3821" d="M33.384,18.475a1,1,0,0,1-.995-.952l-.132-2.787s0-2.1,0-2.121l-1.329-.028a1,1,0,0,1-.978-.959L29.736,6.47a1,1,0,0,1,.277-.734,1.015,1.015,0,0,1,.3-.213,1,1,0,0,1-.127-.487V3.028a1,1,0,0,1,1-1l5.869.083c.034,0,.067,0,.1.007l0-.071a1,1,0,0,1,1-1.03c.023,0,2.641.185,2.641.185a1,1,0,0,1,.589.245.95.95,0,0,1,.158-.184A1,1,0,0,1,42.212,1c.024,0,2.642.185,2.642.185a1,1,0,0,1,.929.992l.033,6.071-.066,5.243a1,1,0,0,1-.441.816,1,1,0,0,1,.524.858l.05,2.338a1,1,0,0,1-1,1.022l-11.5-.05" fill="#eeb94d"/>
      <path id="패스_3822" data-name="패스 3822" d="M42.212,2l2.571.183.033,6.07-.066,5.225H42.312L42.2,8.519H40.9l-.066,5.357H38.513L38.149,2.017l2.57.182.166,3.749,1.261.016ZM31.182,3.028l5.855.083L36.988,8.22h-2.92L34.1,9.58l3.185-.033-.033,2.173-6.3-.133-.215-5.158h4.1l.017-1.41-3.666.017V3.028m6.1,6.519h.005m-.022,3.1V15.17l7.564.017.05,2.338-11.495-.05-.132-2.787V12.682l4.013-.034M42.212,0a1.993,1.993,0,0,0-.991.263A2.019,2.019,0,0,0,40.861.2L38.29.022c-.047,0-.094,0-.141,0A2,2,0,0,0,36.37,1.1l-5.159-.073h-.029a2,2,0,0,0-2,2V5.036c0,.042,0,.084,0,.127a2,2,0,0,0-.45,1.349l.216,5.158a2,2,0,0,0,1.956,1.916l.348.008v1.094c0,.032,0,.064,0,.1l.133,2.786a2,2,0,0,0,1.989,1.905l11.494.05h.009a2,2,0,0,0,2-2.043l-.05-2.338a1.985,1.985,0,0,0-.235-.9,2.011,2.011,0,0,0,.153-.742l.066-5.224-.033-6.107A2,2,0,0,0,44.925.188L42.354,0c-.048,0-.1,0-.142,0" fill="#e69c2e"/>
      <path id="패스_3823" data-name="패스 3823" d="M46.072,17.364a1,1,0,0,1-1-1v-3.3a1,1,0,0,1,.983-1l4.893-.083,8.448.183a1,1,0,0,1,.978.977l.067,2.936a1,1,0,0,1-.98,1.023l-13.389.265m1.455-5.49a1,1,0,0,1-.995-.964l-.149-4.164-.017-3.779a1,1,0,0,1,.99-1l10.277-.1a1,1,0,0,1,1,.981l.033,1.808a1,1,0,0,1-.994,1.018l-5.28.028.026,2.1,5.3.07a1,1,0,0,1,.985.959l.083,2.057a1,1,0,0,1-1,1.041l-10.255-.05" fill="#eeb94d"/>
      <path id="패스_3824" data-name="패스 3824" d="M57.633,2.863l.033,1.808L51.38,4.7l.05,4.08,6.269.083.083,2.057-10.25-.05-.15-4.163-.016-3.748ZM50.965,12.981l8.409.182.067,2.936-13.369.265v-3.3l4.893-.083M57.633.863h-.02l-10.267.1a2,2,0,0,0-1.98,2.009l.016,3.747c0,.021,0,.042,0,.063l.15,4.164c0,.063.007.125.015.187a2,2,0,0,0-1.476,1.931v3.3a2,2,0,0,0,2,2h.04L59.48,18.1a2,2,0,0,0,1.96-2.044l-.066-2.936A2,2,0,0,0,59.763,11.2a2.031,2.031,0,0,0,.017-.358L59.7,8.786a2,2,0,0,0-1.972-1.919L53.406,6.81l0-.117,4.272-.022a2,2,0,0,0,1.989-2.037l-.033-1.808a2,2,0,0,0-2-1.963" fill="#e69c2e"/>
      <path id="패스_3825" data-name="패스 3825" d="M10.276,17.717a.375.375,0,0,1-.373-.332L9.526,14.1l-1.887-.024-.09,3.279a.374.374,0,0,1-.375.365H4.537a.375.375,0,0,1-.374-.35l-.226-3.38-1.9-.085a.376.376,0,0,1-.359-.366l-.049-2.422A.376.376,0,0,1,2,10.731H15.4a.375.375,0,0,1,.375.362l.083,2.455a.375.375,0,0,1-.361.387l-2.263.086.118,3.058a.374.374,0,0,1-.34.388s-2.727.25-2.738.25M3.589,10.038a.374.374,0,0,1-.372-.361l-.166-4.6.033-2.357a.375.375,0,0,1,.374-.37l3.667-.017a.376.376,0,0,1,.375.371L7.546,7.2h6.28a.376.376,0,0,1,.375.366l.05,2.173a.376.376,0,0,1-.375.384L3.589,10.038" fill="#eeb94d"/>
      <path id="패스_3826" data-name="패스 3826" d="M7.125,2.713l.05,4.86h6.651l.05,2.173L3.592,9.663l-.166-4.6L3.459,2.73ZM15.4,11.106l.083,2.455-2.637.1.132,3.433-2.7.249-.414-3.616-2.588-.033-.1,3.649H4.538l-.249-3.715-2.239-.1L2,11.106H15.4M7.125,1.963h0L3.456,1.98a.749.749,0,0,0-.747.739L2.676,5.058,2.843,9.69a.752.752,0,0,0,.462.666H2a.75.75,0,0,0-.75.765l.05,2.422a.751.751,0,0,0,.717.734l1.568.069.2,3.046a.751.751,0,0,0,.749.7H7.175a.75.75,0,0,0,.749-.73L8,14.453l1.188.015.339,2.959a.751.751,0,0,0,.744.665c.023,0,.047,0,.07,0l2.7-.249a.748.748,0,0,0,.68-.775l-.1-2.684,1.887-.071a.749.749,0,0,0,.721-.775l-.083-2.455a.749.749,0,0,0-.749-.724h-1.09a.713.713,0,0,0,.1-.084.748.748,0,0,0,.216-.543l-.05-2.173a.749.749,0,0,0-.75-.733H7.917L7.875,2.7a.75.75,0,0,0-.75-.742" fill="#fff"/>
      <path id="패스_3827" data-name="패스 3827" d="M18.378,17.784a.376.376,0,0,1-.371-.364l-.132-4.428a.375.375,0,0,1,.106-.273.378.378,0,0,1,.269-.113l7.586.032v-.113l-7.074-.032a.375.375,0,0,1-.373-.375V10.277a.376.376,0,0,1,.375-.375l4.175.059L20.23,8.191l-2.646,1.831a.377.377,0,0,1-.213.066.371.371,0,0,1-.268-.113L15.527,8.367a.376.376,0,0,1,.038-.559L18.492,5.53l.006-.34-1.945-.028a.375.375,0,0,1-.37-.375V2.631a.375.375,0,0,1,.375-.375h7.281a.374.374,0,0,1,.375.378L24.2,4.856a.376.376,0,0,1-.375.372l-1.64-.013,0,.15L25.5,7.49a.376.376,0,0,1,.079.565l-1.7,1.919,2.186.031a.356.356,0,0,1-.027-.127L25.82,4.587l.1-2.6a.371.371,0,0,1,.122-.264.378.378,0,0,1,.252-.1l3.124.183a.377.377,0,0,1,.353.373l.016,4.943-.066,2.748a.375.375,0,0,1-.145.287.372.372,0,0,1,.112.258l.1,4.18a.374.374,0,0,1-.375.384L22.8,14.95l.01.321,6.587-.094a.372.372,0,0,1,.265.11.38.38,0,0,1,.11.271l-.034,1.99a.375.375,0,0,1-.375.369l-10.984-.133" fill="#eeb94d"/>
      <path id="패스_3828" data-name="패스 3828" d="M26.3,2l3.1.183.017,4.943-.066,2.737H26.411l-.216-5.291Zm-2.455.631-.016,2.222-2.007-.016-.017.73,3.5,2.239L23.475,9.863,20.225,7.74,17.372,9.713,15.8,8.1l3.068-2.388.017-.9-2.322-.033V2.631H23.84m-5.075,7.646,10.549.149.1,4.18-7-.033.034,1.078,6.949-.1-.033,1.99-10.98-.133-.133-4.428,7.962.033v-.863l-7.447-.033V10.277M29.4,15.552h0M26.3,1.25a.752.752,0,0,0-.75.721l-.1,2.572a.581.581,0,0,0,0,.059l.1,2.471L23.242,5.6l.575,0h.007a.749.749,0,0,0,.75-.744l.016-2.223a.749.749,0,0,0-.75-.755H16.559a.75.75,0,0,0-.75.75V4.787a.75.75,0,0,0,.739.75l1.3.019L15.335,7.513a.75.75,0,0,0-.075,1.116l1.576,1.609a.75.75,0,0,0,.962.092l.224-.154a.677.677,0,0,0-.007.1v1.841a.7.7,0,0,0,.014.146.762.762,0,0,0-.316.193A.751.751,0,0,0,17.5,13l.133,4.429a.75.75,0,0,0,.74.727l10.98.133h.009a.75.75,0,0,0,.75-.738l.032-1.928a.612.612,0,0,0,0-.074.752.752,0,0,0-.16-.465.752.752,0,0,0,.174-.5l-.1-4.181a.746.746,0,0,0-.04-.223.738.738,0,0,0,.072-.3l.067-2.737-.017-4.963a.75.75,0,0,0-.706-.747l-3.1-.182-.044,0M23.84,3.381h0Zm.861,6.23.907-1.023.043,1.036ZM18.955,9.53l1.281-.887,1.416.925Z" fill="#fff"/>
      <path id="패스_3829" data-name="패스 3829" d="M33.387,17.85a.375.375,0,0,1-.373-.357l-.133-2.786V12.682a.375.375,0,0,1,.373-.375l4.016-.033a.374.374,0,0,1,.375.375V14.8l7.19.016a.375.375,0,0,1,.374.367l.049,2.338a.375.375,0,0,1-.107.271.379.379,0,0,1-.268.112l-11.495-.05m5.126-3.6a.376.376,0,0,1-.375-.363l-.364-11.86a.374.374,0,0,1,.375-.386l2.6.183a.375.375,0,0,1,.348.358l.15,3.395.533.007.06-3.591a.377.377,0,0,1,.375-.369l2.6.184a.374.374,0,0,1,.349.372l.033,6.071-.066,5.231a.375.375,0,0,1-.375.37H42.312a.375.375,0,0,1-.375-.366l-.108-4.593h-.556l-.062,4.987a.375.375,0,0,1-.375.37Zm-7.571-2.289a.376.376,0,0,1-.367-.359L30.36,6.444a.374.374,0,0,1,.374-.39h3.727l.007-.658-3.286.015a.377.377,0,0,1-.375-.375V3.028a.376.376,0,0,1,.375-.375l5.861.083a.375.375,0,0,1,.369.379l-.05,5.109a.374.374,0,0,1-.375.371H34.452l.015.606,2.819-.029a.376.376,0,0,1,.375.381l-.033,2.173a.375.375,0,0,1-.375.369l-6.311-.133" fill="#eeb94d"/>
      <path id="패스_3830" data-name="패스 3830" d="M42.212,2l2.571.182.033,6.071-.066,5.225H42.312L42.2,8.518H40.9l-.066,5.358H38.514l-.365-11.86L40.72,2.2l.166,3.749,1.26.016ZM31.182,3.028l5.855.083L36.988,8.22h-2.92L34.1,9.58l3.185-.033-.033,2.172-6.3-.132-.215-5.159h4.1l.017-1.409-3.666.016V3.028m6.1,6.519h.005m-.022,3.1V15.17l7.564.016.05,2.339-11.494-.05-.133-2.787V12.681l4.013-.033m4.943-11.4a.751.751,0,0,0-.75.737v.1a.75.75,0,0,0-.688-.633L38.2,1.268l-.053,0a.75.75,0,0,0-.75.773l.013.422a.746.746,0,0,0-.364-.1l-5.855-.083h-.011a.751.751,0,0,0-.75.75V5.035a.752.752,0,0,0,.221.532.8.8,0,0,0,.143.111h-.061a.75.75,0,0,0-.75.782l.216,5.158a.749.749,0,0,0,.733.718l1.639.035a.75.75,0,0,0-.067.31v2.007l.133,2.823a.751.751,0,0,0,.746.714l11.494.05h0a.751.751,0,0,0,.75-.766l-.05-2.339a.751.751,0,0,0-.748-.734l-3.492-.007a.753.753,0,0,0,.243-.544l0-.209a.751.751,0,0,0,.724.552H44.75a.75.75,0,0,0,.75-.741l.066-5.224-.033-6.085a.75.75,0,0,0-.7-.744l-2.571-.182a.461.461,0,0,0-.053,0M37.447,8.813A.727.727,0,0,0,37.6,8.65l.007.217a.734.734,0,0,0-.162-.054" fill="#fff"/>
      <path id="패스_3831" data-name="패스 3831" d="M46.072,16.739a.377.377,0,0,1-.375-.375v-3.3a.377.377,0,0,1,.369-.375l4.893-.083,8.424.183a.376.376,0,0,1,.367.366l.066,2.936a.376.376,0,0,1-.368.384l-13.376.265m1.458-5.49a.375.375,0,0,1-.373-.361l-.149-4.164-.017-3.76a.376.376,0,0,1,.372-.377l10.27-.1a.375.375,0,0,1,.375.368l.033,1.808a.374.374,0,0,1-.373.381l-5.909.032L51.8,8.414l5.9.078a.374.374,0,0,1,.37.36l.083,2.057a.376.376,0,0,1-.375.39l-10.252-.05" fill="#eeb94d"/>
      <path id="패스_3832" data-name="패스 3832" d="M57.633,2.863l.033,1.808L51.38,4.7l.049,4.081,6.27.082.083,2.057-10.25-.049-.15-4.164-.016-3.748ZM50.965,12.981l8.409.182.067,2.936-13.369.265v-3.3l4.893-.083M57.633,2.113h-.008l-10.267.1a.75.75,0,0,0-.742.753l.016,3.748.15,4.187a.75.75,0,0,0,.746.724l10.25.049h0a.749.749,0,0,0,.749-.78l-.083-2.057a.751.751,0,0,0-.739-.72L52.17,8.044,52.139,5.45l5.531-.029a.751.751,0,0,0,.746-.764L58.382,2.85a.749.749,0,0,0-.749-.737M50.965,12.231h-.013l-4.893.083a.75.75,0,0,0-.737.75v3.3a.749.749,0,0,0,.75.75h.015l13.369-.265a.75.75,0,0,0,.734-.767l-.066-2.936a.75.75,0,0,0-.733-.733l-8.41-.182h-.016" fill="#fff"/>
    </g>
  </g>
</svg>
