<svg id="구성_요소_18_1" data-name="구성 요소 18 – 1" xmlns="http://www.w3.org/2000/svg" xmlns:xlink="http://www.w3.org/1999/xlink" width="53" height="53" viewBox="0 0 53 53">
  <defs>
    <clipPath id="clip-path">
      <rect id="사각형_988" data-name="사각형 988" width="43" height="42" transform="translate(0 -0.194)" fill="none"/>
    </clipPath>
  </defs>
  <g id="그룹_30" data-name="그룹 30" transform="translate(-1153 -439)">
    <g id="사각형_663" data-name="사각형 663" transform="translate(1153 439)" fill="#fff" stroke="#707070" stroke-width="1">
      <rect width="53" height="53" rx="10" stroke="none"/>
      <rect x="0.5" y="0.5" width="52" height="52" rx="9.5" fill="none"/>
    </g>
  </g>
  <g id="그룹_217" data-name="그룹 217" transform="translate(4.983 5.693)">
    <path id="패스_245" data-name="패스 245" d="M1.388,55.388H41.645v1.388H1.388ZM0,58.164H43.033V54H0Z" transform="translate(0 -16.52)" fill="#333"/>
    <path id="패스_246" data-name="패스 246" d="M1.388,19.388H41.645v1.388H1.388ZM0,22.164H43.033V18H0Z" transform="translate(0 -5.507)" fill="#333"/>
    <path id="패스_247" data-name="패스 247" d="M41.977,18.164H2.718L3.76,14H40.936ZM4.5,16.776H40.2l-.347-1.388H4.844Z" transform="translate(-0.831 -4.283)" fill="#333"/>
    <path id="패스_248" data-name="패스 248" d="M18.023,50.493H9V38h9.023Zm-7.635-1.388h6.247V39.388H10.388Z" transform="translate(-2.753 -11.625)" fill="#333"/>
    <path id="패스_249" data-name="패스 249" d="M16.493,38.47H4V35H16.493ZM5.388,37.082h9.717v-.694H5.388Z" transform="translate(-1.224 -10.707)" fill="#333"/>
    <rect id="사각형_980" data-name="사각형 980" width="2" height="11" transform="translate(17 26.806)" fill="#333"/>
    <rect id="사각형_981" data-name="사각형 981" width="1" height="11" transform="translate(39 26.806)" fill="#333"/>
    <path id="패스_250" data-name="패스 250" d="M21.388,35.206v-.76l3.162-5.057h20.08l3.134,4.386v1.431l-.748.374L44.987,34.9,42.9,35.6,40.823,34.9,38.74,35.6,36.658,34.9l-2.082.694L32.493,34.9l-2.082.694L28.33,34.9l-2.083.694L24.164,34.9l-2.029.676ZM23.78,28,20,34.048v2.017l2.029,1.015,2.136-.713,2.082.694,2.083-.694,2.082.694,2.082-.694,2.083.694,2.082-.694,2.082.694,2.083-.694,2.082.694,2.082-.694,2.136.713,2.029-1.015V33.331L45.344,28Z" transform="translate(-6.118 -8.566)" fill="#333"/>
    <path id="패스_251" data-name="패스 251" d="M26.388,35.8H25V34.252l2.849-5.7,1.242.621-2.7,5.406Z" transform="translate(-7.648 -8.735)" fill="#333"/>
    <path id="패스_252" data-name="패스 252" d="M32.388,35.833H31V34.319l2.127-5.671,1.3.489-2.039,5.435Z" transform="translate(-9.484 -8.764)" fill="#333"/>
    <path id="패스_253" data-name="패스 253" d="M38.388,35.9H37l.006-1.474.694-5.553,1.377.172-.689,5.51Z" transform="translate(-11.319 -8.834)" fill="#333"/>
    <path id="패스_254" data-name="패스 254" d="M44.085,35.9H42.7V34.558l-.689-5.51,1.377-.172.7,5.639Z" transform="translate(-12.851 -8.834)" fill="#333"/>
    <path id="패스_255" data-name="패스 255" d="M49.49,35.833H48.1V34.571l-2.038-5.435,1.3-.489,2.126,5.671Z" transform="translate(-14.092 -8.764)" fill="#333"/>
    <path id="패스_256" data-name="패스 256" d="M55.2,35.8H53.808V34.58l-2.7-5.406,1.242-.621,2.849,5.7Z" transform="translate(-15.634 -8.735)" fill="#333"/>
    <rect id="사각형_982" data-name="사각형 982" width="1" height="24" transform="translate(3 14.806)" fill="#333"/>
    <rect id="사각형_983" data-name="사각형 983" width="1" height="6" transform="translate(39 14.806)" fill="#333"/>
    <path id="패스_257" data-name="패스 257" d="M45.964,47.635H30V40h1.388v6.247H44.576V40h1.388Z" transform="translate(-9.178 -12.237)" fill="#333"/>
    <rect id="사각형_984" data-name="사각형 984" width="16" height="1" transform="translate(3 19.806)" fill="#333"/>
    <g id="그룹_216" data-name="그룹 216">
      <g id="그룹_215" data-name="그룹 215" clip-path="url(#clip-path)">
        <path id="패스_258" data-name="패스 258" d="M39.539,11.105H9V2.082A2.085,2.085,0,0,1,11.082,0H37.457a2.085,2.085,0,0,1,2.082,2.082Z" transform="translate(-2.753)" fill="#f9ba48"/>
        <path id="패스_259" data-name="패스 259" d="M15.776,9.941h-.694A2.085,2.085,0,0,1,13,7.859h1.388a.694.694,0,0,0,.694.694h.694a.694.694,0,1,0,0-1.388h-.694a2.082,2.082,0,1,1,0-4.164h.694a2.085,2.085,0,0,1,2.082,2.082H16.47a.694.694,0,0,0-.694-.694h-.694a.694.694,0,0,0,0,1.388h.694a2.082,2.082,0,1,1,0,4.164" transform="translate(-3.977 -0.918)" fill="#333"/>
        <rect id="사각형_985" data-name="사각형 985" width="2" height="7" transform="translate(15 1.806)" fill="#333"/>
        <rect id="사각형_986" data-name="사각형 986" width="2" height="7" transform="translate(19 1.806)" fill="#333"/>
        <rect id="사각형_987" data-name="사각형 987" width="4" height="1" transform="translate(16 4.806)" fill="#333"/>
        <path id="패스_260" data-name="패스 260" d="M34.776,9.941A2.779,2.779,0,0,1,32,7.164V5.776a2.776,2.776,0,1,1,5.553,0V7.164a2.779,2.779,0,0,1-2.776,2.776m0-5.553a1.39,1.39,0,0,0-1.388,1.388V7.164a1.388,1.388,0,0,0,2.776,0V5.776a1.39,1.39,0,0,0-1.388-1.388" transform="translate(-9.789 -0.918)" fill="#333"/>
        <path id="패스_261" data-name="패스 261" d="M43.388,9.941H42V3h2.776a2.082,2.082,0,1,1,0,4.164H43.388Zm0-4.164h1.388a.694.694,0,0,0,0-1.388H43.388Z" transform="translate(-12.849 -0.918)" fill="#333"/>
      </g>
    </g>
  </g>
</svg>
