<svg xmlns="http://www.w3.org/2000/svg" xmlns:xlink="http://www.w3.org/1999/xlink" width="49.674" height="20.608" viewBox="0 0 49.674 20.608">
  <defs>
    <clipPath id="clip-path">
      <rect id="사각형_2088" data-name="사각형 2088" width="49.674" height="20.608" transform="translate(0 0)" fill="none"/>
    </clipPath>
  </defs>
  <g id="그룹_1325" data-name="그룹 1325" transform="translate(0 0)">
    <g id="그룹_1324" data-name="그룹 1324" clip-path="url(#clip-path)">
      <path id="패스_3917" data-name="패스 3917" d="M9.153,19.608c-1.737,0-4.079-.29-5.374-1.672a3.126,3.126,0,0,1-.849-2.4,3.19,3.19,0,0,1,1.179-2.305L3,13.255a1,1,0,0,1-1-1V10.1a1,1,0,0,1,.986-1l.494-.007a.98.98,0,0,1-.02-.155L3.311,5.885,3.293,3.322a1,1,0,0,1,.992-1.006L14.56,2.233a1,1,0,0,1,1,.98l.033,1.692A1,1,0,0,1,14.6,5.924l-5.268.028,0,.125,5.306.07a1,1,0,0,1,.986.954l.083,1.791a1,1,0,0,1-.037.318l.639.005a1,1,0,0,1,.99.964l.067,1.807a1,1,0,0,1-.982,1.037l-1.78.031a3.087,3.087,0,0,1,1.3,2.552c0,2.468-2.588,4-6.755,4" fill="#eeb94d"/>
      <path id="패스_3918" data-name="패스 3918" d="M14.561,3.232l.033,1.692-6.286.033.05,2.107,6.269.083.083,1.791-3.964-.017.016,1.244,5.54.05.067,1.808L3,12.255V10.1l4.893-.067L7.877,8.9,4.46,8.888,4.31,5.836,4.294,3.315ZM9.5,12.769c3.068,0,5.407.879,5.407,2.837,0,2.04-2.687,3-5.756,3-3.051,0-5.357-.961-5.224-3,.116-1.958,2.521-2.837,5.573-2.837m-.133,3.384c1.178,0,2.206-.349,2.206-1.062,0-.613-.995-.929-2.106-.929-1.178,0-2.007.3-2.057.929-.066.713.8,1.062,1.957,1.062M14.561,1.232h-.016L4.277,1.315A2,2,0,0,0,2.294,3.328L2.31,5.849c0,.029,0,.057,0,.085l.11,2.249A2,2,0,0,0,1,10.1v2.156a2,2,0,0,0,1.259,1.858,4.245,4.245,0,0,0-.327,1.374A4.089,4.089,0,0,0,3.05,18.619c1.539,1.644,4.169,1.988,6.1,1.988,4.712,0,7.756-1.963,7.756-5a4.22,4.22,0,0,0-.322-1.6,2,2,0,0,0,1.78-2.062L18.3,10.141a2,2,0,0,0-1.621-1.89l-.055-1.2a2,2,0,0,0-.352-1.044,2,2,0,0,0,.32-1.125L16.56,3.193a2,2,0,0,0-2-1.961"/>
      <path id="패스_3919" data-name="패스 3919" d="M18.755,19.425a1,1,0,0,1-.986-.988L17.7,12.781a1.171,1.171,0,0,1,.006-.119l-.344,0a1,1,0,0,1-.988-.965L16.21,6.932l.033-2.981a1,1,0,0,1,1-.989l3.389-.016a1,1,0,0,1,1,.994l.027,4.6,3.206.012a1,1,0,0,1,.582.189l-.176-5.71a1,1,0,0,1,1-1.03c.019,0,3.16.184,3.16.184a1,1,0,0,1,.936.9l.212,2.139,1.787.045a1,1,0,0,1,.973,1.078l-.183,2.322a1,1,0,0,1-.964.921l-1.556.051-.048,2.568a1,1,0,0,1-.022.19,1,1,0,0,1,.071.42l-.116,2.372.051,3.37a1,1,0,0,1-1,1.014l-10.812-.149" fill="#eeb94d"/>
      <path id="패스_3920" data-name="패스 3920" d="M26.266,3l3.1.183.3,3.018,2.67.067L32.154,8.59l-2.5.083-.066,3.516H26.548Zm-5.639.946.033,5.589,4.2.017.05,2.189-7.53-.083L17.21,6.9l.033-2.936,3.384-.016m.912,8.807,8.094.017-.116,2.371.05,3.434-10.8-.15L18.7,12.77l2.836-.017m5.108,1.94H22.916l.066,1.411,3.632.049.033-1.46M26.266,1a2,2,0,0,0-2,2.061l.138,4.489-1.757-.007-.021-3.609a2,2,0,0,0-2-1.988h-.01l-3.384.016a2,2,0,0,0-1.99,1.978L15.21,6.875c0,.031,0,.062,0,.093l.166,4.76a2,2,0,0,0,1.335,1.817l.057,4.9a2,2,0,0,0,1.972,1.976l10.8.149h.028a2,2,0,0,0,2-2.029l-.049-3.37.113-2.309a2,2,0,0,0-.051-.557c0-.028,0-.055,0-.083l.031-1.618.607-.02a2,2,0,0,0,1.927-1.842l.183-2.323a2,2,0,0,0-1.944-2.156l-.9-.022-.125-1.26a2,2,0,0,0-1.873-1.8L26.384,1l-.118,0"/>
      <path id="패스_3921" data-name="패스 3921" d="M41.968,19.491a1,1,0,0,1-1-.983l-.1-5.638a4.629,4.629,0,0,1-4.343,3.343c-.083,0-.167,0-.252-.007-3.049-.1-5.111-2.671-5.111-6.406,0-3.611,2.268-6.44,5.163-6.44a4.939,4.939,0,0,1,4.437,3.361l-.063-3.7A1,1,0,0,1,41.7,2c.02,0,3.16.184,3.16.184a1,1,0,0,1,.94.936l.241,3.863,1.656.043A1,1,0,0,1,48.672,8.1L48.489,10.6a1,1,0,0,1-.963.926l-1.448.05L46.02,18.5a1,1,0,0,1-1,.991ZM36.431,8.047a1.383,1.383,0,0,0-.445,1.14c0,.4.059,1.088.459,1.108h.01c.122,0,.138-.016.182-.089a1.864,1.864,0,0,0,.168-.92,1.66,1.66,0,0,0-.37-1.239Z" fill="#eeb94d"/>
      <path id="패스_3922" data-name="패스 3922" d="M41.7,3l3.1.183.3,4.776,2.57.067-.182,2.5-2.406.083-.065,7.879H41.967ZM36.328,4.36c2.554.05,4.03,2.687,4.03,5.573,0,2.923-1.4,5.28-3.83,5.28-.065,0-.132,0-.2-.005-2.637-.083-4.162-2.4-4.162-5.408,0-2.869,1.691-5.44,4.162-5.44m.146,6.935c.953,0,1.331-.878,1.331-2.009,0-1.111-.465-2.239-1.377-2.239-.83,0-1.442,1.045-1.442,2.14,0,1.161.413,2.057,1.41,2.106.026,0,.052,0,.078,0M41.7,1a2,2,0,0,0-2,2.034l.01.55a5.411,5.411,0,0,0-3.344-1.223h-.04c-3.456,0-6.162,3.268-6.162,7.44,0,4.248,2.508,7.294,6.1,7.407.062,0,.163.006.263.006A5.216,5.216,0,0,0,39.924,16l.044,2.522a2,2,0,0,0,2,1.966h3.054a2,2,0,0,0,2-1.983l.05-5.963.491-.017a2,2,0,0,0,1.925-1.853l.182-2.505a2,2,0,0,0-1.943-2.144l-.74-.02L46.8,3.058a2,2,0,0,0-1.878-1.872L41.82,1c-.04,0-.078,0-.118,0"/>
      <path id="패스_3923" data-name="패스 3923" d="M8.153,18.608c-1.737,0-4.079-.29-5.374-1.672a3.126,3.126,0,0,1-.849-2.4,3.19,3.19,0,0,1,1.179-2.305L2,12.255a1,1,0,0,1-1-1V9.1a1,1,0,0,1,.986-1l.494-.007a.98.98,0,0,1-.02-.155L2.311,4.885,2.293,2.322a1,1,0,0,1,.992-1.006L13.56,1.233a1,1,0,0,1,1,.98L14.593,3.9A1,1,0,0,1,13.6,4.924l-5.268.028,0,.125,5.306.07a1,1,0,0,1,.986.954l.083,1.791a1,1,0,0,1-.037.318l.639.005a1,1,0,0,1,.99.964l.067,1.807a1,1,0,0,1-.982,1.037l-1.78.031a3.087,3.087,0,0,1,1.3,2.552c0,2.468-2.588,4-6.755,4" fill="#eeb94d"/>
      <path id="패스_3924" data-name="패스 3924" d="M13.561,2.232l.033,1.692-6.286.033.05,2.107,6.269.083.083,1.791L9.746,7.921l.016,1.244,5.54.05.067,1.808L2,11.255V9.1l4.893-.067L6.877,7.9,3.46,7.888,3.31,4.836,3.294,2.315ZM8.5,11.769c3.068,0,5.407.879,5.407,2.837,0,2.04-2.687,3-5.756,3-3.051,0-5.357-.961-5.224-3,.116-1.958,2.521-2.837,5.573-2.837m-.133,3.384c1.178,0,2.206-.349,2.206-1.062,0-.613-.995-.929-2.106-.929-1.178,0-2.007.3-2.057.929-.066.713.8,1.062,1.957,1.062M13.561.232h-.016L3.277.315A2,2,0,0,0,1.294,2.328L1.31,4.849c0,.029,0,.057,0,.085l.11,2.249A2,2,0,0,0,0,9.1v2.156a2,2,0,0,0,1.259,1.858,4.245,4.245,0,0,0-.327,1.374A4.089,4.089,0,0,0,2.05,17.619c1.539,1.644,4.169,1.988,6.1,1.988,4.712,0,7.756-1.963,7.756-5a4.22,4.22,0,0,0-.322-1.6,2,2,0,0,0,1.78-2.062L17.3,9.141a2,2,0,0,0-1.621-1.89l-.055-1.2a2,2,0,0,0-.352-1.044,2,2,0,0,0,.32-1.125L15.56,2.193a2,2,0,0,0-2-1.961" fill="#e69c2e"/>
      <path id="패스_3925" data-name="패스 3925" d="M17.755,18.425a1,1,0,0,1-.986-.988L16.7,11.781a1.171,1.171,0,0,1,.006-.119l-.344,0a1,1,0,0,1-.988-.965L15.21,5.932l.033-2.981a1,1,0,0,1,1-.989l3.389-.016a1,1,0,0,1,1,.994l.027,4.6,3.206.012a1,1,0,0,1,.582.189l-.176-5.71a1,1,0,0,1,1-1.03c.019,0,3.16.184,3.16.184a1,1,0,0,1,.936.9l.212,2.139,1.787.045a1,1,0,0,1,.973,1.078l-.183,2.322a1,1,0,0,1-.964.921l-1.556.051-.048,2.568a1,1,0,0,1-.022.19,1,1,0,0,1,.071.42l-.116,2.372.051,3.37a1,1,0,0,1-1,1.014l-10.812-.149" fill="#eeb94d"/>
      <path id="패스_3926" data-name="패스 3926" d="M25.266,2l3.1.183.3,3.018,2.67.067L31.154,7.59l-2.5.083-.066,3.516H25.548Zm-5.639.946.033,5.589,4.2.017.05,2.189-7.53-.083L16.21,5.9l.033-2.936,3.384-.016m.912,8.807,8.094.017-.116,2.371.05,3.434-10.8-.15L17.7,11.77l2.836-.017m5.108,1.94H21.916l.066,1.411,3.632.049.033-1.46M25.266,0a2,2,0,0,0-2,2.061l.138,4.489-1.757-.007-.021-3.609a2,2,0,0,0-2-1.988h-.01L16.233.962a2,2,0,0,0-1.99,1.978L14.21,5.875c0,.031,0,.062,0,.093l.166,4.76a2,2,0,0,0,1.335,1.817l.057,4.9a2,2,0,0,0,1.972,1.976l10.8.149h.028a2,2,0,0,0,2-2.029l-.049-3.37.113-2.309a2,2,0,0,0-.051-.557c0-.028,0-.055,0-.083l.031-1.618.607-.02a2,2,0,0,0,1.927-1.842l.183-2.323a2,2,0,0,0-1.944-2.156l-.9-.022-.125-1.26a2,2,0,0,0-1.873-1.8L25.384,0l-.118,0" fill="#e69c2e"/>
      <path id="패스_3927" data-name="패스 3927" d="M40.968,18.491a1,1,0,0,1-1-.983l-.1-5.638a4.629,4.629,0,0,1-4.343,3.343c-.083,0-.167,0-.252-.007-3.049-.1-5.111-2.671-5.111-6.406,0-3.611,2.268-6.44,5.163-6.44a4.939,4.939,0,0,1,4.437,3.361l-.063-3.7A1,1,0,0,1,40.7,1c.02,0,3.16.184,3.16.184a1,1,0,0,1,.94.936l.241,3.863,1.656.043A1,1,0,0,1,47.672,7.1l-.183,2.5a1,1,0,0,1-.963.926l-1.448.05L45.02,17.5a1,1,0,0,1-1,.991ZM35.431,7.047a1.383,1.383,0,0,0-.445,1.14c0,.4.059,1.088.459,1.108h.01c.122,0,.138-.016.182-.089a1.864,1.864,0,0,0,.168-.92,1.66,1.66,0,0,0-.37-1.239Z" fill="#eeb94d"/>
      <path id="패스_3928" data-name="패스 3928" d="M40.7,2l3.1.183.3,4.776,2.57.067-.182,2.5-2.406.083-.065,7.879H40.967ZM35.328,3.36c2.554.05,4.03,2.687,4.03,5.573,0,2.923-1.4,5.28-3.83,5.28-.065,0-.132,0-.2-.005-2.637-.083-4.162-2.4-4.162-5.408,0-2.869,1.691-5.44,4.162-5.44m.146,6.935c.953,0,1.331-.878,1.331-2.009,0-1.111-.465-2.239-1.377-2.239-.83,0-1.442,1.045-1.442,2.14,0,1.161.413,2.057,1.41,2.106.026,0,.052,0,.078,0M40.7,0a2,2,0,0,0-2,2.034l.01.55a5.411,5.411,0,0,0-3.344-1.223h-.04c-3.456,0-6.162,3.268-6.162,7.44,0,4.248,2.508,7.294,6.1,7.407.062,0,.163.006.263.006A5.216,5.216,0,0,0,38.924,15l.044,2.522a2,2,0,0,0,2,1.966h3.054a2,2,0,0,0,2-1.983l.05-5.963.491-.017a2,2,0,0,0,1.925-1.853l.182-2.5a2,2,0,0,0-1.943-2.144l-.74-.02L45.8,2.058A2,2,0,0,0,43.922.186L40.82,0c-.04,0-.078,0-.118,0" fill="#e69c2e"/>
      <path id="패스_3929" data-name="패스 3929" d="M8.154,17.983c-2.281,0-4.028-.523-4.918-1.474a2.478,2.478,0,0,1-.681-1.927c.093-1.568,1.487-2.641,3.831-3.027L2,11.631a.377.377,0,0,1-.375-.375V9.1A.374.374,0,0,1,2,8.725l4.518-.062-.006-.385L3.458,8.264a.376.376,0,0,1-.373-.357L2.936,4.855,2.919,2.318a.374.374,0,0,1,.372-.377l10.27-.083a.375.375,0,0,1,.375.367l.033,1.692A.376.376,0,0,1,13.6,4.3l-5.9.031.032,1.363,5.908.078A.376.376,0,0,1,14,6.13l.083,1.791a.374.374,0,0,1-.375.392L10.126,8.3l.007.5,5.173.047a.375.375,0,0,1,.371.361l.066,1.808a.374.374,0,0,1-.368.388l-5.221.091c2.616.319,4.13,1.434,4.13,3.117,0,2.052-2.406,3.377-6.13,3.377m.315-4.445c-.995,0-1.655.229-1.683.583a.331.331,0,0,0,.088.274,2.2,2.2,0,0,0,1.5.384c1.044,0,1.831-.3,1.831-.687,0-.232-.6-.554-1.731-.554" fill="#eeb94d"/>
      <path id="패스_3930" data-name="패스 3930" d="M13.56,2.232l.034,1.692-6.287.033.05,2.107,6.27.083.083,1.791L9.745,7.921l.017,1.244,5.54.05.067,1.808L2,11.255V9.1l4.893-.067L6.876,7.9,3.459,7.888,3.31,4.836,3.293,2.315ZM8.5,11.769c3.068,0,5.407.879,5.407,2.837,0,2.04-2.687,3-5.756,3-3.052,0-5.357-.962-5.224-3,.116-1.958,2.521-2.837,5.573-2.837m-.133,3.384c1.178,0,2.206-.349,2.206-1.062,0-.613-.995-.929-2.106-.929-1.178,0-2.008.3-2.057.929-.066.713.8,1.062,1.957,1.062M13.561,1.482h-.007L3.287,1.565a.751.751,0,0,0-.744.755L2.56,4.841l.15,3.083a.75.75,0,0,0,.149.413l-.869.012a.749.749,0,0,0-.74.75v2.156a.749.749,0,0,0,.75.75h.013l1.919-.033A3.141,3.141,0,0,0,2.18,14.561a2.875,2.875,0,0,0,.782,2.2c1.233,1.316,3.5,1.593,5.191,1.593,4.013,0,6.506-1.438,6.506-3.752a3.054,3.054,0,0,0-1.915-2.788l2.638-.045a.751.751,0,0,0,.736-.778l-.066-1.808a.751.751,0,0,0-.743-.722l-1.057-.01a.748.748,0,0,0,.207-.552l-.083-1.791a.749.749,0,0,0-.739-.715L8.09,5.323,8.075,4.7,13.6,4.674a.75.75,0,0,0,.745-.765L14.31,2.217a.75.75,0,0,0-.749-.735M8.369,14.4c-.856,0-1.181-.208-1.221-.264a2.711,2.711,0,0,1,1.321-.227,3,3,0,0,1,1.293.226,2.919,2.919,0,0,1-1.393.265" fill="#fff"/>
      <path id="패스_3931" data-name="패스 3931" d="M17.764,17.8a.375.375,0,0,1-.37-.371l-.066-5.655a.376.376,0,0,1,.373-.38l2.836-.016,4.692.009a.38.38,0,0,1-.056-.187l-.282-9.188a.376.376,0,0,1,.375-.387l3.124.183a.375.375,0,0,1,.351.337l.266,2.689,2.339.058a.378.378,0,0,1,.269.124.373.373,0,0,1,.1.281l-.183,2.322a.377.377,0,0,1-.362.346l-2.148.07-.06,3.161a.375.375,0,0,1-.114.263.377.377,0,0,1,.164.329l-.116,2.371.05,3.41a.376.376,0,0,1-.375.381l-10.8-.15m7.484-3.027.016-.7H22.309l.031.665Zm-8.876-3.74A.375.375,0,0,1,16,10.671l-.166-4.76.033-2.953a.376.376,0,0,1,.373-.371l3.386-.016A.375.375,0,0,1,20,2.943l.031,5.218,3.825.016a.375.375,0,0,1,.373.366l.05,2.19a.372.372,0,0,1-.108.272.378.378,0,0,1-.267.111l-7.534-.083" fill="#eeb94d"/>
      <path id="패스_3932" data-name="패스 3932" d="M25.266,2l3.1.183.3,3.018,2.671.067L31.154,7.59l-2.5.083-.067,3.516H25.548Zm-5.639.946.033,5.589,4.2.017.05,2.189-7.53-.083L16.21,5.9l.033-2.936,3.384-.016m.912,8.807,8.094.017-.116,2.371.05,3.434-10.8-.15L17.7,11.77l2.836-.017m5.108,1.94H21.915l.067,1.411,3.632.049.033-1.46M25.266,1.25a.75.75,0,0,0-.75.773l.276,8.989h-.186a.752.752,0,0,0,.05-.287l-.05-2.189a.749.749,0,0,0-.747-.733l-3.453-.014-.029-4.847a.751.751,0,0,0-.75-.745h0l-3.384.016a.75.75,0,0,0-.746.742L15.46,5.889l.166,4.8a.75.75,0,0,0,.742.724l.673.008a.743.743,0,0,0-.088.362l.066,5.656a.75.75,0,0,0,.74.741l10.8.15h.011a.751.751,0,0,0,.75-.761l-.05-3.434.115-2.324a.746.746,0,0,0-.085-.386.736.736,0,0,0,.036-.217l.053-2.8,1.793-.06a.749.749,0,0,0,.723-.69l.182-2.323a.746.746,0,0,0-.19-.561.754.754,0,0,0-.539-.247l-2.008-.05-.233-2.359a.75.75,0,0,0-.7-.675l-3.1-.183h-.044" fill="#fff"/>
      <path id="패스_3933" data-name="패스 3933" d="M40.968,17.866a.374.374,0,0,1-.375-.368L40.327,2.006a.371.371,0,0,1,.116-.277.375.375,0,0,1,.259-.1l3.124.183a.375.375,0,0,1,.352.351l.278,4.434,2.227.058a.369.369,0,0,1,.268.123.376.376,0,0,1,.1.279l-.183,2.5A.375.375,0,0,1,46.5,9.9l-2.046.07L44.4,17.494a.375.375,0,0,1-.375.372Zm-5.659-3.284c-2.7-.085-4.519-2.409-4.519-5.782,0-3.261,1.993-5.815,4.538-5.815,2.9.056,4.406,3.035,4.406,5.948,0,3.329-1.729,5.655-4.205,5.655-.073,0-.146,0-.22-.006m.119-8.16c-.569,0-1.068.825-1.068,1.765,0,.766.183,1.688,1.053,1.732h.007a.776.776,0,0,0,.754-.395,2.507,2.507,0,0,0,.255-1.238c0-.9-.351-1.864-1-1.864" fill="#eeb94d"/>
      <path id="패스_3934" data-name="패스 3934" d="M40.7,2l3.1.182.3,4.777,2.57.066-.182,2.5-2.405.083-.066,7.878H40.967ZM35.328,3.36c2.554.05,4.031,2.687,4.031,5.573,0,2.923-1.4,5.279-3.83,5.279-.067,0-.133,0-.2-.005-2.637-.083-4.163-2.4-4.163-5.407,0-2.869,1.692-5.44,4.163-5.44m.146,6.935c.953,0,1.33-.879,1.33-2.009,0-1.111-.464-2.239-1.376-2.239-.83,0-1.443,1.045-1.443,2.14,0,1.16.415,2.056,1.41,2.106l.079,0M40.7,1.25a.749.749,0,0,0-.75.763l.1,5.9c-.339-3.08-2.216-5.254-4.71-5.3h-.015c-2.755,0-4.913,2.719-4.913,6.19,0,3.59,1.965,6.065,4.89,6.157.065,0,.145.005.224.005,2.513,0,4.321-2.155,4.554-5.323l.135,7.865a.749.749,0,0,0,.749.737H44.02a.751.751,0,0,0,.75-.743l.06-7.16,1.687-.059a.749.749,0,0,0,.722-.7l.183-2.5a.751.751,0,0,0-.729-.8l-1.885-.049-.256-4.092a.75.75,0,0,0-.7-.7l-3.1-.182H40.7m-5.228,8.3h-.042c-.576-.029-.7-.754-.7-1.357,0-.793.42-1.39.693-1.39.334,0,.626.7.626,1.489,0,.574-.1,1.259-.58,1.259" fill="#fff"/>
    </g>
  </g>
</svg>
