<svg xmlns="http://www.w3.org/2000/svg" xmlns:xlink="http://www.w3.org/1999/xlink" width="47.816" height="20.525" viewBox="0 0 47.816 20.525">
  <defs>
    <clipPath id="clip-path">
      <rect id="사각형_2085" data-name="사각형 2085" width="47.816" height="20.525" transform="translate(0 0)" fill="none"/>
    </clipPath>
  </defs>
  <g id="그룹_1319" data-name="그룹 1319" transform="translate(0 0)">
    <g id="그룹_1318" data-name="그룹 1318" clip-path="url(#clip-path)">
      <path id="패스_3863" data-name="패스 3863" d="M3,18.347a1,1,0,0,1-1-1V14.063a1,1,0,0,1,.982-1l1.31-.024a.991.991,0,0,1-.181-.174L2.485,10.842a1,1,0,0,1,.192-1.436L6.336,6.748l.043-3.016a1,1,0,0,1,1-.986l3.6.017a1,1,0,0,1,1,.995l.014,2.609,4.266,2.595a1,1,0,0,1,.26,1.481l-2.04,2.538a1.009,1.009,0,0,1-.319.262l2.183.086a1,1,0,0,1,.96.976l.066,2.77a1,1,0,0,1-.981,1.024L3,18.347M13.167,13.2l-4.2-2.414L5.528,13.017l2.048-.037Z" fill="#eeb94d"/>
      <path id="패스_3864" data-name="패스 3864" d="M7.379,3.747l3.6.016.017,3.168,4.744,2.886L13.7,12.355,8.938,9.618,4.891,12.239,3.265,10.216,7.329,7.263Zm.216,10.234,8.708.348.066,2.77L3,17.347V14.063l4.595-.082M7.379,1.747a2,2,0,0,0-2,1.971L5.344,6.233,2.09,8.6a2,2,0,0,0-.384,2.87l.583.725A2,2,0,0,0,1,14.063v3.284a2,2,0,0,0,2,2h.037L16.406,19.1a2,2,0,0,0,1.962-2.048l-.066-2.77a2,2,0,0,0-1.92-1.95l-.095,0L17.3,11.07a2,2,0,0,0-.519-2.962L12.989,5.8l-.011-2.05a2,2,0,0,0-1.99-1.99l-3.6-.016ZM8.892,12.031,9,11.961l.139.08Z"/>
      <path id="패스_3865" data-name="패스 3865" d="M24.923,19.475a1,1,0,0,1-1-.984L23.9,17.058a.989.989,0,0,1-.154.012l-3.275-.134-3.741.134a1,1,0,0,1-1-1V12.719a1,1,0,0,1,.982-1l-.058-4.595a1,1,0,0,1-.858-1L15.812,4.1a1,1,0,0,1,1-.992l6.371.017a.993.993,0,0,1,.619.216l0-.357a1,1,0,0,1,1-.987c.024,0,2.561.185,2.561.185a1,1,0,0,1,.359.1l.019-.017A1,1,0,0,1,28.422,2c.024,0,2.594.185,2.594.185a1,1,0,0,1,.927.993l.033,7.514-.066,7.443a1,1,0,0,1-1,.992H28.538a.99.99,0,0,1-.466-.116,1,1,0,0,1-.844.464Zm-1.228-7.756a.851.851,0,0,1,.114.007l0-.146h-.25v.139Zm-.116-4.5.174,0V7.062a.981.981,0,0,1-.175.108Z" fill="#eeb94d"/>
      <path id="패스_3866" data-name="패스 3866" d="M28.422,3l2.521.183.033,7.513-.066,7.431H28.538l-.132-7.149-.05-2.571ZM24.806,3l2.488.183.033,7.961-.1,7.331H24.923l-.133-7.9H23.031l.017-2.355,1.692-.033L24.806,3M16.812,4.111l6.369.017-.033,2.14h-.564l-.033,6.452h1.144l.05,3.35-3.234-.132-3.782.132V12.72h1l-.083-6.569L16.8,6.135l.017-2.024m2.77,8.609h1.127l-.032-6.5L19.432,6.2l.15,6.519M28.422,1a2.005,2.005,0,0,0-.87.2l-.111-.011L24.953,1c-.049,0-.1,0-.147,0a2,2,0,0,0-1.8,1.127l-6.19-.016h0a2,2,0,0,0-2,1.984L14.8,6.118a2,2,0,0,0,.866,1.664L15.7,11a2,2,0,0,0-.973,1.717v3.35a2,2,0,0,0,2,2h.07l3.706-.13,2.41.1.008.471a2,2,0,0,0,2,1.966h2.305a1.989,1.989,0,0,0,1.138-.355c.057,0,.114.007.172.007H30.91a2,2,0,0,0,2-1.982l.066-7.431-.033-7.54a2,2,0,0,0-1.855-1.986L28.567,1c-.049,0-.1,0-.145,0"/>
      <path id="패스_3867" data-name="패스 3867" d="M34.782,19.475a1,1,0,0,1-1-.958l-.116-2.787V13.682a1,1,0,0,1,.154-.535,5.22,5.22,0,0,1-2.36-4.707c0-3.227,2.22-5.66,5.163-5.66a4.986,4.986,0,0,1,4.921,4.381l-.016-.5.117-3.7a1,1,0,0,1,1-.968c.02,0,3.144.185,3.144.185a1,1,0,0,1,.941,1l.017,5.655-.067,5.539a1,1,0,0,1-.55.881,1,1,0,0,1,.633.91l.05,2.338a1,1,0,0,1-1,1.022l-11.034-.05m7.4-4.3a1,1,0,0,1-.421-.786l-.148-4.9a5.1,5.1,0,0,1-2.072,3.644,1,1,0,0,1,.139.509v1.524ZM36.677,7.334c-.157,0-.36.255-.36.526,0,.621.259.635.415.643h.007c.213,0,.255-.05.269-.067a.747.747,0,0,0,.112-.477c0-.188-.043-.625-.443-.625" fill="#eeb94d"/>
      <path id="패스_3868" data-name="패스 3868" d="M42.648,3l3.085.183.017,5.655-.067,5.524H42.764l-.232-7.73Zm-6.021.78c2.538.05,4.047,1.99,4.047,4.81,0,2.486-1.427,4.352-3.817,4.352q-.121,0-.246-.006c-2.654-.133-4.147-1.808-4.147-4.495,0-2.538,1.659-4.661,4.163-4.661m.151,5.725c.865,0,1.342-.619,1.342-1.545a1.412,1.412,0,1,0-2.8-.1A1.444,1.444,0,0,0,36.677,9.5l.1,0m1.906,4.144V16.17l7.082.016.05,2.339-11.03-.05-.116-2.786V13.682l4.014-.033M42.648,1a2,2,0,0,0-2,1.936l-.012.382A5.868,5.868,0,0,0,36.666,1.78h-.039c-3.513,0-6.163,2.863-6.163,6.661a6.372,6.372,0,0,0,2.21,5.114c0,.042,0,.084,0,.127v2.007c0,.027,0,.055,0,.083l.116,2.786a2,2,0,0,0,1.989,1.917l11.03.05h.009a2,2,0,0,0,2-2.042l-.05-2.339a2,2,0,0,0-.263-.951,1.994,1.994,0,0,0,.18-.807l.067-5.524-.017-5.685a2,2,0,0,0-1.882-1.991L42.766,1c-.039,0-.079,0-.118,0M40.681,13.535l.056-.051.021.691h-.074v-.526q0-.057,0-.114"/>
      <path id="패스_3869" data-name="패스 3869" d="M2,17.347a1,1,0,0,1-1-1V13.063a1,1,0,0,1,.982-1l1.31-.024a.991.991,0,0,1-.181-.174L1.485,9.842a1,1,0,0,1,.192-1.436L5.336,5.748l.043-3.016a1,1,0,0,1,1-.986l3.6.017a1,1,0,0,1,1,.995l.014,2.609,4.266,2.595a1,1,0,0,1,.26,1.481l-2.04,2.538a1.009,1.009,0,0,1-.319.262l2.183.086a1,1,0,0,1,.96.976l.066,2.77a1,1,0,0,1-.981,1.024L2,17.347M12.167,12.2l-4.2-2.414L4.528,12.017l2.048-.037Z" fill="#eeb94d"/>
      <path id="패스_3870" data-name="패스 3870" d="M6.379,2.747l3.6.016.017,3.168,4.744,2.886L12.7,11.355,7.938,8.618,3.891,11.239,2.265,9.216,6.329,6.263Zm.216,10.234,8.708.348.066,2.77L2,16.347V13.063l4.595-.082M6.379.747a2,2,0,0,0-2,1.971L4.344,5.233,1.09,7.6a2,2,0,0,0-.384,2.87l.583.725A2,2,0,0,0,0,13.063v3.284a2,2,0,0,0,2,2h.037L15.406,18.1a2,2,0,0,0,1.962-2.048l-.066-2.77a2,2,0,0,0-1.92-1.95l-.1,0L16.3,10.07a2,2,0,0,0-.519-2.962L11.989,4.8l-.011-2.05A2,2,0,0,0,9.988.763L6.388.747ZM7.892,11.031,8,10.961l.139.08Z" fill="#e69c2e"/>
      <path id="패스_3871" data-name="패스 3871" d="M23.923,18.475a1,1,0,0,1-1-.984L22.9,16.058a.989.989,0,0,1-.154.012l-3.275-.134-3.741.134a1,1,0,0,1-1-1V11.719a1,1,0,0,1,.982-1l-.058-4.595a1,1,0,0,1-.858-1L14.812,3.1a1,1,0,0,1,1-.992l6.371.017a.993.993,0,0,1,.619.216l0-.357a1,1,0,0,1,1-.987c.024,0,2.561.185,2.561.185a1,1,0,0,1,.359.1l.019-.017A1,1,0,0,1,27.422,1c.024,0,2.594.185,2.594.185a1,1,0,0,1,.927.993l.033,7.514-.066,7.443a1,1,0,0,1-1,.992H27.538a.99.99,0,0,1-.466-.116,1,1,0,0,1-.844.464Zm-1.228-7.756a.851.851,0,0,1,.114.007l0-.146h-.25v.139Zm-.116-4.5.174,0V6.062a.981.981,0,0,1-.175.108Z" fill="#eeb94d"/>
      <path id="패스_3872" data-name="패스 3872" d="M27.422,2l2.521.183L29.976,9.7l-.066,7.431H27.538l-.132-7.149-.05-2.571ZM23.806,2l2.488.183.033,7.961-.1,7.331H23.923l-.133-7.9H22.031l.017-2.355,1.692-.033L23.806,2M15.812,3.111l6.369.017-.033,2.14h-.564l-.033,6.452h1.144l.05,3.35-3.234-.132-3.782.132V11.72h1l-.083-6.569L15.8,5.135l.017-2.024m2.77,8.609h1.127l-.032-6.5L18.432,5.2l.15,6.519M27.422,0a2.005,2.005,0,0,0-.87.2L26.441.188,23.953,0c-.049,0-.1,0-.147,0a2,2,0,0,0-1.8,1.127l-6.19-.016h-.005a2,2,0,0,0-2,1.984L13.8,5.118a2,2,0,0,0,.866,1.664L14.7,10a2,2,0,0,0-.973,1.717v3.35a2,2,0,0,0,2,2h.07l3.706-.13,2.41.1.008.471a2,2,0,0,0,2,1.966h2.305a1.989,1.989,0,0,0,1.138-.355c.057,0,.114.007.172.007H29.91a2,2,0,0,0,2-1.982l.066-7.431-.033-7.54A2,2,0,0,0,30.088.188L27.567,0c-.049,0-.1,0-.145,0" fill="#e69c2e"/>
      <path id="패스_3873" data-name="패스 3873" d="M33.782,18.475a1,1,0,0,1-1-.958l-.116-2.787V12.682a1,1,0,0,1,.154-.535,5.22,5.22,0,0,1-2.36-4.707c0-3.227,2.22-5.66,5.163-5.66a4.986,4.986,0,0,1,4.921,4.381l-.016-.5.117-3.7a1,1,0,0,1,1-.968c.02,0,3.144.185,3.144.185a1,1,0,0,1,.941,1l.017,5.655-.067,5.539a1,1,0,0,1-.55.881,1,1,0,0,1,.633.91l.05,2.338a1,1,0,0,1-1,1.022l-11.034-.05m7.4-4.3a1,1,0,0,1-.421-.786l-.148-4.9a5.1,5.1,0,0,1-2.072,3.644,1,1,0,0,1,.139.509v1.524ZM35.677,6.334c-.157,0-.36.255-.36.526,0,.621.259.635.415.643h.007c.213,0,.255-.05.269-.067a.747.747,0,0,0,.112-.477c0-.188-.043-.625-.443-.625" fill="#eeb94d"/>
      <path id="패스_3874" data-name="패스 3874" d="M41.648,2l3.085.183.017,5.655-.067,5.524H41.764l-.232-7.73Zm-6.021.78c2.538.05,4.047,1.99,4.047,4.81,0,2.486-1.427,4.352-3.817,4.352q-.121,0-.246-.006c-2.654-.133-4.147-1.808-4.147-4.495,0-2.538,1.659-4.661,4.163-4.661m.151,5.725c.865,0,1.342-.619,1.342-1.545a1.412,1.412,0,1,0-2.8-.1A1.444,1.444,0,0,0,35.677,8.5l.1,0m1.906,4.144V15.17l7.082.016.05,2.339-11.03-.05-.116-2.786V12.682l4.014-.033M41.648,0a2,2,0,0,0-2,1.936l-.012.382A5.868,5.868,0,0,0,35.666.78h-.039c-3.513,0-6.163,2.863-6.163,6.661a6.372,6.372,0,0,0,2.21,5.114c0,.042,0,.084,0,.127v2.007c0,.027,0,.055,0,.083l.116,2.786a2,2,0,0,0,1.989,1.917l11.03.05h.009a2,2,0,0,0,2-2.042l-.05-2.339a2,2,0,0,0-.263-.951,1.994,1.994,0,0,0,.18-.807l.067-5.524-.017-5.685A2,2,0,0,0,44.851.186L41.766,0c-.039,0-.079,0-.118,0M39.681,12.535l.056-.051.021.691h-.074v-.526q0-.057,0-.114" fill="#e69c2e"/>
      <path id="패스_3875" data-name="패스 3875" d="M2,16.722a.374.374,0,0,1-.375-.375V13.063a.375.375,0,0,1,.368-.375L6.587,12.6l8.73.349a.376.376,0,0,1,.36.366l.066,2.77a.376.376,0,0,1-.368.384L2,16.722M12.7,11.73a.372.372,0,0,1-.187-.05L7.949,9.058l-3.855,2.5a.375.375,0,0,1-.5-.08L1.972,9.45a.375.375,0,0,1,.073-.538L5.957,6.07,6,2.741a.375.375,0,0,1,.375-.369l3.6.016a.376.376,0,0,1,.373.373l.015,2.959L14.933,8.5a.372.372,0,0,1,.174.255.376.376,0,0,1-.076.3L12.99,11.59a.375.375,0,0,1-.292.14" fill="#eeb94d"/>
      <path id="패스_3876" data-name="패스 3876" d="M6.379,2.747l3.6.017.016,3.168,4.744,2.885L12.7,11.356,7.938,8.619,3.89,11.239,2.265,9.216,6.329,6.263Zm.215,10.234,8.708.348.066,2.77L2,16.348V13.064l4.594-.083M6.379,2a.75.75,0,0,0-.75.74l-.045,3.14L1.824,8.609A.75.75,0,0,0,1.68,9.686l1.626,2.023a.751.751,0,0,0,.992.16L7.961,9.5l4.363,2.509a.749.749,0,0,0,.959-.181l2.04-2.538a.749.749,0,0,0-.195-1.11L10.742,5.509,10.728,2.76a.749.749,0,0,0-.747-.746L6.382,2Zm.215,10.234H6.581l-4.595.083a.749.749,0,0,0-.736.75v3.284A.749.749,0,0,0,2,17.1h.014l13.368-.248a.75.75,0,0,0,.736-.768l-.066-2.77a.751.751,0,0,0-.72-.731l-8.708-.349h-.03" fill="#fff"/>
      <path id="패스_3877" data-name="패스 3877" d="M23.923,17.85a.376.376,0,0,1-.375-.369l-.126-7.526h-1.39a.354.354,0,0,1-.1-.013l-.007,1.4H22.7a.375.375,0,0,1,.375.369l.05,3.351a.376.376,0,0,1-.375.38l-3.25-.133-3.767.133a.375.375,0,0,1-.375-.375V11.72a.375.375,0,0,1,.375-.375h.616l-.074-5.826-.482-.009a.375.375,0,0,1-.368-.378l.016-2.024a.375.375,0,0,1,.375-.372l6.371.017a.375.375,0,0,1,.266.112.381.381,0,0,1,.108.269l-.034,2.139a.375.375,0,0,1-.375.37h-.191l-.006,1.22a.383.383,0,0,1,.09-.013l1.33-.026L23.432,2a.375.375,0,0,1,.122-.271.371.371,0,0,1,.253-.1l2.515.184a.374.374,0,0,1,.348.372l.033,7.962-.1,7.337a.374.374,0,0,1-.375.37Zm-4.59-6.505L19.3,5.588l-.487-.006.132,5.763ZM27.539,17.5a.375.375,0,0,1-.375-.368l-.183-9.719L27.048,2a.375.375,0,0,1,.375-.371l2.548.184a.375.375,0,0,1,.348.372l.033,7.514-.066,7.435a.376.376,0,0,1-.375.372Z" fill="#eeb94d"/>
      <path id="패스_3878" data-name="패스 3878" d="M27.422,2l2.521.183L29.977,9.7l-.067,7.431H27.539l-.133-7.149-.05-2.571ZM23.807,2l2.488.183.033,7.961-.1,7.331H23.923l-.133-7.9H22.032l.016-2.355,1.692-.033L23.807,2M15.812,3.111l6.369.017-.033,2.14h-.564l-.033,6.452h1.144l.05,3.35-3.234-.133-3.782.133V11.72h1l-.083-6.569L15.8,5.135l.017-2.024m2.77,8.609H19.71l-.033-6.5L18.433,5.2l.149,6.519M23.807,1.25a.75.75,0,0,0-.75.74L23,6.456l-.672.013,0-.474a.75.75,0,0,0,.568-.716l.033-2.139a.75.75,0,0,0-.748-.762l-6.369-.017h0a.75.75,0,0,0-.75.744l-.016,2.024a.749.749,0,0,0,.735.755l.119,0,.065,5.083h-.236a.75.75,0,0,0-.75.75v3.35a.749.749,0,0,0,.75.75h.026l3.754-.132,3.2.132h.031a.752.752,0,0,0,.4-.114l.03,1.782a.75.75,0,0,0,.75.737h2.305a.751.751,0,0,0,.738-.614.746.746,0,0,0,.573.266H29.91a.75.75,0,0,0,.75-.744l.067-7.43-.034-7.524a.749.749,0,0,0-.7-.745l-2.521-.182-.055,0a.748.748,0,0,0-.507.2.719.719,0,0,0-.134.163.757.757,0,0,0-.432-.177l-2.487-.182-.055,0m-1.5,9.08h.745l.012.737a.745.745,0,0,0-.37-.1h-.39Z" fill="#fff"/>
      <path id="패스_3879" data-name="패스 3879" d="M33.785,17.85a.376.376,0,0,1-.374-.359L33.295,14.7V12.682a.375.375,0,0,1,.372-.375l1.673-.014c-2.667-.234-4.251-2.032-4.251-4.852,0-2.871,1.951-5.036,4.538-5.036,2.689.053,4.422,2.088,4.422,5.185,0,2.61-1.436,4.43-3.629,4.694l1.264-.01a.376.376,0,0,1,.375.375V14.8l6.708.015a.375.375,0,0,1,.374.367l.05,2.339a.376.376,0,0,1-.375.383l-11.031-.05M35.677,5.709a1.106,1.106,0,0,0-.985,1.151c0,.453.13,1.22,1,1.268h.013a.93.93,0,0,0,.776-.289,1.352,1.352,0,0,0,.259-.879,1.115,1.115,0,0,0-1.068-1.251m6.087,8.028a.375.375,0,0,1-.375-.364l-.232-7.729.116-3.656a.375.375,0,0,1,.375-.363l3.107.183a.377.377,0,0,1,.353.374l.016,5.656-.066,5.528a.374.374,0,0,1-.375.371Z" fill="#eeb94d"/>
      <path id="패스_3880" data-name="패스 3880" d="M41.648,2l3.085.183.016,5.656-.066,5.523H41.764l-.232-7.729Zm-6.021.78c2.538.05,4.047,1.99,4.047,4.81,0,2.487-1.427,4.352-3.817,4.352q-.121,0-.246-.006c-2.654-.133-4.147-1.808-4.147-4.495,0-2.538,1.658-4.661,4.163-4.661m.151,5.725c.865,0,1.342-.619,1.342-1.545a1.412,1.412,0,1,0-2.8-.1A1.444,1.444,0,0,0,35.677,8.5l.1,0m1.906,4.144V15.17l7.082.016.05,2.339-11.03-.05-.116-2.786V12.682l4.014-.033m3.964-11.4a.75.75,0,0,0-.75.726l-.116,3.633.232,7.776a.751.751,0,0,0,.75.727h2.919a.75.75,0,0,0,.75-.741L45.5,7.848l-.016-5.667a.751.751,0,0,0-.706-.747l-3.085-.182-.044,0m-6.021.78c-2.8,0-4.913,2.326-4.913,5.411a4.879,4.879,0,0,0,2.494,4.65.749.749,0,0,0-.288.591v2.007l.117,2.818a.748.748,0,0,0,.746.718l11.029.05h0a.75.75,0,0,0,.75-.766l-.05-2.338a.751.751,0,0,0-.748-.735l-6.334-.014V12.649a.752.752,0,0,0-.222-.533.513.513,0,0,0-.042-.038A5.03,5.03,0,0,0,40.424,7.59c0-3.32-1.877-5.5-4.782-5.56h-.015m.151,5.725-.061,0c-.177-.009-.65-.035-.65-.893a.747.747,0,0,1,.61-.776c.66,0,.693.73.693.876,0,.8-.43.8-.592.8" fill="#fff"/>
    </g>
  </g>
</svg>
