<?xml version="1.0" encoding="UTF-8"?>
<svg id="_레이어_1" data-name="레이어 1" xmlns="http://www.w3.org/2000/svg" viewBox="0 0 407.05 106.28">
  <defs>
    <style>
      .cls-1 {
        stroke: #efb254;
        stroke-miterlimit: 10;
      }

      .cls-1, .cls-2 {
        fill: #fff;
      }

      .cls-1, .cls-2, .cls-3, .cls-4 {
        fill-rule: evenodd;
      }

      .cls-2, .cls-3, .cls-4, .cls-5, .cls-6 {
        stroke-width: 0px;
      }

      .cls-3 {
        fill: #eeb94d;
      }

      .cls-4, .cls-6 {
        fill: #efb254;
      }

      .cls-5 {
        fill: #f2c76f;
      }
    </style>
  </defs>
  <g>
    <g>
      <g>
        <path class="cls-6" d="M95.72,66.83c0-11.74,8.23-20.8,20.1-20.8s20.04,9.06,20.04,20.8-8.23,20.8-20.04,20.8-20.1-9.06-20.1-20.8ZM124.5,66.83c0-8.23-3.25-13.53-8.68-13.53s-8.74,5.93-8.74,14.17c0,7.59,3.25,13.53,8.74,13.53s8.68-5.93,8.68-14.17ZM138.93,100.65v-57.18h11.36v19.08h7.85v7.4h-7.85v30.69h-11.36Z"/>
        <path class="cls-6" d="M154.43,66.83c0-11.74,8.49-20.8,20.36-20.8s20.29,9.06,20.29,20.8-8.49,20.8-20.29,20.8-20.36-9.06-20.36-20.8ZM183.72,66.83c0-8.23-3.51-13.53-8.93-13.53s-9,5.93-9,14.17c0,7.59,3.51,13.53,9,13.53s8.93-5.93,8.93-14.17ZM199.16,100.65v-57.18h11.36v57.18h-11.36Z"/>
        <path class="cls-6" d="M225.07,72.57v-27.25h35.16v27.25h-35.16ZM230.36,100.26v-22.78h47.03v22.78h-47.03ZM248.87,52.47h-12.44v12.96h12.44v-12.96ZM266.04,84.63h-24.31v8.36h24.31v-8.36ZM266.16,74.93v-31.46h11.36v11.68h6.96v7.4h-6.96v12.38h-11.36Z"/>
        <path class="cls-6" d="M329.14,84.95v15.7h-11.49v-15.7h-24.44v-7.15h60.37v7.15h-24.44ZM299.47,73.85v-28.84h47.8v7.15h-36.5v3.64h35.86v6.89h-35.8v3.96h37.46v7.21h-48.82Z"/>
        <path class="cls-6" d="M395.7,100.65v-30.12h-4.66c-1.53,9.89-9.32,17.1-19.85,17.1-11.81,0-20.23-9.06-20.23-20.8s8.36-20.8,20.23-20.8c10.53,0,18.31,7.21,19.85,17.1h4.66v-19.65h11.36v57.18h-11.36ZM380,66.83c0-8.23-3.38-13.53-8.81-13.53s-8.87,5.93-8.87,14.17c0,7.59,3.38,13.53,8.87,13.53s8.81-5.93,8.81-14.17Z"/>
      </g>
      <path class="cls-4" d="M22.25,103.83s18.26,5.77,44.54-.39l3.03-43.67-11.52-16.58-30.33-1.03-9.69,16.6v21.58l3.96,23.49Z"/>
      <path class="cls-1" d="M43.52,1.87s-5.28.05-9.42,1.04c-4.14.99-7.35,3.11-7.35,3.11,0,0-3.5-2.42-7.55-1.53-4.05.89-5.87,7.06-3.9,9.77,1.97,2.71,3.75,3.01,3.75,3.01C15.59,36.33-4.38,81.94,2.47,94.65c6.37,11.82,19.22,12.75,26.93,9.56,7.71-3.19,7.5-14.9,2.98-17.78-2.8-1.78-6.98-2.4-10.37-3.84l-1.63-.37c2.63-8.3,5.32-16.28,6.26-21.43,0,0-1.22-.2-2.57-2.06-1.35-1.86-.1-6.09,2.67-6.7,2.77-.61,5.18,1.05,5.18,1.05,0,0,2.2-1.45,5.04-2.13,2.84-.68,6.46-.71,6.46-.71,0,0,3.62.03,6.46.71,2.84.68,5.04,2.13,5.04,2.13,0,0,2.4-1.66,5.18-1.05,2.77.61,4.03,4.84,2.67,6.7-1.35,1.86-2.57,2.06-2.57,2.06.94,5.16,3.64,13.16,6.28,21.49l-1.44.31c-3.77,1.6-7.14,1.78-10.37,3.84-4.52,2.88-4.73,14.6,2.98,17.78,7.71,3.19,20.56,2.26,26.93-9.56,6.85-12.7-13.12-58.31-16.58-77.38,0,0,1.78-.3,3.75-3.01,1.97-2.71.15-8.88-3.9-9.77-4.05-.89-7.55,1.53-7.55,1.53,0,0-3.21-2.12-7.35-3.11-4.14-.99-9.42-1.04-9.42-1.04h0Z"/>
      <path class="cls-2" d="M53.21,61.09c1.01,0,1.84,1.24,1.84,2.76s-.82,2.76-1.84,2.76-1.84-1.24-1.84-2.76.82-2.76,1.84-2.76h0Z"/>
      <path class="cls-2" d="M33.63,61.09c1.01,0,1.84,1.24,1.84,2.76s-.82,2.76-1.84,2.76-1.84-1.24-1.84-2.76.82-2.76,1.84-2.76h0Z"/>
      <path class="cls-2" d="M43.42,61.15s1.93-.09,3.1.71c1.17.8,1.03,2.03.02,2-1.02-.03-1.64-.09-1.96.8-.32.89-1.16,1.08-1.16,1.08,0,0-.84-.18-1.16-1.08-.32-.89-.94-.83-1.96-.8-1.02.03-1.15-1.2.02-2,1.17-.8,3.1-.71,3.1-.71h0Z"/>
      <path class="cls-3" d="M43.52,17.23s2.82-.13,4.52,1.04c1.7,1.17,1.5,2.96.02,2.92-1.48-.04-2.39-.13-2.85,1.17-.46,1.3-1.69,1.57-1.69,1.57,0,0-1.23-.27-1.69-1.57-.46-1.3-1.37-1.22-2.85-1.17-1.48.04-1.68-1.75.02-2.92,1.7-1.17,4.52-1.04,4.52-1.04h0Z"/>
      <path class="cls-3" d="M56.64,15.68c-1.06,0-1.93,1.36-1.93,3.05s.86,3.05,1.93,3.05,1.93-1.36,1.93-3.05-.86-3.05-1.93-3.05h0Z"/>
      <path class="cls-3" d="M30.4,15.68c1.06,0,1.93,1.36,1.93,3.05s-.86,3.05-1.93,3.05-1.93-1.36-1.93-3.05.86-3.05,1.93-3.05h0Z"/>
    </g>
    <g>
      <path class="cls-5" d="M248.23,18.09c.7,0,1.35.12,1.97.37.62.27,1.15.62,1.64,1.05.45.45.82.96,1.11,1.56.27.62.41,1.27.41,1.97s-.14,1.35-.41,1.93c-.29.62-.66,1.13-1.11,1.56-.49.45-1.03.8-1.64,1.05-.62.27-1.27.39-1.97.39s-1.35-.12-1.97-.39c-.64-.25-1.19-.62-1.64-1.07-.47-.43-.84-.94-1.11-1.56-.29-.57-.41-1.21-.41-1.91s.14-1.35.43-1.97c.29-.59.66-1.13,1.15-1.58.47-.43,1.03-.78,1.64-1.03.62-.25,1.25-.37,1.91-.37ZM246,23.04c0,.49.06.92.18,1.31.12.41.29.76.49,1.05.21.31.43.53.72.7.27.18.55.27.86.27.29,0,.55-.08.84-.25.25-.16.49-.39.7-.7.21-.29.37-.66.51-1.07.12-.41.18-.84.18-1.33,0-.45-.06-.88-.18-1.29-.14-.39-.31-.74-.51-1.05-.21-.29-.45-.53-.72-.72-.29-.16-.55-.25-.84-.25-.41,0-.76.12-1.05.35-.29.25-.51.51-.68.84-.19.35-.31.72-.39,1.09-.08.41-.12.76-.12,1.05ZM254.94,35.29v-1.64c0-.35,0-.72.02-1.13v-9.34c-.02-1.03-.02-1.97-.02-2.79v-2.75h2.85c-.04.08-.04.21-.04.39v2.38c0,.55,0,1.09.04,1.58h2.87v1.64h-2.87v11.66h-2.85Z"/>
      <path class="cls-5" d="M265.59,18.09c.68,0,1.33.12,1.95.37.62.27,1.15.62,1.64,1.05.45.45.84.96,1.13,1.56.27.62.41,1.27.41,1.97s-.14,1.35-.41,1.95c-.29.62-.68,1.13-1.13,1.56-.49.45-1.03.8-1.64,1.05-.62.25-1.27.37-1.95.37s-1.33-.12-1.95-.39c-.62-.25-1.17-.59-1.62-1.05-.49-.43-.86-.94-1.13-1.56-.29-.6-.43-1.23-.43-1.93s.14-1.35.43-1.97c.29-.59.66-1.13,1.15-1.58.47-.43,1.03-.78,1.64-1.03s1.25-.37,1.91-.37ZM263.35,23.04c0,.45.06.88.19,1.27.1.41.27.78.47,1.07.21.31.43.55.72.72.27.18.55.27.88.27.29,0,.55-.08.84-.27.27-.17.51-.39.72-.7.21-.29.37-.66.49-1.07s.18-.84.18-1.31c0-.41-.06-.84-.18-1.25-.12-.39-.29-.74-.49-1.05-.21-.29-.45-.53-.72-.74-.29-.16-.57-.27-.86-.27-.41,0-.74.12-1.03.33-.29.25-.53.53-.7.86-.18.35-.31.72-.39,1.09-.08.39-.12.74-.12,1.05ZM272.3,35.29v-1.64c0-.35,0-.72.02-1.13v-9.34c-.02-1.03-.02-1.97-.02-2.79v-2.75h2.87c-.04.08-.04.21-.04.39v.7l.06,16.56h-2.89Z"/>
      <path class="cls-5" d="M291.88,22.22c.12.02.27.02.41.02h2.3c.08,0,.14,0,.18-.02v1.64h-2.89c-.02.49-.02.99-.02,1.48v6.98c0,.86,0,1.58.02,2.13v.84h-2.85s.02-.14.02-.39v-2.24c-.02-.43-.02-.84-.02-1.25v-1.35c-.37.21-.84.35-1.38.45-.57.12-1.15.18-1.76.18h-8.46v-1.66s.14.02.29.02h3.06c.14,0,.31,0,.49-.02v-2.5c-.51-.08-.99-.25-1.4-.53-.43-.25-.8-.57-1.09-.96-.33-.37-.55-.8-.72-1.29-.18-.45-.27-.94-.27-1.44,0-.6.12-1.17.39-1.7.25-.53.6-.99,1.05-1.4.43-.39.94-.7,1.56-.94.57-.21,1.21-.33,1.91-.33s1.31.12,1.93.33c.6.25,1.13.55,1.58.94.45.41.8.86,1.07,1.38.25.53.39,1.11.39,1.72,0,.49-.08.96-.25,1.42-.18.47-.43.9-.72,1.27-.33.41-.7.74-1.11.99-.45.29-.92.47-1.44.55v2.5h1.85c.66,0,1.23-.04,1.74-.12.49-.06.9-.14,1.27-.27v-2.87c0-.82,0-1.68.02-2.63v-5.03c-.02-.08-.02-.16-.02-.25v-.23h2.85c-.02.06-.02.16-.02.33v3.63c0,.21,0,.41.02.62ZM282.71,25.07c.37,0,.7-.08,1.03-.25.29-.14.55-.35.78-.62.21-.25.39-.55.51-.9.12-.33.19-.66.19-1,0-.33-.06-.68-.19-1.03-.12-.33-.31-.62-.51-.88-.25-.25-.51-.47-.8-.64-.33-.16-.66-.25-1.01-.25-.37,0-.7.08-.99.23-.31.16-.57.39-.78.64-.23.27-.39.55-.51.88-.12.35-.18.7-.18,1.05s.06.68.18,1c.12.33.29.64.51.88.21.27.45.47.76.64.29.16.64.25,1.01.25Z"/>
      <path class="cls-5" d="M298.63,24.64c0-.62.02-1.19.02-1.74v-4.17c-.02-.12-.02-.22-.02-.33v-.29h9.01v8.44h-7.02c-.57,0-1.07-.16-1.44-.53-.37-.31-.55-.76-.55-1.38ZM300.86,33.36c0-.47.02-.92.02-1.38v-3.32c-.02-.08-.02-.16-.02-.25v-.23h11.66v7.08h-9.67c-.62,0-1.09-.16-1.46-.49-.37-.37-.53-.84-.53-1.42ZM301.48,19.75v5.15h3.26v-5.15h-3.26ZM303.74,29.83v3.84h5.93v-3.84h-5.93ZM309.69,17.58h2.87v3.14h2.42c.29.02.45.02.45,0v1.68h-2.87v4.5h-2.87v-9.32Z"/>
      <path class="cls-5" d="M320.34,18.09c.68,0,1.33.12,1.95.37.62.27,1.15.62,1.64,1.05.45.45.84.96,1.13,1.56.27.62.41,1.27.41,1.97s-.14,1.35-.41,1.95c-.29.62-.68,1.13-1.13,1.56-.49.45-1.03.8-1.64,1.05-.62.25-1.27.37-1.95.37s-1.33-.12-1.95-.39c-.62-.25-1.17-.59-1.62-1.05-.49-.43-.86-.94-1.13-1.56-.29-.6-.43-1.23-.43-1.93s.14-1.35.43-1.97c.29-.59.66-1.13,1.15-1.58.47-.43,1.03-.78,1.64-1.03s1.25-.37,1.91-.37ZM318.1,23.04c0,.45.06.88.19,1.27.1.41.27.78.47,1.07.21.31.43.55.72.72.27.18.55.27.88.27.29,0,.55-.08.84-.27.27-.17.51-.39.72-.7.21-.29.37-.66.49-1.07s.18-.84.18-1.31c0-.41-.06-.84-.18-1.25-.12-.39-.29-.74-.49-1.05-.21-.29-.45-.53-.72-.74-.29-.16-.57-.27-.86-.27-.41,0-.74.12-1.03.33-.29.25-.53.53-.7.86-.18.35-.31.72-.39,1.09-.08.39-.12.74-.12,1.05ZM327.05,35.29v-1.64c0-.35,0-.72.02-1.13v-9.34c-.02-1.03-.02-1.97-.02-2.79v-2.75h2.87c-.04.08-.04.21-.04.39v.7l.06,16.56h-2.89Z"/>
      <path class="cls-5" d="M337.76,26.16v-6.24h-1.64v-1.64h10.59v1.64h-1.62v6.24h1.74v1.62h-10.82v-1.62h1.74ZM339.15,33.4v-4h2.89v4.31h9.56v1.62h-10.47c-.57,0-1.05-.18-1.4-.53-.41-.33-.6-.8-.6-1.4ZM342.25,26.16v-6.24h-1.66v6.24h1.66ZM346.23,20.7h2.38v-1.15c-.02-.27-.02-.53-.02-.78v-1.11h2.85v13.05h-2.85v-1.66c0-.49,0-1.05.02-1.68v-1.99h-2.38v-1.64h2.38v-1.42h-2.38v-1.62Z"/>
      <path class="cls-5" d="M359.24,17.46s-.02.1-.02.18v1.64c0,.1,0,.21.02.29h3.69v1.62h-2.28c.49.37.88.78,1.19,1.27.29.49.43,1.05.43,1.66,0,.57-.12,1.09-.35,1.54-.25.49-.55.9-.94,1.25-.86.76-1.93,1.13-3.16,1.13-.62,0-1.19-.1-1.72-.31-.55-.18-1.03-.47-1.44-.84-.41-.35-.72-.76-.96-1.23-.25-.45-.37-.96-.37-1.54s.14-1.15.45-1.66c.29-.49.68-.9,1.21-1.27h-2.3v-1.62h3.69v-2.11h2.85ZM355.94,33.4v-3.8h2.87c-.02.08-.02.16-.02.29v3.26c0,.16,0,.35.02.55h9.11v1.62h-9.99c-.62,0-1.09-.18-1.44-.51-.37-.35-.55-.82-.55-1.42ZM357.83,21.74c-.45,0-.84.23-1.21.68-.16.21-.29.47-.37.76-.12.31-.16.62-.16.94s.04.66.14.94c.08.31.21.55.37.76.16.23.35.39.55.51.21.14.43.21.68.21.45,0,.88-.25,1.25-.74.12-.23.23-.49.35-.78.08-.29.14-.57.14-.9,0-.23-.04-.49-.12-.78-.08-.29-.18-.53-.31-.78-.16-.22-.35-.43-.55-.59-.23-.14-.47-.23-.76-.23ZM364.39,30.71v-2.05c0-.62,0-1.31.02-2.09v-6.88c-.02-.29-.02-.57-.02-.84v-1.19h2.87c-.02.06-.02.16-.02.31v3.24c0,.18,0,.35.02.51h2.89v1.62h-2.89v7.37h-2.87Z"/>
      <path class="cls-5" d="M382.59,19.81h3.18v-2.17h2.85c-.02.16-.02.31-.02.47v9.09c0,1.05,0,2.05.02,3.02,0,.98,0,1.85.02,2.59v1.8c0,.45,0,.68.02.68h-2.89v-9.01h-3.22c-.49.53-1.05.94-1.7,1.23-.66.31-1.4.45-2.18.45-.7,0-1.35-.12-1.97-.39-.62-.25-1.17-.62-1.62-1.07-.49-.43-.86-.94-1.13-1.56-.29-.57-.41-1.21-.41-1.91s.14-1.33.43-1.95c.27-.6.64-1.13,1.13-1.58.45-.43,1.01-.78,1.64-1.05.62-.25,1.25-.37,1.93-.37.8,0,1.54.17,2.24.47.66.33,1.23.74,1.68,1.25ZM376.44,23.04c0,.45.06.88.19,1.27.1.41.27.78.47,1.07.21.31.43.55.72.72.27.18.55.27.88.27.29,0,.55-.08.84-.27.27-.17.51-.41.72-.72.21-.29.37-.66.49-1.07.12-.39.18-.82.18-1.29s-.06-.9-.18-1.31c-.12-.39-.29-.74-.49-1.05-.21-.29-.45-.51-.72-.7-.29-.16-.57-.25-.86-.25-.41,0-.74.12-1.03.33-.29.25-.53.53-.7.86-.18.35-.31.72-.39,1.09-.08.39-.12.74-.12,1.05ZM383.54,24.66h2.24v-3.2h-2.22c.1.25.16.51.21.76.02.29.04.55.04.82,0,.29-.02.57-.04.82-.04.27-.12.53-.23.8Z"/>
      <path class="cls-5" d="M399.07,24.19c0,.53-.1,1-.31,1.44-.23.45-.51.82-.88,1.15-.37.35-.8.62-1.29.8-.51.21-1.05.29-1.62.29s-1.11-.08-1.6-.29c-.51-.16-.94-.43-1.31-.78-.41-.31-.7-.7-.9-1.15-.23-.45-.33-.92-.33-1.46,0-.64.16-1.21.51-1.72.33-.49.76-.9,1.29-1.23h-1.93v-1.56h2.85v-2.13h2.83s-.02.1-.02.16v1.7c0,.08,0,.19.02.27h2.85v1.56h-1.93c.55.33.99.74,1.31,1.23.29.51.45,1.09.45,1.72ZM396.49,24.19c0-.27-.04-.53-.12-.82-.08-.27-.21-.49-.33-.7-.16-.19-.33-.35-.49-.49-.21-.12-.39-.19-.57-.19-.21,0-.41.06-.57.19-.21.14-.37.31-.51.47-.12.21-.21.43-.29.7-.1.29-.14.55-.14.84s.04.57.14.82c.08.29.16.51.29.72.14.21.31.37.51.49.16.12.37.18.57.18.25,0,.47-.08.68-.25.18-.14.35-.33.47-.53.25-.49.37-.96.37-1.44ZM405.45,32.01c0,.57-.14,1.09-.41,1.58-.29.47-.68.88-1.15,1.25-1.03.7-2.3,1.05-3.82,1.05s-2.85-.35-3.82-1.05c-.49-.37-.86-.78-1.13-1.25-.29-.49-.43-1.01-.43-1.58s.12-1.09.41-1.56c.27-.45.64-.84,1.13-1.21.47-.33,1.05-.59,1.7-.8.64-.18,1.35-.29,2.13-.29.62,0,1.23.08,1.89.23.62.16,1.19.39,1.72.7.51.33.94.72,1.27,1.19.33.49.49,1.09.49,1.74ZM402.58,32.01c0-.41-.08-.76-.21-1.05-.14-.29-.33-.51-.55-.68-.21-.18-.47-.33-.76-.41-.31-.06-.64-.1-.99-.1-.37,0-.7.04-.98.12-.31.08-.57.23-.8.41-.23.18-.39.41-.51.68-.12.29-.18.64-.18,1.03,0,.82.23,1.38.72,1.74.23.18.49.33.8.41.29.06.6.1.96.1.31,0,.62-.04.92-.08.29-.08.55-.21.8-.37.23-.16.41-.39.57-.68.12-.29.21-.68.21-1.13ZM403.75,17.72h2.69v9.73h-2.69v-4.31h-1.13v4.31h-2.75c0-.9.02-1.74.02-2.56v-6.24c-.02-.18-.02-.35-.02-.49v-.43h2.75v3.75h1.13v-3.75Z"/>
    </g>
  </g>
  <g>
    <path class="cls-5" d="M77.22,25.35s.04-.06.08-.09c.14-.1.35-.03.48.15.07.11.15.22.22.33.13.19.12.42-.02.52-.14.1-.35.04-.48-.15-.08-.11-.15-.22-.23-.34-.1-.14-.11-.32-.05-.43ZM82.54,31.85s.01-.02.02-.03c.11-.14.32-.12.47.03.89.9,1.83,1.75,2.78,2.54l.08.06c.17.14.23.37.14.52-.09.15-.3.17-.46.03l-.08-.06c-.97-.81-1.93-1.68-2.84-2.6-.14-.14-.18-.36-.1-.5ZM102.99,8.2c.11-.19.35-.22.53-.07.19.15.25.43.14.62-.46.8-.83,1.66-1.08,2.54-.11.38-.21.77-.28,1.17-.04.23-.25.34-.46.26-.21-.08-.34-.33-.3-.55.08-.42.18-.84.3-1.24.27-.95.66-1.86,1.15-2.72,0,0,0,0,0,0ZM108.88,3.05c.04-.07.1-.12.18-.15,1.32-.52,2.69-.79,4.08-.78.23,0,.43.21.44.47.02.26-.15.46-.38.46-1.29,0-2.58.24-3.81.72-.2.08-.44-.05-.54-.29-.06-.15-.04-.31.03-.43ZM102.11,20.41c.04-.07.11-.12.2-.14.2-.04.41.11.48.33.39,1.32.92,2.61,1.57,3.85.11.21.06.45-.12.54-.18.09-.41,0-.52-.21-.68-1.29-1.24-2.64-1.65-4.02-.04-.13-.02-.25.04-.34ZM91.77,38.66c.08-.12.23-.16.39-.08,1.1.56,2.23,1.04,3.35,1.44.19.07.32.28.3.47-.03.19-.2.29-.39.23-1.15-.41-2.31-.9-3.44-1.48-.18-.09-.29-.31-.24-.5,0-.03.02-.06.03-.08ZM120.57,5.69s.01-.02.02-.03c.15-.19.41-.2.59-.02,1.08,1.07,2.03,2.35,2.81,3.81.12.22.06.5-.14.62-.2.12-.46.03-.58-.19-.74-1.37-1.62-2.57-2.63-3.56-.17-.17-.2-.44-.08-.63ZM109,30.78c.11-.16.34-.18.52-.04,1.02.83,2.14,1.58,3.31,2.22.2.11.29.35.22.54-.08.19-.3.26-.49.15-1.22-.67-2.38-1.45-3.44-2.31-.18-.14-.23-.4-.12-.56h0ZM102.17,41.51c.05-.08.14-.13.25-.12,1.15.05,2.31.02,3.46-.09.19-.02.39.13.44.34.05.21-.06.39-.25.41-1.18.12-2.37.15-3.55.09-.19,0-.37-.18-.4-.39-.01-.09,0-.17.05-.23ZM125.73,18.07c.07-.1.18-.16.31-.16.23,0,.43.2.45.44.1,1.49.07,2.98-.09,4.43-.03.23-.23.38-.46.34-.22-.05-.39-.27-.36-.51.16-1.39.18-2.82.08-4.25,0-.11.02-.21.08-.28ZM112.42,39.69s.07-.08.13-.1c1.07-.45,2.11-.99,3.1-1.6.17-.1.4-.04.53.15.13.19.09.43-.08.53-1.01.62-2.08,1.17-3.18,1.64-.18.07-.41-.02-.51-.22-.07-.14-.06-.29.01-.39ZM123.16,30.12c.11-.16.34-.19.52-.07.19.13.27.39.16.57-.63,1.13-1.37,2.21-2.19,3.2-.13.16-.38.16-.55,0-.17-.15-.21-.41-.07-.57.79-.96,1.5-2.01,2.11-3.11,0-.01.02-.03.03-.04ZM119.86,35.62c.07-.1.2-.15.33-.13,1.27.21,2.56.32,3.84.32.22,0,.41.18.44.4.02.22-.13.4-.35.4-1.32,0-2.65-.11-3.96-.33-.21-.04-.38-.24-.37-.46,0-.08.03-.15.07-.2ZM131.47,34.75c.04-.05.1-.1.18-.12,1.22-.38,2.45-.86,3.66-1.42.2-.09.45,0,.56.21s.03.46-.17.55c-1.24.58-2.5,1.06-3.75,1.45-.21.06-.44-.06-.53-.28-.05-.14-.03-.29.05-.39ZM142.12,29s.04-.04.06-.06c1.07-.83,2.15-1.75,3.21-2.73.17-.16.45-.15.62.04.17.18.16.46-.01.62-1.08,1-2.18,1.93-3.27,2.77-.18.14-.45.1-.6-.09-.13-.17-.13-.39,0-.54ZM154.22,16.08c.16-.19.43-.23.63-.08.21.15.25.45.1.66-.94,1.28-1.9,2.52-2.85,3.68h0c-.16.19-.45.22-.64.06-.19-.16-.22-.45-.06-.65.94-1.15,1.88-2.38,2.81-3.65,0,0,.01-.02.02-.02Z"/>
    <path class="cls-6" d="M152.68,24.24s-.05-.08-.07-.13l-1.69-4.05-.02-.02-3.15-3.02c-.18-.17-.25-.41-.21-.64.04-.22.19-.4.39-.48l.52-.21c.33-.14.72-.14,1.08-.02l3.23,1.11c.92-.89,2.16-1.97,3.71-3.2,1.17-.93,2.66-2.05,4.25-3.21l-11.88-8.77c-.24-.18-.36-.49-.28-.78.07-.3.31-.52.61-.57l1.34-.21c.8-.12,1.61-.01,2.34.32l13.51,6.13c2.21-1.39,4.01-2.36,5.38-2.87.7-.26,1.27-.4,1.73-.42.73-.03,1.09.26,1.26.51.66.96-.58,2.36-.99,2.82-.97,1.09-2.52,2.43-4.62,3.98l.85,14.81c.05.81-.14,1.6-.55,2.3l-.68,1.18s0,0,0,0c-.15.26-.45.41-.75.37-.3-.04-.55-.25-.63-.55l-3.9-14.24c-1.64,1.07-3.26,2.07-4.52,2.82-1.71,1.01-3.16,1.78-4.32,2.31l-.13,3.41c-.01.39-.16.74-.4,1l-.39.41c-.15.16-.37.23-.59.19-.18-.03-.35-.14-.45-.29ZM152.91,23.58s0,0,0,0h0ZM148.35,16.93h0s0,0,0,0ZM167.8,28.25s0,0,0,0h0ZM149.51.72s0,0,0,0h0ZM168.45,28.34h0s0,0,0,0Z"/>
  </g>
</svg>