<svg xmlns="http://www.w3.org/2000/svg" xmlns:xlink="http://www.w3.org/1999/xlink" width="35.945" height="20.525" viewBox="0 0 35.945 20.525">
  <defs>
    <clipPath id="clip-path">
      <rect id="사각형_2090" data-name="사각형 2090" width="35.945" height="20.525" transform="translate(0 0)" fill="none"/>
    </clipPath>
  </defs>
  <g id="그룹_1329" data-name="그룹 1329" transform="translate(0 0)">
    <g id="그룹_1328" data-name="그룹 1328" clip-path="url(#clip-path)">
      <path id="패스_3947" data-name="패스 3947" d="M10.862,19.508a1,1,0,0,1-1-.976l-.039-1.6c-.013,0-6.585-.065-6.585-.065a1,1,0,0,1-.989-.969L2.017,8.488,2,4.131a1,1,0,0,1,1-1l6.485-.016v-.07a1,1,0,0,1,1-1.025c.024,0,2.658.185,2.658.185a1,1,0,0,1,.579.237.975.975,0,0,1,.148-.173A1,1,0,0,1,14.544,2c.023,0,2.657.185,2.657.185a1,1,0,0,1,.93.993l.033,7.513L18.1,18.135a1,1,0,0,1-1,.992H14.66a1,1,0,0,1-.576-.183,1,1,0,0,1-.9.564ZM9.719,12.731,9.576,6.918c-.019,0-2.568-.011-2.568-.011l.037,5.763Z" fill="#eeb94d"/>
      <path id="패스_3948" data-name="패스 3948" d="M14.544,3l2.587.183.033,7.513L17.1,18.127H14.66l-.133-7.514H13.25l-.066,7.895H10.862L10.48,3.016l2.588.183.2,4.86,1.228.017ZM9.518,4.111V5.919L6,5.9l.05,7.745,3.648.083.083,2.206-6.535-.066L3.016,8.457,3,4.128l6.518-.017M14.544,1a1.993,1.993,0,0,0-.986.26,2.012,2.012,0,0,0-.35-.056l-2.587-.183c-.047,0-.094,0-.141,0A2,2,0,0,0,8.7,2.113l-5.7.015A2,2,0,0,0,1,4.135l.016,4.329v.055l.232,7.414a2,2,0,0,0,1.979,1.938l5.619.057.015.63a2,2,0,0,0,2,1.95h2.322a1.992,1.992,0,0,0,1.2-.4,2.085,2.085,0,0,0,.276.019H17.1a2,2,0,0,0,2-1.982l.066-7.431-.033-7.54a2,2,0,0,0-1.859-1.987L14.685,1c-.048,0-.1,0-.141,0M8.039,11.693,8.015,7.912l.585,0,.094,3.793Z"/>
      <path id="패스_3949" data-name="패스 3949" d="M20.506,19.475a1,1,0,0,1-.994-.952l-.133-2.786V13.682a1.018,1.018,0,0,1,.012-.157l-.464,0a1,1,0,0,1-.99-.961L17.6,4.2a1,1,0,0,1,.971-1.039l2.4-.067,5.133.066a1.009,1.009,0,0,1,.792.407l-.013-.526a1,1,0,0,1,1-1.025c.02,0,3.161.184,3.161.184a1,1,0,0,1,.939.936L32.15,5.7l1.82.044a1,1,0,0,1,.973,1.075L34.76,9.262a1,1,0,0,1-.964.925l-1.533.051-.054,4.121a1,1,0,0,1-.556.883,1,1,0,0,1,.672.923l.049,2.339a1,1,0,0,1-1,1.021l-10.868-.05m7.113-4.3a1,1,0,0,1-.445-.808l-.167-6.679-.023.892.066,3.988a1,1,0,0,1-1,1.016l-.66-.006c0,.022,0,1.592,0,1.592Z" fill="#eeb94d"/>
      <path id="패스_3950" data-name="패스 3950" d="M27.891,3.017l3.1.183.216,3.483,2.736.066-.182,2.438-2.488.083-.066,5.076H28.173ZM21.008,4.095l5.092.067-.116,4.395.066,4.03-7.115-.066L18.6,4.162l2.4-.067m2.8,5.441V6.218L22.036,6.2l.1,3.267,1.675.067m.581,4.113V16.17l6.932.017.05,2.338-10.864-.05-.133-2.786V13.682l4.015-.033m3.5-12.632a2,2,0,0,0-1.807,1.144L21.034,2.1h-.081l-2.406.066A2,2,0,0,0,16.6,4.241l.332,8.359a2,2,0,0,0,1.441,1.842v1.247c0,.032,0,.063,0,.1l.133,2.787a2,2,0,0,0,1.988,1.9l10.864.05h.009a2,2,0,0,0,2-2.042l-.05-2.339a1.994,1.994,0,0,0-.286-.989,1.984,1.984,0,0,0,.17-.783l.042-3.166.579-.02a2,2,0,0,0,1.928-1.849L35.94,6.9a2,2,0,0,0-1.946-2.149l-.9-.021-.1-1.652A2,2,0,0,0,31.11,1.2l-3.1-.183-.118,0"/>
      <path id="패스_3951" data-name="패스 3951" d="M9.862,18.508a1,1,0,0,1-1-.976l-.039-1.6c-.013,0-6.585-.065-6.585-.065a1,1,0,0,1-.989-.969L1.017,7.488,1,3.131a1,1,0,0,1,1-1l6.485-.016v-.07a1,1,0,0,1,1-1.025c.024,0,2.658.185,2.658.185a1,1,0,0,1,.579.237.975.975,0,0,1,.148-.173A1,1,0,0,1,13.544,1c.023,0,2.657.185,2.657.185a1,1,0,0,1,.93.993l.033,7.513L17.1,17.135a1,1,0,0,1-1,.992H13.66a1,1,0,0,1-.576-.183,1,1,0,0,1-.9.564ZM8.719,11.731,8.576,5.918c-.019,0-2.568-.011-2.568-.011l.037,5.763Z" fill="#eeb94d"/>
      <path id="패스_3952" data-name="패스 3952" d="M13.544,2l2.587.183L16.164,9.7,16.1,17.127H13.66l-.133-7.514H12.25l-.066,7.895H9.862L9.48,2.016l2.588.183.2,4.86,1.228.017ZM8.518,3.111V4.919L5,4.9l.05,7.745,3.648.083.083,2.206-6.535-.066L2.016,7.457,2,3.128l6.518-.017M13.544,0a1.993,1.993,0,0,0-.986.26A2.012,2.012,0,0,0,12.208.2L9.621.021c-.047,0-.094,0-.141,0A2,2,0,0,0,7.7,1.113L2,1.128A2,2,0,0,0,0,3.135L.016,7.464v.055l.232,7.414a2,2,0,0,0,1.979,1.938l5.619.057.015.63a2,2,0,0,0,2,1.95h2.322a1.992,1.992,0,0,0,1.2-.4,2.085,2.085,0,0,0,.276.019H16.1a2,2,0,0,0,2-1.982l.066-7.431-.033-7.54A2,2,0,0,0,16.272.187L13.685,0c-.048,0-.1,0-.141,0m-6.5,10.693L7.015,6.912l.585,0,.094,3.793Z" fill="#e69c2e"/>
      <path id="패스_3953" data-name="패스 3953" d="M19.506,18.475a1,1,0,0,1-.994-.952l-.133-2.786V12.682a1.018,1.018,0,0,1,.012-.157l-.464,0a1,1,0,0,1-.99-.961L16.6,3.2a1,1,0,0,1,.971-1.039l2.4-.067,5.133.066a1.009,1.009,0,0,1,.792.407l-.013-.526a1,1,0,0,1,1-1.025c.02,0,3.161.184,3.161.184a1,1,0,0,1,.939.936L31.15,4.7l1.82.044a1,1,0,0,1,.973,1.075L33.76,8.262a1,1,0,0,1-.964.925l-1.533.051-.054,4.121a1,1,0,0,1-.556.883,1,1,0,0,1,.672.923l.049,2.339a1,1,0,0,1-1,1.021l-10.868-.05m7.113-4.3a1,1,0,0,1-.445-.808l-.167-6.679-.023.892.066,3.988a1,1,0,0,1-1,1.016l-.66-.006c0,.022,0,1.592,0,1.592Z" fill="#eeb94d"/>
      <path id="패스_3954" data-name="패스 3954" d="M26.891,2.017l3.1.183.216,3.483,2.736.066-.182,2.438-2.488.083-.066,5.076H27.173ZM20.008,3.1l5.092.067-.116,4.4.066,4.03-7.115-.066L17.6,3.162l2.4-.067m2.8,5.441V5.218L21.036,5.2l.1,3.267,1.675.067m.581,4.113V15.17l6.932.017.05,2.338-10.864-.05-.133-2.786V12.682l4.015-.033M26.891.017a2,2,0,0,0-1.807,1.144L20.034,1.1h-.081l-2.406.066A2,2,0,0,0,15.6,3.241l.332,8.359a2,2,0,0,0,1.441,1.842v1.247c0,.032,0,.063,0,.1l.133,2.787a2,2,0,0,0,1.988,1.9l10.864.05h.009a2,2,0,0,0,2-2.042l-.05-2.339a1.994,1.994,0,0,0-.286-.989,1.984,1.984,0,0,0,.17-.783l.042-3.166.579-.02a2,2,0,0,0,1.928-1.849L34.94,5.9a2,2,0,0,0-1.946-2.149l-.9-.021-.1-1.652A2,2,0,0,0,30.11.2L27.009.02l-.118,0" fill="#e69c2e"/>
      <path id="패스_3955" data-name="패스 3955" d="M9.862,17.883a.375.375,0,0,1-.375-.366L9.106,2.026a.369.369,0,0,1,.116-.28.375.375,0,0,1,.259-.1l2.614.183a.375.375,0,0,1,.348.359l.184,4.505.5.007L13.169,2a.377.377,0,0,1,.375-.371l2.614.183a.376.376,0,0,1,.349.373l.033,7.514-.066,7.435a.376.376,0,0,1-.375.372H13.661a.374.374,0,0,1-.375-.368l-.127-7.146h-.537l-.063,7.523a.374.374,0,0,1-.375.372ZM2.245,15.246a.375.375,0,0,1-.371-.363L1.642,7.469l-.017-4.34A.376.376,0,0,1,2,2.753l6.52-.017a.376.376,0,0,1,.375.375V4.919a.374.374,0,0,1-.375.375L5.38,5.28l.045,7,3.284.074a.376.376,0,0,1,.367.361l.083,2.206a.374.374,0,0,1-.375.389l-6.539-.066" fill="#eeb94d"/>
      <path id="패스_3956" data-name="패스 3956" d="M13.544,2l2.588.182L16.165,9.7,16.1,17.127H13.661l-.133-7.514H12.25l-.065,7.895H9.862L9.481,2.016l2.587.183.2,4.86,1.228.016ZM8.519,3.111V4.919L5,4.9l.05,7.746,3.649.083.083,2.206-6.535-.066L2.017,7.457,2,3.127l6.519-.016M13.544,1.25a.75.75,0,0,0-.75.742V2.01a.749.749,0,0,0-.673-.559L9.534,1.268l-.053,0a.751.751,0,0,0-.75.769l.009.359a.744.744,0,0,0-.221-.033h0L2,2.377a.751.751,0,0,0-.749.753l.017,4.33L1.5,14.894a.751.751,0,0,0,.742.727l6.536.066h.007a.749.749,0,0,0,.282-.055l.047,1.894a.75.75,0,0,0,.749.732h2.323a.751.751,0,0,0,.75-.744v-.193a.751.751,0,0,0,.725.556H16.1a.751.751,0,0,0,.75-.744L16.915,9.7l-.033-7.523a.75.75,0,0,0-.7-.745L13.6,1.252a.461.461,0,0,0-.053,0M8.519,5.669a.751.751,0,0,0,.3-.063l.158,6.428a.738.738,0,0,0-.259-.053L5.8,11.915,5.757,5.656l2.758.013Z" fill="#fff"/>
      <path id="패스_3957" data-name="패스 3957" d="M19.508,17.85a.374.374,0,0,1-.372-.357L19,14.707V12.682a.375.375,0,0,1,.372-.375l4.018-.034a.376.376,0,0,1,.375.375V14.8l6.558.016a.374.374,0,0,1,.374.367l.05,2.338a.374.374,0,0,1-.375.383l-10.866-.05m7.665-4.13a.375.375,0,0,1-.375-.366L26.516,2.026a.374.374,0,0,1,.375-.384l3.124.183a.375.375,0,0,1,.352.351l.194,3.139,2.394.059a.375.375,0,0,1,.364.4l-.182,2.439a.376.376,0,0,1-.362.347l-2.13.071-.062,4.717a.374.374,0,0,1-.375.37ZM17.931,11.9a.374.374,0,0,1-.371-.36l-.332-8.359a.376.376,0,0,1,.364-.39L20,2.72l5.106.066a.376.376,0,0,1,.371.385l-.116,4.395.066,4.015a.379.379,0,0,1-.109.27.374.374,0,0,1-.266.111L17.931,11.9m4.505-3.75V5.589L21.423,5.58,21.5,8.108Z" fill="#eeb94d"/>
      <path id="패스_3958" data-name="패스 3958" d="M26.891,2.017l3.1.182.215,3.483,2.737.066-.182,2.439-2.488.083-.067,5.075H27.173ZM20.008,3.1l5.091.066-.115,4.4.066,4.03-7.116-.067L17.6,3.161,20.008,3.1m2.8,5.44V5.218L21.036,5.2l.1,3.268,1.675.066m.58,4.113V15.17l6.933.016.05,2.339-10.864-.05-.133-2.787V12.682l4.014-.034m3.5-11.381a.75.75,0,0,0-.75.768l.282,11.329a.75.75,0,0,0,.75.731h3.035a.749.749,0,0,0,.75-.74L31.015,9l1.773-.06a.748.748,0,0,0,.722-.693L33.693,5.8a.749.749,0,0,0-.73-.8l-2.049-.05-.173-2.8a.751.751,0,0,0-.7-.7l-3.1-.182h-.044M20.008,2.345h-.021l-2.4.066a.752.752,0,0,0-.729.78l.332,8.359a.749.749,0,0,0,.742.72l.818.008a.75.75,0,0,0-.118.4v2.006l.134,2.823a.751.751,0,0,0,.746.714l10.863.05h0a.75.75,0,0,0,.75-.766l-.05-2.338a.751.751,0,0,0-.748-.735l-6.185-.014V12.648a.745.745,0,0,0-.072-.32l.974.009h.007a.751.751,0,0,0,.75-.762l-.066-4.031.115-4.363a.75.75,0,0,0-.74-.77l-5.092-.066Zm1.856,5.4-.055-1.789.252,0V7.755Z" fill="#fff"/>
    </g>
  </g>
</svg>
