<svg id="구성_요소_21_1" data-name="구성 요소 21 – 1" xmlns="http://www.w3.org/2000/svg" xmlns:xlink="http://www.w3.org/1999/xlink" width="53" height="53" viewBox="0 0 53 53">
  <defs>
    <clipPath id="clip-path">
      <rect id="사각형_1003" data-name="사각형 1003" width="43" height="42" transform="translate(-0.28 0.033)" fill="none"/>
    </clipPath>
    <clipPath id="clip-path-2">
      <rect id="사각형_1011" data-name="사각형 1011" width="30.425" height="30.422" transform="translate(0 0)" fill="none"/>
    </clipPath>
  </defs>
  <g id="구성_요소_17_2" data-name="구성 요소 17 – 2">
    <g id="그룹_29" data-name="그룹 29" transform="translate(-1096 -439)">
      <g id="사각형_662" data-name="사각형 662" transform="translate(1096 439)" fill="#fff" stroke="#707070" stroke-width="1">
        <rect width="53" height="53" rx="10" stroke="none"/>
        <rect x="0.5" y="0.5" width="52" height="52" rx="9.5" fill="none"/>
      </g>
    </g>
    <g id="그룹_220" data-name="그룹 220" transform="translate(5.28 5.967)" clip-path="url(#clip-path)">
      <path id="패스_273" data-name="패스 273" d="M27.553,19.8A5.559,5.559,0,0,1,22,14.247V10.082h4.164A2.085,2.085,0,0,0,28.247,8h1.388a2.085,2.085,0,0,0,2.082,2.082h1.388v4.164A5.559,5.559,0,0,1,27.553,19.8M23.388,11.47v2.776a4.164,4.164,0,1,0,8.329,0V11.47a3.468,3.468,0,0,1-2.776-1.39,3.468,3.468,0,0,1-2.776,1.39Z" transform="translate(-6.73 -2.447)" fill="#333"/>
      <path id="패스_274" data-name="패스 274" d="M33.5,20.652,32.591,19.6l.375-.326a2.75,2.75,0,0,0,.2-3.59l-.421-.557.559-.419a2.751,2.751,0,0,0,1.126-2.218,2.785,2.785,0,0,0-2.22-2.721l-.556-.112V7.635a6.247,6.247,0,0,0-12.493,0V9.66l-.556.112a2.784,2.784,0,0,0-2.22,2.721,2.751,2.751,0,0,0,1.126,2.218l.559.419-.421.557a2.747,2.747,0,0,0,.239,3.624l.339.293-.911,1.048-.376-.327a4.161,4.161,0,0,1-1.251-2.973,4.085,4.085,0,0,1,.5-1.955A4.11,4.11,0,0,1,15,12.493a4.179,4.179,0,0,1,2.776-3.926V7.635a7.635,7.635,0,1,1,15.27,0v.932a4.18,4.18,0,0,1,2.776,3.926,4.111,4.111,0,0,1-1.192,2.9,4.077,4.077,0,0,1,.5,1.955,4.136,4.136,0,0,1-1.215,2.939Z" transform="translate(-4.589)" fill="#333"/>
      <path id="패스_275" data-name="패스 275" d="M41.931,28.591,33,24.531V21.822h1.388v1.816l6.338,2.881.425-4.682a2.865,2.865,0,0,1,1.221-2.1l.793,1.14a1.478,1.478,0,0,0-.631,1.083Z" transform="translate(-10.095 -6.039)" fill="#333"/>
      <path id="패스_276" data-name="패스 276" d="M39.388,48.511H38V30.852L43.992,33.1a2.223,2.223,0,0,0,.788.143A2.246,2.246,0,0,0,47.023,31V22.231a1.472,1.472,0,0,0-.447-1.061l.97-.993a2.846,2.846,0,0,1,.866,2.054V31A3.632,3.632,0,0,1,43.5,34.4l-4.116-1.544Z" transform="translate(-11.625 -6.173)" fill="#333"/>
      <path id="패스_277" data-name="패스 277" d="M58.247,14.717H56.031L52,13.1V6.612L56.031,5h2.216ZM56.3,13.329h.561V6.388H56.3l-2.91,1.164v4.613Z" transform="translate(-15.908 -1.53)" fill="#333"/>
      <path id="패스_278" data-name="패스 278" d="M50.941,13.941H46.082A2.085,2.085,0,0,1,44,11.859V9.082A2.085,2.085,0,0,1,46.082,7h4.859ZM46.082,8.388a.694.694,0,0,0-.694.694v2.776a.694.694,0,0,0,.694.694h3.47V8.388Z" transform="translate(-13.461 -2.141)" fill="#333"/>
      <path id="패스_279" data-name="패스 279" d="M48.082,21.941A2.085,2.085,0,0,1,46,19.859V15h4.164v4.859a2.085,2.085,0,0,1-2.082,2.082m-.694-5.553v3.47a.694.694,0,1,0,1.388,0v-3.47Z" transform="translate(-14.072 -4.589)" fill="#333"/>
      <path id="패스_280" data-name="패스 280" d="M17.411,48.151H16.023V32.495l-4.116,1.544A3.632,3.632,0,0,1,7,30.638V21.871a2.871,2.871,0,0,1,5.73-.26l.425,4.682,6.338-2.881V21.6h1.388v2.71l-8.931,4.06-.6-6.628a1.483,1.483,0,0,0-2.96.134v8.768a2.246,2.246,0,0,0,2.243,2.243,2.223,2.223,0,0,0,.788-.143l5.992-2.247Z" transform="translate(-2.141 -5.813)" fill="#333"/>
      <rect id="사각형_1000" data-name="사각형 1000" width="2" height="15" transform="translate(6.72 1.033)" fill="#333"/>
      <path id="패스_281" data-name="패스 281" d="M0,4.776,6.941,2V7.553Z" transform="translate(0 -0.612)" fill="#f9ba48"/>
      <rect id="사각형_1001" data-name="사각형 1001" width="12" height="2" transform="translate(14.72 35.033)" fill="#333"/>
      <rect id="사각형_1002" data-name="사각형 1002" width="2" height="2" transform="translate(19.72 40.033)" fill="#333"/>
      <path id="패스_282" data-name="패스 282" d="M28.719,37.589H26.443l-4.351-9.426,1.261-.582,3.978,8.62h.5l3.978-8.62,1.261.582Z" transform="translate(-6.758 -8.438)" fill="#333"/>
      <path id="패스_283" data-name="패스 283" d="M30.941,46.247H25.388A1.39,1.39,0,0,1,24,44.859v-3.47A1.39,1.39,0,0,1,25.388,40h5.553a1.39,1.39,0,0,1,1.388,1.388v3.47a1.39,1.39,0,0,1-1.388,1.388" transform="translate(-7.342 -12.237)" fill="#f9ba48"/>
      <path id="패스_284" data-name="패스 284" d="M28.47,30.164A3.474,3.474,0,0,1,25,26.694V26h1.388v.694a2.082,2.082,0,0,0,4.164,0V26h1.388v.694a3.474,3.474,0,0,1-3.47,3.47" transform="translate(-7.648 -7.954)" fill="#333"/>
    </g>
  </g>
  <g id="그룹_228" data-name="그룹 228" transform="translate(12 12.781)">
    <g id="그룹_224" data-name="그룹 224" clip-path="url(#clip-path-2)">
      <path id="패스_292" data-name="패스 292" d="M20.18,15.212,29.4,6a3.513,3.513,0,1,0-4.971-4.966l-9.215,9.212L6,1.031A3.513,3.513,0,0,0,1.03,6l9.214,9.215L1.03,24.424A3.514,3.514,0,0,0,6,29.394l9.211-9.213,9.215,9.213a3.514,3.514,0,0,0,4.969-4.97Z" fill="#f94871"/>
    </g>
  </g>
</svg>
