<svg data-name="구성 요소 16 – 1" xmlns="http://www.w3.org/2000/svg" width="53" height="53"><defs><clipPath id="a"><path data-name="사각형 1010" transform="translate(.227 .5)" fill="none" d="M0 0h43v42H0z"/></clipPath></defs><g data-name="그룹 28"><g data-name="사각형 661" fill="#fff" stroke="#707070"><rect width="53" height="53" rx="10" stroke="none"/><rect x=".5" y=".5" width="52" height="52" rx="9.5" fill="none"/></g></g><g data-name="그룹 222"><g data-name="그룹 221" clip-path="url(#a)" transform="translate(5.773 5.5)"><path data-name="패스 287" d="M34.015 27.763h-9.9v-1.388h9.9a16.1 16.1 0 0 0 6.377-1.309l1.015-.435a.392.392 0 0 0 .02-.711 16.267 16.267 0 0 0-7.238-1.709H7.63a7.763 7.763 0 0 0-1.255.1l-2.9.484v.442a17.257 17.257 0 0 0 9.948 3.134h3.24v1.388h-3.24a18.636 18.636 0 0 1-10.897-3.487l-.444-.317v-2.333l4.065-.677a9.066 9.066 0 0 1 1.483-.123h26.56a17.66 17.66 0 0 1 7.859 1.855 1.781 1.781 0 0 1-.094 3.229l-1.017.435a17.467 17.467 0 0 1-6.923 1.421" fill="#333"/><path data-name="패스 288" d="M15.489 34.01h-4.054l-.2-.2a4.142 4.142 0 0 0-.62-.5l-.711-.469 8.347-8.346.981.981-7.144 7.144h2.962l11.619-8.2.8 1.134z" fill="#333"/><path data-name="사각형 1004" fill="#333" d="M23.227 35.5h14v1h-14z"/><path data-name="패스 289" d="M12.493 42.339H4.164a4.156 4.156 0 0 1-.68-8.258 5.547 5.547 0 0 1 10.275 1.563 3.467 3.467 0 0 1-1.266 6.7" fill="#f9ba48"/><path data-name="패스 290" d="M38.174 13.882h-11.8a4.859 4.859 0 1 1 .791-9.653 6.588 6.588 0 0 1 12.351.124 4.858 4.858 0 0 1-1.34 9.528" fill="#f9ba48"/><path data-name="사각형 1005" fill="#333" d="M21.227 35.5h1v1h-1z"/><path data-name="사각형 1006" fill="#333" d="M6.227 4.5h11v2h-11z"/><path data-name="사각형 1007" fill="#333" d="M3.227 4.5h2v2h-2z"/><path data-name="사각형 1008" fill="#333" d="M3.227 8.5h11v1h-11z"/><path data-name="사각형 1009" fill="#333" d="M.227 8.5h2v1h-2z"/></g></g><g data-name="그룹 229" fill="#333"><path data-name="패스 285" d="m6.093 20.77 3.21 7.223 1.269-.564-2.34-5.271h1.442l6.049 5.377.922-1.037-6.444-5.728z"/><path data-name="패스 286" d="M33.177 27.711h-9.645l-6.941-6.941h6.754zm-9.072-1.388h4.7l-5.9-4.164h-2.963z"/></g></svg>